<?xml version="1.0" encoding="UTF-8"?>
<svg xmlns="http://www.w3.org/2000/svg" version="1.1" width="300" height="300" viewBox="0 0 300 300"><rect x="0" y="0" width="300" height="300" fill="#ffffff"/><g transform="scale(5.263)"><g transform="translate(0,0)"><path fill-rule="evenodd" d="M8 0L8 1L9 1L9 2L8 2L8 5L9 5L9 6L8 6L8 7L9 7L9 6L10 6L10 7L11 7L11 5L12 5L12 7L13 7L13 8L15 8L15 6L16 6L16 7L17 7L17 5L18 5L18 7L19 7L19 8L20 8L20 7L21 7L21 5L20 5L20 4L19 4L19 3L20 3L20 2L19 2L19 1L20 1L20 0L17 0L17 1L16 1L16 3L17 3L17 5L15 5L15 4L14 4L14 3L15 3L15 2L13 2L13 0ZM22 0L22 1L21 1L21 2L22 2L22 3L23 3L23 6L22 6L22 8L21 8L21 9L23 9L23 10L21 10L21 11L19 11L19 12L18 12L18 10L20 10L20 9L18 9L18 8L17 8L17 10L16 10L16 11L17 11L17 12L15 12L15 11L14 11L14 9L12 9L12 8L8 8L8 9L7 9L7 8L6 8L6 9L4 9L4 8L0 8L0 10L1 10L1 9L3 9L3 10L2 10L2 11L3 11L3 12L1 12L1 13L0 13L0 16L2 16L2 18L1 18L1 19L3 19L3 18L4 18L4 19L5 19L5 20L6 20L6 21L5 21L5 23L7 23L7 24L6 24L6 25L8 25L8 26L5 26L5 24L4 24L4 21L3 21L3 20L2 20L2 22L0 22L0 24L1 24L1 25L0 25L0 26L1 26L1 27L0 27L0 28L1 28L1 29L0 29L0 30L4 30L4 31L2 31L2 32L1 32L1 31L0 31L0 32L1 32L1 34L3 34L3 33L4 33L4 34L5 34L5 35L7 35L7 34L6 34L6 33L7 33L7 32L8 32L8 33L9 33L9 32L10 32L10 31L11 31L11 32L12 32L12 33L13 33L13 34L14 34L14 35L15 35L15 36L17 36L17 38L14 38L14 41L13 41L13 39L12 39L12 38L13 38L13 37L12 37L12 36L11 36L11 35L10 35L10 34L8 34L8 35L10 35L10 36L6 36L6 37L7 37L7 38L5 38L5 37L4 37L4 36L3 36L3 35L0 35L0 36L1 36L1 37L0 37L0 38L2 38L2 39L1 39L1 40L2 40L2 41L0 41L0 43L1 43L1 44L2 44L2 47L1 47L1 46L0 46L0 48L5 48L5 47L7 47L7 48L6 48L6 49L8 49L8 50L9 50L9 49L8 49L8 45L7 45L7 44L11 44L11 47L13 47L13 48L14 48L14 49L15 49L15 50L16 50L16 49L15 49L15 48L14 48L14 47L15 47L15 46L14 46L14 45L17 45L17 46L16 46L16 48L17 48L17 50L18 50L18 51L16 51L16 52L19 52L19 53L18 53L18 55L20 55L20 56L19 56L19 57L20 57L20 56L21 56L21 57L23 57L23 54L25 54L25 53L26 53L26 54L27 54L27 53L29 53L29 54L31 54L31 55L30 55L30 56L31 56L31 55L32 55L32 57L33 57L33 56L35 56L35 57L36 57L36 54L37 54L37 57L42 57L42 56L45 56L45 55L44 55L44 54L42 54L42 52L41 52L41 51L40 51L40 52L39 52L39 54L38 54L38 51L37 51L37 53L34 53L34 52L35 52L35 51L36 51L36 50L34 50L34 49L37 49L37 50L40 50L40 49L39 49L39 48L38 48L38 49L37 49L37 48L36 48L36 47L35 47L35 46L38 46L38 44L39 44L39 45L41 45L41 46L39 46L39 47L41 47L41 48L42 48L42 49L44 49L44 48L43 48L43 47L45 47L45 46L43 46L43 44L46 44L46 45L47 45L47 44L48 44L48 47L47 47L47 46L46 46L46 47L47 47L47 48L48 48L48 51L46 51L46 52L45 52L45 50L46 50L46 49L45 49L45 50L44 50L44 53L45 53L45 54L47 54L47 55L46 55L46 56L48 56L48 57L49 57L49 56L48 56L48 55L50 55L50 57L51 57L51 54L52 54L52 53L53 53L53 52L55 52L55 53L54 53L54 54L56 54L56 51L55 51L55 48L54 48L54 45L55 45L55 44L53 44L53 43L52 43L52 44L51 44L51 45L50 45L50 44L49 44L49 43L50 43L50 42L51 42L51 41L52 41L52 42L54 42L54 43L56 43L56 44L57 44L57 43L56 43L56 42L54 42L54 41L53 41L53 40L55 40L55 37L53 37L53 38L54 38L54 39L52 39L52 37L51 37L51 35L52 35L52 36L54 36L54 35L55 35L55 36L56 36L56 37L57 37L57 34L52 34L52 32L51 32L51 34L49 34L49 33L48 33L48 34L49 34L49 35L43 35L43 32L42 32L42 33L41 33L41 31L42 31L42 29L43 29L43 28L44 28L44 29L45 29L45 30L44 30L44 31L47 31L47 29L48 29L48 32L49 32L49 31L53 31L53 28L54 28L54 29L55 29L55 31L56 31L56 30L57 30L57 27L56 27L56 28L55 28L55 27L53 27L53 25L49 25L49 24L51 24L51 23L48 23L48 24L47 24L47 25L49 25L49 26L48 26L48 28L47 28L47 29L45 29L45 28L46 28L46 27L47 27L47 26L46 26L46 24L45 24L45 26L41 26L41 25L44 25L44 24L43 24L43 23L42 23L42 22L44 22L44 23L47 23L47 22L49 22L49 21L48 21L48 20L50 20L50 21L51 21L51 22L52 22L52 21L54 21L54 20L52 20L52 19L56 19L56 18L57 18L57 17L56 17L56 16L57 16L57 15L55 15L55 13L54 13L54 10L53 10L53 13L52 13L52 12L51 12L51 11L52 11L52 9L55 9L55 12L56 12L56 13L57 13L57 10L56 10L56 9L57 9L57 8L56 8L56 9L55 9L55 8L52 8L52 9L51 9L51 10L50 10L50 8L49 8L49 9L47 9L47 8L46 8L46 7L47 7L47 5L48 5L48 0L44 0L44 2L42 2L42 1L43 1L43 0L41 0L41 1L40 1L40 2L42 2L42 3L43 3L43 5L44 5L44 7L43 7L43 6L42 6L42 5L41 5L41 4L39 4L39 2L36 2L36 3L35 3L35 6L34 6L34 5L33 5L33 4L32 4L32 2L31 2L31 0L27 0L27 1L28 1L28 2L27 2L27 3L28 3L28 2L29 2L29 3L30 3L30 4L26 4L26 2L25 2L25 1L26 1L26 0ZM36 0L36 1L38 1L38 0ZM23 1L23 3L25 3L25 2L24 2L24 1ZM33 1L33 2L34 2L34 1ZM45 1L45 3L44 3L44 5L45 5L45 7L44 7L44 8L42 8L42 9L44 9L44 10L42 10L42 11L43 11L43 12L44 12L44 13L46 13L46 15L47 15L47 16L46 16L46 17L48 17L48 18L49 18L49 19L50 19L50 20L51 20L51 19L50 19L50 18L54 18L54 17L55 17L55 16L52 16L52 17L51 17L51 16L50 16L50 15L54 15L54 14L52 14L52 13L51 13L51 14L50 14L50 15L49 15L49 13L50 13L50 12L49 12L49 11L48 11L48 10L47 10L47 9L45 9L45 7L46 7L46 5L47 5L47 3L46 3L46 2L47 2L47 1ZM10 2L10 3L9 3L9 4L11 4L11 3L12 3L12 4L13 4L13 5L14 5L14 4L13 4L13 3L12 3L12 2ZM18 2L18 3L19 3L19 2ZM30 2L30 3L31 3L31 2ZM37 3L37 4L36 4L36 6L35 6L35 9L34 9L34 10L33 10L33 8L34 8L34 6L33 6L33 8L32 8L32 10L30 10L30 11L31 11L31 12L29 12L29 9L26 9L26 6L25 6L25 5L26 5L26 4L24 4L24 6L23 6L23 7L24 7L24 8L23 8L23 9L24 9L24 8L25 8L25 9L26 9L26 10L23 10L23 11L21 11L21 12L19 12L19 13L18 13L18 12L17 12L17 13L16 13L16 14L15 14L15 16L17 16L17 17L19 17L19 18L16 18L16 19L15 19L15 17L14 17L14 18L13 18L13 19L12 19L12 21L13 21L13 19L15 19L15 20L14 20L14 23L13 23L13 25L11 25L11 26L9 26L9 28L13 28L13 29L12 29L12 30L11 30L11 29L9 29L9 30L11 30L11 31L12 31L12 32L13 32L13 33L14 33L14 31L12 31L12 30L14 30L14 29L17 29L17 31L16 31L16 30L15 30L15 31L16 31L16 35L19 35L19 34L21 34L21 35L20 35L20 36L19 36L19 37L20 37L20 38L21 38L21 39L23 39L23 40L22 40L22 41L20 41L20 40L18 40L18 41L19 41L19 42L21 42L21 44L22 44L22 46L21 46L21 45L20 45L20 44L19 44L19 43L18 43L18 42L14 42L14 43L13 43L13 45L14 45L14 44L15 44L15 43L17 43L17 45L19 45L19 46L18 46L18 47L17 47L17 48L18 48L18 47L19 47L19 49L18 49L18 50L19 50L19 49L21 49L21 50L20 50L20 52L22 52L22 53L23 53L23 52L24 52L24 53L25 53L25 52L26 52L26 49L24 49L24 48L25 48L25 47L27 47L27 48L29 48L29 47L30 47L30 48L31 48L31 47L32 47L32 49L31 49L31 51L33 51L33 52L34 52L34 51L33 51L33 47L34 47L34 46L35 46L35 45L33 45L33 43L34 43L34 44L35 44L35 43L36 43L36 45L37 45L37 44L38 44L38 43L37 43L37 40L38 40L38 39L35 39L35 37L36 37L36 36L35 36L35 34L37 34L37 35L38 35L38 34L39 34L39 38L41 38L41 39L39 39L39 40L40 40L40 41L38 41L38 42L39 42L39 44L41 44L41 45L42 45L42 44L43 44L43 43L44 43L44 42L43 42L43 41L42 41L42 38L43 38L43 40L44 40L44 38L45 38L45 39L46 39L46 38L47 38L47 37L49 37L49 39L47 39L47 40L50 40L50 41L48 41L48 42L47 42L47 43L49 43L49 42L50 42L50 41L51 41L51 40L50 40L50 39L51 39L51 38L50 38L50 37L49 37L49 36L47 36L47 37L46 37L46 36L44 36L44 37L43 37L43 35L42 35L42 36L41 36L41 35L40 35L40 34L39 34L39 32L40 32L40 31L41 31L41 30L40 30L40 29L42 29L42 28L43 28L43 27L42 27L42 28L41 28L41 27L40 27L40 25L41 25L41 24L42 24L42 23L41 23L41 21L40 21L40 18L41 18L41 16L42 16L42 18L43 18L43 19L41 19L41 20L43 20L43 21L45 21L45 22L47 22L47 21L45 21L45 20L46 20L46 18L45 18L45 17L44 17L44 18L43 18L43 16L44 16L44 15L45 15L45 14L43 14L43 13L42 13L42 14L40 14L40 13L41 13L41 11L40 11L40 10L41 10L41 9L40 9L40 10L39 10L39 9L38 9L38 12L39 12L39 15L38 15L38 14L36 14L36 13L34 13L34 12L37 12L37 11L35 11L35 10L37 10L37 8L39 8L39 7L40 7L40 8L41 8L41 7L42 7L42 6L41 6L41 5L40 5L40 6L39 6L39 5L38 5L38 6L37 6L37 4L38 4L38 3ZM27 5L27 8L30 8L30 5ZM13 6L13 7L14 7L14 6ZM19 6L19 7L20 7L20 6ZM24 6L24 7L25 7L25 6ZM28 6L28 7L29 7L29 6ZM31 6L31 7L32 7L32 6ZM36 6L36 8L37 8L37 6ZM38 6L38 7L39 7L39 6ZM40 6L40 7L41 7L41 6ZM48 6L48 7L49 7L49 6ZM6 9L6 10L7 10L7 9ZM4 10L4 11L5 11L5 12L8 12L8 11L11 11L11 12L10 12L10 14L11 14L11 16L10 16L10 15L9 15L9 17L8 17L8 14L9 14L9 13L6 13L6 14L5 14L5 13L4 13L4 12L3 12L3 13L2 13L2 14L5 14L5 15L4 15L4 16L3 16L3 17L4 17L4 18L7 18L7 19L6 19L6 20L7 20L7 21L6 21L6 22L8 22L8 23L9 23L9 22L10 22L10 19L11 19L11 18L12 18L12 17L13 17L13 16L14 16L14 15L13 15L13 16L12 16L12 14L11 14L11 12L13 12L13 11L11 11L11 10L8 10L8 11L5 11L5 10ZM27 10L27 13L25 13L25 14L24 14L24 16L23 16L23 18L24 18L24 16L25 16L25 22L24 22L24 21L23 21L23 20L24 20L24 19L22 19L22 18L21 18L21 19L20 19L20 20L21 20L21 22L19 22L19 23L17 23L17 22L18 22L18 20L17 20L17 19L16 19L16 23L14 23L14 24L15 24L15 27L14 27L14 25L13 25L13 28L15 28L15 27L16 27L16 23L17 23L17 25L19 25L19 26L17 26L17 27L19 27L19 26L22 26L22 27L24 27L24 28L26 28L26 30L25 30L25 31L26 31L26 32L25 32L25 33L24 33L24 31L23 31L23 30L24 30L24 29L21 29L21 31L20 31L20 33L21 33L21 34L23 34L23 35L21 35L21 36L23 36L23 39L24 39L24 41L25 41L25 42L23 42L23 41L22 41L22 44L23 44L23 45L24 45L24 46L23 46L23 47L24 47L24 46L25 46L25 45L26 45L26 46L27 46L27 47L28 47L28 46L27 46L27 44L26 44L26 43L25 43L25 42L27 42L27 43L28 43L28 44L29 44L29 43L31 43L31 42L29 42L29 41L27 41L27 40L28 40L28 39L30 39L30 37L31 37L31 38L32 38L32 39L31 39L31 40L32 40L32 41L34 41L34 42L36 42L36 41L34 41L34 39L33 39L33 38L34 38L34 37L35 37L35 36L34 36L34 35L33 35L33 33L32 33L32 35L31 35L31 36L30 36L30 34L31 34L31 33L29 33L29 31L30 31L30 32L31 32L31 30L32 30L32 31L33 31L33 32L34 32L34 33L35 33L35 32L34 32L34 31L36 31L36 32L38 32L38 31L39 31L39 30L37 30L37 29L40 29L40 28L38 28L38 26L39 26L39 25L38 25L38 24L39 24L39 23L38 23L38 21L37 21L37 22L36 22L36 20L38 20L38 19L39 19L39 18L40 18L40 16L41 16L41 15L39 15L39 16L38 16L38 15L37 15L37 17L35 17L35 16L34 16L34 17L33 17L33 16L32 16L32 15L33 15L33 14L34 14L34 13L33 13L33 14L32 14L32 12L31 12L31 13L30 13L30 14L32 14L32 15L31 15L31 16L28 16L28 15L27 15L27 16L26 16L26 14L28 14L28 10ZM32 10L32 11L33 11L33 12L34 12L34 11L33 11L33 10ZM45 10L45 12L46 12L46 11L47 11L47 10ZM24 11L24 12L25 12L25 11ZM22 12L22 13L23 13L23 12ZM13 13L13 14L14 14L14 13ZM19 13L19 14L21 14L21 15L20 15L20 16L19 16L19 17L22 17L22 15L23 15L23 14L21 14L21 13ZM6 14L6 15L7 15L7 14ZM35 14L35 15L36 15L36 14ZM42 14L42 15L43 15L43 14ZM47 14L47 15L48 15L48 16L49 16L49 15L48 15L48 14ZM17 15L17 16L18 16L18 15ZM4 16L4 17L5 17L5 16ZM6 16L6 17L7 17L7 16ZM11 16L11 17L10 17L10 18L11 18L11 17L12 17L12 16ZM27 17L27 20L26 20L26 21L27 21L27 20L29 20L29 21L28 21L28 25L29 25L29 26L31 26L31 28L33 28L33 27L34 27L34 26L33 26L33 25L29 25L29 21L32 21L32 22L33 22L33 23L32 23L32 24L33 24L33 23L34 23L34 24L37 24L37 23L36 23L36 22L35 22L35 21L34 21L34 20L36 20L36 18L33 18L33 17L32 17L32 20L31 20L31 17L30 17L30 19L28 19L28 18L29 18L29 17ZM37 17L37 19L38 19L38 18L39 18L39 17ZM44 18L44 19L45 19L45 18ZM7 19L7 20L8 20L8 21L9 21L9 19ZM21 19L21 20L22 20L22 19ZM47 19L47 20L48 20L48 19ZM0 20L0 21L1 21L1 20ZM55 20L55 21L56 21L56 22L53 22L53 24L54 24L54 23L57 23L57 21L56 21L56 20ZM21 22L21 23L20 23L20 24L21 24L21 25L23 25L23 26L27 26L27 24L26 24L26 23L27 23L27 22L25 22L25 25L23 25L23 24L21 24L21 23L22 23L22 22ZM30 22L30 24L31 24L31 22ZM2 23L2 24L3 24L3 26L4 26L4 24L3 24L3 23ZM9 24L9 25L10 25L10 24ZM55 24L55 25L57 25L57 24ZM1 25L1 26L2 26L2 25ZM35 25L35 30L36 30L36 31L37 31L37 30L36 30L36 29L37 29L37 28L36 28L36 26L37 26L37 25ZM11 26L11 27L12 27L12 26ZM32 26L32 27L33 27L33 26ZM5 27L5 30L8 30L8 27ZM20 27L20 28L18 28L18 29L19 29L19 30L18 30L18 32L19 32L19 30L20 30L20 28L21 28L21 27ZM27 27L27 30L30 30L30 27ZM49 27L49 30L52 30L52 27ZM2 28L2 29L4 29L4 28ZM6 28L6 29L7 29L7 28ZM28 28L28 29L29 29L29 28ZM50 28L50 29L51 29L51 28ZM5 31L5 32L4 32L4 33L5 33L5 32L7 32L7 31ZM21 31L21 32L23 32L23 31ZM27 31L27 32L26 32L26 33L25 33L25 34L24 34L24 35L23 35L23 36L24 36L24 35L25 35L25 36L26 36L26 35L27 35L27 38L26 38L26 37L24 37L24 39L25 39L25 41L26 41L26 39L27 39L27 38L29 38L29 37L30 37L30 36L29 36L29 33L28 33L28 31ZM45 32L45 33L44 33L44 34L45 34L45 33L46 33L46 32ZM54 32L54 33L57 33L57 32ZM17 33L17 34L18 34L18 33ZM26 33L26 34L27 34L27 35L28 35L28 34L27 34L27 33ZM37 33L37 34L38 34L38 33ZM10 36L10 37L11 37L11 36ZM32 36L32 37L33 37L33 36ZM37 36L37 37L38 37L38 36ZM8 37L8 39L9 39L9 40L7 40L7 39L6 39L6 40L4 40L4 41L2 41L2 44L4 44L4 45L3 45L3 47L5 47L5 46L4 46L4 45L6 45L6 46L7 46L7 45L6 45L6 44L7 44L7 43L8 43L8 41L10 41L10 42L9 42L9 43L10 43L10 42L11 42L11 41L12 41L12 39L11 39L11 38L9 38L9 37ZM21 37L21 38L22 38L22 37ZM45 37L45 38L46 38L46 37ZM3 38L3 39L2 39L2 40L3 40L3 39L4 39L4 38ZM17 38L17 39L16 39L16 40L15 40L15 41L17 41L17 39L19 39L19 38ZM56 38L56 39L57 39L57 38ZM10 39L10 40L11 40L11 39ZM32 39L32 40L33 40L33 39ZM6 40L6 41L7 41L7 40ZM45 40L45 41L46 41L46 40ZM56 40L56 41L57 41L57 40ZM41 41L41 42L40 42L40 43L41 43L41 44L42 44L42 43L43 43L43 42L42 42L42 41ZM4 42L4 44L5 44L5 42ZM6 42L6 43L7 43L7 42ZM41 42L41 43L42 43L42 42ZM23 43L23 44L25 44L25 43ZM30 44L30 45L31 45L31 44ZM32 45L32 46L33 46L33 45ZM51 45L51 48L53 48L53 49L54 49L54 48L53 48L53 47L52 47L52 46L53 46L53 45ZM56 45L56 46L55 46L55 47L57 47L57 45ZM20 46L20 47L21 47L21 48L22 48L22 47L21 47L21 46ZM41 46L41 47L42 47L42 46ZM49 46L49 48L50 48L50 46ZM9 47L9 48L10 48L10 49L12 49L12 50L13 50L13 49L12 49L12 48L10 48L10 47ZM56 48L56 49L57 49L57 48ZM27 49L27 52L30 52L30 49ZM49 49L49 52L52 52L52 49ZM10 50L10 51L9 51L9 53L8 53L8 57L10 57L10 56L11 56L11 57L13 57L13 56L14 56L14 55L15 55L15 56L16 56L16 57L18 57L18 56L17 56L17 54L16 54L16 53L15 53L15 54L14 54L14 55L12 55L12 54L13 54L13 53L14 53L14 52L15 52L15 51L13 51L13 52L12 52L12 51L11 51L11 50ZM21 50L21 51L23 51L23 50ZM24 50L24 52L25 52L25 50ZM28 50L28 51L29 51L29 50ZM50 50L50 51L51 51L51 50ZM53 50L53 51L54 51L54 50ZM10 51L10 52L11 52L11 51ZM31 52L31 53L32 53L32 52ZM40 52L40 53L41 53L41 52ZM10 53L10 54L12 54L12 53ZM20 53L20 55L21 55L21 56L22 56L22 54L21 54L21 53ZM47 53L47 54L51 54L51 53ZM33 54L33 55L35 55L35 54ZM39 54L39 56L40 56L40 55L42 55L42 54ZM9 55L9 56L10 56L10 55ZM24 55L24 56L25 56L25 55ZM56 55L56 56L57 56L57 55ZM27 56L27 57L29 57L29 56ZM52 56L52 57L53 57L53 56ZM54 56L54 57L55 57L55 56ZM0 0L0 7L7 7L7 0ZM1 1L1 6L6 6L6 1ZM2 2L2 5L5 5L5 2ZM50 0L50 7L57 7L57 0ZM51 1L51 6L56 6L56 1ZM52 2L52 5L55 5L55 2ZM0 50L0 57L7 57L7 50ZM1 51L1 56L6 56L6 51ZM2 52L2 55L5 55L5 52Z" fill="#000000"/></g></g></svg>
