<?xml version="1.0" encoding="UTF-8"?>
<svg xmlns="http://www.w3.org/2000/svg" version="1.1" width="300" height="300" viewBox="0 0 300 300"><rect x="0" y="0" width="300" height="300" fill="#ffffff"/><g transform="scale(5.263)"><g transform="translate(0,0)"><path fill-rule="evenodd" d="M10 0L10 1L8 1L8 2L9 2L9 3L8 3L8 4L9 4L9 3L11 3L11 4L10 4L10 9L9 9L9 8L6 8L6 9L7 9L7 10L6 10L6 11L5 11L5 12L4 12L4 11L3 11L3 9L4 9L4 10L5 10L5 8L0 8L0 10L1 10L1 9L2 9L2 11L1 11L1 14L4 14L4 15L3 15L3 16L0 16L0 18L1 18L1 19L0 19L0 20L1 20L1 19L2 19L2 20L3 20L3 22L5 22L5 23L3 23L3 24L1 24L1 25L2 25L2 26L1 26L1 27L0 27L0 33L1 33L1 32L2 32L2 34L1 34L1 36L0 36L0 37L1 37L1 39L0 39L0 41L3 41L3 42L1 42L1 43L0 43L0 44L1 44L1 45L2 45L2 47L1 47L1 46L0 46L0 48L5 48L5 47L8 47L8 48L12 48L12 50L9 50L9 49L8 49L8 51L11 51L11 52L10 52L10 53L9 53L9 52L8 52L8 57L11 57L11 56L9 56L9 55L10 55L10 53L11 53L11 54L13 54L13 53L14 53L14 55L16 55L16 56L14 56L14 57L16 57L16 56L17 56L17 57L20 57L20 56L19 56L19 55L20 55L20 54L17 54L17 53L20 53L20 52L21 52L21 50L24 50L24 51L23 51L23 52L24 52L24 53L23 53L23 54L22 54L22 56L24 56L24 57L26 57L26 56L24 56L24 55L23 55L23 54L24 54L24 53L25 53L25 55L26 55L26 54L30 54L30 53L31 53L31 52L33 52L33 53L32 53L32 54L31 54L31 55L34 55L34 56L30 56L30 55L29 55L29 56L30 56L30 57L37 57L37 56L38 56L38 57L39 57L39 56L41 56L41 57L44 57L44 56L41 56L41 55L39 55L39 54L37 54L37 55L36 55L36 53L39 53L39 52L38 52L38 51L40 51L40 52L41 52L41 54L42 54L42 55L44 55L44 53L43 53L43 52L41 52L41 50L42 50L42 51L44 51L44 52L45 52L45 53L47 53L47 52L48 52L48 54L47 54L47 55L45 55L45 57L47 57L47 56L48 56L48 57L49 57L49 56L50 56L50 57L52 57L52 55L51 55L51 53L52 53L52 54L53 54L53 52L54 52L54 54L55 54L55 53L56 53L56 49L57 49L57 48L56 48L56 46L57 46L57 43L56 43L56 42L57 42L57 41L56 41L56 42L55 42L55 39L57 39L57 37L56 37L56 36L55 36L55 35L56 35L56 34L55 34L55 35L54 35L54 33L53 33L53 32L55 32L55 31L56 31L56 33L57 33L57 31L56 31L56 30L57 30L57 29L56 29L56 28L57 28L57 27L56 27L56 26L57 26L57 24L56 24L56 22L57 22L57 19L56 19L56 18L51 18L51 19L48 19L48 18L50 18L50 17L51 17L51 16L53 16L53 17L57 17L57 15L56 15L56 14L57 14L57 11L56 11L56 10L54 10L54 11L52 11L52 10L53 10L53 9L54 9L54 8L53 8L53 9L52 9L52 8L51 8L51 10L49 10L49 9L50 9L50 8L49 8L49 6L48 6L48 7L47 7L47 5L48 5L48 0L46 0L46 1L47 1L47 2L44 2L44 3L41 3L41 1L42 1L42 2L43 2L43 0L41 0L41 1L38 1L38 0L36 0L36 1L35 1L35 2L36 2L36 1L38 1L38 2L39 2L39 3L41 3L41 4L40 4L40 7L41 7L41 6L42 6L42 7L43 7L43 8L41 8L41 10L40 10L40 9L39 9L39 6L38 6L38 9L37 9L37 8L36 8L36 7L37 7L37 5L38 5L38 3L35 3L35 4L36 4L36 5L32 5L32 3L31 3L31 2L32 2L32 0L30 0L30 1L29 1L29 0L28 0L28 1L29 1L29 3L30 3L30 4L26 4L26 3L25 3L25 2L27 2L27 3L28 3L28 2L27 2L27 1L25 1L25 0L23 0L23 4L19 4L19 2L20 2L20 3L21 3L21 2L22 2L22 1L21 1L21 2L20 2L20 0L19 0L19 2L15 2L15 1L14 1L14 0L12 0L12 1L14 1L14 3L13 3L13 2L11 2L11 0ZM44 0L44 1L45 1L45 0ZM24 1L24 2L25 2L25 1ZM30 1L30 2L31 2L31 1ZM33 1L33 2L34 2L34 1ZM12 3L12 5L11 5L11 7L12 7L12 8L11 8L11 9L10 9L10 10L7 10L7 11L6 11L6 12L5 12L5 13L6 13L6 14L5 14L5 15L6 15L6 16L8 16L8 18L7 18L7 17L6 17L6 18L7 18L7 19L6 19L6 20L7 20L7 21L5 21L5 22L7 22L7 23L5 23L5 24L3 24L3 25L4 25L4 26L8 26L8 25L5 25L5 24L8 24L8 23L9 23L9 24L10 24L10 25L9 25L9 29L10 29L10 30L11 30L11 29L12 29L12 33L13 33L13 34L12 34L12 35L10 35L10 33L11 33L11 32L10 32L10 33L9 33L9 35L8 35L8 33L6 33L6 34L7 34L7 35L6 35L6 36L7 36L7 35L8 35L8 36L10 36L10 37L11 37L11 40L10 40L10 39L9 39L9 40L7 40L7 39L8 39L8 38L9 38L9 37L8 37L8 38L7 38L7 37L5 37L5 38L4 38L4 39L1 39L1 40L3 40L3 41L4 41L4 42L5 42L5 41L6 41L6 42L7 42L7 41L8 41L8 42L9 42L9 40L10 40L10 42L11 42L11 40L12 40L12 37L16 37L16 38L15 38L15 39L16 39L16 41L14 41L14 38L13 38L13 41L12 41L12 43L11 43L11 44L12 44L12 45L13 45L13 46L12 46L12 48L13 48L13 50L12 50L12 51L13 51L13 52L14 52L14 53L15 53L15 54L16 54L16 53L17 53L17 51L19 51L19 52L20 52L20 51L19 51L19 50L17 50L17 48L19 48L19 49L20 49L20 50L21 50L21 49L23 49L23 48L24 48L24 49L26 49L26 47L23 47L23 46L24 46L24 45L25 45L25 46L26 46L26 45L27 45L27 48L30 48L30 47L29 47L29 45L30 45L30 46L31 46L31 48L32 48L32 49L31 49L31 51L33 51L33 52L34 52L34 53L33 53L33 54L35 54L35 52L37 52L37 51L34 51L34 50L36 50L36 49L35 49L35 48L36 48L36 47L35 47L35 48L34 48L34 49L33 49L33 48L32 48L32 47L33 47L33 46L36 46L36 45L35 45L35 44L36 44L36 43L37 43L37 45L38 45L38 46L37 46L37 47L38 47L38 48L39 48L39 49L37 49L37 50L41 50L41 49L42 49L42 48L43 48L43 46L44 46L44 49L43 49L43 50L44 50L44 49L45 49L45 50L47 50L47 51L48 51L48 50L47 50L47 49L48 49L48 48L49 48L49 47L52 47L52 48L53 48L53 49L54 49L54 48L53 48L53 47L55 47L55 46L56 46L56 43L55 43L55 44L54 44L54 45L52 45L52 44L50 44L50 43L54 43L54 42L53 42L53 41L54 41L54 40L53 40L53 41L52 41L52 40L51 40L51 41L52 41L52 42L50 42L50 43L49 43L49 39L51 39L51 38L53 38L53 39L54 39L54 38L53 38L53 37L54 37L54 36L53 36L53 35L52 35L52 34L53 34L53 33L52 33L52 32L53 32L53 31L55 31L55 30L56 30L56 29L55 29L55 28L54 28L54 29L53 29L53 31L51 31L51 32L50 32L50 31L48 31L48 26L47 26L47 25L45 25L45 23L46 23L46 22L47 22L47 24L49 24L49 25L50 25L50 26L52 26L52 25L53 25L53 22L52 22L52 23L50 23L50 22L51 22L51 21L54 21L54 22L56 22L56 21L54 21L54 20L53 20L53 19L52 19L52 20L51 20L51 21L49 21L49 22L47 22L47 21L48 21L48 20L44 20L44 18L45 18L45 19L46 19L46 18L47 18L47 17L48 17L48 15L47 15L47 16L44 16L44 15L46 15L46 14L47 14L47 13L50 13L50 14L49 14L49 17L50 17L50 15L51 15L51 13L50 13L50 12L48 12L48 11L49 11L49 10L48 10L48 11L47 11L47 12L46 12L46 11L44 11L44 13L43 13L43 14L42 14L42 13L41 13L41 12L40 12L40 11L37 11L37 9L36 9L36 8L33 8L33 7L34 7L34 6L33 6L33 7L32 7L32 5L31 5L31 7L32 7L32 8L31 8L31 9L32 9L32 10L31 10L31 11L30 11L30 10L29 10L29 9L28 9L28 10L27 10L27 9L26 9L26 10L23 10L23 8L24 8L24 6L23 6L23 5L24 5L24 4L23 4L23 5L21 5L21 7L22 7L22 8L19 8L19 7L20 7L20 5L19 5L19 4L17 4L17 3L14 3L14 4L13 4L13 3ZM33 3L33 4L34 4L34 3ZM44 3L44 4L46 4L46 5L47 5L47 3ZM15 4L15 5L16 5L16 4ZM25 4L25 8L26 8L26 4ZM8 5L8 7L9 7L9 5ZM17 5L17 6L16 6L16 7L15 7L15 6L14 6L14 8L13 8L13 9L11 9L11 10L10 10L10 11L9 11L9 12L8 12L8 11L7 11L7 12L6 12L6 13L8 13L8 14L9 14L9 17L10 17L10 18L9 18L9 19L8 19L8 20L9 20L9 21L8 21L8 22L9 22L9 23L11 23L11 21L10 21L10 19L12 19L12 20L14 20L14 19L13 19L13 18L11 18L11 16L10 16L10 15L11 15L11 14L9 14L9 12L10 12L10 11L11 11L11 10L13 10L13 11L14 11L14 12L11 12L11 13L17 13L17 14L12 14L12 15L13 15L13 17L14 17L14 18L15 18L15 21L16 21L16 22L15 22L15 23L14 23L14 21L13 21L13 22L12 22L12 25L13 25L13 26L11 26L11 27L10 27L10 29L11 29L11 28L12 28L12 27L13 27L13 26L14 26L14 27L16 27L16 26L15 26L15 25L16 25L16 24L17 24L17 27L18 27L18 26L19 26L19 27L20 27L20 25L22 25L22 26L21 26L21 27L22 27L22 26L23 26L23 30L24 30L24 32L23 32L23 35L22 35L22 34L20 34L20 32L19 32L19 31L17 31L17 30L16 30L16 31L17 31L17 32L15 32L15 29L16 29L16 28L13 28L13 29L14 29L14 31L13 31L13 32L14 32L14 34L13 34L13 35L12 35L12 36L13 36L13 35L14 35L14 36L17 36L17 37L19 37L19 38L17 38L17 40L18 40L18 41L17 41L17 42L16 42L16 44L18 44L18 45L17 45L17 46L15 46L15 42L14 42L14 43L13 43L13 44L14 44L14 46L13 46L13 48L14 48L14 46L15 46L15 48L16 48L16 47L19 47L19 48L20 48L20 47L19 47L19 45L21 45L21 46L22 46L22 45L24 45L24 44L27 44L27 45L28 45L28 44L31 44L31 46L33 46L33 45L32 45L32 44L33 44L33 43L31 43L31 42L32 42L32 41L29 41L29 43L28 43L28 44L27 44L27 43L25 43L25 41L24 41L24 40L25 40L25 36L26 36L26 40L27 40L27 41L26 41L26 42L27 42L27 41L28 41L28 39L27 39L27 38L28 38L28 37L27 37L27 36L30 36L30 38L29 38L29 39L31 39L31 40L32 40L32 39L33 39L33 40L34 40L34 39L33 39L33 38L32 38L32 36L33 36L33 37L35 37L35 36L36 36L36 37L37 37L37 38L38 38L38 40L35 40L35 42L37 42L37 43L39 43L39 42L40 42L40 44L39 44L39 46L38 46L38 47L39 47L39 48L42 48L42 46L43 46L43 45L44 45L44 44L43 44L43 43L44 43L44 41L42 41L42 40L45 40L45 41L47 41L47 39L48 39L48 37L49 37L49 38L50 38L50 37L51 37L51 36L52 36L52 35L51 35L51 36L50 36L50 37L49 37L49 36L48 36L48 37L47 37L47 36L46 36L46 34L45 34L45 33L44 33L44 32L46 32L46 33L47 33L47 32L48 32L48 34L47 34L47 35L48 35L48 34L49 34L49 35L50 35L50 34L52 34L52 33L50 33L50 32L48 32L48 31L47 31L47 30L44 30L44 29L42 29L42 26L43 26L43 28L45 28L45 29L46 29L46 27L44 27L44 24L41 24L41 23L40 23L40 22L39 22L39 23L38 23L38 24L37 24L37 23L36 23L36 21L37 21L37 22L38 22L38 20L39 20L39 21L40 21L40 20L41 20L41 19L43 19L43 17L44 17L44 16L42 16L42 17L40 17L40 19L37 19L37 18L38 18L38 16L35 16L35 15L39 15L39 16L41 16L41 15L40 15L40 14L38 14L38 13L40 13L40 12L35 12L35 11L34 11L34 9L33 9L33 11L34 11L34 13L36 13L36 14L32 14L32 12L31 12L31 14L30 14L30 13L29 13L29 14L27 14L27 13L28 13L28 12L30 12L30 11L28 11L28 12L27 12L27 13L26 13L26 15L22 15L22 13L24 13L24 14L25 14L25 13L24 13L24 11L23 11L23 10L22 10L22 9L21 9L21 10L20 10L20 9L19 9L19 8L18 8L18 9L17 9L17 8L16 8L16 7L17 7L17 6L18 6L18 7L19 7L19 6L18 6L18 5ZM27 5L27 8L30 8L30 5ZM42 5L42 6L43 6L43 7L44 7L44 6L43 6L43 5ZM12 6L12 7L13 7L13 6ZM22 6L22 7L23 7L23 6ZM28 6L28 7L29 7L29 6ZM35 6L35 7L36 7L36 6ZM45 6L45 7L46 7L46 6ZM14 8L14 9L13 9L13 10L15 10L15 11L16 11L16 12L17 12L17 13L18 13L18 12L17 12L17 11L18 11L18 10L19 10L19 13L20 13L20 15L19 15L19 14L17 14L17 15L14 15L14 17L15 17L15 18L16 18L16 19L19 19L19 20L20 20L20 21L18 21L18 22L17 22L17 24L22 24L22 25L24 25L24 24L25 24L25 26L24 26L24 27L26 27L26 25L28 25L28 26L29 26L29 25L31 25L31 26L32 26L32 25L31 25L31 24L34 24L34 23L35 23L35 24L36 24L36 23L35 23L35 20L34 20L34 21L33 21L33 20L32 20L32 23L30 23L30 22L29 22L29 20L27 20L27 19L28 19L28 18L27 18L27 17L28 17L28 16L29 16L29 17L31 17L31 15L30 15L30 14L29 14L29 15L28 15L28 16L27 16L27 15L26 15L26 17L25 17L25 18L23 18L23 20L22 20L22 17L23 17L23 16L22 16L22 17L21 17L21 16L20 16L20 15L21 15L21 13L22 13L22 12L20 12L20 10L19 10L19 9L18 9L18 10L17 10L17 9L16 9L16 8ZM44 8L44 10L47 10L47 9L48 9L48 8L47 8L47 9L45 9L45 8ZM55 8L55 9L56 9L56 8ZM15 9L15 10L16 10L16 9ZM38 9L38 10L39 10L39 9ZM21 10L21 11L22 11L22 10ZM26 10L26 11L25 11L25 12L26 12L26 11L27 11L27 10ZM41 10L41 11L42 11L42 12L43 12L43 11L42 11L42 10ZM55 11L55 12L54 12L54 14L53 14L53 15L54 15L54 14L56 14L56 11ZM2 12L2 13L4 13L4 12ZM52 12L52 13L53 13L53 12ZM6 14L6 15L7 15L7 14ZM43 14L43 15L44 15L44 14ZM17 15L17 17L18 17L18 18L19 18L19 19L21 19L21 18L20 18L20 16L18 16L18 15ZM32 15L32 18L30 18L30 19L36 19L36 20L37 20L37 19L36 19L36 17L35 17L35 16L34 16L34 15ZM1 17L1 18L2 18L2 19L5 19L5 17L4 17L4 18L2 18L2 17ZM25 18L25 19L24 19L24 21L22 21L22 20L21 20L21 21L22 21L22 22L24 22L24 21L25 21L25 22L26 22L26 23L25 23L25 24L29 24L29 23L27 23L27 22L28 22L28 21L25 21L25 20L26 20L26 19L27 19L27 18ZM55 19L55 20L56 20L56 19ZM16 20L16 21L17 21L17 20ZM43 20L43 21L41 21L41 22L46 22L46 21L44 21L44 20ZM0 21L0 23L1 23L1 21ZM18 22L18 23L20 23L20 22ZM33 22L33 23L34 23L34 22ZM13 23L13 24L14 24L14 25L15 25L15 24L16 24L16 23L15 23L15 24L14 24L14 23ZM23 23L23 24L24 24L24 23ZM38 24L38 26L34 26L34 25L33 25L33 26L34 26L34 27L38 27L38 30L39 30L39 29L41 29L41 26L40 26L40 27L39 27L39 25L41 25L41 24ZM50 24L50 25L51 25L51 24ZM53 26L53 27L54 27L54 26ZM1 27L1 31L3 31L3 32L4 32L4 31L3 31L3 30L4 30L4 29L2 29L2 27ZM3 27L3 28L4 28L4 27ZM5 27L5 30L8 30L8 27ZM27 27L27 30L30 30L30 27ZM31 27L31 28L32 28L32 29L31 29L31 31L26 31L26 33L25 33L25 35L26 35L26 36L27 36L27 35L30 35L30 34L29 34L29 33L30 33L30 32L31 32L31 31L32 31L32 33L33 33L33 34L34 34L34 35L33 35L33 36L34 36L34 35L36 35L36 36L37 36L37 37L38 37L38 38L39 38L39 40L38 40L38 41L37 41L37 42L39 42L39 41L41 41L41 40L42 40L42 39L43 39L43 38L44 38L44 37L45 37L45 39L47 39L47 37L46 37L46 36L44 36L44 33L43 33L43 32L44 32L44 31L43 31L43 30L42 30L42 31L43 31L43 32L39 32L39 31L38 31L38 32L37 32L37 30L36 30L36 32L35 32L35 31L32 31L32 29L33 29L33 30L35 30L35 29L34 29L34 28L33 28L33 27ZM49 27L49 30L52 30L52 27ZM6 28L6 29L7 29L7 28ZM17 28L17 29L18 29L18 30L19 30L19 29L22 29L22 28L19 28L19 29L18 29L18 28ZM25 28L25 29L26 29L26 28ZM28 28L28 29L29 29L29 28ZM50 28L50 29L51 29L51 28ZM40 30L40 31L41 31L41 30ZM5 31L5 32L7 32L7 31ZM8 31L8 32L9 32L9 31ZM21 31L21 32L22 32L22 31ZM46 31L46 32L47 32L47 31ZM27 32L27 33L28 33L28 32ZM33 32L33 33L35 33L35 34L36 34L36 33L37 33L37 34L38 34L38 35L37 35L37 36L38 36L38 35L39 35L39 36L41 36L41 39L42 39L42 38L43 38L43 37L44 37L44 36L43 36L43 35L42 35L42 36L41 36L41 34L43 34L43 33L39 33L39 34L38 34L38 33L37 33L37 32L36 32L36 33L35 33L35 32ZM3 33L3 34L2 34L2 38L3 38L3 37L4 37L4 34L5 34L5 33ZM15 33L15 34L14 34L14 35L15 35L15 34L16 34L16 35L17 35L17 33ZM18 33L18 34L19 34L19 35L18 35L18 36L19 36L19 37L21 37L21 39L22 39L22 40L19 40L19 41L18 41L18 42L17 42L17 43L18 43L18 42L19 42L19 43L20 43L20 44L21 44L21 45L22 45L22 44L21 44L21 43L22 43L22 42L23 42L23 40L24 40L24 39L23 39L23 38L24 38L24 37L23 37L23 36L24 36L24 35L23 35L23 36L20 36L20 34L19 34L19 33ZM26 34L26 35L27 35L27 34ZM31 34L31 36L32 36L32 34ZM42 36L42 37L43 37L43 36ZM39 37L39 38L40 38L40 37ZM55 37L55 38L56 38L56 37ZM5 38L5 40L6 40L6 41L7 41L7 40L6 40L6 39L7 39L7 38ZM19 38L19 39L20 39L20 38ZM35 38L35 39L36 39L36 38ZM19 41L19 42L20 42L20 41ZM21 41L21 42L22 42L22 41ZM33 41L33 42L34 42L34 41ZM41 42L41 44L40 44L40 45L43 45L43 44L42 44L42 42ZM45 42L45 43L46 43L46 44L45 44L45 45L46 45L46 44L47 44L47 43L48 43L48 42ZM2 43L2 44L3 44L3 43ZM4 43L4 44L5 44L5 45L6 45L6 46L9 46L9 47L10 47L10 46L11 46L11 45L10 45L10 43L9 43L9 44L8 44L8 43ZM23 43L23 44L24 44L24 43ZM6 44L6 45L8 45L8 44ZM3 45L3 47L5 47L5 46L4 46L4 45ZM9 45L9 46L10 46L10 45ZM48 45L48 46L45 46L45 48L48 48L48 46L51 46L51 45ZM39 46L39 47L40 47L40 46ZM21 47L21 48L22 48L22 47ZM6 48L6 49L7 49L7 48ZM55 48L55 49L56 49L56 48ZM27 49L27 52L30 52L30 49ZM49 49L49 52L52 52L52 49ZM13 50L13 51L14 51L14 52L15 52L15 53L16 53L16 52L15 52L15 50ZM28 50L28 51L29 51L29 50ZM50 50L50 51L51 51L51 50ZM54 50L54 51L55 51L55 50ZM25 51L25 53L26 53L26 51ZM11 52L11 53L12 53L12 52ZM49 53L49 55L48 55L48 56L49 56L49 55L50 55L50 56L51 56L51 55L50 55L50 53ZM12 55L12 57L13 57L13 55ZM27 55L27 56L28 56L28 55ZM35 55L35 56L36 56L36 55ZM38 55L38 56L39 56L39 55ZM53 55L53 56L55 56L55 57L56 57L56 56L55 56L55 55ZM0 0L0 7L7 7L7 0ZM1 1L1 6L6 6L6 1ZM2 2L2 5L5 5L5 2ZM50 0L50 7L57 7L57 0ZM51 1L51 6L56 6L56 1ZM52 2L52 5L55 5L55 2ZM0 50L0 57L7 57L7 50ZM1 51L1 56L6 56L6 51ZM2 52L2 55L5 55L5 52Z" fill="#000000"/></g></g></svg>
