<?xml version="1.0" encoding="UTF-8"?>
<svg xmlns="http://www.w3.org/2000/svg" version="1.1" width="300" height="300" viewBox="0 0 300 300"><rect x="0" y="0" width="300" height="300" fill="#ffffff"/><g transform="scale(5.263)"><g transform="translate(0,0)"><path fill-rule="evenodd" d="M8 0L8 1L11 1L11 2L8 2L8 5L9 5L9 3L10 3L10 9L9 9L9 8L8 8L8 9L7 9L7 8L6 8L6 9L7 9L7 10L6 10L6 11L7 11L7 10L8 10L8 13L7 13L7 12L4 12L4 11L2 11L2 9L4 9L4 10L5 10L5 9L4 9L4 8L0 8L0 11L2 11L2 12L0 12L0 17L1 17L1 18L0 18L0 19L2 19L2 20L1 20L1 22L0 22L0 25L4 25L4 26L2 26L2 27L4 27L4 28L2 28L2 29L1 29L1 28L0 28L0 31L1 31L1 32L0 32L0 34L1 34L1 35L0 35L0 38L1 38L1 36L3 36L3 35L2 35L2 34L1 34L1 33L3 33L3 34L4 34L4 33L5 33L5 34L6 34L6 35L7 35L7 36L6 36L6 37L5 37L5 35L4 35L4 37L3 37L3 39L4 39L4 40L2 40L2 39L0 39L0 40L2 40L2 41L4 41L4 42L3 42L3 43L2 43L2 42L1 42L1 43L0 43L0 44L1 44L1 45L2 45L2 47L1 47L1 46L0 46L0 48L5 48L5 47L7 47L7 48L6 48L6 49L8 49L8 50L9 50L9 51L10 51L10 52L11 52L11 51L12 51L12 50L13 50L13 52L12 52L12 55L11 55L11 54L9 54L9 53L8 53L8 57L9 57L9 56L10 56L10 57L11 57L11 56L12 56L12 55L13 55L13 56L15 56L15 57L18 57L18 56L19 56L19 55L20 55L20 57L23 57L23 56L22 56L22 55L23 55L23 54L25 54L25 53L26 53L26 54L27 54L27 53L29 53L29 54L31 54L31 55L30 55L30 56L31 56L31 55L32 55L32 57L33 57L33 56L35 56L35 57L36 57L36 54L37 54L37 53L33 53L33 51L35 51L35 50L36 50L36 51L37 51L37 52L39 52L39 54L38 54L38 55L37 55L37 57L42 57L42 56L43 56L43 55L44 55L44 56L45 56L45 57L46 57L46 55L44 55L44 54L42 54L42 53L40 53L40 52L41 52L41 51L40 51L40 52L39 52L39 51L38 51L38 50L40 50L40 49L39 49L39 48L38 48L38 47L37 47L37 46L38 46L38 44L39 44L39 45L40 45L40 46L39 46L39 47L41 47L41 48L42 48L42 49L44 49L44 48L43 48L43 47L45 47L45 46L43 46L43 44L42 44L42 43L44 43L44 44L46 44L46 45L47 45L47 44L48 44L48 47L47 47L47 46L46 46L46 47L47 47L47 48L48 48L48 51L46 51L46 53L45 53L45 50L46 50L46 49L45 49L45 50L44 50L44 53L45 53L45 54L47 54L47 55L50 55L50 57L51 57L51 55L50 55L50 54L47 54L47 53L51 53L51 54L52 54L52 53L53 53L53 52L55 52L55 54L56 54L56 53L57 53L57 52L55 52L55 51L56 51L56 49L57 49L57 48L56 48L56 49L55 49L55 50L53 50L53 49L54 49L54 48L51 48L51 47L52 47L52 46L50 46L50 45L49 45L49 43L50 43L50 42L51 42L51 45L52 45L52 43L53 43L53 42L54 42L54 43L55 43L55 44L53 44L53 46L55 46L55 47L57 47L57 45L56 45L56 46L55 46L55 44L56 44L56 41L57 41L57 40L56 40L56 41L55 41L55 36L57 36L57 32L55 32L55 36L54 36L54 35L53 35L53 34L54 34L54 32L53 32L53 34L52 34L52 31L54 31L54 30L55 30L55 31L56 31L56 30L57 30L57 29L55 29L55 27L53 27L53 26L51 26L51 24L54 24L54 23L57 23L57 19L56 19L56 20L55 20L55 21L56 21L56 22L54 22L54 21L53 21L53 20L50 20L50 18L48 18L48 16L50 16L50 17L52 17L52 15L51 15L51 16L50 16L50 15L48 15L48 14L47 14L47 15L46 15L46 13L44 13L44 10L45 10L45 9L44 9L44 10L43 10L43 8L42 8L42 7L43 7L43 5L44 5L44 8L45 8L45 6L46 6L46 7L47 7L47 5L48 5L48 0L44 0L44 2L42 2L42 1L43 1L43 0L41 0L41 1L40 1L40 2L41 2L41 3L43 3L43 5L42 5L42 7L41 7L41 6L40 6L40 5L41 5L41 4L37 4L37 3L39 3L39 1L38 1L38 0L37 0L37 2L36 2L36 0L35 0L35 1L33 1L33 0L32 0L32 2L31 2L31 0L29 0L29 1L28 1L28 2L27 2L27 3L30 3L30 4L26 4L26 0L23 0L23 1L25 1L25 2L23 2L23 6L22 6L22 4L21 4L21 5L20 5L20 4L19 4L19 3L18 3L18 2L20 2L20 3L22 3L22 1L21 1L21 2L20 2L20 0L17 0L17 2L16 2L16 3L17 3L17 5L15 5L15 4L14 4L14 3L15 3L15 2L13 2L13 0ZM14 0L14 1L15 1L15 0ZM45 1L45 3L44 3L44 5L47 5L47 3L46 3L46 2L47 2L47 1ZM11 2L11 5L12 5L12 6L11 6L11 10L12 10L12 11L13 11L13 10L14 10L14 11L15 11L15 12L17 12L17 13L16 13L16 14L15 14L15 16L17 16L17 17L19 17L19 18L17 18L17 19L16 19L16 17L12 17L12 18L10 18L10 19L15 19L15 20L14 20L14 22L15 22L15 23L13 23L13 22L12 22L12 21L13 21L13 20L11 20L11 23L12 23L12 24L10 24L10 23L8 23L8 22L10 22L10 20L9 20L9 19L8 19L8 18L9 18L9 17L8 17L8 18L7 18L7 17L6 17L6 18L7 18L7 19L6 19L6 20L7 20L7 21L5 21L5 18L4 18L4 17L5 17L5 16L9 16L9 15L10 15L10 17L11 17L11 16L14 16L14 13L13 13L13 15L10 15L10 14L12 14L12 13L11 13L11 12L10 12L10 14L7 14L7 13L6 13L6 14L4 14L4 12L2 12L2 13L1 13L1 14L2 14L2 13L3 13L3 14L4 14L4 15L3 15L3 16L4 16L4 17L2 17L2 18L4 18L4 19L3 19L3 20L2 20L2 21L3 21L3 22L5 22L5 23L6 23L6 24L10 24L10 26L9 26L9 31L10 31L10 32L11 32L11 34L10 34L10 36L11 36L11 34L13 34L13 35L12 35L12 37L11 37L11 38L9 38L9 36L8 36L8 39L5 39L5 40L4 40L4 41L5 41L5 42L4 42L4 43L3 43L3 44L4 44L4 45L3 45L3 47L5 47L5 46L7 46L7 45L6 45L6 44L8 44L8 45L9 45L9 46L8 46L8 49L10 49L10 51L11 51L11 50L12 50L12 49L13 49L13 50L14 50L14 49L15 49L15 51L14 51L14 52L13 52L13 55L15 55L15 54L14 54L14 52L15 52L15 53L16 53L16 54L17 54L17 55L19 55L19 54L18 54L18 53L19 53L19 52L22 52L22 53L23 53L23 52L24 52L24 53L25 53L25 52L26 52L26 49L23 49L23 48L25 48L25 47L27 47L27 46L28 46L28 47L30 47L30 48L32 48L32 49L31 49L31 51L33 51L33 49L34 49L34 50L35 50L35 48L37 48L37 49L36 49L36 50L37 50L37 49L38 49L38 48L37 48L37 47L35 47L35 48L32 48L32 47L34 47L34 46L36 46L36 45L37 45L37 44L38 44L38 43L37 43L37 40L38 40L38 39L39 39L39 40L40 40L40 41L38 41L38 42L39 42L39 43L40 43L40 44L41 44L41 45L42 45L42 44L41 44L41 43L42 43L42 42L44 42L44 43L45 43L45 41L42 41L42 39L39 39L39 38L41 38L41 36L42 36L42 35L40 35L40 34L39 34L39 33L38 33L38 32L36 32L36 33L33 33L33 32L30 32L30 31L28 31L28 32L27 32L27 34L26 34L26 32L25 32L25 31L24 31L24 30L26 30L26 28L24 28L24 26L27 26L27 25L28 25L28 26L31 26L31 28L33 28L33 27L34 27L34 26L33 26L33 25L29 25L29 23L30 23L30 21L32 21L32 22L34 22L34 24L37 24L37 23L38 23L38 22L39 22L39 24L38 24L38 25L39 25L39 26L38 26L38 28L39 28L39 27L40 27L40 25L41 25L41 26L43 26L43 25L41 25L41 24L42 24L42 23L44 23L44 25L46 25L46 26L45 26L45 27L46 27L46 28L45 28L45 29L44 29L44 28L43 28L43 27L42 27L42 28L40 28L40 29L37 29L37 28L36 28L36 26L37 26L37 25L35 25L35 29L36 29L36 31L37 31L37 30L39 30L39 32L40 32L40 31L41 31L41 33L42 33L42 32L43 32L43 35L45 35L45 36L44 36L44 37L42 37L42 38L43 38L43 39L44 39L44 38L45 38L45 40L46 40L46 41L47 41L47 42L46 42L46 43L49 43L49 42L50 42L50 41L52 41L52 40L50 40L50 39L54 39L54 38L53 38L53 37L54 37L54 36L52 36L52 35L49 35L49 36L48 36L48 33L51 33L51 32L50 32L50 31L49 31L49 32L48 32L48 29L47 29L47 28L48 28L48 26L49 26L49 25L50 25L50 24L51 24L51 23L52 23L52 21L50 21L50 20L49 20L49 19L48 19L48 18L47 18L47 20L48 20L48 21L49 21L49 25L47 25L47 23L48 23L48 22L47 22L47 21L45 21L45 20L46 20L46 18L45 18L45 17L44 17L44 18L43 18L43 16L44 16L44 15L45 15L45 14L44 14L44 13L42 13L42 14L41 14L41 16L40 16L40 18L39 18L39 17L37 17L37 15L38 15L38 16L39 16L39 15L38 15L38 14L36 14L36 13L34 13L34 12L37 12L37 11L35 11L35 10L37 10L37 8L39 8L39 7L40 7L40 8L41 8L41 7L40 7L40 6L39 6L39 5L38 5L38 6L37 6L37 4L36 4L36 6L35 6L35 3L36 3L36 2L34 2L34 3L33 3L33 2L32 2L32 4L33 4L33 5L34 5L34 6L33 6L33 8L32 8L32 10L30 10L30 11L32 11L32 14L30 14L30 13L31 13L31 12L29 12L29 9L28 9L28 10L27 10L27 9L26 9L26 6L25 6L25 5L26 5L26 4L24 4L24 6L23 6L23 7L22 7L22 6L21 6L21 7L20 7L20 6L19 6L19 7L20 7L20 10L23 10L23 9L24 9L24 8L25 8L25 9L26 9L26 10L25 10L25 13L22 13L22 12L24 12L24 11L19 11L19 10L18 10L18 9L19 9L19 8L18 8L18 9L17 9L17 7L18 7L18 6L17 6L17 7L16 7L16 6L15 6L15 5L14 5L14 4L13 4L13 2ZM30 2L30 3L31 3L31 2ZM27 5L27 8L30 8L30 5ZM8 6L8 7L9 7L9 6ZM12 6L12 7L13 7L13 8L15 8L15 11L16 11L16 8L15 8L15 6L14 6L14 7L13 7L13 6ZM24 6L24 7L23 7L23 8L22 8L22 7L21 7L21 9L23 9L23 8L24 8L24 7L25 7L25 6ZM28 6L28 7L29 7L29 6ZM31 6L31 7L32 7L32 6ZM34 6L34 8L33 8L33 10L32 10L32 11L33 11L33 12L34 12L34 11L33 11L33 10L34 10L34 9L35 9L35 6ZM36 6L36 8L37 8L37 6ZM38 6L38 7L39 7L39 6ZM48 6L48 7L49 7L49 6ZM49 8L49 9L47 9L47 10L46 10L46 11L45 11L45 12L46 12L46 11L47 11L47 10L48 10L48 11L49 11L49 10L50 10L50 12L49 12L49 14L51 14L51 13L52 13L52 14L53 14L53 17L54 17L54 18L52 18L52 19L55 19L55 17L56 17L56 18L57 18L57 17L56 17L56 16L57 16L57 15L54 15L54 10L53 10L53 9L55 9L55 8L52 8L52 10L50 10L50 8ZM56 8L56 9L57 9L57 8ZM38 9L38 12L39 12L39 13L41 13L41 11L40 11L40 10L41 10L41 9L40 9L40 10L39 10L39 9ZM9 10L9 11L10 11L10 10ZM17 10L17 12L18 12L18 13L19 13L19 14L21 14L21 13L19 13L19 12L18 12L18 10ZM42 10L42 11L43 11L43 10ZM52 10L52 11L51 11L51 12L50 12L50 13L51 13L51 12L52 12L52 13L53 13L53 10ZM55 10L55 13L57 13L57 12L56 12L56 11L57 11L57 10ZM27 11L27 13L26 13L26 15L24 15L24 14L23 14L23 15L20 15L20 17L22 17L22 18L24 18L24 17L25 17L25 16L26 16L26 17L29 17L29 18L28 18L28 19L30 19L30 20L32 20L32 19L30 19L30 17L31 17L31 16L32 16L32 17L33 17L33 21L35 21L35 22L36 22L36 23L37 23L37 22L38 22L38 21L39 21L39 20L38 20L38 19L36 19L36 18L35 18L35 16L34 16L34 15L33 15L33 14L34 14L34 13L33 13L33 14L32 14L32 15L31 15L31 16L28 16L28 15L27 15L27 14L28 14L28 11ZM39 11L39 12L40 12L40 11ZM6 14L6 15L7 15L7 14ZM17 14L17 16L19 16L19 15L18 15L18 14ZM35 14L35 15L36 15L36 14ZM42 14L42 15L44 15L44 14ZM1 15L1 16L2 16L2 15ZM26 15L26 16L27 16L27 15ZM47 15L47 16L46 16L46 17L47 17L47 16L48 16L48 15ZM22 16L22 17L23 17L23 16ZM33 16L33 17L34 17L34 16ZM41 16L41 18L40 18L40 21L41 21L41 22L44 22L44 23L47 23L47 22L45 22L45 21L43 21L43 18L42 18L42 16ZM54 16L54 17L55 17L55 16ZM25 18L25 22L24 22L24 21L23 21L23 20L24 20L24 19L22 19L22 20L21 20L21 19L19 19L19 20L21 20L21 22L19 22L19 24L17 24L17 27L15 27L15 28L17 28L17 27L19 27L19 28L18 28L18 29L19 29L19 30L17 30L17 29L15 29L15 30L14 30L14 32L13 32L13 33L15 33L15 32L16 32L16 31L17 31L17 32L18 32L18 31L19 31L19 30L20 30L20 27L19 27L19 26L18 26L18 25L20 25L20 26L22 26L22 27L23 27L23 25L25 25L25 22L28 22L28 23L26 23L26 24L28 24L28 23L29 23L29 20L27 20L27 18ZM34 18L34 20L36 20L36 22L37 22L37 21L38 21L38 20L36 20L36 19L35 19L35 18ZM44 18L44 19L45 19L45 18ZM7 19L7 20L8 20L8 21L7 21L7 22L6 22L6 23L7 23L7 22L8 22L8 21L9 21L9 20L8 20L8 19ZM16 20L16 23L15 23L15 24L16 24L16 23L17 23L17 22L18 22L18 20ZM26 20L26 21L27 21L27 20ZM41 20L41 21L42 21L42 20ZM22 21L22 23L23 23L23 21ZM1 22L1 23L2 23L2 22ZM20 23L20 24L21 24L21 25L23 25L23 24L21 24L21 23ZM32 23L32 24L33 24L33 23ZM13 24L13 25L14 25L14 26L11 26L11 27L12 27L12 29L10 29L10 30L11 30L11 32L12 32L12 29L14 29L14 26L16 26L16 25L14 25L14 24ZM55 24L55 25L57 25L57 24ZM6 25L6 26L8 26L8 25ZM0 26L0 27L1 27L1 26ZM32 26L32 27L33 27L33 26ZM46 26L46 27L47 27L47 26ZM5 27L5 30L8 30L8 27ZM27 27L27 30L30 30L30 27ZM49 27L49 30L52 30L52 27ZM56 27L56 28L57 28L57 27ZM6 28L6 29L7 29L7 28ZM28 28L28 29L29 29L29 28ZM42 28L42 29L40 29L40 30L41 30L41 31L42 31L42 29L43 29L43 28ZM50 28L50 29L51 29L51 28ZM53 28L53 29L54 29L54 28ZM21 29L21 30L24 30L24 29ZM32 29L32 30L31 30L31 31L32 31L32 30L33 30L33 29ZM45 29L45 30L43 30L43 31L47 31L47 29ZM15 30L15 31L16 31L16 30ZM2 31L2 32L3 32L3 33L4 33L4 31ZM5 31L5 32L7 32L7 33L6 33L6 34L7 34L7 35L8 35L8 34L7 34L7 33L8 33L8 31ZM20 31L20 33L19 33L19 35L17 35L17 34L18 34L18 33L17 33L17 34L16 34L16 36L17 36L17 38L15 38L15 37L13 37L13 38L12 38L12 39L10 39L10 41L11 41L11 40L13 40L13 38L14 38L14 41L12 41L12 42L11 42L11 43L10 43L10 44L11 44L11 43L12 43L12 42L14 42L14 45L17 45L17 46L16 46L16 49L20 49L20 51L21 51L21 48L23 48L23 47L24 47L24 46L25 46L25 45L26 45L26 46L27 46L27 44L26 44L26 43L25 43L25 42L29 42L29 43L28 43L28 45L29 45L29 44L30 44L30 46L32 46L32 45L31 45L31 44L32 44L32 43L31 43L31 42L29 42L29 40L28 40L28 39L30 39L30 37L31 37L31 38L32 38L32 39L31 39L31 40L32 40L32 41L34 41L34 42L36 42L36 41L34 41L34 39L38 39L38 38L39 38L39 37L37 37L37 35L39 35L39 34L38 34L38 33L37 33L37 34L36 34L36 35L35 35L35 36L36 36L36 37L35 37L35 38L34 38L34 37L32 37L32 36L33 36L33 35L34 35L34 34L33 34L33 33L32 33L32 34L31 34L31 33L29 33L29 32L28 32L28 33L29 33L29 36L30 36L30 37L29 37L29 38L27 38L27 35L28 35L28 34L27 34L27 35L26 35L26 36L25 36L25 35L24 35L24 34L25 34L25 33L24 33L24 32L23 32L23 31L22 31L22 32L21 32L21 31ZM45 32L45 33L44 33L44 34L45 34L45 33L46 33L46 32ZM20 33L20 34L21 34L21 36L19 36L19 37L20 37L20 38L21 38L21 40L22 40L22 41L23 41L23 42L25 42L25 41L26 41L26 39L27 39L27 38L26 38L26 37L24 37L24 39L23 39L23 36L24 36L24 35L22 35L22 34L21 34L21 33ZM14 34L14 35L15 35L15 34ZM30 34L30 36L31 36L31 34ZM45 36L45 38L46 38L46 40L47 40L47 41L48 41L48 42L49 42L49 41L50 41L50 40L49 40L49 41L48 41L48 40L47 40L47 39L48 39L48 38L49 38L49 37L50 37L50 36L49 36L49 37L47 37L47 38L46 38L46 36ZM51 36L51 38L52 38L52 36ZM4 37L4 38L5 38L5 37ZM6 37L6 38L7 38L7 37ZM21 37L21 38L22 38L22 37ZM17 38L17 39L16 39L16 40L15 40L15 41L14 41L14 42L15 42L15 44L16 44L16 43L17 43L17 45L19 45L19 46L18 46L18 47L17 47L17 48L21 48L21 47L20 47L20 46L21 46L21 45L20 45L20 44L22 44L22 47L23 47L23 44L24 44L24 43L23 43L23 44L22 44L22 42L21 42L21 41L20 41L20 40L17 40L17 39L19 39L19 38ZM56 38L56 39L57 39L57 38ZM8 39L8 41L7 41L7 40L5 40L5 41L7 41L7 42L5 42L5 43L4 43L4 44L6 44L6 43L8 43L8 42L9 42L9 39ZM24 39L24 41L25 41L25 39ZM32 39L32 40L33 40L33 39ZM16 40L16 41L15 41L15 42L18 42L18 43L19 43L19 41L17 41L17 40ZM27 40L27 41L28 41L28 40ZM41 41L41 42L40 42L40 43L41 43L41 42L42 42L42 41ZM54 41L54 42L55 42L55 41ZM20 42L20 43L21 43L21 42ZM1 43L1 44L2 44L2 43ZM33 43L33 45L36 45L36 43L35 43L35 44L34 44L34 43ZM4 45L4 46L5 46L5 45ZM10 45L10 46L9 46L9 47L10 47L10 48L12 48L12 47L15 47L15 46L13 46L13 45ZM10 46L10 47L12 47L12 46ZM41 46L41 47L42 47L42 46ZM49 46L49 48L50 48L50 46ZM27 49L27 52L30 52L30 49ZM49 49L49 52L52 52L52 49ZM16 50L16 51L17 51L17 52L19 52L19 50L18 50L18 51L17 51L17 50ZM22 50L22 51L23 51L23 50ZM24 50L24 52L25 52L25 50ZM28 50L28 51L29 51L29 50ZM50 50L50 51L51 51L51 50ZM42 51L42 52L43 52L43 51ZM31 52L31 53L32 53L32 52ZM20 53L20 55L21 55L21 53ZM34 54L34 55L35 55L35 54ZM39 54L39 56L40 56L40 55L42 55L42 54ZM53 54L53 55L54 55L54 54ZM10 55L10 56L11 56L11 55ZM24 55L24 56L25 56L25 55ZM56 55L56 56L57 56L57 55ZM27 56L27 57L29 57L29 56ZM47 56L47 57L49 57L49 56ZM52 56L52 57L55 57L55 56ZM0 0L0 7L7 7L7 0ZM1 1L1 6L6 6L6 1ZM2 2L2 5L5 5L5 2ZM50 0L50 7L57 7L57 0ZM51 1L51 6L56 6L56 1ZM52 2L52 5L55 5L55 2ZM0 50L0 57L7 57L7 50ZM1 51L1 56L6 56L6 51ZM2 52L2 55L5 55L5 52Z" fill="#000000"/></g></g></svg>
