<?xml version="1.0" encoding="UTF-8"?>
<svg xmlns="http://www.w3.org/2000/svg" version="1.1" width="300" height="300" viewBox="0 0 300 300"><rect x="0" y="0" width="300" height="300" fill="#ffffff"/><g transform="scale(5.263)"><g transform="translate(0,0)"><path fill-rule="evenodd" d="M10 0L10 1L8 1L8 3L10 3L10 4L8 4L8 8L6 8L6 9L4 9L4 8L3 8L3 9L2 9L2 8L0 8L0 9L1 9L1 10L3 10L3 11L4 11L4 10L6 10L6 11L5 11L5 12L6 12L6 13L7 13L7 14L5 14L5 15L3 15L3 14L4 14L4 13L3 13L3 12L2 12L2 11L1 11L1 12L2 12L2 13L1 13L1 14L0 14L0 15L1 15L1 14L2 14L2 15L3 15L3 16L4 16L4 18L3 18L3 19L2 19L2 21L3 21L3 20L5 20L5 21L4 21L4 23L5 23L5 22L6 22L6 23L8 23L8 22L9 22L9 23L10 23L10 22L11 22L11 21L13 21L13 20L14 20L14 19L16 19L16 27L17 27L17 29L18 29L18 28L19 28L19 27L20 27L20 26L19 26L19 27L17 27L17 25L20 25L20 24L21 24L21 22L22 22L22 23L23 23L23 24L22 24L22 25L25 25L25 23L26 23L26 22L27 22L27 23L28 23L28 21L32 21L32 20L34 20L34 19L32 19L32 18L31 18L31 20L30 20L30 17L29 17L29 16L31 16L31 15L33 15L33 16L32 16L32 17L33 17L33 16L35 16L35 17L36 17L36 18L35 18L35 19L36 19L36 22L35 22L35 23L34 23L34 24L35 24L35 25L37 25L37 26L38 26L38 25L39 25L39 26L40 26L40 27L41 27L41 26L40 26L40 25L43 25L43 27L42 27L42 28L41 28L41 31L42 31L42 28L43 28L43 27L44 27L44 30L45 30L45 28L46 28L46 27L47 27L47 28L48 28L48 32L47 32L47 31L44 31L44 32L43 32L43 36L42 36L42 35L41 35L41 33L42 33L42 32L40 32L40 30L39 30L39 29L40 29L40 28L38 28L38 30L37 30L37 31L38 31L38 32L39 32L39 34L37 34L37 32L36 32L36 31L33 31L33 30L32 30L32 29L35 29L35 30L36 30L36 29L37 29L37 27L36 27L36 26L34 26L34 27L33 27L33 25L32 25L32 24L33 24L33 22L32 22L32 23L31 23L31 22L30 22L30 23L31 23L31 25L32 25L32 26L30 26L30 24L26 24L26 28L25 28L25 26L22 26L22 27L24 27L24 29L23 29L23 30L21 30L21 29L19 29L19 30L17 30L17 31L16 31L16 30L14 30L14 28L15 28L15 26L14 26L14 25L15 25L15 24L14 24L14 25L13 25L13 26L11 26L11 24L13 24L13 23L14 23L14 22L12 22L12 23L11 23L11 24L10 24L10 25L7 25L7 24L5 24L5 25L7 25L7 26L3 26L3 25L2 25L2 24L1 24L1 25L0 25L0 26L1 26L1 27L0 27L0 28L2 28L2 27L4 27L4 29L3 29L3 30L2 30L2 29L1 29L1 30L0 30L0 31L3 31L3 30L4 30L4 32L6 32L6 33L5 33L5 35L8 35L8 37L7 37L7 36L5 36L5 37L4 37L4 36L3 36L3 37L4 37L4 38L3 38L3 40L2 40L2 41L1 41L1 42L0 42L0 44L1 44L1 45L0 45L0 48L5 48L5 47L7 47L7 48L6 48L6 49L7 49L7 48L8 48L8 47L7 47L7 46L5 46L5 45L7 45L7 44L8 44L8 43L9 43L9 44L10 44L10 43L11 43L11 44L12 44L12 43L14 43L14 44L13 44L13 45L12 45L12 47L13 47L13 48L14 48L14 49L16 49L16 50L17 50L17 51L15 51L15 52L12 52L12 51L14 51L14 50L13 50L13 49L11 49L11 52L10 52L10 50L9 50L9 49L10 49L10 48L11 48L11 47L9 47L9 49L8 49L8 51L9 51L9 52L10 52L10 53L8 53L8 54L9 54L9 55L8 55L8 57L9 57L9 55L10 55L10 53L13 53L13 54L12 54L12 56L10 56L10 57L13 57L13 54L14 54L14 53L15 53L15 52L17 52L17 53L16 53L16 54L17 54L17 56L14 56L14 57L17 57L17 56L18 56L18 57L20 57L20 56L18 56L18 54L19 54L19 55L21 55L21 53L22 53L22 52L21 52L21 51L19 51L19 52L17 52L17 51L18 51L18 50L17 50L17 49L19 49L19 50L20 50L20 49L19 49L19 47L20 47L20 48L21 48L21 50L22 50L22 51L23 51L23 50L24 50L24 51L25 51L25 52L24 52L24 53L23 53L23 54L25 54L25 55L24 55L24 56L23 56L23 55L22 55L22 56L21 56L21 57L26 57L26 56L27 56L27 57L33 57L33 56L31 56L31 55L32 55L32 53L34 53L34 52L35 52L35 54L34 54L34 55L35 55L35 56L36 56L36 57L37 57L37 56L38 56L38 57L41 57L41 56L42 56L42 57L44 57L44 56L46 56L46 55L47 55L47 57L48 57L48 56L50 56L50 57L51 57L51 56L52 56L52 57L53 57L53 56L54 56L54 54L53 54L53 49L55 49L55 48L54 48L54 47L53 47L53 46L52 46L52 43L53 43L53 42L54 42L54 43L55 43L55 45L54 45L54 46L56 46L56 48L57 48L57 45L56 45L56 44L57 44L57 40L56 40L56 39L57 39L57 36L54 36L54 35L53 35L53 34L52 34L52 32L53 32L53 33L54 33L54 34L55 34L55 33L54 33L54 32L53 32L53 31L56 31L56 35L57 35L57 30L56 30L56 29L57 29L57 28L56 28L56 29L55 29L55 30L54 30L54 28L53 28L53 27L55 27L55 26L57 26L57 25L56 25L56 24L57 24L57 21L55 21L55 20L53 20L53 19L57 19L57 18L56 18L56 17L55 17L55 16L53 16L53 17L52 17L52 16L48 16L48 15L49 15L49 14L50 14L50 13L49 13L49 14L48 14L48 15L46 15L46 14L47 14L47 11L48 11L48 10L45 10L45 11L43 11L43 10L42 10L42 11L41 11L41 10L40 10L40 9L41 9L41 8L42 8L42 7L43 7L43 6L42 6L42 5L43 5L43 3L42 3L42 4L38 4L38 3L39 3L39 2L40 2L40 1L41 1L41 2L42 2L42 1L43 1L43 0L36 0L36 2L33 2L33 1L35 1L35 0L32 0L32 2L33 2L33 3L36 3L36 2L37 2L37 1L38 1L38 3L37 3L37 4L36 4L36 5L34 5L34 4L32 4L32 5L31 5L31 4L30 4L30 3L31 3L31 0L28 0L28 1L30 1L30 3L29 3L29 2L27 2L27 0L23 0L23 1L22 1L22 2L23 2L23 3L25 3L25 1L26 1L26 2L27 2L27 3L29 3L29 4L24 4L24 5L23 5L23 4L22 4L22 5L21 5L21 6L20 6L20 5L17 5L17 6L16 6L16 7L15 7L15 4L13 4L13 3L12 3L12 2L13 2L13 1L12 1L12 2L11 2L11 3L10 3L10 1L11 1L11 0ZM15 0L15 1L14 1L14 3L15 3L15 2L16 2L16 1L17 1L17 2L18 2L18 3L19 3L19 4L20 4L20 2L21 2L21 0L18 0L18 1L17 1L17 0ZM45 0L45 2L44 2L44 3L45 3L45 2L46 2L46 3L47 3L47 5L46 5L46 4L45 4L45 6L44 6L44 7L45 7L45 6L46 6L46 7L47 7L47 8L45 8L45 9L49 9L49 6L48 6L48 7L47 7L47 5L48 5L48 0ZM46 1L46 2L47 2L47 1ZM11 4L11 5L9 5L9 8L8 8L8 9L6 9L6 10L7 10L7 11L6 11L6 12L8 12L8 14L7 14L7 15L6 15L6 16L5 16L5 17L6 17L6 18L7 18L7 19L5 19L5 20L7 20L7 19L9 19L9 18L10 18L10 20L8 20L8 21L6 21L6 22L8 22L8 21L9 21L9 22L10 22L10 21L11 21L11 20L12 20L12 18L13 18L13 19L14 19L14 15L11 15L11 18L10 18L10 16L8 16L8 15L9 15L9 13L10 13L10 14L12 14L12 13L11 13L11 12L12 12L12 10L13 10L13 11L14 11L14 13L13 13L13 14L15 14L15 16L17 16L17 15L18 15L18 14L19 14L19 13L20 13L20 15L21 15L21 16L22 16L22 17L21 17L21 18L20 18L20 16L19 16L19 17L15 17L15 18L17 18L17 24L18 24L18 23L20 23L20 22L21 22L21 18L22 18L22 17L23 17L23 20L25 20L25 22L24 22L24 21L22 21L22 22L23 22L23 23L25 23L25 22L26 22L26 21L27 21L27 19L26 19L26 20L25 20L25 18L27 18L27 17L26 17L26 16L27 16L27 15L28 15L28 16L29 16L29 14L30 14L30 13L31 13L31 14L32 14L32 13L31 13L31 12L32 12L32 11L31 11L31 10L33 10L33 12L34 12L34 13L33 13L33 15L35 15L35 14L34 14L34 13L35 13L35 12L37 12L37 11L39 11L39 12L38 12L38 14L40 14L40 13L39 13L39 12L40 12L40 10L39 10L39 9L38 9L38 6L37 6L37 5L38 5L38 4L37 4L37 5L36 5L36 6L35 6L35 7L34 7L34 5L32 5L32 6L31 6L31 7L32 7L32 8L31 8L31 9L29 9L29 11L31 11L31 12L29 12L29 14L28 14L28 10L27 10L27 9L25 9L25 8L26 8L26 6L25 6L25 5L24 5L24 6L23 6L23 7L22 7L22 6L21 6L21 7L22 7L22 8L23 8L23 9L22 9L22 10L26 10L26 11L25 11L25 13L24 13L24 11L23 11L23 12L22 12L22 13L23 13L23 14L24 14L24 15L23 15L23 16L22 16L22 15L21 15L21 13L20 13L20 11L18 11L18 10L17 10L17 9L18 9L18 8L19 8L19 10L21 10L21 8L19 8L19 7L20 7L20 6L19 6L19 7L18 7L18 6L17 6L17 8L16 8L16 11L15 11L15 7L14 7L14 5L13 5L13 4ZM12 5L12 7L11 7L11 6L10 6L10 8L9 8L9 9L10 9L10 8L12 8L12 9L11 9L11 10L8 10L8 12L11 12L11 10L12 10L12 9L13 9L13 10L14 10L14 8L13 8L13 5ZM27 5L27 8L30 8L30 5ZM39 5L39 8L40 8L40 5ZM24 6L24 7L23 7L23 8L24 8L24 7L25 7L25 6ZM28 6L28 7L29 7L29 6ZM32 6L32 7L33 7L33 10L34 10L34 9L35 9L35 10L37 10L37 6L36 6L36 8L34 8L34 7L33 7L33 6ZM41 6L41 7L42 7L42 6ZM43 8L43 9L44 9L44 8ZM50 8L50 9L52 9L52 10L54 10L54 11L51 11L51 10L50 10L50 11L51 11L51 12L52 12L52 13L51 13L51 14L52 14L52 13L54 13L54 15L56 15L56 16L57 16L57 15L56 15L56 14L57 14L57 10L56 10L56 8L54 8L54 9L53 9L53 8ZM55 10L55 11L54 11L54 13L55 13L55 14L56 14L56 12L55 12L55 11L56 11L56 10ZM16 11L16 12L18 12L18 13L19 13L19 12L18 12L18 11ZM26 11L26 13L25 13L25 15L24 15L24 16L23 16L23 17L24 17L24 16L25 16L25 15L26 15L26 13L27 13L27 11ZM34 11L34 12L35 12L35 11ZM45 11L45 12L46 12L46 11ZM2 13L2 14L3 14L3 13ZM16 13L16 14L17 14L17 13ZM42 13L42 15L44 15L44 14L46 14L46 13L44 13L44 14L43 14L43 13ZM36 14L36 15L37 15L37 14ZM38 15L38 17L37 17L37 18L38 18L38 17L39 17L39 18L40 18L40 20L39 20L39 21L38 21L38 20L37 20L37 22L36 22L36 23L35 23L35 24L37 24L37 23L38 23L38 24L39 24L39 23L41 23L41 24L42 24L42 23L43 23L43 22L44 22L44 21L45 21L45 20L46 20L46 22L49 22L49 20L48 20L48 19L47 19L47 17L48 17L48 18L49 18L49 19L50 19L50 17L48 17L48 16L46 16L46 17L45 17L45 18L43 18L43 17L44 17L44 16L43 16L43 17L42 17L42 16L40 16L40 17L39 17L39 15ZM6 16L6 17L7 17L7 18L8 18L8 17L7 17L7 16ZM40 17L40 18L41 18L41 19L43 19L43 18L42 18L42 17ZM51 17L51 18L52 18L52 19L53 19L53 18L54 18L54 17L53 17L53 18L52 18L52 17ZM28 18L28 20L29 20L29 18ZM45 18L45 19L44 19L44 20L40 20L40 21L44 21L44 20L45 20L45 19L46 19L46 20L47 20L47 19L46 19L46 18ZM0 20L0 22L1 22L1 23L2 23L2 22L1 22L1 20ZM18 20L18 22L20 22L20 20ZM50 21L50 23L49 23L49 25L47 25L47 26L49 26L49 25L50 25L50 26L51 26L51 24L53 24L53 23L54 23L54 24L56 24L56 22L54 22L54 21ZM47 23L47 24L48 24L48 23ZM50 23L50 24L51 24L51 23ZM27 25L27 26L29 26L29 25ZM44 25L44 27L46 27L46 25ZM52 25L52 26L55 26L55 25ZM5 27L5 30L8 30L8 27ZM10 27L10 28L9 28L9 29L11 29L11 28L12 28L12 29L13 29L13 28L12 28L12 27ZM27 27L27 30L30 30L30 27ZM32 27L32 28L31 28L31 29L32 29L32 28L33 28L33 27ZM35 27L35 28L36 28L36 27ZM49 27L49 30L52 30L52 27ZM6 28L6 29L7 29L7 28ZM28 28L28 29L29 29L29 28ZM50 28L50 29L51 29L51 28ZM24 29L24 30L23 30L23 31L22 31L22 32L23 32L23 33L18 33L18 32L16 32L16 31L15 31L15 32L14 32L14 31L12 31L12 30L11 30L11 31L9 31L9 33L8 33L8 31L6 31L6 32L7 32L7 33L6 33L6 34L7 34L7 33L8 33L8 34L9 34L9 35L11 35L11 39L10 39L10 40L11 40L11 39L12 39L12 40L15 40L15 43L16 43L16 44L19 44L19 43L18 43L18 41L17 41L17 39L16 39L16 40L15 40L15 39L13 39L13 38L14 38L14 36L13 36L13 38L12 38L12 35L14 35L14 33L15 33L15 32L16 32L16 34L17 34L17 33L18 33L18 34L19 34L19 37L20 37L20 35L22 35L22 34L24 34L24 35L23 35L23 36L26 36L26 37L24 37L24 38L23 38L23 39L24 39L24 40L22 40L22 41L21 41L21 42L20 42L20 38L19 38L19 42L20 42L20 44L21 44L21 42L22 42L22 48L23 48L23 47L24 47L24 50L26 50L26 48L29 48L29 42L30 42L30 41L31 41L31 43L32 43L32 41L31 41L31 40L33 40L33 39L34 39L34 42L35 42L35 45L33 45L33 44L34 44L34 43L33 43L33 44L31 44L31 46L32 46L32 47L30 47L30 48L33 48L33 50L32 50L32 49L31 49L31 50L32 50L32 51L31 51L31 52L32 52L32 51L33 51L33 52L34 52L34 48L33 48L33 47L34 47L34 46L35 46L35 47L36 47L36 48L37 48L37 49L38 49L38 50L39 50L39 52L40 52L40 53L39 53L39 54L38 54L38 53L37 53L37 54L36 54L36 56L37 56L37 55L38 55L38 56L39 56L39 54L41 54L41 53L42 53L42 54L44 54L44 53L43 53L43 52L40 52L40 51L41 51L41 50L44 50L44 49L42 49L42 48L41 48L41 50L40 50L40 49L39 49L39 47L40 47L40 46L39 46L39 42L38 42L38 43L37 43L37 41L38 41L38 40L37 40L37 41L36 41L36 42L35 42L35 39L38 39L38 38L39 38L39 35L40 35L40 34L39 34L39 35L38 35L38 36L37 36L37 37L38 37L38 38L34 38L34 37L32 37L32 38L33 38L33 39L31 39L31 40L29 40L29 39L30 39L30 38L31 38L31 37L30 37L30 36L31 36L31 35L30 35L30 34L31 34L31 33L28 33L28 32L30 32L30 31L28 31L28 32L27 32L27 31L25 31L25 30L26 30L26 29ZM19 30L19 32L21 32L21 31L20 31L20 30ZM31 30L31 32L32 32L32 34L33 34L33 35L32 35L32 36L34 36L34 35L36 35L36 32L34 32L34 33L33 33L33 31L32 31L32 30ZM38 30L38 31L39 31L39 30ZM23 31L23 32L24 32L24 33L25 33L25 34L26 34L26 35L27 35L27 38L26 38L26 39L25 39L25 38L24 38L24 39L25 39L25 42L26 42L26 43L25 43L25 46L24 46L24 47L25 47L25 48L26 48L26 44L28 44L28 43L27 43L27 42L26 42L26 41L28 41L28 39L29 39L29 38L30 38L30 37L29 37L29 36L30 36L30 35L28 35L28 34L27 34L27 33L26 33L26 32L25 32L25 31ZM49 31L49 32L50 32L50 34L49 34L49 33L48 33L48 34L49 34L49 36L50 36L50 39L49 39L49 38L48 38L48 36L47 36L47 32L46 32L46 33L45 33L45 32L44 32L44 33L45 33L45 34L44 34L44 36L45 36L45 40L46 40L46 41L43 41L43 40L44 40L44 39L43 39L43 38L44 38L44 37L42 37L42 36L41 36L41 38L42 38L42 42L40 42L40 44L41 44L41 43L42 43L42 45L41 45L41 46L42 46L42 47L43 47L43 48L44 48L44 46L45 46L45 47L46 47L46 46L47 46L47 45L46 45L46 44L47 44L47 41L48 41L48 43L49 43L49 44L48 44L48 47L49 47L49 48L51 48L51 47L52 47L52 48L53 48L53 47L52 47L52 46L51 46L51 44L50 44L50 43L49 43L49 42L51 42L51 40L50 40L50 39L52 39L52 40L53 40L53 41L52 41L52 42L53 42L53 41L54 41L54 42L55 42L55 39L53 39L53 38L56 38L56 37L53 37L53 38L52 38L52 36L53 36L53 35L52 35L52 36L50 36L50 34L51 34L51 32L52 32L52 31ZM0 32L0 35L1 35L1 36L2 36L2 35L4 35L4 34L2 34L2 32ZM12 32L12 34L13 34L13 32ZM9 33L9 34L11 34L11 33ZM15 35L15 36L17 36L17 35ZM35 36L35 37L36 37L36 36ZM46 36L46 40L48 40L48 41L49 41L49 39L47 39L47 36ZM0 37L0 40L1 40L1 38L2 38L2 37ZM6 37L6 38L7 38L7 39L6 39L6 40L5 40L5 41L6 41L6 42L5 42L5 43L4 43L4 42L3 42L3 41L2 41L2 42L3 42L3 43L4 43L4 44L5 44L5 43L6 43L6 44L7 44L7 43L8 43L8 42L9 42L9 43L10 43L10 42L12 42L12 41L10 41L10 42L9 42L9 41L6 41L6 40L9 40L9 39L8 39L8 38L7 38L7 37ZM9 37L9 38L10 38L10 37ZM21 37L21 39L22 39L22 37ZM4 38L4 39L5 39L5 38ZM26 39L26 40L27 40L27 39ZM39 39L39 40L40 40L40 41L41 41L41 39ZM13 41L13 42L14 42L14 41ZM23 41L23 42L24 42L24 41ZM6 42L6 43L7 43L7 42ZM42 42L42 43L43 43L43 46L44 46L44 43L46 43L46 42L44 42L44 43L43 43L43 42ZM2 44L2 45L3 45L3 44ZM14 44L14 45L15 45L15 47L16 47L16 48L17 48L17 47L18 47L18 46L19 46L19 45L15 45L15 44ZM23 44L23 45L24 45L24 44ZM36 44L36 45L35 45L35 46L37 46L37 48L38 48L38 46L37 46L37 44ZM49 44L49 45L50 45L50 44ZM8 45L8 46L10 46L10 45ZM20 45L20 46L21 46L21 45ZM1 46L1 47L2 47L2 46ZM3 46L3 47L5 47L5 46ZM16 46L16 47L17 47L17 46ZM27 46L27 47L28 47L28 46ZM49 46L49 47L51 47L51 46ZM47 48L47 50L46 50L46 49L45 49L45 55L46 55L46 54L49 54L49 55L50 55L50 56L51 56L51 54L52 54L52 53L51 53L51 54L50 54L50 53L48 53L48 51L47 51L47 50L48 50L48 48ZM27 49L27 52L30 52L30 49ZM35 49L35 51L36 51L36 49ZM49 49L49 52L52 52L52 49ZM28 50L28 51L29 51L29 50ZM50 50L50 51L51 51L51 50ZM55 50L55 52L54 52L54 53L55 53L55 54L56 54L56 55L57 55L57 51L56 51L56 50ZM46 51L46 53L47 53L47 51ZM19 52L19 53L20 53L20 52ZM25 52L25 53L26 53L26 54L27 54L27 53L26 53L26 52ZM17 53L17 54L18 54L18 53ZM29 54L29 56L30 56L30 55L31 55L31 54ZM40 55L40 56L41 56L41 55ZM43 55L43 56L44 56L44 55ZM55 56L55 57L56 57L56 56ZM0 0L0 7L7 7L7 0ZM1 1L1 6L6 6L6 1ZM2 2L2 5L5 5L5 2ZM50 0L50 7L57 7L57 0ZM51 1L51 6L56 6L56 1ZM52 2L52 5L55 5L55 2ZM0 50L0 57L7 57L7 50ZM1 51L1 56L6 56L6 51ZM2 52L2 55L5 55L5 52Z" fill="#000000"/></g></g></svg>
