<?xml version="1.0" encoding="UTF-8"?>
<svg xmlns="http://www.w3.org/2000/svg" version="1.1" width="300" height="300" viewBox="0 0 300 300"><rect x="0" y="0" width="300" height="300" fill="#ffffff"/><g transform="scale(5.263)"><g transform="translate(0,0)"><path fill-rule="evenodd" d="M8 0L8 4L9 4L9 5L8 5L8 7L9 7L9 6L10 6L10 7L11 7L11 8L9 8L9 9L8 9L8 10L6 10L6 9L7 9L7 8L4 8L4 10L3 10L3 9L2 9L2 8L0 8L0 10L1 10L1 11L4 11L4 12L2 12L2 13L3 13L3 14L2 14L2 15L1 15L1 16L0 16L0 20L2 20L2 19L1 19L1 18L4 18L4 17L5 17L5 16L6 16L6 17L8 17L8 18L6 18L6 19L3 19L3 20L4 20L4 21L5 21L5 22L6 22L6 23L7 23L7 24L5 24L5 23L4 23L4 22L1 22L1 21L0 21L0 23L1 23L1 24L3 24L3 25L2 25L2 27L0 27L0 29L3 29L3 30L2 30L2 31L3 31L3 33L1 33L1 30L0 30L0 35L1 35L1 34L4 34L4 35L3 35L3 36L5 36L5 37L7 37L7 38L6 38L6 39L7 39L7 38L8 38L8 39L9 39L9 40L13 40L13 42L12 42L12 41L11 41L11 42L12 42L12 43L13 43L13 44L15 44L15 45L14 45L14 46L13 46L13 45L12 45L12 44L11 44L11 47L9 47L9 46L10 46L10 45L9 45L9 46L8 46L8 43L9 43L9 44L10 44L10 42L9 42L9 41L8 41L8 40L5 40L5 41L7 41L7 42L6 42L6 43L5 43L5 42L4 42L4 43L2 43L2 44L1 44L1 43L0 43L0 48L5 48L5 47L9 47L9 48L11 48L11 49L12 49L12 48L11 48L11 47L13 47L13 49L17 49L17 50L12 50L12 51L14 51L14 52L11 52L11 50L10 50L10 49L8 49L8 50L10 50L10 53L9 53L9 51L8 51L8 53L9 53L9 55L8 55L8 57L11 57L11 54L10 54L10 53L12 53L12 54L13 54L13 55L14 55L14 54L15 54L15 55L16 55L16 54L17 54L17 55L20 55L20 54L21 54L21 56L20 56L20 57L22 57L22 54L23 54L23 55L24 55L24 57L25 57L25 54L26 54L26 57L28 57L28 56L29 56L29 55L30 55L30 57L31 57L31 55L35 55L35 56L34 56L34 57L38 57L38 55L39 55L39 57L40 57L40 55L41 55L41 57L43 57L43 55L44 55L44 54L45 54L45 56L44 56L44 57L45 57L45 56L46 56L46 57L50 57L50 55L51 55L51 56L53 56L53 55L55 55L55 54L57 54L57 52L56 52L56 45L57 45L57 43L56 43L56 42L57 42L57 40L54 40L54 41L53 41L53 40L52 40L52 39L53 39L53 38L54 38L54 39L57 39L57 38L56 38L56 37L55 37L55 36L53 36L53 35L56 35L56 36L57 36L57 35L56 35L56 32L57 32L57 31L56 31L56 29L57 29L57 28L56 28L56 26L55 26L55 24L56 24L56 21L57 21L57 20L56 20L56 21L55 21L55 20L53 20L53 19L49 19L49 16L50 16L50 15L49 15L49 16L48 16L48 15L47 15L47 16L48 16L48 17L47 17L47 20L46 20L46 19L45 19L45 18L46 18L46 15L45 15L45 14L46 14L46 12L44 12L44 17L43 17L43 11L46 11L46 9L47 9L47 10L48 10L48 11L47 11L47 12L48 12L48 11L49 11L49 12L52 12L52 11L54 11L54 10L53 10L53 9L56 9L56 10L55 10L55 12L56 12L56 13L54 13L54 12L53 12L53 13L52 13L52 14L51 14L51 13L50 13L50 14L51 14L51 15L52 15L52 16L51 16L51 17L50 17L50 18L53 18L53 17L55 17L55 16L57 16L57 15L56 15L56 13L57 13L57 11L56 11L56 10L57 10L57 8L53 8L53 9L52 9L52 8L51 8L51 9L50 9L50 10L49 10L49 8L48 8L48 9L47 9L47 8L46 8L46 9L45 9L45 8L44 8L44 9L42 9L42 7L43 7L43 6L42 6L42 5L43 5L43 4L44 4L44 3L47 3L47 5L46 5L46 7L47 7L47 5L48 5L48 0L46 0L46 1L47 1L47 2L45 2L45 1L44 1L44 0L41 0L41 1L40 1L40 0L38 0L38 3L40 3L40 4L38 4L38 8L37 8L37 4L36 4L36 5L34 5L34 2L35 2L35 3L37 3L37 0L35 0L35 1L34 1L34 0L32 0L32 1L31 1L31 0L30 0L30 1L28 1L28 0L23 0L23 1L28 1L28 4L26 4L26 3L25 3L25 2L23 2L23 3L22 3L22 2L21 2L21 0L20 0L20 2L19 2L19 3L20 3L20 2L21 2L21 3L22 3L22 4L23 4L23 3L25 3L25 4L24 4L24 5L22 5L22 7L21 7L21 6L20 6L20 5L19 5L19 6L18 6L18 7L17 7L17 6L16 6L16 5L15 5L15 4L14 4L14 3L16 3L16 4L17 4L17 2L14 2L14 1L16 1L16 0L14 0L14 1L13 1L13 0L10 0L10 1L9 1L9 0ZM18 0L18 1L19 1L19 0ZM12 1L12 2L13 2L13 3L11 3L11 4L10 4L10 5L11 5L11 7L12 7L12 6L13 6L13 8L11 8L11 10L10 10L10 11L9 11L9 12L11 12L11 11L12 11L12 9L14 9L14 6L13 6L13 5L12 5L12 4L13 4L13 3L14 3L14 2L13 2L13 1ZM30 1L30 2L29 2L29 3L30 3L30 4L31 4L31 5L32 5L32 6L31 6L31 7L32 7L32 8L33 8L33 7L34 7L34 9L33 9L33 10L32 10L32 9L31 9L31 10L29 10L29 9L28 9L28 11L26 11L26 6L25 6L25 7L24 7L24 6L23 6L23 7L22 7L22 9L21 9L21 10L20 10L20 8L19 8L19 9L15 9L15 11L16 11L16 12L14 12L14 11L13 11L13 12L12 12L12 13L6 13L6 12L7 12L7 11L6 11L6 10L4 10L4 11L6 11L6 12L5 12L5 13L6 13L6 14L9 14L9 15L10 15L10 17L11 17L11 18L12 18L12 17L14 17L14 16L16 16L16 15L18 15L18 16L20 16L20 17L19 17L19 18L20 18L20 19L15 19L15 18L13 18L13 19L14 19L14 20L15 20L15 21L17 21L17 20L19 20L19 21L18 21L18 22L19 22L19 21L20 21L20 19L22 19L22 20L21 20L21 21L24 21L24 22L25 22L25 23L26 23L26 22L27 22L27 25L26 25L26 26L25 26L25 27L24 27L24 26L23 26L23 27L24 27L24 28L25 28L25 27L26 27L26 26L27 26L27 25L29 25L29 23L30 23L30 24L31 24L31 25L32 25L32 26L33 26L33 25L34 25L34 24L35 24L35 23L36 23L36 24L37 24L37 27L34 27L34 28L37 28L37 29L36 29L36 30L35 30L35 29L34 29L34 31L33 31L33 30L31 30L31 31L32 31L32 32L31 32L31 34L30 34L30 35L28 35L28 34L29 34L29 33L30 33L30 31L29 31L29 32L28 32L28 31L24 31L24 30L23 30L23 28L22 28L22 27L21 27L21 26L20 26L20 27L19 27L19 28L18 28L18 29L17 29L17 28L16 28L16 27L15 27L15 26L12 26L12 28L11 28L11 24L12 24L12 25L13 25L13 24L15 24L15 25L16 25L16 26L17 26L17 27L18 27L18 26L17 26L17 22L16 22L16 23L15 23L15 22L14 22L14 21L13 21L13 20L10 20L10 18L9 18L9 19L6 19L6 20L7 20L7 21L6 21L6 22L8 22L8 24L7 24L7 25L5 25L5 24L4 24L4 23L3 23L3 24L4 24L4 25L3 25L3 29L4 29L4 26L9 26L9 28L11 28L11 29L12 29L12 30L13 30L13 31L12 31L12 33L13 33L13 32L14 32L14 33L16 33L16 34L17 34L17 36L16 36L16 37L15 37L15 38L14 38L14 36L15 36L15 34L13 34L13 35L12 35L12 36L13 36L13 38L12 38L12 39L16 39L16 38L18 38L18 39L17 39L17 40L15 40L15 41L16 41L16 42L15 42L15 44L16 44L16 47L17 47L17 48L20 48L20 46L17 46L17 45L18 45L18 44L19 44L19 45L21 45L21 48L22 48L22 49L21 49L21 51L20 51L20 49L19 49L19 51L17 51L17 52L16 52L16 51L15 51L15 52L14 52L14 53L13 53L13 54L14 54L14 53L17 53L17 54L19 54L19 53L20 53L20 52L21 52L21 51L22 51L22 50L23 50L23 52L22 52L22 53L24 53L24 54L25 54L25 53L26 53L26 49L25 49L25 50L23 50L23 49L24 49L24 48L25 48L25 47L24 47L24 48L22 48L22 46L23 46L23 45L21 45L21 43L22 43L22 44L23 44L23 43L24 43L24 45L26 45L26 47L27 47L27 48L28 48L28 46L29 46L29 48L31 48L31 51L32 51L32 50L33 50L33 49L32 49L32 48L31 48L31 46L32 46L32 45L31 45L31 43L33 43L33 44L34 44L34 47L33 47L33 48L34 48L34 47L35 47L35 44L34 44L34 42L35 42L35 40L34 40L34 41L33 41L33 42L32 42L32 41L31 41L31 42L29 42L29 41L30 41L30 40L28 40L28 46L27 46L27 45L26 45L26 44L25 44L25 43L27 43L27 41L26 41L26 42L24 42L24 41L25 41L25 40L27 40L27 39L28 39L28 38L29 38L29 39L31 39L31 38L32 38L32 32L33 32L33 33L34 33L34 34L33 34L33 35L34 35L34 38L33 38L33 39L32 39L32 40L33 40L33 39L36 39L36 38L38 38L38 39L37 39L37 41L38 41L38 39L39 39L39 40L40 40L40 41L39 41L39 43L36 43L36 44L39 44L39 43L40 43L40 46L39 46L39 47L40 47L40 51L37 51L37 50L38 50L38 49L36 49L36 50L35 50L35 49L34 49L34 52L33 52L33 53L32 53L32 54L33 54L33 53L34 53L34 54L35 54L35 55L36 55L36 56L37 56L37 55L36 55L36 54L38 54L38 52L40 52L40 54L39 54L39 55L40 55L40 54L41 54L41 53L42 53L42 52L41 52L41 49L42 49L42 46L41 46L41 45L44 45L44 46L43 46L43 47L44 47L44 48L43 48L43 49L44 49L44 50L45 50L45 49L44 49L44 48L45 48L45 47L44 47L44 46L45 46L45 45L46 45L46 51L45 51L45 53L46 53L46 56L48 56L48 55L50 55L50 53L49 53L49 54L47 54L47 53L48 53L48 51L47 51L47 49L48 49L48 45L49 45L49 47L51 47L51 48L52 48L52 47L53 47L53 49L55 49L55 47L54 47L54 45L56 45L56 44L55 44L55 42L54 42L54 43L53 43L53 44L54 44L54 45L52 45L52 46L51 46L51 45L49 45L49 44L50 44L50 43L51 43L51 44L52 44L52 42L53 42L53 41L51 41L51 40L49 40L49 42L50 42L50 43L49 43L49 44L47 44L47 43L48 43L48 40L47 40L47 39L49 39L49 38L50 38L50 39L52 39L52 38L53 38L53 36L51 36L51 35L53 35L53 34L55 34L55 32L56 32L56 31L55 31L55 30L54 30L54 29L56 29L56 28L55 28L55 26L54 26L54 27L53 27L53 28L54 28L54 29L53 29L53 31L52 31L52 32L53 32L53 31L54 31L54 33L50 33L50 31L49 31L49 34L50 34L50 37L49 37L49 36L48 36L48 31L47 31L47 30L48 30L48 28L45 28L45 29L44 29L44 27L46 27L46 26L47 26L47 25L46 25L46 24L48 24L48 23L49 23L49 24L50 24L50 22L47 22L47 21L48 21L48 20L47 20L47 21L46 21L46 20L45 20L45 21L44 21L44 18L38 18L38 17L39 17L39 15L40 15L40 17L42 17L42 16L41 16L41 15L40 15L40 14L42 14L42 13L41 13L41 12L42 12L42 11L43 11L43 10L42 10L42 11L41 11L41 8L40 8L40 6L39 6L39 8L38 8L38 9L36 9L36 6L35 6L35 7L34 7L34 5L32 5L32 4L33 4L33 1L32 1L32 2L31 2L31 1ZM35 1L35 2L36 2L36 1ZM39 1L39 2L40 2L40 3L42 3L42 1L41 1L41 2L40 2L40 1ZM9 2L9 3L10 3L10 2ZM43 2L43 3L44 3L44 2ZM31 3L31 4L32 4L32 3ZM41 4L41 5L42 5L42 4ZM27 5L27 8L30 8L30 5ZM15 6L15 7L16 7L16 6ZM19 6L19 7L20 7L20 6ZM28 6L28 7L29 7L29 6ZM32 6L32 7L33 7L33 6ZM41 6L41 7L42 7L42 6ZM44 6L44 7L45 7L45 6ZM48 6L48 7L49 7L49 6ZM23 7L23 10L25 10L25 9L24 9L24 7ZM39 8L39 9L38 9L38 10L33 10L33 11L35 11L35 12L32 12L32 11L30 11L30 12L32 12L32 13L33 13L33 14L31 14L31 15L30 15L30 13L29 13L29 15L28 15L28 13L27 13L27 12L26 12L26 11L23 11L23 12L22 12L22 11L21 11L21 12L18 12L18 13L17 13L17 12L16 12L16 13L12 13L12 14L13 14L13 15L11 15L11 14L10 14L10 15L11 15L11 17L12 17L12 16L14 16L14 15L16 15L16 13L17 13L17 14L19 14L19 15L20 15L20 16L21 16L21 17L20 17L20 18L27 18L27 17L28 17L28 18L30 18L30 19L28 19L28 20L26 20L26 19L25 19L25 20L24 20L24 19L23 19L23 20L24 20L24 21L28 21L28 20L29 20L29 22L28 22L28 23L29 23L29 22L31 22L31 23L32 23L32 22L34 22L34 23L35 23L35 22L36 22L36 23L37 23L37 22L36 22L36 21L38 21L38 26L39 26L39 28L38 28L38 27L37 27L37 28L38 28L38 30L36 30L36 31L37 31L37 32L35 32L35 31L34 31L34 32L35 32L35 33L36 33L36 34L37 34L37 35L36 35L36 37L37 37L37 36L38 36L38 38L39 38L39 37L40 37L40 34L41 34L41 35L43 35L43 34L44 34L44 37L41 37L41 38L40 38L40 40L41 40L41 41L40 41L40 42L41 42L41 44L42 44L42 42L43 42L43 43L44 43L44 42L45 42L45 43L46 43L46 41L47 41L47 40L46 40L46 39L47 39L47 38L46 38L46 36L45 36L45 35L47 35L47 34L46 34L46 33L47 33L47 31L46 31L46 29L45 29L45 31L44 31L44 33L40 33L40 30L42 30L42 31L43 31L43 30L44 30L44 29L42 29L42 28L43 28L43 23L42 23L42 22L43 22L43 21L41 21L41 22L40 22L40 21L38 21L38 20L40 20L40 19L38 19L38 18L37 18L37 15L39 15L39 14L40 14L40 12L39 12L39 13L38 13L38 14L37 14L37 12L36 12L36 11L40 11L40 10L39 10L39 9L40 9L40 8ZM1 9L1 10L2 10L2 9ZM44 9L44 10L45 10L45 9ZM16 10L16 11L18 11L18 10ZM19 10L19 11L20 11L20 10ZM50 10L50 11L51 11L51 10ZM0 12L0 14L1 14L1 12ZM24 12L24 13L21 13L21 14L20 14L20 13L19 13L19 14L20 14L20 15L22 15L22 17L26 17L26 16L27 16L27 15L26 15L26 14L25 14L25 15L24 15L24 13L25 13L25 12ZM34 13L34 15L33 15L33 16L34 16L34 15L35 15L35 17L34 17L34 18L33 18L33 17L32 17L32 15L31 15L31 16L29 16L29 17L32 17L32 19L34 19L34 22L35 22L35 20L36 20L36 19L37 19L37 20L38 20L38 19L37 19L37 18L35 18L35 17L36 17L36 15L37 15L37 14L36 14L36 13ZM47 13L47 14L49 14L49 13ZM3 14L3 17L4 17L4 15L5 15L5 14ZM22 14L22 15L23 15L23 16L24 16L24 15L23 15L23 14ZM52 14L52 15L53 15L53 16L52 16L52 17L53 17L53 16L55 16L55 15L54 15L54 14ZM6 15L6 16L7 16L7 15ZM25 15L25 16L26 16L26 15ZM8 16L8 17L9 17L9 16ZM16 17L16 18L18 18L18 17ZM34 18L34 19L35 19L35 18ZM55 18L55 19L56 19L56 18ZM41 19L41 20L42 20L42 19ZM8 20L8 22L9 22L9 20ZM31 20L31 22L32 22L32 20ZM49 20L49 21L51 21L51 20ZM52 20L52 21L53 21L53 23L52 23L52 25L51 25L51 26L52 26L52 25L53 25L53 24L55 24L55 21L53 21L53 20ZM11 21L11 23L10 23L10 24L11 24L11 23L12 23L12 24L13 24L13 23L14 23L14 22L12 22L12 21ZM45 21L45 24L44 24L44 26L46 26L46 25L45 25L45 24L46 24L46 21ZM20 22L20 23L19 23L19 25L21 25L21 24L22 24L22 25L23 25L23 24L24 24L24 23L23 23L23 24L22 24L22 22ZM40 23L40 25L39 25L39 26L40 26L40 25L41 25L41 23ZM49 25L49 26L50 26L50 25ZM41 26L41 28L40 28L40 29L39 29L39 30L40 30L40 29L41 29L41 28L42 28L42 26ZM5 27L5 30L8 30L8 27ZM13 27L13 28L12 28L12 29L14 29L14 30L16 30L16 29L14 29L14 28L15 28L15 27ZM20 27L20 28L21 28L21 27ZM27 27L27 30L30 30L30 27ZM31 27L31 29L32 29L32 28L33 28L33 27ZM49 27L49 30L52 30L52 27ZM6 28L6 29L7 29L7 28ZM28 28L28 29L29 29L29 28ZM50 28L50 29L51 29L51 28ZM9 29L9 31L8 31L8 32L7 32L7 31L6 31L6 32L5 32L5 31L4 31L4 30L3 30L3 31L4 31L4 33L6 33L6 34L8 34L8 32L9 32L9 31L10 31L10 29ZM18 29L18 31L16 31L16 33L17 33L17 34L19 34L19 33L20 33L20 36L19 36L19 35L18 35L18 36L17 36L17 37L22 37L22 38L20 38L20 39L19 39L19 40L17 40L17 42L16 42L16 43L18 43L18 41L19 41L19 40L20 40L20 42L19 42L19 44L20 44L20 43L21 43L21 42L22 42L22 40L23 40L23 41L24 41L24 39L22 39L22 38L23 38L23 37L24 37L24 38L25 38L25 39L27 39L27 38L26 38L26 36L27 36L27 37L28 37L28 35L27 35L27 34L28 34L28 33L26 33L26 32L23 32L23 30L22 30L22 29ZM25 29L25 30L26 30L26 29ZM19 30L19 32L20 32L20 33L21 33L21 35L22 35L22 37L23 37L23 35L22 35L22 33L23 33L23 32L22 32L22 31L21 31L21 30ZM38 31L38 32L37 32L37 34L38 34L38 33L39 33L39 34L40 34L40 33L39 33L39 31ZM6 32L6 33L7 33L7 32ZM10 32L10 33L9 33L9 34L11 34L11 32ZM21 32L21 33L22 33L22 32ZM44 33L44 34L45 34L45 33ZM34 34L34 35L35 35L35 34ZM6 35L6 36L7 36L7 37L9 37L9 36L11 36L11 35L9 35L9 36L8 36L8 35ZM13 35L13 36L14 36L14 35ZM24 35L24 36L25 36L25 35ZM30 36L30 38L31 38L31 36ZM44 37L44 38L45 38L45 37ZM48 37L48 38L49 38L49 37ZM50 37L50 38L52 38L52 37ZM0 38L0 42L2 42L2 40L3 40L3 41L4 41L4 39L5 39L5 38L4 38L4 39L2 39L2 40L1 40L1 38ZM10 38L10 39L11 39L11 38ZM42 39L42 41L43 41L43 42L44 42L44 41L43 41L43 39ZM45 40L45 41L46 41L46 40ZM4 43L4 45L3 45L3 44L2 44L2 45L1 45L1 47L2 47L2 45L3 45L3 47L5 47L5 46L7 46L7 45L5 45L5 43ZM6 43L6 44L7 44L7 43ZM44 44L44 45L45 45L45 44ZM4 45L4 46L5 46L5 45ZM30 45L30 46L31 46L31 45ZM37 45L37 48L38 48L38 45ZM14 46L14 48L15 48L15 46ZM6 48L6 49L7 49L7 48ZM27 49L27 52L30 52L30 49ZM49 49L49 52L52 52L52 49ZM28 50L28 51L29 51L29 50ZM42 50L42 51L43 51L43 52L44 52L44 51L43 51L43 50ZM50 50L50 51L51 51L51 50ZM53 50L53 53L54 53L54 52L55 52L55 53L56 53L56 52L55 52L55 51L54 51L54 50ZM19 51L19 52L17 52L17 53L19 53L19 52L20 52L20 51ZM35 51L35 52L34 52L34 53L35 53L35 54L36 54L36 53L37 53L37 51ZM24 52L24 53L25 53L25 52ZM46 52L46 53L47 53L47 52ZM27 53L27 55L28 55L28 53ZM30 53L30 54L31 54L31 53ZM43 53L43 54L42 54L42 55L43 55L43 54L44 54L44 53ZM51 54L51 55L52 55L52 54ZM9 55L9 56L10 56L10 55ZM12 56L12 57L13 57L13 56ZM17 56L17 57L19 57L19 56ZM56 56L56 57L57 57L57 56ZM0 0L0 7L7 7L7 0ZM1 1L1 6L6 6L6 1ZM2 2L2 5L5 5L5 2ZM50 0L50 7L57 7L57 0ZM51 1L51 6L56 6L56 1ZM52 2L52 5L55 5L55 2ZM0 50L0 57L7 57L7 50ZM1 51L1 56L6 56L6 51ZM2 52L2 55L5 55L5 52Z" fill="#000000"/></g></g></svg>
