<?xml version="1.0" encoding="UTF-8"?>
<svg xmlns="http://www.w3.org/2000/svg" version="1.1" width="300" height="300" viewBox="0 0 300 300"><rect x="0" y="0" width="300" height="300" fill="#ffffff"/><g transform="scale(5.263)"><g transform="translate(0,0)"><path fill-rule="evenodd" d="M8 0L8 1L9 1L9 0ZM10 0L10 1L11 1L11 2L12 2L12 3L11 3L11 4L12 4L12 5L10 5L10 3L9 3L9 2L8 2L8 5L9 5L9 6L8 6L8 7L9 7L9 6L10 6L10 7L11 7L11 8L10 8L10 11L9 11L9 12L10 12L10 13L11 13L11 14L10 14L10 15L8 15L8 18L9 18L9 17L12 17L12 18L10 18L10 19L9 19L9 20L8 20L8 19L7 19L7 18L5 18L5 17L4 17L4 16L5 16L5 15L7 15L7 14L5 14L5 15L4 15L4 13L2 13L2 12L6 12L6 13L7 13L7 12L8 12L8 11L7 11L7 10L8 10L8 9L9 9L9 8L8 8L8 9L7 9L7 8L6 8L6 9L7 9L7 10L4 10L4 8L0 8L0 13L1 13L1 14L0 14L0 17L2 17L2 18L3 18L3 17L4 17L4 19L7 19L7 20L5 20L5 21L7 21L7 22L5 22L5 23L2 23L2 24L3 24L3 25L2 25L2 26L1 26L1 27L0 27L0 28L1 28L1 29L0 29L0 32L2 32L2 31L3 31L3 30L4 30L4 31L5 31L5 32L6 32L6 33L4 33L4 34L3 34L3 35L5 35L5 37L9 37L9 38L8 38L8 39L7 39L7 38L5 38L5 40L6 40L6 41L4 41L4 39L3 39L3 38L4 38L4 36L3 36L3 38L2 38L2 34L1 34L1 35L0 35L0 36L1 36L1 37L0 37L0 38L2 38L2 39L1 39L1 40L0 40L0 42L1 42L1 45L0 45L0 48L5 48L5 47L7 47L7 48L6 48L6 49L7 49L7 48L8 48L8 50L9 50L9 53L8 53L8 57L9 57L9 53L11 53L11 52L12 52L12 53L14 53L14 51L13 51L13 52L12 52L12 51L11 51L11 50L10 50L10 49L9 49L9 48L11 48L11 49L12 49L12 50L15 50L15 51L16 51L16 49L14 49L14 48L15 48L15 47L14 47L14 46L15 46L15 45L17 45L17 46L16 46L16 48L17 48L17 49L20 49L20 50L18 50L18 51L17 51L17 52L19 52L19 53L18 53L18 54L19 54L19 55L20 55L20 56L19 56L19 57L20 57L20 56L21 56L21 57L24 57L24 56L25 56L25 55L24 55L24 56L23 56L23 54L26 54L26 55L27 55L27 54L26 54L26 53L29 53L29 54L31 54L31 55L30 55L30 56L31 56L31 55L32 55L32 57L33 57L33 56L35 56L35 57L36 57L36 54L37 54L37 53L33 53L33 51L31 51L31 49L32 49L32 50L34 50L34 49L35 49L35 50L37 50L37 52L39 52L39 54L38 54L38 55L37 55L37 57L42 57L42 56L43 56L43 55L44 55L44 54L42 54L42 53L40 53L40 52L41 52L41 51L40 51L40 52L39 52L39 51L38 51L38 50L40 50L40 49L39 49L39 47L41 47L41 48L42 48L42 49L44 49L44 48L43 48L43 47L45 47L45 46L43 46L43 44L46 44L46 45L47 45L47 44L48 44L48 47L47 47L47 46L46 46L46 47L47 47L47 48L48 48L48 51L45 51L45 50L46 50L46 49L45 49L45 50L44 50L44 53L45 53L45 56L46 56L46 57L47 57L47 56L46 56L46 54L47 54L47 55L48 55L48 57L51 57L51 55L49 55L49 54L47 54L47 53L50 53L50 54L52 54L52 53L53 53L53 55L55 55L55 54L56 54L56 52L57 52L57 51L53 51L53 49L55 49L55 48L54 48L54 47L57 47L57 45L56 45L56 46L55 46L55 44L56 44L56 42L54 42L54 40L55 40L55 39L50 39L50 40L49 40L49 41L50 41L50 42L49 42L49 43L48 43L48 42L47 42L47 41L48 41L48 40L47 40L47 39L48 39L48 38L49 38L49 37L48 37L48 38L46 38L46 37L47 37L47 36L45 36L45 35L43 35L43 32L42 32L42 33L41 33L41 31L42 31L42 29L43 29L43 28L44 28L44 29L45 29L45 31L47 31L47 29L48 29L48 32L49 32L49 31L53 31L53 34L52 34L52 32L51 32L51 34L49 34L49 33L48 33L48 36L51 36L51 35L52 35L52 36L54 36L54 37L56 37L56 36L57 36L57 34L54 34L54 33L57 33L57 32L54 32L54 31L56 31L56 30L57 30L57 28L56 28L56 25L57 25L57 24L54 24L54 23L57 23L57 21L56 21L56 20L55 20L55 21L56 21L56 22L52 22L52 23L51 23L51 24L50 24L50 23L47 23L47 22L49 22L49 21L47 21L47 22L46 22L46 23L47 23L47 24L45 24L45 26L46 26L46 27L44 27L44 26L41 26L41 25L44 25L44 23L45 23L45 21L41 21L41 19L43 19L43 18L44 18L44 19L45 19L45 18L46 18L46 19L47 19L47 18L48 18L48 19L49 19L49 20L50 20L50 21L53 21L53 20L50 20L50 18L48 18L48 17L49 17L49 15L48 15L48 14L47 14L47 15L46 15L46 13L45 13L45 15L44 15L44 10L45 10L45 12L46 12L46 11L47 11L47 10L48 10L48 11L50 11L50 13L49 13L49 14L51 14L51 13L52 13L52 14L53 14L53 15L50 15L50 16L51 16L51 19L56 19L56 18L55 18L55 17L56 17L56 16L57 16L57 15L54 15L54 14L53 14L53 13L54 13L54 10L53 10L53 13L52 13L52 12L51 12L51 11L52 11L52 10L51 10L51 11L50 11L50 10L49 10L49 9L50 9L50 8L49 8L49 9L47 9L47 10L45 10L45 9L46 9L46 8L47 8L47 5L48 5L48 0L44 0L44 2L42 2L42 1L43 1L43 0L41 0L41 1L40 1L40 2L41 2L41 4L37 4L37 3L39 3L39 1L38 1L38 0L37 0L37 1L38 1L38 2L36 2L36 1L34 1L34 3L33 3L33 4L32 4L32 2L33 2L33 0L32 0L32 2L31 2L31 3L30 3L30 1L31 1L31 0L27 0L27 3L30 3L30 4L26 4L26 2L25 2L25 1L26 1L26 0L23 0L23 1L24 1L24 2L22 2L22 0L21 0L21 5L20 5L20 4L19 4L19 3L20 3L20 0L18 0L18 1L17 1L17 2L16 2L16 1L15 1L15 2L13 2L13 1L11 1L11 0ZM28 1L28 2L29 2L29 1ZM45 1L45 3L44 3L44 5L43 5L43 3L42 3L42 4L41 4L41 5L40 5L40 6L39 6L39 5L38 5L38 6L37 6L37 4L36 4L36 6L35 6L35 4L34 4L34 5L33 5L33 8L32 8L32 10L31 10L31 11L32 11L32 14L30 14L30 13L31 13L31 12L29 12L29 10L28 10L28 14L26 14L26 13L27 13L27 9L26 9L26 6L25 6L25 5L26 5L26 4L24 4L24 6L23 6L23 7L24 7L24 9L26 9L26 10L23 10L23 9L22 9L22 10L23 10L23 11L20 11L20 10L21 10L21 7L22 7L22 6L21 6L21 7L20 7L20 6L19 6L19 7L20 7L20 10L18 10L18 9L19 9L19 8L18 8L18 6L17 6L17 7L16 7L16 6L15 6L15 5L17 5L17 3L16 3L16 2L15 2L15 3L14 3L14 4L13 4L13 3L12 3L12 4L13 4L13 7L12 7L12 6L11 6L11 7L12 7L12 9L14 9L14 11L15 11L15 12L16 12L16 11L17 11L17 10L18 10L18 12L17 12L17 13L16 13L16 14L15 14L15 17L13 17L13 18L12 18L12 19L11 19L11 20L10 20L10 22L9 22L9 21L8 21L8 22L7 22L7 23L6 23L6 24L4 24L4 26L8 26L8 25L9 25L9 26L10 26L10 25L11 25L11 24L12 24L12 22L13 22L13 23L16 23L16 24L15 24L15 25L16 25L16 26L14 26L14 24L13 24L13 25L12 25L12 28L10 28L10 27L9 27L9 30L10 30L10 29L11 29L11 30L12 30L12 31L11 31L11 32L10 32L10 31L9 31L9 32L10 32L10 34L9 34L9 33L8 33L8 34L9 34L9 37L10 37L10 38L11 38L11 40L10 40L10 39L9 39L9 40L10 40L10 43L9 43L9 44L10 44L10 45L6 45L6 44L8 44L8 42L9 42L9 41L8 41L8 40L7 40L7 39L6 39L6 40L7 40L7 41L6 41L6 42L4 42L4 41L3 41L3 43L2 43L2 45L1 45L1 47L2 47L2 45L3 45L3 47L5 47L5 45L6 45L6 46L7 46L7 47L8 47L8 48L9 48L9 47L8 47L8 46L11 46L11 47L12 47L12 48L13 48L13 47L12 47L12 46L13 46L13 45L12 45L12 44L14 44L14 42L11 42L11 40L12 40L12 41L13 41L13 40L12 40L12 39L13 39L13 38L14 38L14 40L15 40L15 41L16 41L16 40L17 40L17 41L19 41L19 42L21 42L21 44L22 44L22 46L21 46L21 45L20 45L20 44L19 44L19 43L18 43L18 42L17 42L17 45L19 45L19 46L18 46L18 47L17 47L17 48L19 48L19 47L21 47L21 48L22 48L22 49L23 49L23 47L22 47L22 46L23 46L23 45L25 45L25 46L26 46L26 48L28 48L28 47L27 47L27 46L29 46L29 47L30 47L30 48L31 48L31 47L32 47L32 46L33 46L33 48L32 48L32 49L34 49L34 48L35 48L35 47L36 47L36 48L37 48L37 49L38 49L38 47L39 47L39 44L41 44L41 45L42 45L42 44L43 44L43 43L42 43L42 42L44 42L44 43L45 43L45 42L44 42L44 40L43 40L43 41L42 41L42 39L39 39L39 38L41 38L41 36L42 36L42 35L40 35L40 34L39 34L39 32L40 32L40 31L41 31L41 30L40 30L40 29L42 29L42 28L43 28L43 27L42 27L42 28L41 28L41 27L40 27L40 25L41 25L41 24L42 24L42 23L44 23L44 22L42 22L42 23L41 23L41 21L40 21L40 18L41 18L41 16L42 16L42 18L43 18L43 16L44 16L44 15L42 15L42 14L43 14L43 13L42 13L42 14L41 14L41 16L40 16L40 18L39 18L39 16L35 16L35 18L36 18L36 19L35 19L35 20L36 20L36 22L35 22L35 21L34 21L34 19L32 19L32 18L31 18L31 17L32 17L32 16L31 16L31 15L32 15L32 14L33 14L33 15L38 15L38 14L35 14L35 13L34 13L34 12L35 12L35 10L37 10L37 8L39 8L39 7L40 7L40 8L41 8L41 7L42 7L42 6L43 6L43 7L44 7L44 8L42 8L42 9L43 9L43 10L42 10L42 11L43 11L43 10L44 10L44 9L45 9L45 8L46 8L46 5L47 5L47 3L46 3L46 2L47 2L47 1ZM18 2L18 3L19 3L19 2ZM24 2L24 3L25 3L25 2ZM35 2L35 3L36 3L36 2ZM22 3L22 4L23 4L23 3ZM14 4L14 5L15 5L15 4ZM27 5L27 8L30 8L30 5ZM41 5L41 6L40 6L40 7L41 7L41 6L42 6L42 5ZM44 5L44 7L45 7L45 5ZM14 6L14 8L15 8L15 11L16 11L16 8L15 8L15 6ZM24 6L24 7L25 7L25 6ZM28 6L28 7L29 7L29 6ZM31 6L31 7L32 7L32 6ZM34 6L34 8L33 8L33 10L32 10L32 11L33 11L33 12L34 12L34 11L33 11L33 10L34 10L34 9L35 9L35 6ZM36 6L36 8L37 8L37 6ZM38 6L38 7L39 7L39 6ZM48 6L48 7L49 7L49 6ZM17 8L17 9L18 9L18 8ZM52 8L52 9L55 9L55 11L57 11L57 10L56 10L56 9L57 9L57 8L56 8L56 9L55 9L55 8ZM1 9L1 11L2 11L2 9ZM38 9L38 12L39 12L39 15L40 15L40 13L41 13L41 11L40 11L40 10L41 10L41 9L40 9L40 10L39 10L39 9ZM3 10L3 11L4 11L4 10ZM11 10L11 12L13 12L13 10ZM6 11L6 12L7 12L7 11ZM24 11L24 12L22 12L22 13L25 13L25 11ZM36 11L36 12L37 12L37 11ZM18 12L18 13L19 13L19 14L21 14L21 15L20 15L20 16L21 16L21 19L22 19L22 16L24 16L24 15L25 15L25 16L26 16L26 15L25 15L25 14L24 14L24 15L23 15L23 14L21 14L21 13L19 13L19 12ZM55 12L55 13L56 13L56 12ZM8 13L8 14L9 14L9 13ZM13 13L13 14L11 14L11 15L10 15L10 16L11 16L11 15L12 15L12 16L14 16L14 15L13 15L13 14L14 14L14 13ZM33 13L33 14L34 14L34 13ZM2 14L2 15L1 15L1 16L2 16L2 15L3 15L3 16L4 16L4 15L3 15L3 14ZM17 14L17 16L16 16L16 17L15 17L15 19L13 19L13 22L14 22L14 20L15 20L15 19L17 19L17 18L19 18L19 19L20 19L20 18L19 18L19 17L17 17L17 16L18 16L18 14ZM27 15L27 17L25 17L25 18L24 18L24 17L23 17L23 18L24 18L24 19L25 19L25 20L27 20L27 21L25 21L25 22L24 22L24 21L23 21L23 20L21 20L21 21L22 21L22 22L19 22L19 24L17 24L17 27L15 27L15 28L12 28L12 30L13 30L13 32L12 32L12 33L11 33L11 35L12 35L12 36L10 36L10 37L12 37L12 38L13 38L13 37L14 37L14 38L15 38L15 40L16 40L16 39L17 39L17 40L18 40L18 39L19 39L19 40L20 40L20 41L21 41L21 42L22 42L22 44L24 44L24 43L23 43L23 42L24 42L24 41L25 41L25 42L27 42L27 43L28 43L28 44L26 44L26 43L25 43L25 44L26 44L26 45L29 45L29 43L31 43L31 46L32 46L32 43L31 43L31 42L30 42L30 40L29 40L29 41L27 41L27 40L28 40L28 39L30 39L30 37L31 37L31 38L32 38L32 39L31 39L31 40L32 40L32 41L34 41L34 42L36 42L36 41L34 41L34 39L38 39L38 40L37 40L37 43L38 43L38 44L37 44L37 45L36 45L36 43L35 43L35 44L34 44L34 43L33 43L33 45L36 45L36 47L37 47L37 46L38 46L38 44L39 44L39 42L38 42L38 41L40 41L40 40L39 40L39 39L38 39L38 38L39 38L39 36L38 36L38 35L39 35L39 34L38 34L38 32L39 32L39 30L37 30L37 29L40 29L40 28L38 28L38 26L39 26L39 25L38 25L38 24L39 24L39 23L38 23L38 22L36 22L36 23L37 23L37 24L34 24L34 22L32 22L32 21L30 21L30 20L32 20L32 19L30 19L30 17L31 17L31 16L28 16L28 15ZM47 15L47 16L46 16L46 17L47 17L47 16L48 16L48 15ZM6 16L6 17L7 17L7 16ZM33 16L33 17L34 17L34 16ZM52 16L52 17L53 17L53 18L54 18L54 17L55 17L55 16L54 16L54 17L53 17L53 16ZM27 17L27 18L25 18L25 19L28 19L28 20L30 20L30 19L28 19L28 18L29 18L29 17ZM36 17L36 18L37 18L37 19L36 19L36 20L38 20L38 18L37 18L37 17ZM44 17L44 18L45 18L45 17ZM16 20L16 23L17 23L17 22L18 22L18 20ZM1 21L1 22L0 22L0 24L1 24L1 22L3 22L3 21ZM28 21L28 23L29 23L29 24L26 24L26 23L27 23L27 22L25 22L25 25L23 25L23 24L22 24L22 25L23 25L23 26L24 26L24 30L23 30L23 32L24 32L24 33L25 33L25 34L24 34L24 36L25 36L25 37L24 37L24 39L22 39L22 37L23 37L23 36L21 36L21 35L22 35L22 34L23 34L23 33L21 33L21 32L22 32L22 31L21 31L21 29L23 29L23 27L22 27L22 26L20 26L20 25L19 25L19 27L17 27L17 28L15 28L15 29L17 29L17 31L16 31L16 30L15 30L15 31L16 31L16 32L17 32L17 31L18 31L18 33L20 33L20 34L21 34L21 35L19 35L19 34L17 34L17 33L15 33L15 32L13 32L13 34L14 34L14 35L19 35L19 37L20 37L20 38L21 38L21 39L22 39L22 41L23 41L23 40L24 40L24 39L25 39L25 41L26 41L26 40L27 40L27 39L26 39L26 38L29 38L29 37L30 37L30 36L31 36L31 35L33 35L33 36L32 36L32 37L34 37L34 38L35 38L35 37L36 37L36 36L35 36L35 35L38 35L38 34L37 34L37 32L36 32L36 33L33 33L33 32L35 32L35 31L33 31L33 30L31 30L31 31L33 31L33 32L30 32L30 31L29 31L29 33L28 33L28 31L27 31L27 33L25 33L25 32L26 32L26 31L25 31L25 32L24 32L24 30L26 30L26 28L25 28L25 26L29 26L29 24L30 24L30 26L31 26L31 28L33 28L33 27L34 27L34 26L33 26L33 25L31 25L31 24L30 24L30 21ZM8 22L8 23L7 23L7 24L6 24L6 25L7 25L7 24L9 24L9 25L10 25L10 24L9 24L9 22ZM22 22L22 23L23 23L23 22ZM20 23L20 24L21 24L21 23ZM32 23L32 24L33 24L33 23ZM49 24L49 25L46 25L46 26L47 26L47 27L46 27L46 28L45 28L45 29L47 29L47 28L48 28L48 26L49 26L49 25L50 25L50 24ZM51 24L51 26L53 26L53 27L55 27L55 25L53 25L53 24ZM35 25L35 27L36 27L36 29L35 29L35 30L36 30L36 31L37 31L37 30L36 30L36 29L37 29L37 27L36 27L36 26L37 26L37 25ZM13 26L13 27L14 27L14 26ZM32 26L32 27L33 27L33 26ZM1 27L1 28L2 28L2 30L3 30L3 29L4 29L4 27ZM5 27L5 30L8 30L8 27ZM20 27L20 28L18 28L18 29L19 29L19 30L18 30L18 31L19 31L19 30L20 30L20 28L21 28L21 27ZM27 27L27 30L30 30L30 27ZM49 27L49 30L52 30L52 27ZM6 28L6 29L7 29L7 28ZM28 28L28 29L29 29L29 28ZM50 28L50 29L51 29L51 28ZM53 28L53 29L54 29L54 28ZM55 28L55 29L56 29L56 28ZM6 31L6 32L8 32L8 31ZM20 31L20 32L21 32L21 31ZM45 32L45 33L44 33L44 34L45 34L45 33L46 33L46 32ZM6 33L6 34L7 34L7 33ZM14 33L14 34L15 34L15 33ZM29 33L29 36L30 36L30 34L31 34L31 33ZM27 34L27 35L26 35L26 36L27 36L27 35L28 35L28 34ZM34 34L34 35L35 35L35 34ZM6 35L6 36L7 36L7 35ZM54 35L54 36L55 36L55 35ZM12 36L12 37L13 37L13 36ZM14 36L14 37L15 37L15 38L17 38L17 39L18 39L18 38L17 38L17 36ZM37 36L37 37L38 37L38 36ZM44 36L44 37L42 37L42 38L43 38L43 39L44 39L44 38L45 38L45 36ZM51 37L51 38L52 38L52 37ZM56 38L56 39L57 39L57 38ZM32 39L32 40L33 40L33 39ZM45 39L45 41L46 41L46 39ZM1 40L1 42L2 42L2 40ZM50 40L50 41L52 41L52 40ZM56 40L56 41L57 41L57 40ZM7 41L7 42L6 42L6 43L7 43L7 42L8 42L8 41ZM41 41L41 42L40 42L40 43L41 43L41 44L42 44L42 43L41 43L41 42L42 42L42 41ZM46 42L46 43L47 43L47 42ZM50 42L50 43L49 43L49 44L50 44L50 45L51 45L51 44L52 44L52 47L54 47L54 45L53 45L53 44L55 44L55 43L54 43L54 42L53 42L53 44L52 44L52 43L51 43L51 42ZM4 43L4 44L3 44L3 45L4 45L4 44L5 44L5 43ZM11 43L11 44L12 44L12 43ZM11 45L11 46L12 46L12 45ZM34 46L34 47L35 47L35 46ZM41 46L41 47L42 47L42 46ZM49 46L49 48L50 48L50 46ZM24 48L24 50L26 50L26 49L25 49L25 48ZM56 48L56 50L57 50L57 48ZM27 49L27 52L30 52L30 49ZM49 49L49 52L52 52L52 49ZM20 50L20 51L19 51L19 52L21 52L21 50ZM28 50L28 51L29 51L29 50ZM50 50L50 51L51 51L51 50ZM22 51L22 54L23 54L23 52L24 52L24 53L25 53L25 52L26 52L26 51L25 51L25 52L24 52L24 51ZM42 51L42 52L43 52L43 51ZM31 52L31 53L32 53L32 52ZM45 52L45 53L46 53L46 52ZM53 52L53 53L54 53L54 54L55 54L55 52ZM15 53L15 55L14 55L14 54L12 54L12 55L14 55L14 56L13 56L13 57L15 57L15 56L16 56L16 57L18 57L18 55L17 55L17 54L16 54L16 53ZM20 53L20 55L21 55L21 56L22 56L22 55L21 55L21 53ZM10 54L10 55L11 55L11 54ZM33 54L33 55L35 55L35 54ZM39 54L39 56L40 56L40 55L42 55L42 54ZM56 55L56 56L57 56L57 55ZM11 56L11 57L12 57L12 56ZM27 56L27 57L29 57L29 56ZM52 56L52 57L55 57L55 56ZM0 0L0 7L7 7L7 0ZM1 1L1 6L6 6L6 1ZM2 2L2 5L5 5L5 2ZM50 0L50 7L57 7L57 0ZM51 1L51 6L56 6L56 1ZM52 2L52 5L55 5L55 2ZM0 50L0 57L7 57L7 50ZM1 51L1 56L6 56L6 51ZM2 52L2 55L5 55L5 52Z" fill="#000000"/></g></g></svg>
