<?xml version="1.0" encoding="UTF-8"?>
<svg xmlns="http://www.w3.org/2000/svg" version="1.1" width="300" height="300" viewBox="0 0 300 300"><rect x="0" y="0" width="300" height="300" fill="#ffffff"/><g transform="scale(7.317)"><g transform="translate(0,0)"><path fill-rule="evenodd" d="M8 0L8 4L9 4L9 5L8 5L8 7L9 7L9 10L11 10L11 11L8 11L8 10L5 10L5 9L7 9L7 8L4 8L4 9L3 9L3 10L2 10L2 12L1 12L1 10L0 10L0 15L1 15L1 17L0 17L0 19L1 19L1 20L2 20L2 21L1 21L1 23L0 23L0 24L1 24L1 23L3 23L3 22L4 22L4 24L2 24L2 25L1 25L1 26L0 26L0 30L1 30L1 29L2 29L2 32L0 32L0 33L3 33L3 31L5 31L5 30L4 30L4 29L2 29L2 28L6 28L6 29L7 29L7 30L6 30L6 31L7 31L7 30L8 30L8 29L10 29L10 28L11 28L11 29L12 29L12 30L11 30L11 31L10 31L10 30L9 30L9 32L8 32L8 34L10 34L10 36L11 36L11 35L13 35L13 34L14 34L14 33L15 33L15 32L16 32L16 30L17 30L17 33L16 33L16 34L15 34L15 35L14 35L14 36L12 36L12 37L13 37L13 38L14 38L14 40L13 40L13 39L12 39L12 40L11 40L11 37L9 37L9 35L8 35L8 37L9 37L9 38L10 38L10 39L8 39L8 41L10 41L10 40L11 40L11 41L12 41L12 40L13 40L13 41L14 41L14 40L16 40L16 41L17 41L17 40L18 40L18 39L19 39L19 41L25 41L25 39L24 39L24 38L22 38L22 37L24 37L24 36L25 36L25 38L27 38L27 39L26 39L26 40L29 40L29 41L30 41L30 39L32 39L32 38L34 38L34 37L37 37L37 38L38 38L38 36L37 36L37 35L39 35L39 38L40 38L40 39L39 39L39 41L40 41L40 40L41 40L41 37L40 37L40 35L41 35L41 29L40 29L40 27L41 27L41 18L40 18L40 16L41 16L41 13L39 13L39 14L38 14L38 13L35 13L35 14L38 14L38 15L37 15L37 17L36 17L36 16L35 16L35 17L34 17L34 15L33 15L33 17L34 17L34 19L33 19L33 18L32 18L32 19L31 19L31 17L32 17L32 15L31 15L31 17L30 17L30 15L28 15L28 13L31 13L31 14L32 14L32 13L33 13L33 14L34 14L34 12L36 12L36 10L37 10L37 9L38 9L38 10L40 10L40 11L39 11L39 12L41 12L41 10L40 10L40 9L41 9L41 8L37 8L37 9L36 9L36 8L35 8L35 9L34 9L34 10L32 10L32 11L34 11L34 12L31 12L31 11L29 11L29 9L30 9L30 10L31 10L31 9L32 9L32 8L31 8L31 6L32 6L32 7L33 7L33 6L32 6L32 4L33 4L33 2L32 2L32 1L31 1L31 0L30 0L30 2L29 2L29 1L28 1L28 0L26 0L26 1L25 1L25 0L23 0L23 1L22 1L22 0L21 0L21 1L18 1L18 2L17 2L17 3L16 3L16 5L13 5L13 2L14 2L14 3L15 3L15 1L17 1L17 0L13 0L13 2L12 2L12 0ZM23 1L23 2L22 2L22 3L21 3L21 2L20 2L20 3L19 3L19 5L21 5L21 4L22 4L22 5L23 5L23 7L22 7L22 6L21 6L21 7L20 7L20 6L19 6L19 7L20 7L20 9L19 9L19 12L18 12L18 13L17 13L17 12L16 12L16 11L14 11L14 13L13 13L13 12L12 12L12 11L13 11L13 10L14 10L14 9L15 9L15 8L16 8L16 10L17 10L17 7L18 7L18 5L16 5L16 6L15 6L15 7L14 7L14 6L13 6L13 5L11 5L11 4L12 4L12 3L11 3L11 2L9 2L9 4L10 4L10 5L11 5L11 9L12 9L12 11L11 11L11 12L12 12L12 13L9 13L9 14L10 14L10 15L8 15L8 13L6 13L6 12L7 12L7 11L5 11L5 13L4 13L4 10L3 10L3 12L2 12L2 13L1 13L1 15L3 15L3 17L2 17L2 18L1 18L1 19L2 19L2 20L4 20L4 21L5 21L5 24L8 24L8 25L6 25L6 26L4 26L4 27L6 27L6 28L7 28L7 29L8 29L8 28L7 28L7 27L8 27L8 26L9 26L9 28L10 28L10 27L11 27L11 28L12 28L12 29L13 29L13 31L12 31L12 32L10 32L10 33L11 33L11 34L13 34L13 33L14 33L14 31L15 31L15 30L14 30L14 29L17 29L17 30L18 30L18 32L20 32L20 30L21 30L21 31L22 31L22 32L23 32L23 33L22 33L22 34L23 34L23 33L24 33L24 32L23 32L23 29L22 29L22 30L21 30L21 29L20 29L20 28L19 28L19 27L22 27L22 26L23 26L23 25L21 25L21 24L19 24L19 25L18 25L18 26L17 26L17 25L16 25L16 23L17 23L17 22L18 22L18 23L21 23L21 22L22 22L22 23L23 23L23 24L24 24L24 23L23 23L23 22L22 22L22 21L21 21L21 20L20 20L20 14L21 14L21 15L22 15L22 16L23 16L23 17L24 17L24 18L26 18L26 19L23 19L23 18L21 18L21 19L22 19L22 20L23 20L23 21L25 21L25 22L27 22L27 21L28 21L28 20L29 20L29 19L30 19L30 17L29 17L29 16L28 16L28 15L26 15L26 14L27 14L27 12L29 12L29 11L27 11L27 12L26 12L26 11L25 11L25 12L24 12L24 11L23 11L23 10L22 10L22 9L23 9L23 7L24 7L24 8L25 8L25 9L24 9L24 10L26 10L26 9L27 9L27 7L28 7L28 6L29 6L29 7L30 7L30 6L31 6L31 4L32 4L32 2L31 2L31 4L30 4L30 3L28 3L28 5L26 5L26 4L27 4L27 3L26 3L26 2L25 2L25 1ZM27 1L27 2L28 2L28 1ZM23 2L23 3L22 3L22 4L23 4L23 3L25 3L25 4L26 4L26 3L25 3L25 2ZM17 3L17 4L18 4L18 3ZM9 6L9 7L10 7L10 6ZM12 6L12 7L13 7L13 6ZM16 6L16 7L17 7L17 6ZM24 6L24 7L25 7L25 6ZM26 6L26 7L27 7L27 6ZM21 7L21 9L20 9L20 10L21 10L21 9L22 9L22 7ZM0 8L0 9L2 9L2 8ZM13 8L13 9L14 9L14 8ZM28 8L28 9L29 9L29 8ZM30 8L30 9L31 9L31 8ZM35 9L35 10L36 10L36 9ZM20 11L20 12L19 12L19 13L18 13L18 14L17 14L17 15L16 15L16 14L15 14L15 13L16 13L16 12L15 12L15 13L14 13L14 14L13 14L13 13L12 13L12 14L11 14L11 16L12 16L12 17L7 17L7 16L8 16L8 15L7 15L7 14L6 14L6 15L5 15L5 14L3 14L3 15L4 15L4 20L5 20L5 17L7 17L7 18L6 18L6 19L7 19L7 18L9 18L9 19L8 19L8 21L7 21L7 20L6 20L6 21L7 21L7 22L6 22L6 23L7 23L7 22L8 22L8 23L9 23L9 24L10 24L10 22L9 22L9 20L10 20L10 21L11 21L11 20L10 20L10 18L11 18L11 19L13 19L13 18L14 18L14 17L13 17L13 16L12 16L12 15L14 15L14 14L15 14L15 16L16 16L16 17L15 17L15 19L14 19L14 20L12 20L12 21L15 21L15 23L16 23L16 22L17 22L17 21L18 21L18 22L19 22L19 21L18 21L18 20L19 20L19 18L18 18L18 17L19 17L19 16L18 16L18 15L19 15L19 14L20 14L20 12L21 12L21 14L22 14L22 13L23 13L23 15L24 15L24 17L25 17L25 13L24 13L24 12L23 12L23 11ZM37 11L37 12L38 12L38 11ZM39 14L39 15L38 15L38 16L39 16L39 15L40 15L40 14ZM6 15L6 16L7 16L7 15ZM12 17L12 18L13 18L13 17ZM26 17L26 18L27 18L27 20L28 20L28 18L29 18L29 17ZM2 18L2 19L3 19L3 18ZM16 18L16 19L18 19L18 18ZM36 18L36 21L38 21L38 22L39 22L39 23L38 23L38 24L36 24L36 25L38 25L38 26L33 26L33 25L32 25L32 24L34 24L34 25L35 25L35 23L34 23L34 21L35 21L35 19L34 19L34 21L32 21L32 20L30 20L30 21L29 21L29 22L28 22L28 23L27 23L27 24L26 24L26 23L25 23L25 25L24 25L24 27L23 27L23 28L24 28L24 27L25 27L25 29L26 29L26 31L25 31L25 33L27 33L27 32L26 32L26 31L27 31L27 29L29 29L29 31L28 31L28 32L29 32L29 31L31 31L31 34L32 34L32 32L33 32L33 31L32 31L32 29L33 29L33 27L36 27L36 29L37 29L37 30L35 30L35 28L34 28L34 30L35 30L35 31L34 31L34 32L37 32L37 30L38 30L38 32L39 32L39 31L40 31L40 29L39 29L39 27L40 27L40 26L39 26L39 25L40 25L40 24L39 24L39 23L40 23L40 22L39 22L39 21L40 21L40 18ZM15 20L15 21L17 21L17 20ZM2 21L2 22L3 22L3 21ZM20 21L20 22L21 22L21 21ZM31 21L31 22L29 22L29 23L28 23L28 24L27 24L27 25L25 25L25 26L27 26L27 27L26 27L26 29L27 29L27 28L28 28L28 26L29 26L29 25L30 25L30 27L29 27L29 28L31 28L31 29L32 29L32 28L31 28L31 25L30 25L30 24L31 24L31 22L32 22L32 21ZM13 22L13 23L12 23L12 24L11 24L11 25L12 25L12 24L13 24L13 23L14 23L14 22ZM36 22L36 23L37 23L37 22ZM14 24L14 25L15 25L15 26L13 26L13 29L14 29L14 27L15 27L15 28L16 28L16 27L17 27L17 29L18 29L18 30L19 30L19 29L18 29L18 27L19 27L19 26L18 26L18 27L17 27L17 26L16 26L16 25L15 25L15 24ZM28 24L28 25L29 25L29 24ZM2 25L2 26L3 26L3 25ZM9 25L9 26L10 26L10 25ZM20 25L20 26L21 26L21 25ZM6 26L6 27L7 27L7 26ZM11 26L11 27L12 27L12 26ZM38 26L38 27L39 27L39 26ZM37 28L37 29L38 29L38 30L39 30L39 29L38 29L38 28ZM6 32L6 33L7 33L7 32ZM12 32L12 33L13 33L13 32ZM19 33L19 36L18 36L18 37L17 37L17 36L16 36L16 35L15 35L15 37L14 37L14 38L15 38L15 37L17 37L17 38L19 38L19 39L20 39L20 38L21 38L21 39L22 39L22 40L24 40L24 39L22 39L22 38L21 38L21 37L19 37L19 36L20 36L20 34L21 34L21 33ZM29 33L29 34L30 34L30 33ZM33 33L33 36L36 36L36 33ZM37 33L37 34L39 34L39 33ZM17 34L17 35L18 35L18 34ZM24 34L24 35L25 35L25 36L26 36L26 37L27 37L27 38L28 38L28 39L30 39L30 38L32 38L32 37L30 37L30 38L28 38L28 37L29 37L29 36L28 36L28 35L27 35L27 34L26 34L26 35L25 35L25 34ZM34 34L34 35L35 35L35 34ZM22 35L22 36L23 36L23 35ZM30 35L30 36L31 36L31 35ZM16 39L16 40L17 40L17 39ZM33 39L33 40L32 40L32 41L33 41L33 40L34 40L34 41L36 41L36 40L38 40L38 39L36 39L36 40L34 40L34 39ZM0 0L0 7L7 7L7 0ZM1 1L1 6L6 6L6 1ZM2 2L2 5L5 5L5 2ZM34 0L34 7L41 7L41 0ZM35 1L35 6L40 6L40 1ZM36 2L36 5L39 5L39 2ZM0 34L0 41L7 41L7 34ZM1 35L1 40L6 40L6 35ZM2 36L2 39L5 39L5 36Z" fill="#000000"/></g></g></svg>
