<?xml version="1.0" encoding="UTF-8"?>
<svg xmlns="http://www.w3.org/2000/svg" version="1.1" width="300" height="300" viewBox="0 0 300 300"><rect x="0" y="0" width="300" height="300" fill="#ffffff"/><g transform="scale(7.317)"><g transform="translate(0,0)"><path fill-rule="evenodd" d="M8 0L8 4L9 4L9 5L8 5L8 7L9 7L9 8L10 8L10 9L9 9L9 11L8 11L8 9L7 9L7 8L4 8L4 11L3 11L3 9L2 9L2 8L0 8L0 13L1 13L1 14L0 14L0 16L1 16L1 18L0 18L0 21L1 21L1 22L2 22L2 23L0 23L0 25L1 25L1 26L0 26L0 30L2 30L2 32L0 32L0 33L2 33L2 32L3 32L3 33L4 33L4 32L5 32L5 30L4 30L4 29L3 29L3 28L5 28L5 27L7 27L7 28L6 28L6 29L7 29L7 30L6 30L6 31L7 31L7 30L8 30L8 31L9 31L9 30L11 30L11 31L10 31L10 32L9 32L9 33L8 33L8 32L6 32L6 33L8 33L8 34L9 34L9 35L8 35L8 37L9 37L9 35L10 35L10 38L9 38L9 39L8 39L8 41L10 41L10 40L11 40L11 41L13 41L13 39L14 39L14 38L13 38L13 39L12 39L12 40L11 40L11 39L10 39L10 38L11 38L11 37L15 37L15 40L16 40L16 41L18 41L18 39L19 39L19 41L23 41L23 40L24 40L24 41L25 41L25 40L24 40L24 39L25 39L25 38L26 38L26 36L27 36L27 35L28 35L28 36L31 36L31 37L28 37L28 38L27 38L27 39L26 39L26 40L27 40L27 41L28 41L28 40L27 40L27 39L29 39L29 41L30 41L30 39L31 39L31 41L36 41L36 40L37 40L37 41L38 41L38 39L36 39L36 40L33 40L33 39L32 39L32 38L34 38L34 37L37 37L37 38L38 38L38 36L37 36L37 35L39 35L39 36L40 36L40 37L39 37L39 38L40 38L40 39L39 39L39 41L40 41L40 40L41 40L41 34L40 34L40 33L41 33L41 29L40 29L40 27L41 27L41 26L40 26L40 27L39 27L39 26L38 26L38 25L36 25L36 24L35 24L35 25L34 25L34 24L32 24L32 23L33 23L33 22L32 22L32 21L30 21L30 19L31 19L31 20L33 20L33 21L34 21L34 20L36 20L36 21L35 21L35 22L34 22L34 23L35 23L35 22L37 22L37 24L38 24L38 21L37 21L37 20L36 20L36 18L40 18L40 19L41 19L41 17L40 17L40 16L41 16L41 13L40 13L40 12L39 12L39 14L38 14L38 13L36 13L36 10L37 10L37 9L38 9L38 10L39 10L39 9L40 9L40 11L41 11L41 8L37 8L37 9L36 9L36 8L35 8L35 9L34 9L34 10L32 10L32 11L33 11L33 13L34 13L34 14L35 14L35 13L36 13L36 14L38 14L38 15L36 15L36 16L35 16L35 17L34 17L34 15L33 15L33 14L32 14L32 12L31 12L31 14L32 14L32 15L31 15L31 17L30 17L30 15L28 15L28 14L29 14L29 13L28 13L28 12L26 12L26 13L28 13L28 14L26 14L26 15L27 15L27 17L25 17L25 16L24 16L24 17L23 17L23 16L22 16L22 15L21 15L21 14L22 14L22 13L23 13L23 15L25 15L25 13L24 13L24 12L25 12L25 11L29 11L29 12L30 12L30 11L29 11L29 9L30 9L30 10L31 10L31 9L32 9L32 7L33 7L33 6L32 6L32 4L31 4L31 3L30 3L30 1L31 1L31 2L32 2L32 3L33 3L33 2L32 2L32 1L31 1L31 0L29 0L29 1L28 1L28 0L23 0L23 1L25 1L25 2L23 2L23 3L22 3L22 0L21 0L21 1L18 1L18 2L17 2L17 3L16 3L16 2L15 2L15 1L16 1L16 0L15 0L15 1L14 1L14 0L13 0L13 2L14 2L14 3L16 3L16 5L12 5L12 4L13 4L13 3L12 3L12 1L11 1L11 0ZM9 1L9 3L11 3L11 4L12 4L12 3L11 3L11 1ZM26 1L26 2L25 2L25 3L23 3L23 4L22 4L22 3L21 3L21 2L20 2L20 3L19 3L19 5L21 5L21 4L22 4L22 5L23 5L23 7L22 7L22 6L21 6L21 7L20 7L20 6L19 6L19 7L20 7L20 9L19 9L19 12L18 12L18 13L17 13L17 12L16 12L16 13L15 13L15 11L14 11L14 13L15 13L15 14L16 14L16 15L17 15L17 14L18 14L18 13L19 13L19 12L20 12L20 14L19 14L19 15L18 15L18 16L19 16L19 17L18 17L18 18L17 18L17 19L16 19L16 20L15 20L15 21L14 21L14 22L13 22L13 21L12 21L12 19L11 19L11 18L10 18L10 17L12 17L12 18L13 18L13 20L14 20L14 19L15 19L15 17L17 17L17 16L15 16L15 15L14 15L14 14L13 14L13 15L12 15L12 16L11 16L11 14L12 14L12 13L13 13L13 10L14 10L14 9L15 9L15 10L16 10L16 9L17 9L17 7L18 7L18 5L16 5L16 6L15 6L15 7L14 7L14 6L13 6L13 8L14 8L14 9L13 9L13 10L11 10L11 9L12 9L12 5L11 5L11 7L10 7L10 5L9 5L9 7L10 7L10 8L11 8L11 9L10 9L10 10L11 10L11 11L9 11L9 12L7 12L7 11L6 11L6 10L7 10L7 9L5 9L5 12L7 12L7 13L6 13L6 14L5 14L5 13L4 13L4 12L2 12L2 10L1 10L1 13L4 13L4 15L3 15L3 14L1 14L1 16L2 16L2 15L3 15L3 17L2 17L2 18L1 18L1 19L2 19L2 18L4 18L4 19L3 19L3 20L1 20L1 21L2 21L2 22L3 22L3 21L4 21L4 23L3 23L3 24L1 24L1 25L2 25L2 26L1 26L1 27L2 27L2 26L3 26L3 27L4 27L4 26L7 26L7 25L6 25L6 24L8 24L8 26L9 26L9 27L10 27L10 26L12 26L12 27L13 27L13 26L15 26L15 25L16 25L16 23L17 23L17 22L18 22L18 23L21 23L21 22L22 22L22 23L23 23L23 25L21 25L21 24L19 24L19 25L18 25L18 26L16 26L16 28L15 28L15 27L14 27L14 29L17 29L17 30L16 30L16 32L15 32L15 31L14 31L14 30L13 30L13 31L12 31L12 32L11 32L11 33L9 33L9 34L13 34L13 36L14 36L14 35L15 35L15 33L16 33L16 34L17 34L17 35L16 35L16 36L15 36L15 37L17 37L17 38L19 38L19 39L20 39L20 38L21 38L21 39L22 39L22 40L23 40L23 39L22 39L22 38L25 38L25 36L26 36L26 35L27 35L27 34L26 34L26 35L25 35L25 34L24 34L24 35L25 35L25 36L24 36L24 37L22 37L22 38L21 38L21 37L19 37L19 36L20 36L20 34L21 34L21 33L19 33L19 36L18 36L18 37L17 37L17 35L18 35L18 34L17 34L17 33L16 33L16 32L17 32L17 30L18 30L18 32L20 32L20 30L21 30L21 31L22 31L22 32L23 32L23 29L22 29L22 30L21 30L21 29L20 29L20 28L19 28L19 27L22 27L22 26L23 26L23 25L24 25L24 27L23 27L23 28L24 28L24 29L25 29L25 28L26 28L26 31L25 31L25 30L24 30L24 32L25 32L25 33L28 33L28 32L29 32L29 31L31 31L31 32L33 32L33 30L34 30L34 29L37 29L37 28L38 28L38 33L37 33L37 34L39 34L39 35L40 35L40 34L39 34L39 31L40 31L40 29L39 29L39 27L38 27L38 26L34 26L34 27L33 27L33 25L31 25L31 24L30 24L30 25L29 25L29 24L28 24L28 23L27 23L27 24L26 24L26 23L23 23L23 22L26 22L26 21L28 21L28 20L29 20L29 18L30 18L30 17L29 17L29 16L28 16L28 17L29 17L29 18L28 18L28 20L27 20L27 19L26 19L26 18L25 18L25 17L24 17L24 18L25 18L25 19L23 19L23 18L21 18L21 19L22 19L22 20L23 20L23 22L22 22L22 21L21 21L21 20L20 20L20 14L21 14L21 12L20 12L20 11L23 11L23 12L24 12L24 11L23 11L23 10L22 10L22 9L24 9L24 10L25 10L25 9L27 9L27 8L28 8L28 9L29 9L29 7L30 7L30 6L31 6L31 7L32 7L32 6L31 6L31 4L29 4L29 3L28 3L28 4L26 4L26 3L27 3L27 2L28 2L28 1ZM17 3L17 4L18 4L18 3ZM28 4L28 5L29 5L29 4ZM24 5L24 7L23 7L23 8L24 8L24 9L25 9L25 8L24 8L24 7L25 7L25 5ZM16 6L16 7L17 7L17 6ZM26 6L26 7L27 7L27 6ZM28 6L28 7L29 7L29 6ZM21 7L21 9L20 9L20 10L21 10L21 9L22 9L22 7ZM15 8L15 9L16 9L16 8ZM30 8L30 9L31 9L31 8ZM35 9L35 10L36 10L36 9ZM11 11L11 12L9 12L9 14L8 14L8 13L7 13L7 14L6 14L6 15L7 15L7 14L8 14L8 15L10 15L10 13L11 13L11 12L12 12L12 11ZM37 11L37 12L38 12L38 11ZM34 12L34 13L35 13L35 12ZM39 14L39 15L38 15L38 16L36 16L36 17L38 17L38 16L39 16L39 15L40 15L40 14ZM4 15L4 16L5 16L5 17L4 17L4 18L5 18L5 20L4 20L4 21L7 21L7 20L9 20L9 19L10 19L10 21L9 21L9 23L10 23L10 24L9 24L9 26L10 26L10 24L11 24L11 25L12 25L12 24L13 24L13 23L12 23L12 24L11 24L11 19L10 19L10 18L9 18L9 19L8 19L8 17L10 17L10 16L5 16L5 15ZM32 15L32 17L31 17L31 19L32 19L32 18L34 18L34 17L33 17L33 15ZM12 16L12 17L13 17L13 18L14 18L14 16ZM5 17L5 18L7 18L7 17ZM18 18L18 19L17 19L17 21L15 21L15 22L14 22L14 24L15 24L15 23L16 23L16 22L17 22L17 21L18 21L18 22L19 22L19 21L18 21L18 20L19 20L19 18ZM6 19L6 20L7 20L7 19ZM33 19L33 20L34 20L34 19ZM25 20L25 21L26 21L26 20ZM20 21L20 22L21 22L21 21ZM29 21L29 22L30 22L30 21ZM39 21L39 22L40 22L40 23L39 23L39 24L40 24L40 25L41 25L41 21ZM5 22L5 23L8 23L8 22ZM31 22L31 23L32 23L32 22ZM3 24L3 25L4 25L4 24ZM24 24L24 25L25 25L25 27L24 27L24 28L25 28L25 27L26 27L26 28L28 28L28 26L29 26L29 29L28 29L28 30L27 30L27 31L26 31L26 32L28 32L28 31L29 31L29 29L30 29L30 30L32 30L32 29L33 29L33 28L31 28L31 29L30 29L30 27L31 27L31 25L30 25L30 26L29 26L29 25L25 25L25 24ZM20 25L20 26L21 26L21 25ZM18 26L18 27L17 27L17 29L18 29L18 30L19 30L19 29L18 29L18 27L19 27L19 26ZM34 27L34 28L36 28L36 27ZM1 28L1 29L2 29L2 30L3 30L3 29L2 29L2 28ZM7 28L7 29L11 29L11 30L12 30L12 29L13 29L13 28ZM35 30L35 31L34 31L34 32L37 32L37 30ZM12 32L12 33L13 33L13 34L14 34L14 32ZM22 33L22 34L23 34L23 33ZM29 33L29 35L31 35L31 34L32 34L32 33L31 33L31 34L30 34L30 33ZM33 33L33 36L36 36L36 33ZM34 34L34 35L35 35L35 34ZM22 35L22 36L23 36L23 35ZM31 37L31 38L32 38L32 37ZM29 38L29 39L30 39L30 38ZM16 39L16 40L17 40L17 39ZM0 0L0 7L7 7L7 0ZM1 1L1 6L6 6L6 1ZM2 2L2 5L5 5L5 2ZM34 0L34 7L41 7L41 0ZM35 1L35 6L40 6L40 1ZM36 2L36 5L39 5L39 2ZM0 34L0 41L7 41L7 34ZM1 35L1 40L6 40L6 35ZM2 36L2 39L5 39L5 36Z" fill="#000000"/></g></g></svg>
