<?xml version="1.0" encoding="UTF-8"?>
<svg xmlns="http://www.w3.org/2000/svg" version="1.1" width="300" height="300" viewBox="0 0 300 300"><rect x="0" y="0" width="300" height="300" fill="#ffffff"/><g transform="scale(7.317)"><g transform="translate(0,0)"><path fill-rule="evenodd" d="M9 0L9 1L8 1L8 2L9 2L9 1L10 1L10 0ZM11 0L11 4L10 4L10 5L8 5L8 7L9 7L9 6L10 6L10 7L11 7L11 9L10 9L10 10L9 10L9 8L6 8L6 9L8 9L8 10L5 10L5 8L0 8L0 10L2 10L2 11L4 11L4 10L5 10L5 12L4 12L4 13L3 13L3 15L4 15L4 16L3 16L3 20L2 20L2 18L1 18L1 17L0 17L0 19L1 19L1 21L0 21L0 22L2 22L2 23L5 23L5 24L2 24L2 25L1 25L1 24L0 24L0 26L1 26L1 27L0 27L0 28L1 28L1 27L5 27L5 28L6 28L6 29L7 29L7 28L6 28L6 27L7 27L7 26L6 26L6 27L5 27L5 25L7 25L7 24L6 24L6 23L8 23L8 22L9 22L9 21L8 21L8 20L9 20L9 19L10 19L10 20L11 20L11 17L10 17L10 16L11 16L11 14L10 14L10 13L12 13L12 14L13 14L13 13L12 13L12 12L14 12L14 13L15 13L15 14L14 14L14 16L13 16L13 15L12 15L12 16L13 16L13 17L16 17L16 18L15 18L15 19L14 19L14 20L15 20L15 21L14 21L14 22L11 22L11 24L10 24L10 23L9 23L9 25L8 25L8 26L9 26L9 27L8 27L8 28L10 28L10 29L11 29L11 28L12 28L12 27L13 27L13 28L14 28L14 29L12 29L12 30L14 30L14 29L15 29L15 32L13 32L13 31L12 31L12 32L13 32L13 33L14 33L14 34L15 34L15 35L14 35L14 36L15 36L15 37L13 37L13 34L12 34L12 33L11 33L11 34L10 34L10 33L8 33L8 31L9 31L9 29L8 29L8 31L7 31L7 30L6 30L6 31L7 31L7 32L6 32L6 33L8 33L8 35L9 35L9 34L10 34L10 36L8 36L8 41L9 41L9 39L10 39L10 38L9 38L9 37L10 37L10 36L11 36L11 34L12 34L12 37L13 37L13 38L11 38L11 40L10 40L10 41L12 41L12 39L13 39L13 38L17 38L17 37L16 37L16 36L17 36L17 35L19 35L19 34L20 34L20 36L22 36L22 37L25 37L25 36L23 36L23 35L22 35L22 34L21 34L21 33L19 33L19 30L20 30L20 32L22 32L22 33L23 33L23 34L24 34L24 35L26 35L26 37L28 37L28 38L27 38L27 39L26 39L26 40L25 40L25 38L24 38L24 39L21 39L21 37L19 37L19 36L18 36L18 38L20 38L20 39L18 39L18 40L22 40L22 41L23 41L23 40L24 40L24 41L28 41L28 39L30 39L30 40L29 40L29 41L30 41L30 40L31 40L31 41L32 41L32 37L37 37L37 38L34 38L34 39L33 39L33 40L35 40L35 41L36 41L36 39L37 39L37 40L38 40L38 39L39 39L39 40L40 40L40 39L39 39L39 38L38 38L38 37L39 37L39 36L38 36L38 37L37 37L37 35L39 35L39 33L41 33L41 32L40 32L40 31L39 31L39 33L38 33L38 29L39 29L39 30L41 30L41 29L40 29L40 27L39 27L39 26L40 26L40 25L41 25L41 24L40 24L40 23L39 23L39 25L38 25L38 27L39 27L39 28L38 28L38 29L36 29L36 28L37 28L37 25L36 25L36 24L38 24L38 21L39 21L39 20L37 20L37 17L38 17L38 14L39 14L39 13L40 13L40 14L41 14L41 13L40 13L40 12L41 12L41 11L39 11L39 12L38 12L38 11L37 11L37 10L38 10L38 8L37 8L37 9L36 9L36 8L35 8L35 9L34 9L34 8L32 8L32 7L33 7L33 4L30 4L30 3L29 3L29 4L28 4L28 2L29 2L29 1L27 1L27 3L26 3L26 4L25 4L25 6L24 6L24 9L21 9L21 8L23 8L23 5L22 5L22 7L21 7L21 3L23 3L23 4L24 4L24 3L23 3L23 1L25 1L25 2L26 2L26 1L25 1L25 0L23 0L23 1L22 1L22 0L19 0L19 1L22 1L22 2L21 2L21 3L20 3L20 2L19 2L19 3L20 3L20 4L18 4L18 3L17 3L17 2L16 2L16 1L17 1L17 0L16 0L16 1L15 1L15 0L14 0L14 1L15 1L15 2L14 2L14 3L15 3L15 4L12 4L12 3L13 3L13 2L12 2L12 1L13 1L13 0ZM30 0L30 2L31 2L31 1L32 1L32 3L33 3L33 0ZM8 3L8 4L9 4L9 3ZM16 3L16 4L17 4L17 3ZM27 4L27 5L28 5L28 4ZM29 4L29 7L28 7L28 6L27 6L27 7L26 7L26 6L25 6L25 8L27 8L27 7L28 7L28 9L24 9L24 10L23 10L23 11L22 11L22 10L21 10L21 9L20 9L20 8L21 8L21 7L20 7L20 5L19 5L19 7L18 7L18 5L11 5L11 7L12 7L12 6L13 6L13 8L12 8L12 9L11 9L11 10L13 10L13 8L15 8L15 10L17 10L17 12L18 12L18 13L16 13L16 14L17 14L17 15L16 15L16 17L17 17L17 18L16 18L16 19L15 19L15 20L16 20L16 21L17 21L17 22L14 22L14 23L12 23L12 26L11 26L11 25L9 25L9 26L11 26L11 27L12 27L12 26L13 26L13 25L14 25L14 26L16 26L16 27L14 27L14 28L16 28L16 27L17 27L17 28L18 28L18 29L16 29L16 30L17 30L17 31L16 31L16 32L18 32L18 29L19 29L19 27L22 27L22 28L20 28L20 29L21 29L21 31L22 31L22 30L23 30L23 32L26 32L26 31L27 31L27 32L31 32L31 33L32 33L32 32L33 32L33 31L32 31L32 30L31 30L31 29L32 29L32 28L33 28L33 30L34 30L34 31L35 31L35 30L36 30L36 32L37 32L37 30L36 30L36 29L35 29L35 28L36 28L36 27L35 27L35 26L34 26L34 25L35 25L35 24L34 24L34 23L35 23L35 21L37 21L37 20L36 20L36 18L35 18L35 20L32 20L32 21L34 21L34 22L31 22L31 20L30 20L30 19L32 19L32 18L30 18L30 17L31 17L31 16L30 16L30 15L29 15L29 14L31 14L31 15L34 15L34 14L31 14L31 13L32 13L32 12L33 12L33 13L37 13L37 14L36 14L36 15L37 15L37 14L38 14L38 13L37 13L37 12L36 12L36 9L35 9L35 10L33 10L33 11L32 11L32 10L30 10L30 9L32 9L32 8L31 8L31 7L32 7L32 5L30 5L30 4ZM14 6L14 7L15 7L15 6ZM16 6L16 9L18 9L18 10L20 10L20 9L19 9L19 8L17 8L17 6ZM30 6L30 7L31 7L31 6ZM29 8L29 9L28 9L28 10L26 10L26 12L25 12L25 13L24 13L24 11L23 11L23 12L22 12L22 11L20 11L20 16L19 16L19 15L18 15L18 16L17 16L17 17L19 17L19 18L17 18L17 19L16 19L16 20L17 20L17 21L18 21L18 23L19 23L19 24L17 24L17 23L16 23L16 26L17 26L17 25L19 25L19 26L20 26L20 25L21 25L21 26L22 26L22 25L23 25L23 26L24 26L24 27L23 27L23 28L22 28L22 29L23 29L23 30L24 30L24 31L26 31L26 30L24 30L24 29L25 29L25 28L24 28L24 27L25 27L25 26L26 26L26 25L28 25L28 26L27 26L27 27L26 27L26 29L29 29L29 25L30 25L30 26L33 26L33 25L30 25L30 24L29 24L29 21L30 21L30 20L29 20L29 17L30 17L30 16L29 16L29 17L28 17L28 18L25 18L25 19L23 19L23 18L24 18L24 17L27 17L27 16L24 16L24 17L23 17L23 14L26 14L26 15L28 15L28 14L29 14L29 13L30 13L30 12L29 12L29 11L30 11L30 10L29 10L29 9L30 9L30 8ZM39 8L39 10L41 10L41 9L40 9L40 8ZM2 9L2 10L4 10L4 9ZM8 10L8 11L9 11L9 10ZM28 10L28 11L27 11L27 13L28 13L28 11L29 11L29 10ZM6 11L6 12L5 12L5 14L4 14L4 15L5 15L5 16L4 16L4 17L5 17L5 18L4 18L4 19L5 19L5 18L7 18L7 19L6 19L6 20L4 20L4 21L6 21L6 22L5 22L5 23L6 23L6 22L7 22L7 21L6 21L6 20L8 20L8 18L7 18L7 17L9 17L9 18L10 18L10 17L9 17L9 16L10 16L10 15L9 15L9 16L8 16L8 14L9 14L9 13L10 13L10 12L12 12L12 11L10 11L10 12L7 12L7 11ZM14 11L14 12L16 12L16 11ZM34 11L34 12L35 12L35 11ZM0 12L0 13L1 13L1 14L0 14L0 16L2 16L2 15L1 15L1 14L2 14L2 13L1 13L1 12ZM6 12L6 13L7 13L7 14L5 14L5 15L7 15L7 14L8 14L8 13L7 13L7 12ZM21 12L21 15L22 15L22 14L23 14L23 13L22 13L22 12ZM18 13L18 14L19 14L19 13ZM39 15L39 16L40 16L40 15ZM5 16L5 17L7 17L7 16ZM20 16L20 18L19 18L19 20L18 20L18 19L17 19L17 20L18 20L18 21L19 21L19 20L20 20L20 18L21 18L21 19L22 19L22 16ZM33 16L33 17L35 17L35 16ZM36 16L36 17L37 17L37 16ZM40 17L40 18L39 18L39 19L40 19L40 22L41 22L41 19L40 19L40 18L41 18L41 17ZM25 19L25 20L26 20L26 19ZM12 20L12 21L13 21L13 20ZM21 20L21 21L20 21L20 22L19 22L19 23L21 23L21 21L22 21L22 20ZM23 20L23 21L24 21L24 22L23 22L23 23L22 23L22 24L21 24L21 25L22 25L22 24L26 24L26 23L25 23L25 21L24 21L24 20ZM28 20L28 21L29 21L29 20ZM2 21L2 22L3 22L3 21ZM26 21L26 22L27 22L27 21ZM27 23L27 24L28 24L28 25L29 25L29 24L28 24L28 23ZM31 23L31 24L33 24L33 23ZM14 24L14 25L15 25L15 24ZM3 25L3 26L4 26L4 25ZM24 25L24 26L25 26L25 25ZM30 27L30 28L31 28L31 27ZM34 27L34 28L35 28L35 27ZM2 28L2 29L0 29L0 33L1 33L1 30L2 30L2 31L4 31L4 32L2 32L2 33L4 33L4 32L5 32L5 31L4 31L4 30L2 30L2 29L3 29L3 28ZM10 30L10 31L11 31L11 30ZM27 30L27 31L28 31L28 30ZM29 30L29 31L31 31L31 30ZM17 33L17 34L18 34L18 33ZM26 33L26 34L28 34L28 35L27 35L27 36L28 36L28 37L30 37L30 39L31 39L31 37L32 37L32 36L31 36L31 34L30 34L30 33L29 33L29 34L28 34L28 33ZM33 33L33 36L36 36L36 33ZM34 34L34 35L35 35L35 34ZM15 35L15 36L16 36L16 35ZM40 35L40 36L41 36L41 35ZM40 37L40 38L41 38L41 37ZM37 38L37 39L38 39L38 38ZM14 39L14 40L13 40L13 41L14 41L14 40L15 40L15 39ZM16 39L16 41L17 41L17 39ZM0 0L0 7L7 7L7 0ZM1 1L1 6L6 6L6 1ZM2 2L2 5L5 5L5 2ZM34 0L34 7L41 7L41 0ZM35 1L35 6L40 6L40 1ZM36 2L36 5L39 5L39 2ZM0 34L0 41L7 41L7 34ZM1 35L1 40L6 40L6 35ZM2 36L2 39L5 39L5 36Z" fill="#000000"/></g></g></svg>
