<?xml version="1.0" encoding="UTF-8"?>
<svg xmlns="http://www.w3.org/2000/svg" version="1.1" width="300" height="300" viewBox="0 0 300 300"><rect x="0" y="0" width="300" height="300" fill="#ffffff"/><g transform="scale(7.317)"><g transform="translate(0,0)"><path fill-rule="evenodd" d="M11 0L11 1L10 1L10 3L11 3L11 4L12 4L12 3L13 3L13 1L12 1L12 0ZM14 0L14 1L15 1L15 2L14 2L14 3L15 3L15 4L14 4L14 5L11 5L11 6L10 6L10 4L9 4L9 3L8 3L8 4L9 4L9 5L8 5L8 7L9 7L9 6L10 6L10 7L11 7L11 8L12 8L12 7L13 7L13 6L14 6L14 8L13 8L13 9L12 9L12 10L13 10L13 11L12 11L12 12L14 12L14 13L15 13L15 15L14 15L14 18L15 18L15 19L14 19L14 20L15 20L15 21L13 21L13 18L12 18L12 19L10 19L10 20L9 20L9 19L7 19L7 18L6 18L6 17L8 17L8 15L7 15L7 14L6 14L6 13L7 13L7 12L6 12L6 11L8 11L8 13L9 13L9 14L10 14L10 13L9 13L9 12L11 12L11 9L10 9L10 8L6 8L6 9L9 9L9 11L8 11L8 10L3 10L3 9L5 9L5 8L0 8L0 12L1 12L1 13L0 13L0 14L1 14L1 13L2 13L2 15L3 15L3 14L4 14L4 16L0 16L0 17L1 17L1 19L0 19L0 23L2 23L2 25L1 25L1 26L2 26L2 27L1 27L1 29L0 29L0 33L1 33L1 29L2 29L2 31L3 31L3 32L2 32L2 33L5 33L5 31L7 31L7 32L6 32L6 33L8 33L8 35L9 35L9 36L8 36L8 41L10 41L10 40L9 40L9 39L10 39L10 37L13 37L13 33L14 33L14 34L15 34L15 35L14 35L14 36L15 36L15 37L14 37L14 38L15 38L15 40L14 40L14 41L18 41L18 40L22 40L22 41L23 41L23 40L24 40L24 41L28 41L28 38L29 38L29 39L30 39L30 40L29 40L29 41L30 41L30 40L31 40L31 41L32 41L32 40L34 40L34 41L36 41L36 39L39 39L39 40L38 40L38 41L39 41L39 40L40 40L40 39L39 39L39 37L40 37L40 38L41 38L41 36L40 36L40 35L39 35L39 34L40 34L40 33L41 33L41 32L40 32L40 31L39 31L39 30L41 30L41 28L40 28L40 27L39 27L39 25L41 25L41 24L40 24L40 23L39 23L39 24L38 24L38 23L36 23L36 22L37 22L37 21L40 21L40 22L41 22L41 19L39 19L39 20L37 20L37 17L39 17L39 16L40 16L40 15L39 15L39 14L37 14L37 13L39 13L39 12L41 12L41 11L39 11L39 12L38 12L38 11L37 11L37 10L38 10L38 8L37 8L37 9L36 9L36 8L35 8L35 9L34 9L34 8L32 8L32 9L30 9L30 8L29 8L29 9L28 9L28 10L27 10L27 11L28 11L28 12L29 12L29 13L27 13L27 12L25 12L25 13L24 13L24 11L23 11L23 10L24 10L24 9L25 9L25 10L26 10L26 9L27 9L27 8L25 8L25 6L26 6L26 7L27 7L27 6L28 6L28 7L29 7L29 6L28 6L28 5L29 5L29 4L30 4L30 3L29 3L29 4L28 4L28 2L29 2L29 1L27 1L27 2L26 2L26 4L25 4L25 6L24 6L24 7L23 7L23 5L24 5L24 3L23 3L23 2L22 2L22 1L21 1L21 0L19 0L19 1L18 1L18 2L19 2L19 3L20 3L20 2L19 2L19 1L21 1L21 3L23 3L23 5L22 5L22 7L21 7L21 6L20 6L20 7L19 7L19 5L21 5L21 4L18 4L18 3L17 3L17 4L16 4L16 3L15 3L15 2L17 2L17 0ZM23 0L23 1L26 1L26 0ZM30 0L30 2L31 2L31 1L32 1L32 3L33 3L33 0ZM8 1L8 2L9 2L9 1ZM27 4L27 5L28 5L28 4ZM31 4L31 5L33 5L33 4ZM15 5L15 8L14 8L14 9L15 9L15 10L16 10L16 11L14 11L14 12L15 12L15 13L16 13L16 14L17 14L17 15L16 15L16 16L18 16L18 15L19 15L19 16L20 16L20 18L19 18L19 17L18 17L18 19L15 19L15 20L16 20L16 21L15 21L15 22L14 22L14 23L12 23L12 25L8 25L8 24L9 24L9 23L10 23L10 24L11 24L11 23L10 23L10 22L13 22L13 21L12 21L12 20L11 20L11 21L10 21L10 22L9 22L9 23L8 23L8 22L7 22L7 21L9 21L9 20L7 20L7 19L5 19L5 21L4 21L4 22L2 22L2 23L6 23L6 24L7 24L7 25L6 25L6 26L7 26L7 25L8 25L8 29L6 29L6 28L7 28L7 27L6 27L6 28L4 28L4 29L3 29L3 30L8 30L8 33L13 33L13 32L15 32L15 31L14 31L14 30L16 30L16 29L17 29L17 32L18 32L18 29L19 29L19 28L18 28L18 27L22 27L22 28L20 28L20 29L21 29L21 31L22 31L22 30L23 30L23 31L24 31L24 32L26 32L26 31L27 31L27 33L25 33L25 35L24 35L24 34L23 34L23 33L22 33L22 32L20 32L20 30L19 30L19 33L21 33L21 34L22 34L22 35L23 35L23 36L25 36L25 37L22 37L22 36L20 36L20 34L18 34L18 35L17 35L17 33L15 33L15 34L16 34L16 35L17 35L17 36L16 36L16 37L15 37L15 38L16 38L16 39L17 39L17 40L18 40L18 39L20 39L20 38L19 38L19 37L21 37L21 39L25 39L25 40L26 40L26 39L27 39L27 38L26 38L26 35L27 35L27 36L28 36L28 37L29 37L29 36L30 36L30 35L29 35L29 34L28 34L28 31L27 31L27 30L28 30L28 29L29 29L29 30L30 30L30 29L32 29L32 28L33 28L33 29L35 29L35 28L36 28L36 27L33 27L33 26L34 26L34 25L35 25L35 24L34 24L34 23L35 23L35 22L34 22L34 21L35 21L35 20L36 20L36 21L37 21L37 20L36 20L36 18L33 18L33 20L32 20L32 21L33 21L33 22L30 22L30 21L31 21L31 20L30 20L30 19L32 19L32 18L30 18L30 17L31 17L31 16L32 16L32 14L33 14L33 15L34 15L34 13L35 13L35 14L36 14L36 15L35 15L35 16L33 16L33 17L35 17L35 16L36 16L36 17L37 17L37 16L36 16L36 15L37 15L37 14L36 14L36 13L37 13L37 12L36 12L36 9L35 9L35 10L33 10L33 11L32 11L32 10L30 10L30 9L29 9L29 10L28 10L28 11L29 11L29 12L31 12L31 13L29 13L29 14L31 14L31 16L30 16L30 15L29 15L29 16L28 16L28 15L26 15L26 14L27 14L27 13L26 13L26 14L23 14L23 13L22 13L22 12L23 12L23 11L22 11L22 10L21 10L21 9L24 9L24 8L21 8L21 7L20 7L20 8L19 8L19 7L18 7L18 5ZM11 6L11 7L12 7L12 6ZM16 6L16 10L20 10L20 9L21 9L21 8L20 8L20 9L19 9L19 8L17 8L17 6ZM30 6L30 7L31 7L31 6ZM32 6L32 7L33 7L33 6ZM39 8L39 9L40 9L40 10L41 10L41 9L40 9L40 8ZM1 9L1 10L2 10L2 9ZM1 11L1 12L3 12L3 13L4 13L4 14L5 14L5 11ZM20 11L20 16L22 16L22 19L21 19L21 18L20 18L20 20L19 20L19 21L18 21L18 20L17 20L17 21L16 21L16 22L15 22L15 23L17 23L17 21L18 21L18 23L19 23L19 24L15 24L15 25L14 25L14 24L13 24L13 26L12 26L12 27L13 27L13 28L14 28L14 29L16 29L16 28L17 28L17 29L18 29L18 28L17 28L17 27L18 27L18 25L19 25L19 26L20 26L20 25L21 25L21 26L22 26L22 25L23 25L23 26L24 26L24 27L23 27L23 28L22 28L22 29L28 29L28 28L29 28L29 29L30 29L30 28L31 28L31 27L30 27L30 28L29 28L29 26L33 26L33 25L32 25L32 24L31 24L31 25L30 25L30 24L29 24L29 25L28 25L28 26L27 26L27 27L26 27L26 28L24 28L24 27L25 27L25 26L26 26L26 25L27 25L27 23L29 23L29 21L28 21L28 20L29 20L29 19L30 19L30 18L29 18L29 17L30 17L30 16L29 16L29 17L28 17L28 16L24 16L24 15L23 15L23 14L22 14L22 15L21 15L21 12L22 12L22 11ZM34 11L34 12L35 12L35 13L36 13L36 12L35 12L35 11ZM17 12L17 13L18 13L18 14L19 14L19 13L18 13L18 12ZM32 12L32 13L31 13L31 14L32 14L32 13L33 13L33 12ZM12 13L12 14L13 14L13 13ZM40 13L40 14L41 14L41 13ZM5 15L5 16L4 16L4 17L2 17L2 19L3 19L3 20L4 20L4 19L3 19L3 18L4 18L4 17L6 17L6 16L7 16L7 15ZM10 15L10 16L11 16L11 15ZM12 15L12 16L13 16L13 15ZM38 15L38 16L39 16L39 15ZM10 17L10 18L11 18L11 17ZM15 17L15 18L16 18L16 17ZM24 17L24 18L23 18L23 19L25 19L25 20L26 20L26 21L27 21L27 22L28 22L28 21L27 21L27 18L28 18L28 17L26 17L26 19L25 19L25 17ZM34 19L34 20L33 20L33 21L34 21L34 20L35 20L35 19ZM6 20L6 21L5 21L5 22L6 22L6 23L7 23L7 22L6 22L6 21L7 21L7 20ZM21 20L21 21L20 21L20 22L19 22L19 23L21 23L21 21L22 21L22 20ZM23 20L23 21L24 21L24 20ZM23 22L23 23L22 23L22 24L21 24L21 25L22 25L22 24L26 24L26 23L24 23L24 22ZM3 24L3 25L2 25L2 26L3 26L3 25L4 25L4 26L5 26L5 25L4 25L4 24ZM36 24L36 25L37 25L37 29L38 29L38 30L39 30L39 29L38 29L38 28L39 28L39 27L38 27L38 25L37 25L37 24ZM24 25L24 26L25 26L25 25ZM9 26L9 28L10 28L10 30L9 30L9 29L8 29L8 30L9 30L9 31L11 31L11 28L10 28L10 26ZM2 27L2 28L3 28L3 27ZM14 27L14 28L16 28L16 27ZM12 29L12 30L13 30L13 29ZM25 30L25 31L26 31L26 30ZM31 30L31 31L29 31L29 32L31 32L31 33L32 33L32 32L33 32L33 31L32 31L32 30ZM34 30L34 31L36 31L36 32L37 32L37 33L38 33L38 32L39 32L39 33L40 33L40 32L39 32L39 31L38 31L38 32L37 32L37 30ZM12 31L12 32L13 32L13 31ZM31 31L31 32L32 32L32 31ZM33 33L33 36L36 36L36 33ZM9 34L9 35L10 35L10 34ZM11 34L11 36L12 36L12 34ZM27 34L27 35L28 35L28 34ZM34 34L34 35L35 35L35 34ZM37 35L37 37L32 37L32 36L31 36L31 37L30 37L30 39L31 39L31 40L32 40L32 39L34 39L34 38L38 38L38 36L39 36L39 35ZM9 36L9 37L10 37L10 36ZM17 36L17 37L16 37L16 38L17 38L17 37L18 37L18 36ZM31 37L31 39L32 39L32 37ZM11 38L11 41L12 41L12 39L13 39L13 38ZM0 0L0 7L7 7L7 0ZM1 1L1 6L6 6L6 1ZM2 2L2 5L5 5L5 2ZM34 0L34 7L41 7L41 0ZM35 1L35 6L40 6L40 1ZM36 2L36 5L39 5L39 2ZM0 34L0 41L7 41L7 34ZM1 35L1 40L6 40L6 35ZM2 36L2 39L5 39L5 36Z" fill="#000000"/></g></g></svg>
