<?xml version="1.0" encoding="UTF-8"?>
<svg xmlns="http://www.w3.org/2000/svg" version="1.1" width="300" height="300" viewBox="0 0 300 300"><rect x="0" y="0" width="300" height="300" fill="#ffffff"/><g transform="scale(7.317)"><g transform="translate(0,0)"><path fill-rule="evenodd" d="M8 0L8 1L9 1L9 2L8 2L8 5L9 5L9 6L8 6L8 7L9 7L9 8L8 8L8 10L5 10L5 9L4 9L4 8L0 8L0 11L1 11L1 13L0 13L0 14L1 14L1 15L0 15L0 16L1 16L1 17L0 17L0 18L2 18L2 19L3 19L3 20L2 20L2 21L0 21L0 22L1 22L1 23L0 23L0 24L1 24L1 23L2 23L2 21L3 21L3 23L4 23L4 22L5 22L5 21L7 21L7 22L6 22L6 23L8 23L8 21L9 21L9 20L10 20L10 18L11 18L11 17L12 17L12 20L11 20L11 21L10 21L10 22L11 22L11 21L12 21L12 20L13 20L13 15L14 15L14 16L16 16L16 17L15 17L15 19L16 19L16 20L14 20L14 21L13 21L13 23L11 23L11 25L9 25L9 24L10 24L10 23L9 23L9 24L2 24L2 26L3 26L3 25L4 25L4 26L5 26L5 28L4 28L4 27L1 27L1 25L0 25L0 27L1 27L1 28L3 28L3 29L1 29L1 30L0 30L0 31L1 31L1 30L3 30L3 31L2 31L2 32L1 32L1 33L2 33L2 32L4 32L4 33L5 33L5 32L6 32L6 33L8 33L8 34L9 34L9 36L11 36L11 37L12 37L12 40L11 40L11 38L10 38L10 37L8 37L8 41L9 41L9 40L11 40L11 41L14 41L14 40L17 40L17 41L19 41L19 40L20 40L20 41L24 41L24 40L23 40L23 38L25 38L25 39L26 39L26 40L25 40L25 41L26 41L26 40L27 40L27 41L28 41L28 39L26 39L26 38L25 38L25 37L24 37L24 36L26 36L26 37L27 37L27 38L28 38L28 36L29 36L29 37L30 37L30 38L29 38L29 39L30 39L30 41L34 41L34 37L35 37L35 40L36 40L36 41L37 41L37 40L38 40L38 41L40 41L40 39L39 39L39 36L41 36L41 35L40 35L40 33L41 33L41 32L39 32L39 31L36 31L36 29L35 29L35 31L34 31L34 29L31 29L31 28L30 28L30 30L28 30L28 29L26 29L26 28L29 28L29 27L30 27L30 24L31 24L31 20L32 20L32 23L33 23L33 24L34 24L34 22L36 22L36 23L35 23L35 25L33 25L33 26L35 26L35 27L36 27L36 28L37 28L37 27L41 27L41 23L40 23L40 22L41 22L41 20L40 20L40 19L38 19L38 21L39 21L39 20L40 20L40 22L37 22L37 21L35 21L35 20L36 20L36 19L37 19L37 18L38 18L38 16L36 16L36 15L34 15L34 14L35 14L35 13L34 13L34 12L35 12L35 11L36 11L36 10L38 10L38 11L39 11L39 12L37 12L37 13L38 13L38 14L37 14L37 15L39 15L39 18L40 18L40 15L41 15L41 11L40 11L40 9L41 9L41 8L40 8L40 9L39 9L39 8L36 8L36 10L35 10L35 9L34 9L34 8L33 8L33 5L32 5L32 4L33 4L33 2L31 2L31 3L29 3L29 2L30 2L30 1L33 1L33 0L30 0L30 1L28 1L28 3L27 3L27 2L26 2L26 0L23 0L23 2L24 2L24 3L23 3L23 5L24 5L24 7L25 7L25 5L26 5L26 9L25 9L25 10L24 10L24 9L23 9L23 6L22 6L22 4L21 4L21 5L20 5L20 4L18 4L18 3L19 3L19 2L18 2L18 1L17 1L17 0L15 0L15 1L13 1L13 0L10 0L10 1L9 1L9 0ZM19 0L19 1L20 1L20 2L22 2L22 0ZM10 1L10 2L11 2L11 1ZM12 1L12 4L11 4L11 3L10 3L10 4L11 4L11 5L12 5L12 6L11 6L11 7L10 7L10 6L9 6L9 7L10 7L10 10L9 10L9 14L10 14L10 10L11 10L11 9L12 9L12 6L13 6L13 8L14 8L14 5L15 5L15 7L16 7L16 6L17 6L17 7L18 7L18 6L19 6L19 7L20 7L20 8L22 8L22 6L21 6L21 7L20 7L20 6L19 6L19 5L18 5L18 4L17 4L17 5L15 5L15 4L14 4L14 5L12 5L12 4L13 4L13 1ZM15 1L15 2L14 2L14 3L18 3L18 2L17 2L17 1ZM24 3L24 4L25 4L25 3ZM26 3L26 5L27 5L27 8L29 8L29 7L30 7L30 5L29 5L29 7L28 7L28 4L29 4L29 3L28 3L28 4L27 4L27 3ZM31 3L31 4L32 4L32 3ZM31 6L31 8L32 8L32 6ZM6 8L6 9L7 9L7 8ZM16 8L16 9L13 9L13 10L12 10L12 11L11 11L11 13L12 13L12 14L11 14L11 16L10 16L10 17L9 17L9 18L8 18L8 17L5 17L5 15L6 15L6 16L9 16L9 15L8 15L8 14L7 14L7 13L5 13L5 12L7 12L7 11L5 11L5 10L4 10L4 9L2 9L2 10L4 10L4 11L5 11L5 12L3 12L3 11L2 11L2 15L3 15L3 13L5 13L5 15L4 15L4 16L3 16L3 17L2 17L2 18L3 18L3 19L4 19L4 21L5 21L5 19L6 19L6 20L7 20L7 19L9 19L9 18L10 18L10 17L11 17L11 16L12 16L12 14L13 14L13 11L14 11L14 12L15 12L15 13L17 13L17 12L18 12L18 13L19 13L19 14L21 14L21 13L22 13L22 15L23 15L23 17L22 17L22 18L21 18L21 17L19 17L19 16L20 16L20 15L19 15L19 16L18 16L18 14L17 14L17 19L18 19L18 20L19 20L19 21L17 21L17 20L16 20L16 21L17 21L17 22L15 22L15 21L14 21L14 22L15 22L15 23L14 23L14 24L13 24L13 25L11 25L11 27L9 27L9 28L11 28L11 27L12 27L12 29L10 29L10 30L8 30L8 31L9 31L9 34L10 34L10 35L11 35L11 36L12 36L12 37L13 37L13 35L14 35L14 36L15 36L15 35L16 35L16 32L17 32L17 31L18 31L18 33L19 33L19 32L20 32L20 33L21 33L21 34L19 34L19 35L21 35L21 36L19 36L19 37L18 37L18 38L17 38L17 37L16 37L16 38L13 38L13 40L14 40L14 39L17 39L17 40L18 40L18 38L19 38L19 37L20 37L20 38L21 38L21 37L22 37L22 38L23 38L23 37L22 37L22 36L24 36L24 35L26 35L26 36L27 36L27 35L29 35L29 36L31 36L31 37L32 37L32 35L29 35L29 34L30 34L30 33L31 33L31 32L30 32L30 33L29 33L29 32L28 32L28 33L26 33L26 32L27 32L27 30L26 30L26 31L24 31L24 30L25 30L25 29L24 29L24 28L26 28L26 27L25 27L25 26L26 26L26 25L25 25L25 26L24 26L24 24L25 24L25 21L28 21L28 19L27 19L27 17L28 17L28 18L29 18L29 19L30 19L30 20L31 20L31 19L32 19L32 20L33 20L33 19L32 19L32 17L33 17L33 18L35 18L35 19L34 19L34 20L35 20L35 19L36 19L36 18L37 18L37 17L36 17L36 16L34 16L34 17L33 17L33 16L32 16L32 15L31 15L31 14L30 14L30 15L29 15L29 14L28 14L28 13L29 13L29 12L30 12L30 13L32 13L32 14L33 14L33 13L32 13L32 12L34 12L34 11L33 11L33 10L30 10L30 11L29 11L29 10L28 10L28 9L26 9L26 10L25 10L25 11L26 11L26 12L24 12L24 13L26 13L26 14L27 14L27 15L25 15L25 14L23 14L23 13L22 13L22 11L21 11L21 12L18 12L18 11L20 11L20 10L21 10L21 9L20 9L20 10L18 10L18 9L19 9L19 8L18 8L18 9L17 9L17 8ZM38 9L38 10L39 10L39 9ZM16 10L16 12L17 12L17 10ZM26 10L26 11L27 11L27 12L26 12L26 13L27 13L27 12L28 12L28 11L27 11L27 10ZM31 11L31 12L32 12L32 11ZM6 14L6 15L7 15L7 14ZM14 14L14 15L16 15L16 14ZM24 15L24 16L25 16L25 17L23 17L23 18L22 18L22 20L20 20L20 21L19 21L19 22L20 22L20 24L19 24L19 23L18 23L18 22L17 22L17 23L16 23L16 24L14 24L14 25L13 25L13 27L15 27L15 28L16 28L16 29L15 29L15 31L14 31L14 28L13 28L13 31L14 31L14 32L12 32L12 33L11 33L11 30L10 30L10 33L11 33L11 35L12 35L12 34L14 34L14 33L15 33L15 32L16 32L16 30L17 30L17 27L18 27L18 29L20 29L20 31L21 31L21 30L22 30L22 32L21 32L21 33L22 33L22 32L23 32L23 30L24 30L24 29L23 29L23 28L24 28L24 27L23 27L23 26L21 26L21 22L22 22L22 25L23 25L23 23L24 23L24 21L25 21L25 20L24 20L24 21L22 21L22 20L23 20L23 18L26 18L26 16L25 16L25 15ZM28 15L28 16L29 16L29 15ZM30 15L30 17L31 17L31 15ZM18 17L18 18L19 18L19 17ZM35 17L35 18L36 18L36 17ZM4 18L4 19L5 19L5 18ZM6 18L6 19L7 19L7 18ZM20 18L20 19L21 19L21 18ZM0 19L0 20L1 20L1 19ZM26 19L26 20L27 20L27 19ZM20 21L20 22L21 22L21 21ZM29 21L29 22L30 22L30 21ZM33 21L33 22L34 22L34 21ZM26 22L26 23L28 23L28 22ZM17 23L17 24L16 24L16 25L14 25L14 26L15 26L15 27L17 27L17 26L16 26L16 25L17 25L17 24L18 24L18 23ZM29 23L29 24L27 24L27 25L29 25L29 24L30 24L30 23ZM36 23L36 25L35 25L35 26L36 26L36 27L37 27L37 26L39 26L39 25L37 25L37 24L40 24L40 23ZM5 25L5 26L7 26L7 27L6 27L6 28L5 28L5 29L4 29L4 32L5 32L5 30L7 30L7 29L8 29L8 26L9 26L9 25L8 25L8 26L7 26L7 25ZM31 25L31 27L32 27L32 25ZM18 26L18 27L19 27L19 26ZM20 26L20 27L21 27L21 26ZM27 26L27 27L29 27L29 26ZM22 27L22 28L23 28L23 27ZM6 28L6 29L7 29L7 28ZM40 28L40 29L41 29L41 28ZM37 29L37 30L39 30L39 29ZM18 30L18 31L19 31L19 30ZM31 30L31 31L32 31L32 32L34 32L34 31L32 31L32 30ZM6 31L6 32L7 32L7 31ZM35 31L35 32L36 32L36 31ZM38 32L38 33L39 33L39 32ZM23 33L23 35L24 35L24 34L26 34L26 35L27 35L27 34L26 34L26 33ZM28 33L28 34L29 34L29 33ZM33 33L33 36L36 36L36 33ZM17 34L17 36L18 36L18 34ZM34 34L34 35L35 35L35 34ZM38 34L38 36L37 36L37 38L36 38L36 40L37 40L37 39L38 39L38 40L39 40L39 39L38 39L38 36L39 36L39 34ZM9 38L9 39L10 39L10 38ZM31 38L31 39L33 39L33 38ZM0 0L0 7L7 7L7 0ZM1 1L1 6L6 6L6 1ZM2 2L2 5L5 5L5 2ZM34 0L34 7L41 7L41 0ZM35 1L35 6L40 6L40 1ZM36 2L36 5L39 5L39 2ZM0 34L0 41L7 41L7 34ZM1 35L1 40L6 40L6 35ZM2 36L2 39L5 39L5 36Z" fill="#000000"/></g></g></svg>
