<?xml version="1.0" encoding="UTF-8"?>
<svg xmlns="http://www.w3.org/2000/svg" version="1.1" width="300" height="300" viewBox="0 0 300 300"><rect x="0" y="0" width="300" height="300" fill="#ffffff"/><g transform="scale(7.317)"><g transform="translate(0,0)"><path fill-rule="evenodd" d="M12 0L12 1L10 1L10 2L12 2L12 1L13 1L13 2L14 2L14 1L15 1L15 2L16 2L16 4L15 4L15 3L14 3L14 4L15 4L15 6L14 6L14 7L15 7L15 6L16 6L16 7L17 7L17 8L18 8L18 9L16 9L16 8L14 8L14 9L11 9L11 8L9 8L9 6L10 6L10 7L11 7L11 6L12 6L12 8L13 8L13 3L12 3L12 4L10 4L10 3L9 3L9 1L8 1L8 3L9 3L9 4L8 4L8 8L6 8L6 9L8 9L8 8L9 8L9 10L8 10L8 11L7 11L7 10L5 10L5 9L4 9L4 8L3 8L3 9L2 9L2 8L0 8L0 12L1 12L1 10L2 10L2 11L3 11L3 9L4 9L4 10L5 10L5 11L4 11L4 12L2 12L2 13L1 13L1 14L0 14L0 15L1 15L1 16L0 16L0 17L1 17L1 18L3 18L3 19L0 19L0 20L1 20L1 21L0 21L0 22L2 22L2 23L1 23L1 25L2 25L2 24L3 24L3 25L4 25L4 26L2 26L2 27L1 27L1 26L0 26L0 27L1 27L1 28L0 28L0 29L1 29L1 30L0 30L0 31L1 31L1 30L2 30L2 31L3 31L3 33L4 33L4 32L5 32L5 33L7 33L7 32L9 32L9 33L8 33L8 35L11 35L11 34L13 34L13 37L12 37L12 36L11 36L11 37L10 37L10 36L9 36L9 37L8 37L8 38L9 38L9 39L8 39L8 41L9 41L9 40L10 40L10 39L11 39L11 40L12 40L12 38L13 38L13 37L14 37L14 36L17 36L17 37L16 37L16 38L17 38L17 39L15 39L15 38L14 38L14 39L13 39L13 40L14 40L14 41L15 41L15 40L17 40L17 41L18 41L18 37L19 37L19 38L20 38L20 40L19 40L19 41L23 41L23 39L25 39L25 40L24 40L24 41L25 41L25 40L28 40L28 39L29 39L29 41L30 41L30 39L29 39L29 38L28 38L28 39L25 39L25 38L23 38L23 37L24 37L24 36L25 36L25 37L26 37L26 38L27 38L27 37L26 37L26 35L27 35L27 34L24 34L24 36L23 36L23 35L21 35L21 36L20 36L20 34L21 34L21 33L22 33L22 30L21 30L21 31L20 31L20 32L21 32L21 33L20 33L20 34L19 34L19 35L18 35L18 34L17 34L17 33L15 33L15 31L14 31L14 33L15 33L15 34L16 34L16 35L14 35L14 34L13 34L13 32L11 32L11 34L9 34L9 33L10 33L10 30L11 30L11 29L13 29L13 30L15 30L15 29L13 29L13 28L14 28L14 27L15 27L15 28L16 28L16 29L18 29L18 27L19 27L19 26L20 26L20 24L19 24L19 23L21 23L21 27L20 27L20 29L24 29L24 31L23 31L23 32L24 32L24 33L28 33L28 34L29 34L29 35L30 35L30 36L28 36L28 37L30 37L30 38L31 38L31 40L32 40L32 41L33 41L33 40L34 40L34 41L36 41L36 40L37 40L37 39L38 39L38 38L37 38L37 36L39 36L39 38L41 38L41 35L40 35L40 34L39 34L39 33L41 33L41 29L38 29L38 27L39 27L39 28L41 28L41 26L40 26L40 27L39 27L39 25L38 25L38 24L40 24L40 22L41 22L41 21L40 21L40 22L36 22L36 23L34 23L34 22L35 22L35 21L36 21L36 19L37 19L37 18L38 18L38 19L39 19L39 20L37 20L37 21L39 21L39 20L41 20L41 18L39 18L39 17L40 17L40 15L41 15L41 14L38 14L38 12L39 12L39 13L41 13L41 11L39 11L39 10L36 10L36 9L37 9L37 8L34 8L34 9L33 9L33 6L32 6L32 3L33 3L33 1L32 1L32 0L30 0L30 1L29 1L29 0L26 0L26 1L27 1L27 2L28 2L28 3L26 3L26 4L28 4L28 5L27 5L27 6L26 6L26 7L27 7L27 8L24 8L24 7L25 7L25 6L24 6L24 7L23 7L23 5L22 5L22 4L21 4L21 5L22 5L22 7L21 7L21 6L20 6L20 5L19 5L19 6L18 6L18 7L17 7L17 5L18 5L18 4L20 4L20 2L19 2L19 3L18 3L18 1L15 1L15 0L14 0L14 1L13 1L13 0ZM19 0L19 1L20 1L20 0ZM22 0L22 2L23 2L23 3L24 3L24 4L25 4L25 3L24 3L24 2L25 2L25 0ZM28 1L28 2L29 2L29 1ZM30 1L30 3L29 3L29 5L28 5L28 6L27 6L27 7L28 7L28 8L27 8L27 9L25 9L25 10L24 10L24 8L23 8L23 7L22 7L22 8L23 8L23 11L22 11L22 13L21 13L21 14L22 14L22 15L23 15L23 16L25 16L25 18L22 18L22 17L21 17L21 18L20 18L20 16L19 16L19 15L20 15L20 12L21 12L21 11L20 11L20 12L18 12L18 11L17 11L17 12L18 12L18 13L19 13L19 14L18 14L18 16L19 16L19 18L18 18L18 17L16 17L16 16L15 16L15 15L16 15L16 14L17 14L17 13L16 13L16 12L14 12L14 13L13 13L13 11L12 11L12 10L10 10L10 11L9 11L9 12L7 12L7 11L5 11L5 12L7 12L7 13L6 13L6 14L9 14L9 15L6 15L6 16L11 16L11 19L10 19L10 20L14 20L14 18L15 18L15 19L16 19L16 18L17 18L17 19L18 19L18 20L16 20L16 21L19 21L19 22L21 22L21 23L22 23L22 25L23 25L23 26L24 26L24 24L25 24L25 23L26 23L26 25L25 25L25 26L27 26L27 27L26 27L26 28L24 28L24 27L22 27L22 28L24 28L24 29L26 29L26 30L27 30L27 31L28 31L28 33L30 33L30 34L31 34L31 36L30 36L30 37L32 37L32 40L33 40L33 38L34 38L34 40L36 40L36 38L34 38L34 37L32 37L32 32L31 32L31 33L30 33L30 32L29 32L29 30L31 30L31 31L34 31L34 32L37 32L37 31L38 31L38 32L39 32L39 31L38 31L38 30L37 30L37 27L38 27L38 25L37 25L37 24L36 24L36 25L33 25L33 26L31 26L31 25L32 25L32 24L34 24L34 23L31 23L31 22L32 22L32 21L33 21L33 22L34 22L34 20L32 20L32 21L31 21L31 19L33 19L33 16L32 16L32 12L30 12L30 10L32 10L32 11L33 11L33 12L35 12L35 13L34 13L34 15L35 15L35 16L34 16L34 17L35 17L35 16L36 16L36 18L35 18L35 19L36 19L36 18L37 18L37 17L38 17L38 16L39 16L39 15L38 15L38 14L37 14L37 13L36 13L36 12L38 12L38 11L36 11L36 10L32 10L32 9L31 9L31 8L32 8L32 6L31 6L31 8L29 8L29 7L30 7L30 3L32 3L32 1ZM17 3L17 4L18 4L18 3ZM19 6L19 7L20 7L20 6ZM28 6L28 7L29 7L29 6ZM19 8L19 9L18 9L18 10L21 10L21 9L20 9L20 8ZM28 8L28 10L29 10L29 8ZM38 8L38 9L40 9L40 10L41 10L41 9L40 9L40 8ZM15 9L15 10L14 10L14 11L16 11L16 9ZM25 10L25 11L23 11L23 13L22 13L22 14L23 14L23 15L25 15L25 16L26 16L26 15L27 15L27 16L29 16L29 17L28 17L28 18L29 18L29 21L27 21L27 20L28 20L28 19L27 19L27 17L26 17L26 18L25 18L25 19L27 19L27 20L23 20L23 21L22 21L22 18L21 18L21 19L20 19L20 20L19 20L19 21L21 21L21 22L22 22L22 23L23 23L23 24L24 24L24 23L23 23L23 22L25 22L25 21L26 21L26 22L30 22L30 19L31 19L31 18L29 18L29 17L30 17L30 15L31 15L31 14L30 14L30 12L29 12L29 11L28 11L28 12L27 12L27 10ZM10 11L10 12L9 12L9 13L11 13L11 16L12 16L12 19L13 19L13 16L14 16L14 15L13 15L13 16L12 16L12 13L11 13L11 12L12 12L12 11ZM25 12L25 13L26 13L26 14L25 14L25 15L26 15L26 14L27 14L27 15L30 15L30 14L29 14L29 13L27 13L27 12ZM2 13L2 16L3 16L3 15L4 15L4 18L5 18L5 19L4 19L4 20L3 20L3 21L2 21L2 22L3 22L3 24L5 24L5 26L4 26L4 27L2 27L2 28L1 28L1 29L2 29L2 30L4 30L4 31L5 31L5 30L8 30L8 31L9 31L9 28L8 28L8 29L6 29L6 28L7 28L7 27L9 27L9 26L12 26L12 27L10 27L10 28L13 28L13 27L14 27L14 26L12 26L12 25L11 25L11 24L10 24L10 25L9 25L9 24L7 24L7 23L8 23L8 22L10 22L10 23L11 23L11 21L9 21L9 20L8 20L8 17L6 17L6 18L5 18L5 13ZM35 14L35 15L37 15L37 14ZM31 16L31 17L32 17L32 16ZM6 18L6 19L7 19L7 18ZM6 20L6 21L4 21L4 23L7 23L7 22L6 22L6 21L8 21L8 20ZM14 21L14 22L15 22L15 23L16 23L16 24L15 24L15 25L16 25L16 26L15 26L15 27L16 27L16 26L17 26L17 27L18 27L18 26L17 26L17 25L16 25L16 24L18 24L18 22L15 22L15 21ZM27 23L27 25L29 25L29 26L30 26L30 24L31 24L31 23L30 23L30 24L28 24L28 23ZM6 24L6 25L7 25L7 26L5 26L5 27L4 27L4 30L5 30L5 28L6 28L6 27L7 27L7 26L8 26L8 25L7 25L7 24ZM33 26L33 28L36 28L36 27L37 27L37 26L36 26L36 27L35 27L35 26ZM27 27L27 28L28 28L28 29L29 29L29 28L31 28L31 30L32 30L32 27ZM2 28L2 29L3 29L3 28ZM34 29L34 31L37 31L37 30L36 30L36 29ZM16 30L16 32L18 32L18 33L19 33L19 32L18 32L18 31L19 31L19 30L18 30L18 31L17 31L17 30ZM6 31L6 32L7 32L7 31ZM24 31L24 32L26 32L26 31ZM0 32L0 33L1 33L1 32ZM33 33L33 36L36 36L36 33ZM37 33L37 35L39 35L39 34L38 34L38 33ZM34 34L34 35L35 35L35 34ZM17 35L17 36L18 36L18 35ZM19 36L19 37L20 37L20 36ZM22 36L22 37L21 37L21 38L22 38L22 37L23 37L23 36ZM9 37L9 38L10 38L10 37ZM11 37L11 38L12 38L12 37ZM14 39L14 40L15 40L15 39ZM39 39L39 41L40 41L40 39ZM0 0L0 7L7 7L7 0ZM1 1L1 6L6 6L6 1ZM2 2L2 5L5 5L5 2ZM34 0L34 7L41 7L41 0ZM35 1L35 6L40 6L40 1ZM36 2L36 5L39 5L39 2ZM0 34L0 41L7 41L7 34ZM1 35L1 40L6 40L6 35ZM2 36L2 39L5 39L5 36Z" fill="#000000"/></g></g></svg>
