<?xml version="1.0" encoding="UTF-8"?>
<svg xmlns="http://www.w3.org/2000/svg" version="1.1" width="300" height="300" viewBox="0 0 300 300"><rect x="0" y="0" width="300" height="300" fill="#ffffff"/><g transform="scale(7.317)"><g transform="translate(0,0)"><path fill-rule="evenodd" d="M9 0L9 1L8 1L8 3L10 3L10 4L11 4L11 6L10 6L10 7L11 7L11 6L12 6L12 7L13 7L13 6L14 6L14 7L15 7L15 5L14 5L14 3L16 3L16 2L17 2L17 3L18 3L18 4L16 4L16 5L19 5L19 6L18 6L18 7L17 7L17 6L16 6L16 7L17 7L17 8L12 8L12 9L10 9L10 8L9 8L9 4L8 4L8 8L6 8L6 9L4 9L4 8L3 8L3 9L2 9L2 8L0 8L0 10L1 10L1 11L0 11L0 13L1 13L1 12L2 12L2 14L0 14L0 15L1 15L1 16L0 16L0 23L1 23L1 24L0 24L0 25L1 25L1 28L0 28L0 29L1 29L1 30L0 30L0 31L1 31L1 30L2 30L2 31L3 31L3 32L2 32L2 33L5 33L5 32L6 32L6 33L7 33L7 32L8 32L8 35L9 35L9 33L11 33L11 34L10 34L10 36L9 36L9 37L8 37L8 38L9 38L9 39L8 39L8 41L9 41L9 40L11 40L11 41L12 41L12 40L14 40L14 39L13 39L13 36L14 36L14 38L15 38L15 39L16 39L16 40L15 40L15 41L16 41L16 40L18 40L18 37L19 37L19 38L20 38L20 40L19 40L19 41L23 41L23 40L24 40L24 41L25 41L25 40L27 40L27 41L28 41L28 40L29 40L29 41L30 41L30 39L29 39L29 38L28 38L28 37L30 37L30 36L31 36L31 34L30 34L30 36L28 36L28 37L27 37L27 38L28 38L28 39L24 39L24 38L23 38L23 37L24 37L24 36L26 36L26 35L27 35L27 34L26 34L26 33L27 33L27 32L28 32L28 31L27 31L27 29L25 29L25 31L24 31L24 32L23 32L23 33L25 33L25 34L24 34L24 36L23 36L23 35L21 35L21 36L20 36L20 34L21 34L21 33L22 33L22 30L21 30L21 31L20 31L20 32L21 32L21 33L20 33L20 34L18 34L18 33L19 33L19 32L18 32L18 31L19 31L19 30L18 30L18 31L14 31L14 30L16 30L16 29L18 29L18 28L19 28L19 27L18 27L18 26L20 26L20 24L19 24L19 23L21 23L21 27L20 27L20 29L23 29L23 30L24 30L24 28L26 28L26 26L25 26L25 25L26 25L26 23L25 23L25 22L24 22L24 23L23 23L23 21L24 21L24 20L23 20L23 21L22 21L22 18L25 18L25 19L27 19L27 20L26 20L26 21L27 21L27 20L28 20L28 19L27 19L27 17L26 17L26 18L25 18L25 16L26 16L26 15L27 15L27 14L26 14L26 11L27 11L27 10L26 10L26 11L23 11L23 9L24 9L24 10L25 10L25 9L27 9L27 8L28 8L28 10L30 10L30 9L29 9L29 8L31 8L31 6L32 6L32 7L33 7L33 5L31 5L31 4L32 4L32 3L33 3L33 1L32 1L32 0L30 0L30 1L29 1L29 0L26 0L26 3L24 3L24 2L25 2L25 0L22 0L22 1L23 1L23 3L24 3L24 4L26 4L26 5L27 5L27 6L26 6L26 7L27 7L27 8L25 8L25 5L24 5L24 7L23 7L23 5L22 5L22 4L21 4L21 3L20 3L20 2L19 2L19 1L20 1L20 0L19 0L19 1L15 1L15 2L14 2L14 3L13 3L13 4L12 4L12 2L13 2L13 1L10 1L10 0ZM9 1L9 2L10 2L10 1ZM28 1L28 2L27 2L27 3L28 3L28 2L29 2L29 1ZM31 1L31 2L30 2L30 3L32 3L32 1ZM18 2L18 3L19 3L19 2ZM19 4L19 5L20 5L20 6L19 6L19 9L18 9L18 8L17 8L17 9L18 9L18 10L16 10L16 9L12 9L12 12L11 12L11 13L12 13L12 16L10 16L10 15L11 15L11 14L10 14L10 11L9 11L9 10L7 10L7 9L6 9L6 10L7 10L7 11L6 11L6 12L7 12L7 13L6 13L6 14L4 14L4 11L5 11L5 10L4 10L4 9L3 9L3 14L4 14L4 15L2 15L2 17L1 17L1 18L3 18L3 16L7 16L7 17L5 17L5 18L4 18L4 20L3 20L3 19L2 19L2 20L3 20L3 22L1 22L1 23L2 23L2 24L3 24L3 22L5 22L5 23L4 23L4 24L5 24L5 25L6 25L6 26L5 26L5 27L4 27L4 28L3 28L3 27L2 27L2 28L3 28L3 29L2 29L2 30L4 30L4 32L5 32L5 31L6 31L6 32L7 32L7 31L6 31L6 30L8 30L8 32L9 32L9 31L10 31L10 32L11 32L11 31L12 31L12 33L13 33L13 32L14 32L14 31L13 31L13 28L14 28L14 29L16 29L16 28L17 28L17 27L16 27L16 26L17 26L17 25L15 25L15 27L13 27L13 26L12 26L12 25L11 25L11 22L9 22L9 23L8 23L8 21L9 21L9 20L8 20L8 19L9 19L9 18L10 18L10 20L11 20L11 21L12 21L12 20L13 20L13 22L14 22L14 24L16 24L16 23L17 23L17 24L18 24L18 22L21 22L21 23L22 23L22 25L23 25L23 26L24 26L24 24L23 24L23 23L22 23L22 22L21 22L21 21L19 21L19 20L20 20L20 19L21 19L21 18L22 18L22 17L21 17L21 18L20 18L20 16L19 16L19 15L20 15L20 13L21 13L21 14L22 14L22 15L23 15L23 14L25 14L25 15L24 15L24 16L25 16L25 15L26 15L26 14L25 14L25 12L24 12L24 13L23 13L23 11L22 11L22 13L21 13L21 11L20 11L20 12L18 12L18 11L19 11L19 10L21 10L21 9L20 9L20 8L21 8L21 7L22 7L22 8L23 8L23 7L22 7L22 5L21 5L21 4ZM29 4L29 7L30 7L30 4ZM12 5L12 6L13 6L13 5ZM20 6L20 7L21 7L21 6ZM27 6L27 7L28 7L28 6ZM8 8L8 9L9 9L9 8ZM32 8L32 10L31 10L31 12L29 12L29 11L28 11L28 12L27 12L27 13L29 13L29 14L28 14L28 15L29 15L29 17L28 17L28 18L29 18L29 20L30 20L30 21L28 21L28 23L27 23L27 25L30 25L30 24L32 24L32 25L31 25L31 26L29 26L29 27L27 27L27 28L29 28L29 29L28 29L28 30L29 30L29 32L30 32L30 33L31 33L31 29L32 29L32 31L33 31L33 32L32 32L32 37L31 37L31 39L32 39L32 40L31 40L31 41L36 41L36 40L37 40L37 41L38 41L38 39L37 39L37 38L39 38L39 41L40 41L40 39L41 39L41 38L39 38L39 37L37 37L37 36L41 36L41 35L40 35L40 34L39 34L39 33L38 33L38 34L39 34L39 35L37 35L37 32L38 32L38 31L36 31L36 32L34 32L34 31L35 31L35 30L36 30L36 29L38 29L38 27L39 27L39 28L40 28L40 29L39 29L39 32L41 32L41 26L39 26L39 24L40 24L40 22L41 22L41 20L40 20L40 19L41 19L41 17L40 17L40 15L41 15L41 14L39 14L39 13L38 13L38 12L39 12L39 11L40 11L40 10L41 10L41 9L40 9L40 8L38 8L38 9L39 9L39 10L36 10L36 9L37 9L37 8L34 8L34 9L33 9L33 8ZM1 9L1 10L2 10L2 9ZM32 10L32 11L35 11L35 14L34 14L34 15L35 15L35 16L34 16L34 17L35 17L35 16L36 16L36 18L35 18L35 19L34 19L34 18L33 18L33 15L32 15L32 13L33 13L33 12L31 12L31 15L30 15L30 14L29 14L29 15L30 15L30 17L29 17L29 18L30 18L30 19L34 19L34 20L35 20L35 21L34 21L34 23L33 23L33 21L31 21L31 22L29 22L29 23L28 23L28 24L30 24L30 23L31 23L31 22L32 22L32 23L33 23L33 24L34 24L34 23L35 23L35 24L36 24L36 25L33 25L33 26L31 26L31 27L32 27L32 29L33 29L33 28L34 28L34 29L35 29L35 28L34 28L34 27L36 27L36 28L37 28L37 27L38 27L38 22L40 22L40 20L39 20L39 19L38 19L38 18L37 18L37 17L39 17L39 18L40 18L40 17L39 17L39 15L38 15L38 13L36 13L36 12L38 12L38 11L36 11L36 10ZM8 11L8 13L9 13L9 11ZM14 11L14 12L15 12L15 14L14 14L14 13L13 13L13 16L12 16L12 18L14 18L14 20L15 20L15 21L14 21L14 22L15 22L15 23L16 23L16 22L18 22L18 21L17 21L17 20L18 20L18 19L19 19L19 16L18 16L18 12L17 12L17 13L16 13L16 12L15 12L15 11ZM22 13L22 14L23 14L23 13ZM6 14L6 15L7 15L7 16L8 16L8 17L7 17L7 18L5 18L5 20L4 20L4 21L5 21L5 22L6 22L6 23L5 23L5 24L6 24L6 25L9 25L9 24L8 24L8 23L7 23L7 22L6 22L6 21L7 21L7 20L6 20L6 19L8 19L8 17L9 17L9 15L7 15L7 14ZM15 14L15 15L14 15L14 16L13 16L13 17L15 17L15 20L17 20L17 19L16 19L16 17L17 17L17 18L18 18L18 17L17 17L17 14ZM15 15L15 16L16 16L16 15ZM31 15L31 16L32 16L32 15ZM37 15L37 16L38 16L38 15ZM10 17L10 18L11 18L11 17ZM36 18L36 19L35 19L35 20L36 20L36 19L37 19L37 18ZM11 19L11 20L12 20L12 19ZM5 20L5 21L6 21L6 20ZM37 20L37 22L38 22L38 21L39 21L39 20ZM35 22L35 23L36 23L36 22ZM6 23L6 24L7 24L7 23ZM2 25L2 26L3 26L3 25ZM10 25L10 26L9 26L9 27L12 27L12 26L11 26L11 25ZM6 26L6 27L5 27L5 29L4 29L4 30L6 30L6 29L7 29L7 28L8 28L8 27L7 27L7 26ZM33 26L33 27L34 27L34 26ZM36 26L36 27L37 27L37 26ZM6 27L6 28L7 28L7 27ZM22 27L22 28L24 28L24 27ZM9 28L9 29L8 29L8 30L9 30L9 29L10 29L10 28ZM30 28L30 29L29 29L29 30L30 30L30 29L31 29L31 28ZM33 30L33 31L34 31L34 30ZM25 31L25 32L26 32L26 31ZM0 32L0 33L1 33L1 32ZM15 32L15 33L18 33L18 32ZM28 33L28 34L29 34L29 33ZM33 33L33 36L36 36L36 33ZM11 34L11 37L12 37L12 35L13 35L13 34ZM15 34L15 35L14 35L14 36L15 36L15 35L16 35L16 34ZM34 34L34 35L35 35L35 34ZM17 35L17 37L16 37L16 38L17 38L17 37L18 37L18 35ZM19 36L19 37L20 37L20 36ZM22 36L22 37L21 37L21 38L22 38L22 37L23 37L23 36ZM32 37L32 39L33 39L33 40L36 40L36 38L34 38L34 37ZM11 38L11 40L12 40L12 38ZM33 38L33 39L34 39L34 38ZM0 0L0 7L7 7L7 0ZM1 1L1 6L6 6L6 1ZM2 2L2 5L5 5L5 2ZM34 0L34 7L41 7L41 0ZM35 1L35 6L40 6L40 1ZM36 2L36 5L39 5L39 2ZM0 34L0 41L7 41L7 34ZM1 35L1 40L6 40L6 35ZM2 36L2 39L5 39L5 36Z" fill="#000000"/></g></g></svg>
