<?xml version="1.0" encoding="UTF-8"?>
<svg xmlns="http://www.w3.org/2000/svg" version="1.1" width="300" height="300" viewBox="0 0 300 300"><rect x="0" y="0" width="300" height="300" fill="#ffffff"/><g transform="scale(7.317)"><g transform="translate(0,0)"><path fill-rule="evenodd" d="M8 0L8 4L9 4L9 5L8 5L8 7L9 7L9 9L10 9L10 11L9 11L9 10L8 10L8 11L7 11L7 10L6 10L6 11L5 11L5 10L4 10L4 9L7 9L7 8L4 8L4 9L2 9L2 8L0 8L0 9L1 9L1 10L0 10L0 11L1 11L1 10L3 10L3 11L4 11L4 12L6 12L6 13L7 13L7 14L4 14L4 13L3 13L3 12L0 12L0 13L2 13L2 14L3 14L3 16L2 16L2 15L1 15L1 14L0 14L0 18L1 18L1 19L0 19L0 21L2 21L2 23L3 23L3 21L2 21L2 20L3 20L3 19L4 19L4 20L5 20L5 22L4 22L4 25L7 25L7 26L6 26L6 27L7 27L7 26L8 26L8 28L6 28L6 29L5 29L5 27L2 27L2 26L3 26L3 25L2 25L2 24L1 24L1 26L0 26L0 30L1 30L1 29L2 29L2 30L3 30L3 31L4 31L4 33L7 33L7 32L5 32L5 31L4 31L4 30L3 30L3 28L4 28L4 29L5 29L5 30L6 30L6 31L7 31L7 30L8 30L8 29L9 29L9 28L10 28L10 32L11 32L11 31L13 31L13 30L15 30L15 31L14 31L14 33L15 33L15 34L14 34L14 35L15 35L15 36L16 36L16 37L13 37L13 38L12 38L12 36L13 36L13 35L12 35L12 34L11 34L11 35L10 35L10 36L9 36L9 35L8 35L8 37L10 37L10 38L11 38L11 39L10 39L10 40L9 40L9 39L8 39L8 41L11 41L11 40L12 40L12 41L13 41L13 40L12 40L12 39L14 39L14 38L15 38L15 40L14 40L14 41L15 41L15 40L16 40L16 37L18 37L18 38L17 38L17 41L18 41L18 39L19 39L19 41L25 41L25 40L24 40L24 39L25 39L25 38L27 38L27 39L26 39L26 40L27 40L27 41L28 41L28 40L29 40L29 41L30 41L30 39L31 39L31 41L33 41L33 40L34 40L34 41L36 41L36 40L37 40L37 41L38 41L38 38L39 38L39 41L40 41L40 40L41 40L41 39L40 39L40 38L39 38L39 37L38 37L38 36L37 36L37 35L39 35L39 36L40 36L40 35L41 35L41 33L40 33L40 32L41 32L41 29L40 29L40 28L41 28L41 18L40 18L40 19L39 19L39 20L40 20L40 21L38 21L38 22L37 22L37 21L36 21L36 18L39 18L39 17L40 17L40 16L41 16L41 12L40 12L40 13L38 13L38 15L37 15L37 17L36 17L36 16L35 16L35 17L34 17L34 15L32 15L32 16L31 16L31 17L30 17L30 15L28 15L28 14L29 14L29 13L30 13L30 11L31 11L31 9L32 9L32 7L33 7L33 5L32 5L32 4L33 4L33 2L32 2L32 1L31 1L31 0L30 0L30 1L31 1L31 2L29 2L29 1L28 1L28 0L26 0L26 1L25 1L25 0L23 0L23 1L25 1L25 2L23 2L23 3L22 3L22 0L21 0L21 1L18 1L18 2L15 2L15 1L17 1L17 0L15 0L15 1L14 1L14 0L13 0L13 1L11 1L11 0ZM13 1L13 3L15 3L15 4L14 4L14 5L15 5L15 8L14 8L14 6L13 6L13 4L12 4L12 3L10 3L10 2L9 2L9 3L10 3L10 4L11 4L11 5L10 5L10 6L9 6L9 7L10 7L10 6L11 6L11 7L12 7L12 8L11 8L11 9L12 9L12 8L14 8L14 10L13 10L13 12L12 12L12 13L11 13L11 14L10 14L10 13L9 13L9 12L8 12L8 13L9 13L9 14L10 14L10 15L11 15L11 14L12 14L12 13L17 13L17 14L19 14L19 15L18 15L18 16L19 16L19 17L17 17L17 18L19 18L19 19L18 19L18 21L17 21L17 22L18 22L18 23L21 23L21 22L22 22L22 23L23 23L23 22L22 22L22 21L21 21L21 20L20 20L20 14L21 14L21 15L22 15L22 16L24 16L24 15L23 15L23 14L25 14L25 17L24 17L24 18L25 18L25 19L23 19L23 18L21 18L21 19L22 19L22 20L23 20L23 21L24 21L24 22L26 22L26 21L28 21L28 22L31 22L31 24L30 24L30 25L29 25L29 23L27 23L27 24L26 24L26 23L24 23L24 24L23 24L23 25L21 25L21 24L19 24L19 25L17 25L17 24L15 24L15 22L16 22L16 21L15 21L15 20L14 20L14 19L15 19L15 17L16 17L16 16L17 16L17 15L16 15L16 16L14 16L14 14L13 14L13 15L12 15L12 16L11 16L11 17L10 17L10 18L12 18L12 19L13 19L13 21L12 21L12 20L11 20L11 22L10 22L10 21L9 21L9 20L10 20L10 19L9 19L9 15L8 15L8 16L7 16L7 15L6 15L6 16L5 16L5 15L4 15L4 17L2 17L2 18L4 18L4 17L5 17L5 18L7 18L7 19L5 19L5 20L7 20L7 21L6 21L6 22L8 22L8 24L9 24L9 25L8 25L8 26L9 26L9 25L10 25L10 26L12 26L12 27L11 27L11 28L12 28L12 27L13 27L13 29L16 29L16 30L18 30L18 32L20 32L20 30L21 30L21 31L22 31L22 32L23 32L23 33L22 33L22 34L23 34L23 33L24 33L24 32L25 32L25 33L28 33L28 31L32 31L32 30L33 30L33 25L31 25L31 24L32 24L32 23L33 23L33 24L34 24L34 25L35 25L35 24L36 24L36 25L37 25L37 24L36 24L36 23L37 23L37 22L36 22L36 23L34 23L34 22L35 22L35 18L34 18L34 17L33 17L33 16L32 16L32 17L31 17L31 18L30 18L30 17L29 17L29 16L28 16L28 15L26 15L26 13L27 13L27 14L28 14L28 13L27 13L27 12L29 12L29 11L27 11L27 10L25 10L25 9L29 9L29 10L30 10L30 9L31 9L31 8L30 8L30 9L29 9L29 8L28 8L28 5L27 5L27 4L25 4L25 3L27 3L27 2L28 2L28 1L26 1L26 2L25 2L25 3L23 3L23 4L22 4L22 3L21 3L21 2L20 2L20 3L19 3L19 4L18 4L18 3L15 3L15 2L14 2L14 1ZM31 2L31 4L32 4L32 2ZM15 4L15 5L16 5L16 7L17 7L17 9L16 9L16 8L15 8L15 10L14 10L14 11L15 11L15 12L16 12L16 10L17 10L17 9L18 9L18 10L19 10L19 9L20 9L20 10L21 10L21 9L22 9L22 10L23 10L23 11L20 11L20 12L19 12L19 11L17 11L17 13L18 13L18 12L19 12L19 14L20 14L20 13L21 13L21 14L22 14L22 13L24 13L24 12L25 12L25 13L26 13L26 12L27 12L27 11L26 11L26 12L25 12L25 10L24 10L24 9L25 9L25 6L24 6L24 9L22 9L22 7L23 7L23 5L22 5L22 4L21 4L21 6L20 6L20 5L18 5L18 4ZM29 4L29 7L30 7L30 6L31 6L31 7L32 7L32 6L31 6L31 5L30 5L30 4ZM11 5L11 6L12 6L12 7L13 7L13 6L12 6L12 5ZM17 5L17 7L18 7L18 5ZM19 6L19 7L20 7L20 6ZM21 6L21 7L22 7L22 6ZM26 6L26 7L27 7L27 6ZM20 8L20 9L21 9L21 8ZM35 8L35 9L34 9L34 10L32 10L32 11L33 11L33 13L32 13L32 12L31 12L31 13L32 13L32 14L33 14L33 13L34 13L34 14L37 14L37 12L38 12L38 11L37 11L37 12L36 12L36 10L37 10L37 9L38 9L38 10L39 10L39 9L40 9L40 11L41 11L41 8L37 8L37 9L36 9L36 8ZM35 9L35 10L34 10L34 13L35 13L35 10L36 10L36 9ZM11 10L11 11L12 11L12 10ZM6 11L6 12L7 12L7 11ZM23 11L23 12L24 12L24 11ZM39 14L39 15L38 15L38 17L39 17L39 15L40 15L40 14ZM6 16L6 17L7 17L7 16ZM12 16L12 17L13 17L13 16ZM26 17L26 20L24 20L24 21L26 21L26 20L28 20L28 21L29 21L29 20L32 20L32 21L31 21L31 22L32 22L32 21L34 21L34 20L33 20L33 19L34 19L34 18L32 18L32 19L30 19L30 18L29 18L29 17ZM28 18L28 20L29 20L29 18ZM1 19L1 20L2 20L2 19ZM14 21L14 22L15 22L15 21ZM20 21L20 22L21 22L21 21ZM0 22L0 23L1 23L1 22ZM38 22L38 24L39 24L39 25L38 25L38 26L34 26L34 27L36 27L36 28L34 28L34 29L37 29L37 30L35 30L35 31L34 31L34 32L37 32L37 31L38 31L38 33L37 33L37 34L39 34L39 35L40 35L40 34L39 34L39 31L40 31L40 29L39 29L39 27L38 27L38 26L39 26L39 25L40 25L40 24L39 24L39 23L40 23L40 22ZM6 23L6 24L7 24L7 23ZM9 23L9 24L10 24L10 25L12 25L12 24L13 24L13 25L14 25L14 27L17 27L17 28L16 28L16 29L18 29L18 30L19 30L19 29L18 29L18 27L17 27L17 25L14 25L14 24L13 24L13 23L12 23L12 24L10 24L10 23ZM24 24L24 25L23 25L23 26L22 26L22 27L19 27L19 28L20 28L20 29L21 29L21 30L22 30L22 29L23 29L23 32L24 32L24 28L25 28L25 27L26 27L26 28L28 28L28 29L25 29L25 31L26 31L26 32L27 32L27 31L28 31L28 30L29 30L29 29L30 29L30 28L31 28L31 30L32 30L32 28L31 28L31 25L30 25L30 26L29 26L29 25L25 25L25 24ZM20 25L20 26L21 26L21 25ZM24 25L24 27L23 27L23 28L24 28L24 27L25 27L25 25ZM28 26L28 28L29 28L29 26ZM1 27L1 28L2 28L2 27ZM37 28L37 29L38 29L38 30L39 30L39 29L38 29L38 28ZM6 29L6 30L7 30L7 29ZM11 29L11 30L12 30L12 29ZM26 30L26 31L27 31L27 30ZM8 31L8 32L9 32L9 31ZM15 31L15 33L17 33L17 32L16 32L16 31ZM0 32L0 33L2 33L2 32ZM12 32L12 33L13 33L13 32ZM8 33L8 34L10 34L10 33ZM19 33L19 36L20 36L20 34L21 34L21 33ZM29 33L29 35L30 35L30 33ZM31 33L31 34L32 34L32 33ZM33 33L33 36L36 36L36 33ZM16 34L16 35L18 35L18 34ZM24 34L24 35L25 35L25 36L24 36L24 38L25 38L25 36L26 36L26 37L31 37L31 38L32 38L32 39L34 39L34 40L36 40L36 39L37 39L37 37L34 37L34 38L32 38L32 37L31 37L31 36L28 36L28 35L27 35L27 36L26 36L26 34ZM34 34L34 35L35 35L35 34ZM11 35L11 36L10 36L10 37L11 37L11 36L12 36L12 35ZM22 35L22 36L23 36L23 35ZM19 37L19 39L20 39L20 38L21 38L21 39L22 39L22 40L23 40L23 39L22 39L22 38L23 38L23 37L22 37L22 38L21 38L21 37ZM28 38L28 39L27 39L27 40L28 40L28 39L30 39L30 38ZM0 0L0 7L7 7L7 0ZM1 1L1 6L6 6L6 1ZM2 2L2 5L5 5L5 2ZM34 0L34 7L41 7L41 0ZM35 1L35 6L40 6L40 1ZM36 2L36 5L39 5L39 2ZM0 34L0 41L7 41L7 34ZM1 35L1 40L6 40L6 35ZM2 36L2 39L5 39L5 36Z" fill="#000000"/></g></g></svg>
