<?xml version="1.0" encoding="UTF-8"?>
<svg xmlns="http://www.w3.org/2000/svg" version="1.1" width="300" height="300" viewBox="0 0 300 300"><rect x="0" y="0" width="300" height="300" fill="#ffffff"/><g transform="scale(7.317)"><g transform="translate(0,0)"><path fill-rule="evenodd" d="M9 0L9 1L8 1L8 2L9 2L9 1L12 1L12 0ZM13 0L13 2L12 2L12 4L11 4L11 6L10 6L10 3L8 3L8 4L9 4L9 5L8 5L8 7L9 7L9 6L10 6L10 8L11 8L11 9L10 9L10 12L9 12L9 13L10 13L10 15L8 15L8 12L5 12L5 11L7 11L7 10L6 10L6 9L8 9L8 11L9 11L9 8L6 8L6 9L5 9L5 8L0 8L0 9L4 9L4 10L2 10L2 12L1 12L1 10L0 10L0 12L1 12L1 13L4 13L4 14L3 14L3 16L2 16L2 14L0 14L0 21L1 21L1 20L2 20L2 18L3 18L3 20L4 20L4 22L1 22L1 23L4 23L4 24L6 24L6 25L7 25L7 26L6 26L6 27L5 27L5 25L4 25L4 26L3 26L3 27L5 27L5 30L4 30L4 32L3 32L3 30L2 30L2 32L3 32L3 33L5 33L5 30L6 30L6 31L7 31L7 30L6 30L6 29L7 29L7 28L8 28L8 30L9 30L9 31L8 31L8 32L6 32L6 33L8 33L8 35L9 35L9 36L8 36L8 41L9 41L9 37L10 37L10 38L11 38L11 36L12 36L12 35L11 35L11 34L10 34L10 35L9 35L9 33L13 33L13 36L14 36L14 37L15 37L15 38L14 38L14 40L13 40L13 39L12 39L12 40L13 40L13 41L18 41L18 40L22 40L22 41L27 41L27 40L29 40L29 41L30 41L30 40L31 40L31 41L32 41L32 40L34 40L34 39L35 39L35 41L36 41L36 39L37 39L37 41L39 41L39 40L40 40L40 39L39 39L39 37L40 37L40 38L41 38L41 37L40 37L40 36L41 36L41 35L39 35L39 32L38 32L38 30L37 30L37 29L36 29L36 28L37 28L37 25L36 25L36 24L38 24L38 23L39 23L39 25L38 25L38 27L39 27L39 28L38 28L38 29L39 29L39 30L41 30L41 29L39 29L39 28L41 28L41 27L39 27L39 26L41 26L41 24L40 24L40 23L39 23L39 20L37 20L37 17L38 17L38 14L39 14L39 12L40 12L40 11L39 11L39 12L38 12L38 11L37 11L37 10L38 10L38 8L37 8L37 9L36 9L36 8L35 8L35 9L34 9L34 8L32 8L32 9L30 9L30 8L29 8L29 6L28 6L28 5L29 5L29 4L28 4L28 2L30 2L30 3L31 3L31 2L30 2L30 1L32 1L32 3L33 3L33 0L30 0L30 1L27 1L27 3L26 3L26 4L25 4L25 3L23 3L23 1L25 1L25 2L26 2L26 0L23 0L23 1L21 1L21 0L19 0L19 1L21 1L21 3L23 3L23 5L22 5L22 7L21 7L21 6L20 6L20 8L16 8L16 7L17 7L17 5L18 5L18 7L19 7L19 5L21 5L21 4L18 4L18 3L17 3L17 2L18 2L18 0L15 0L15 1L14 1L14 0ZM14 2L14 3L13 3L13 4L12 4L12 6L11 6L11 7L12 7L12 9L11 9L11 10L12 10L12 12L10 12L10 13L11 13L11 14L13 14L13 15L12 15L12 16L15 16L15 17L14 17L14 18L16 18L16 15L17 15L17 16L18 16L18 15L19 15L19 16L20 16L20 18L19 18L19 17L17 17L17 19L16 19L16 20L15 20L15 19L14 19L14 20L12 20L12 19L13 19L13 17L10 17L10 16L11 16L11 15L10 15L10 16L7 16L7 15L6 15L6 14L7 14L7 13L5 13L5 12L4 12L4 13L5 13L5 14L4 14L4 15L6 15L6 16L7 16L7 17L4 17L4 16L3 16L3 17L4 17L4 18L8 18L8 17L9 17L9 18L11 18L11 20L10 20L10 21L6 21L6 22L5 22L5 23L6 23L6 24L7 24L7 25L8 25L8 27L9 27L9 28L12 28L12 27L13 27L13 29L10 29L10 30L14 30L14 31L12 31L12 32L14 32L14 33L17 33L17 32L18 32L18 28L19 28L19 27L22 27L22 28L20 28L20 29L21 29L21 31L22 31L22 30L23 30L23 32L24 32L24 30L26 30L26 31L25 31L25 32L26 32L26 31L27 31L27 29L25 29L25 28L26 28L26 27L27 27L27 26L28 26L28 25L29 25L29 24L30 24L30 25L31 25L31 24L32 24L32 25L33 25L33 26L31 26L31 31L29 31L29 32L31 32L31 33L32 33L32 32L33 32L33 30L34 30L34 31L35 31L35 28L36 28L36 27L35 27L35 26L34 26L34 25L35 25L35 24L36 24L36 23L38 23L38 21L37 21L37 22L36 22L36 23L35 23L35 22L34 22L34 21L36 21L36 18L34 18L34 19L35 19L35 20L34 20L34 21L33 21L33 20L32 20L32 21L33 21L33 23L32 23L32 22L30 22L30 21L31 21L31 19L32 19L32 18L31 18L31 19L30 19L30 17L32 17L32 12L33 12L33 13L35 13L35 12L36 12L36 9L35 9L35 10L33 10L33 11L32 11L32 10L30 10L30 9L29 9L29 8L28 8L28 6L27 6L27 7L26 7L26 6L25 6L25 8L28 8L28 9L24 9L24 10L23 10L23 11L22 11L22 10L21 10L21 9L23 9L23 8L21 8L21 9L20 9L20 10L17 10L17 9L15 9L15 10L14 10L14 6L13 6L13 5L15 5L15 4L14 4L14 3L16 3L16 2ZM19 2L19 3L20 3L20 2ZM16 4L16 5L17 5L17 4ZM24 4L24 5L23 5L23 7L24 7L24 5L25 5L25 4ZM26 4L26 5L28 5L28 4ZM31 4L31 5L32 5L32 7L33 7L33 4ZM12 6L12 7L13 7L13 6ZM15 6L15 7L16 7L16 6ZM30 6L30 7L31 7L31 6ZM39 8L39 10L41 10L41 9L40 9L40 8ZM28 9L28 10L26 10L26 12L24 12L24 11L23 11L23 12L22 12L22 11L20 11L20 12L22 12L22 13L23 13L23 14L22 14L22 15L21 15L21 13L20 13L20 16L22 16L22 19L21 19L21 18L20 18L20 20L19 20L19 22L18 22L18 23L19 23L19 24L16 24L16 23L17 23L17 22L16 22L16 21L18 21L18 20L16 20L16 21L15 21L15 20L14 20L14 21L12 21L12 22L14 22L14 23L15 23L15 24L13 24L13 23L12 23L12 24L13 24L13 25L19 25L19 26L15 26L15 27L14 27L14 28L15 28L15 29L14 29L14 30L17 30L17 29L16 29L16 28L15 28L15 27L19 27L19 26L20 26L20 25L21 25L21 26L22 26L22 25L23 25L23 26L24 26L24 27L23 27L23 28L22 28L22 29L24 29L24 27L26 27L26 26L24 26L24 25L28 25L28 24L27 24L27 23L29 23L29 21L30 21L30 20L29 20L29 17L30 17L30 16L31 16L31 14L29 14L29 13L31 13L31 11L30 11L30 12L29 12L29 11L28 11L28 10L29 10L29 9ZM4 10L4 11L5 11L5 10ZM15 10L15 11L14 11L14 12L16 12L16 11L17 11L17 10ZM18 11L18 12L17 12L17 13L14 13L14 14L17 14L17 13L18 13L18 14L19 14L19 13L18 13L18 12L19 12L19 11ZM27 11L27 14L28 14L28 11ZM34 11L34 12L35 12L35 11ZM12 12L12 13L13 13L13 12ZM24 13L24 14L23 14L23 15L24 15L24 16L23 16L23 17L24 17L24 18L23 18L23 19L25 19L25 20L23 20L23 21L24 21L24 22L23 22L23 23L22 23L22 24L21 24L21 25L22 25L22 24L23 24L23 25L24 25L24 24L23 24L23 23L25 23L25 24L26 24L26 23L25 23L25 20L26 20L26 19L25 19L25 18L28 18L28 17L29 17L29 16L30 16L30 15L29 15L29 16L28 16L28 15L26 15L26 14L25 14L25 13ZM40 13L40 14L41 14L41 13ZM33 14L33 15L34 15L34 14ZM39 15L39 16L40 16L40 15ZM1 16L1 18L2 18L2 16ZM24 16L24 17L28 17L28 16ZM33 16L33 17L35 17L35 16ZM36 16L36 17L37 17L37 16ZM18 18L18 19L19 19L19 18ZM4 19L4 20L9 20L9 19ZM40 19L40 22L41 22L41 19ZM21 20L21 21L20 21L20 22L19 22L19 23L21 23L21 21L22 21L22 20ZM10 21L10 22L11 22L11 21ZM14 21L14 22L15 22L15 21ZM26 21L26 22L27 22L27 21ZM6 22L6 23L7 23L7 24L9 24L9 27L11 27L11 26L10 26L10 25L11 25L11 24L10 24L10 23L8 23L8 22ZM34 23L34 24L35 24L35 23ZM0 24L0 26L1 26L1 27L2 27L2 24ZM29 26L29 28L28 28L28 29L29 29L29 30L30 30L30 29L29 29L29 28L30 28L30 26ZM6 27L6 28L7 28L7 27ZM34 27L34 28L35 28L35 27ZM1 28L1 29L0 29L0 33L1 33L1 29L3 29L3 28ZM32 29L32 30L33 30L33 29ZM19 30L19 33L21 33L21 34L22 34L22 35L23 35L23 36L30 36L30 37L32 37L32 39L31 39L31 38L30 38L30 39L29 39L29 40L30 40L30 39L31 39L31 40L32 40L32 39L34 39L34 38L37 38L37 39L38 39L38 40L39 40L39 39L38 39L38 36L39 36L39 35L37 35L37 37L32 37L32 36L30 36L30 35L31 35L31 34L30 34L30 35L29 35L29 34L28 34L28 33L26 33L26 35L24 35L24 34L23 34L23 33L22 33L22 32L20 32L20 30ZM14 31L14 32L15 32L15 31ZM16 31L16 32L17 32L17 31ZM31 31L31 32L32 32L32 31ZM40 31L40 32L41 32L41 31ZM37 32L37 33L38 33L38 32ZM33 33L33 36L36 36L36 33ZM40 33L40 34L41 34L41 33ZM16 34L16 35L14 35L14 36L15 36L15 37L16 37L16 38L17 38L17 39L16 39L16 40L18 40L18 39L20 39L20 38L18 38L18 37L21 37L21 39L24 39L24 40L26 40L26 39L27 39L27 38L29 38L29 37L22 37L22 36L20 36L20 34L18 34L18 35L19 35L19 36L17 36L17 34ZM27 34L27 35L28 35L28 34ZM34 34L34 35L35 35L35 34ZM10 35L10 36L11 36L11 35ZM16 36L16 37L17 37L17 36ZM12 37L12 38L13 38L13 37ZM24 38L24 39L25 39L25 38ZM0 0L0 7L7 7L7 0ZM1 1L1 6L6 6L6 1ZM2 2L2 5L5 5L5 2ZM34 0L34 7L41 7L41 0ZM35 1L35 6L40 6L40 1ZM36 2L36 5L39 5L39 2ZM0 34L0 41L7 41L7 34ZM1 35L1 40L6 40L6 35ZM2 36L2 39L5 39L5 36Z" fill="#000000"/></g></g></svg>
