<?xml version="1.0" encoding="UTF-8"?>
<svg xmlns="http://www.w3.org/2000/svg" version="1.1" width="300" height="300" viewBox="0 0 300 300"><rect x="0" y="0" width="300" height="300" fill="#ffffff"/><g transform="scale(7.317)"><g transform="translate(0,0)"><path fill-rule="evenodd" d="M9 0L9 1L8 1L8 2L10 2L10 0ZM11 0L11 1L12 1L12 0ZM13 0L13 2L11 2L11 3L10 3L10 4L9 4L9 3L8 3L8 4L9 4L9 5L8 5L8 7L9 7L9 8L6 8L6 9L7 9L7 10L5 10L5 8L0 8L0 9L4 9L4 10L0 10L0 12L2 12L2 13L0 13L0 16L1 16L1 17L3 17L3 19L2 19L2 21L0 21L0 22L1 22L1 23L2 23L2 26L1 26L1 24L0 24L0 27L2 27L2 29L0 29L0 33L1 33L1 30L2 30L2 33L4 33L4 31L5 31L5 33L7 33L7 32L8 32L8 35L9 35L9 33L10 33L10 35L11 35L11 36L10 36L10 38L9 38L9 36L8 36L8 41L11 41L11 39L10 39L10 38L11 38L11 37L12 37L12 38L14 38L14 37L16 37L16 38L15 38L15 39L14 39L14 40L13 40L13 39L12 39L12 41L16 41L16 39L17 39L17 37L18 37L18 38L20 38L20 39L18 39L18 40L17 40L17 41L18 41L18 40L22 40L22 41L23 41L23 40L24 40L24 41L28 41L28 38L29 38L29 39L30 39L30 40L29 40L29 41L30 41L30 40L31 40L31 41L32 41L32 40L33 40L33 41L34 41L34 40L33 40L33 39L32 39L32 37L37 37L37 35L39 35L39 36L38 36L38 37L39 37L39 36L40 36L40 38L41 38L41 35L39 35L39 32L37 32L37 30L38 30L38 31L39 31L39 30L41 30L41 29L40 29L40 28L38 28L38 29L37 29L37 25L36 25L36 24L38 24L38 27L39 27L39 26L41 26L41 24L40 24L40 23L39 23L39 22L38 22L38 23L37 23L37 21L39 21L39 20L41 20L41 19L39 19L39 20L37 20L37 17L36 17L36 16L35 16L35 14L34 14L34 13L33 13L33 14L34 14L34 15L33 15L33 16L32 16L32 17L30 17L30 16L31 16L31 14L32 14L32 13L31 13L31 11L30 11L30 12L29 12L29 11L28 11L28 10L32 10L32 11L33 11L33 12L35 12L35 13L36 13L36 15L37 15L37 16L38 16L38 15L37 15L37 13L38 13L38 14L39 14L39 13L40 13L40 14L41 14L41 13L40 13L40 12L41 12L41 11L40 11L40 10L41 10L41 9L40 9L40 8L39 8L39 9L40 9L40 10L39 10L39 12L38 12L38 11L37 11L37 10L38 10L38 8L37 8L37 9L36 9L36 8L35 8L35 9L34 9L34 8L33 8L33 6L32 6L32 7L31 7L31 6L30 6L30 7L31 7L31 9L30 9L30 8L29 8L29 9L28 9L28 8L25 8L25 6L26 6L26 7L27 7L27 6L28 6L28 7L29 7L29 3L28 3L28 2L29 2L29 1L26 1L26 2L27 2L27 3L23 3L23 1L25 1L25 0L23 0L23 1L22 1L22 0L19 0L19 1L18 1L18 2L19 2L19 3L17 3L17 2L16 2L16 1L17 1L17 0L16 0L16 1L15 1L15 0ZM30 0L30 1L32 1L32 5L33 5L33 0ZM19 1L19 2L20 2L20 3L19 3L19 4L21 4L21 5L19 5L19 7L18 7L18 5L17 5L17 3L16 3L16 2L14 2L14 3L11 3L11 4L10 4L10 5L9 5L9 7L10 7L10 5L11 5L11 7L12 7L12 5L14 5L14 6L13 6L13 8L14 8L14 9L12 9L12 10L9 10L9 9L8 9L8 10L7 10L7 11L6 11L6 12L4 12L4 11L2 11L2 12L3 12L3 13L4 13L4 14L5 14L5 16L7 16L7 17L6 17L6 18L5 18L5 19L4 19L4 20L5 20L5 19L6 19L6 20L7 20L7 19L6 19L6 18L7 18L7 17L8 17L8 21L9 21L9 22L7 22L7 21L5 21L5 22L7 22L7 23L6 23L6 24L7 24L7 23L8 23L8 25L4 25L4 24L3 24L3 25L4 25L4 28L3 28L3 31L4 31L4 28L5 28L5 26L7 26L7 27L6 27L6 28L7 28L7 29L6 29L6 30L5 30L5 31L6 31L6 32L7 32L7 31L6 31L6 30L9 30L9 31L10 31L10 33L11 33L11 35L12 35L12 37L14 37L14 36L16 36L16 35L14 35L14 36L13 36L13 32L15 32L15 30L16 30L16 31L17 31L17 32L18 32L18 30L19 30L19 33L21 33L21 34L22 34L22 35L23 35L23 36L24 36L24 37L22 37L22 36L20 36L20 34L19 34L19 36L18 36L18 33L15 33L15 34L17 34L17 36L18 36L18 37L21 37L21 39L25 39L25 40L26 40L26 39L27 39L27 38L28 38L28 37L26 37L26 36L29 36L29 37L30 37L30 39L31 39L31 40L32 40L32 39L31 39L31 37L32 37L32 36L31 36L31 35L30 35L30 33L29 33L29 34L28 34L28 33L25 33L25 34L28 34L28 35L24 35L24 34L23 34L23 33L24 33L24 31L25 31L25 32L26 32L26 31L27 31L27 30L31 30L31 31L28 31L28 32L31 32L31 33L32 33L32 32L31 32L31 31L33 31L33 30L34 30L34 31L35 31L35 30L34 30L34 29L35 29L35 28L36 28L36 27L33 27L33 26L34 26L34 25L35 25L35 24L36 24L36 23L35 23L35 22L34 22L34 21L37 21L37 20L36 20L36 18L34 18L34 19L33 19L33 23L32 23L32 21L31 21L31 20L30 20L30 19L32 19L32 18L30 18L30 19L29 19L29 20L30 20L30 21L29 21L29 22L28 22L28 21L27 21L27 22L28 22L28 24L27 24L27 25L26 25L26 27L24 27L24 26L25 26L25 25L24 25L24 24L26 24L26 23L24 23L24 22L23 22L23 23L22 23L22 24L21 24L21 25L20 25L20 26L19 26L19 25L17 25L17 26L16 26L16 27L15 27L15 25L16 25L16 24L19 24L19 23L21 23L21 21L22 21L22 20L21 20L21 21L20 21L20 22L19 22L19 21L17 21L17 23L16 23L16 24L15 24L15 25L12 25L12 23L13 23L13 24L14 24L14 22L16 22L16 21L14 21L14 20L18 20L18 19L14 19L14 20L13 20L13 17L12 17L12 18L11 18L11 16L10 16L10 18L9 18L9 17L8 17L8 16L7 16L7 15L6 15L6 14L7 14L7 13L6 13L6 12L7 12L7 11L8 11L8 10L9 10L9 11L10 11L10 12L9 12L9 14L10 14L10 15L11 15L11 14L13 14L13 15L12 15L12 16L15 16L15 14L16 14L16 15L17 15L17 16L16 16L16 17L15 17L15 18L16 18L16 17L17 17L17 18L19 18L19 20L20 20L20 18L21 18L21 19L22 19L22 16L20 16L20 13L21 13L21 15L22 15L22 14L23 14L23 15L24 15L24 14L25 14L25 16L27 16L27 15L26 15L26 14L28 14L28 11L27 11L27 10L28 10L28 9L24 9L24 10L23 10L23 11L22 11L22 10L21 10L21 9L23 9L23 8L24 8L24 5L25 5L25 4L23 4L23 3L21 3L21 2L22 2L22 1ZM14 3L14 4L15 4L15 6L14 6L14 7L15 7L15 9L14 9L14 10L15 10L15 11L14 11L14 12L15 12L15 13L14 13L14 14L15 14L15 13L16 13L16 14L17 14L17 13L19 13L19 12L17 12L17 9L18 9L18 10L20 10L20 9L21 9L21 8L23 8L23 5L22 5L22 7L21 7L21 6L20 6L20 8L16 8L16 7L17 7L17 5L16 5L16 3ZM26 4L26 5L27 5L27 4ZM30 4L30 5L31 5L31 4ZM15 6L15 7L16 7L16 6ZM10 8L10 9L11 9L11 8ZM15 9L15 10L16 10L16 9ZM35 9L35 10L33 10L33 11L35 11L35 12L36 12L36 13L37 13L37 12L36 12L36 9ZM25 10L25 11L26 11L26 10ZM15 11L15 12L16 12L16 13L17 13L17 12L16 12L16 11ZM20 11L20 12L22 12L22 13L23 13L23 14L24 14L24 11L23 11L23 12L22 12L22 11ZM11 12L11 13L13 13L13 12ZM25 12L25 14L26 14L26 13L27 13L27 12ZM5 13L5 14L6 14L6 13ZM29 13L29 14L30 14L30 13ZM1 15L1 16L2 16L2 15ZM18 15L18 16L17 16L17 17L19 17L19 18L20 18L20 16L19 16L19 15ZM28 15L28 17L26 17L26 18L28 18L28 17L29 17L29 16L30 16L30 15ZM39 15L39 16L40 16L40 15ZM3 16L3 17L4 17L4 16ZM23 16L23 17L24 17L24 18L23 18L23 19L25 19L25 20L23 20L23 21L25 21L25 20L27 20L27 19L25 19L25 17L24 17L24 16ZM33 16L33 17L35 17L35 16ZM40 17L40 18L41 18L41 17ZM0 18L0 20L1 20L1 18ZM10 18L10 19L9 19L9 20L10 20L10 21L12 21L12 22L13 22L13 21L12 21L12 19L11 19L11 18ZM10 19L10 20L11 20L11 19ZM34 19L34 20L35 20L35 19ZM2 21L2 23L3 23L3 21ZM40 21L40 22L41 22L41 21ZM9 22L9 23L10 23L10 22ZM18 22L18 23L19 23L19 22ZM23 23L23 24L22 24L22 25L21 25L21 26L22 26L22 25L23 25L23 26L24 26L24 25L23 25L23 24L24 24L24 23ZM34 23L34 24L35 24L35 23ZM38 23L38 24L39 24L39 23ZM9 24L9 25L8 25L8 26L9 26L9 27L8 27L8 28L9 28L9 27L11 27L11 26L12 26L12 28L11 28L11 29L13 29L13 26L12 26L12 25L11 25L11 24ZM29 24L29 25L28 25L28 26L27 26L27 28L25 28L25 29L26 29L26 30L25 30L25 31L26 31L26 30L27 30L27 29L30 29L30 28L29 28L29 27L31 27L31 26L33 26L33 25L32 25L32 24L31 24L31 25L30 25L30 24ZM9 25L9 26L10 26L10 25ZM29 25L29 26L30 26L30 25ZM2 26L2 27L3 27L3 26ZM18 26L18 28L19 28L19 30L20 30L20 32L22 32L22 33L23 33L23 30L24 30L24 27L23 27L23 28L22 28L22 27L19 27L19 26ZM14 27L14 28L15 28L15 29L14 29L14 30L11 30L11 33L12 33L12 31L14 31L14 30L15 30L15 29L16 29L16 30L17 30L17 29L16 29L16 28L15 28L15 27ZM20 28L20 29L21 29L21 31L22 31L22 30L23 30L23 29L22 29L22 28ZM32 28L32 29L31 29L31 30L32 30L32 29L34 29L34 28ZM9 29L9 30L10 30L10 29ZM38 29L38 30L39 30L39 29ZM40 32L40 33L41 33L41 32ZM33 33L33 36L36 36L36 33ZM34 34L34 35L35 35L35 34ZM34 38L34 39L35 39L35 41L36 41L36 39L37 39L37 40L38 40L38 41L39 41L39 40L40 40L40 39L39 39L39 38L38 38L38 39L37 39L37 38ZM38 39L38 40L39 40L39 39ZM0 0L0 7L7 7L7 0ZM1 1L1 6L6 6L6 1ZM2 2L2 5L5 5L5 2ZM34 0L34 7L41 7L41 0ZM35 1L35 6L40 6L40 1ZM36 2L36 5L39 5L39 2ZM0 34L0 41L7 41L7 34ZM1 35L1 40L6 40L6 35ZM2 36L2 39L5 39L5 36Z" fill="#000000"/></g></g></svg>
