<?xml version="1.0" encoding="UTF-8"?>
<svg xmlns="http://www.w3.org/2000/svg" version="1.1" width="300" height="300" viewBox="0 0 300 300"><rect x="0" y="0" width="300" height="300" fill="#ffffff"/><g transform="scale(7.317)"><g transform="translate(0,0)"><path fill-rule="evenodd" d="M8 0L8 4L9 4L9 0ZM11 0L11 1L13 1L13 2L14 2L14 3L16 3L16 5L14 5L14 4L13 4L13 3L12 3L12 5L10 5L10 7L9 7L9 5L8 5L8 7L9 7L9 9L11 9L11 10L9 10L9 11L11 11L11 12L12 12L12 11L13 11L13 13L12 13L12 14L11 14L11 13L10 13L10 12L9 12L9 13L8 13L8 9L7 9L7 8L4 8L4 10L5 10L5 11L3 11L3 9L2 9L2 8L0 8L0 10L2 10L2 11L0 11L0 12L1 12L1 13L0 13L0 14L1 14L1 13L2 13L2 16L1 16L1 15L0 15L0 18L1 18L1 19L2 19L2 16L3 16L3 12L4 12L4 15L5 15L5 16L4 16L4 17L5 17L5 16L6 16L6 17L7 17L7 16L6 16L6 15L8 15L8 14L9 14L9 13L10 13L10 14L11 14L11 15L9 15L9 16L10 16L10 17L9 17L9 18L8 18L8 20L9 20L9 21L8 21L8 22L6 22L6 21L7 21L7 20L5 20L5 19L7 19L7 18L3 18L3 19L4 19L4 20L5 20L5 24L4 24L4 25L3 25L3 23L4 23L4 21L3 21L3 20L1 20L1 21L0 21L0 23L1 23L1 24L0 24L0 30L1 30L1 25L3 25L3 27L5 27L5 30L4 30L4 28L2 28L2 30L3 30L3 31L4 31L4 32L0 32L0 33L5 33L5 31L7 31L7 30L8 30L8 32L6 32L6 33L8 33L8 34L10 34L10 35L8 35L8 37L9 37L9 38L10 38L10 39L8 39L8 41L10 41L10 40L11 40L11 41L14 41L14 40L13 40L13 39L12 39L12 40L11 40L11 37L13 37L13 38L14 38L14 39L15 39L15 38L14 38L14 37L16 37L16 39L17 39L17 41L18 41L18 39L19 39L19 41L23 41L23 40L22 40L22 39L25 39L25 38L27 38L27 39L26 39L26 40L28 40L28 38L30 38L30 39L29 39L29 41L30 41L30 39L32 39L32 38L34 38L34 37L38 37L38 38L37 38L37 39L36 39L36 40L35 40L35 39L34 39L34 40L32 40L32 41L34 41L34 40L35 40L35 41L36 41L36 40L37 40L37 41L38 41L38 40L37 40L37 39L38 39L38 38L40 38L40 39L39 39L39 41L40 41L40 40L41 40L41 37L40 37L40 36L41 36L41 29L40 29L40 28L41 28L41 20L40 20L40 19L41 19L41 17L40 17L40 16L41 16L41 13L40 13L40 11L41 11L41 10L40 10L40 11L39 11L39 14L38 14L38 15L36 15L36 16L35 16L35 17L34 17L34 15L33 15L33 14L32 14L32 13L34 13L34 12L31 12L31 13L30 13L30 11L31 11L31 9L30 9L30 8L33 8L33 6L32 6L32 4L33 4L33 2L32 2L32 1L31 1L31 0L30 0L30 1L28 1L28 0L23 0L23 1L22 1L22 0L21 0L21 1L19 1L19 2L15 2L15 1L14 1L14 0ZM16 0L16 1L17 1L17 0ZM23 1L23 2L25 2L25 3L23 3L23 4L22 4L22 3L21 3L21 2L20 2L20 3L19 3L19 5L20 5L20 6L19 6L19 8L20 8L20 9L19 9L19 12L18 12L18 13L15 13L15 11L14 11L14 13L13 13L13 14L14 14L14 15L12 15L12 16L11 16L11 17L12 17L12 19L13 19L13 20L14 20L14 19L15 19L15 21L14 21L14 22L13 22L13 21L12 21L12 20L11 20L11 18L10 18L10 21L9 21L9 22L8 22L8 23L6 23L6 24L9 24L9 25L4 25L4 26L5 26L5 27L6 27L6 28L8 28L8 29L9 29L9 28L8 28L8 27L9 27L9 26L11 26L11 24L12 24L12 25L13 25L13 26L15 26L15 25L14 25L14 24L17 24L17 23L16 23L16 21L17 21L17 22L18 22L18 23L21 23L21 22L22 22L22 23L23 23L23 25L21 25L21 24L19 24L19 25L17 25L17 26L16 26L16 27L17 27L17 26L19 26L19 27L22 27L22 26L23 26L23 25L24 25L24 27L23 27L23 28L24 28L24 27L25 27L25 29L22 29L22 30L21 30L21 29L20 29L20 28L18 28L18 29L15 29L15 27L14 27L14 29L15 29L15 30L16 30L16 31L17 31L17 30L18 30L18 32L20 32L20 30L21 30L21 31L22 31L22 32L23 32L23 33L22 33L22 34L23 34L23 33L24 33L24 31L25 31L25 33L28 33L28 31L33 31L33 29L36 29L36 28L38 28L38 29L37 29L37 30L38 30L38 29L39 29L39 31L38 31L38 32L37 32L37 34L39 34L39 35L37 35L37 36L38 36L38 37L39 37L39 35L40 35L40 32L39 32L39 31L40 31L40 29L39 29L39 27L38 27L38 26L40 26L40 24L39 24L39 23L40 23L40 22L39 22L39 19L40 19L40 17L39 17L39 15L40 15L40 14L39 14L39 15L38 15L38 17L39 17L39 18L36 18L36 20L34 20L34 21L33 21L33 20L31 20L31 19L32 19L32 18L33 18L33 19L34 19L34 17L33 17L33 15L32 15L32 14L30 14L30 13L29 13L29 11L30 11L30 9L29 9L29 7L30 7L30 6L31 6L31 7L32 7L32 6L31 6L31 4L32 4L32 2L30 2L30 3L29 3L29 5L28 5L28 4L27 4L27 5L26 5L26 3L27 3L27 2L28 2L28 1ZM10 3L10 4L11 4L11 3ZM17 3L17 4L18 4L18 3ZM20 3L20 4L21 4L21 6L20 6L20 7L21 7L21 9L20 9L20 10L21 10L21 9L22 9L22 10L23 10L23 11L20 11L20 12L19 12L19 13L18 13L18 14L17 14L17 15L16 15L16 14L15 14L15 13L14 13L14 14L15 14L15 16L16 16L16 17L15 17L15 19L16 19L16 20L17 20L17 21L18 21L18 22L19 22L19 21L18 21L18 19L17 19L17 17L19 17L19 16L18 16L18 15L19 15L19 14L20 14L20 20L21 20L21 21L20 21L20 22L21 22L21 21L22 21L22 22L23 22L23 23L24 23L24 25L25 25L25 26L26 26L26 27L27 27L27 28L28 28L28 30L27 30L27 31L26 31L26 29L25 29L25 31L26 31L26 32L27 32L27 31L28 31L28 30L29 30L29 29L30 29L30 27L31 27L31 25L30 25L30 24L31 24L31 22L29 22L29 21L28 21L28 22L25 22L25 23L24 23L24 22L23 22L23 20L22 20L22 19L21 19L21 18L23 18L23 19L25 19L25 18L26 18L26 20L28 20L28 18L29 18L29 17L30 17L30 18L31 18L31 17L32 17L32 16L31 16L31 17L30 17L30 15L29 15L29 17L28 17L28 14L29 14L29 13L28 13L28 12L27 12L27 11L29 11L29 9L26 9L26 10L24 10L24 9L25 9L25 4L23 4L23 5L22 5L22 4L21 4L21 3ZM12 5L12 6L11 6L11 7L12 7L12 6L13 6L13 8L14 8L14 9L13 9L13 10L15 10L15 8L17 8L17 7L18 7L18 5L16 5L16 6L15 6L15 7L14 7L14 6L13 6L13 5ZM23 5L23 7L22 7L22 6L21 6L21 7L22 7L22 9L23 9L23 8L24 8L24 5ZM16 6L16 7L17 7L17 6ZM26 6L26 7L27 7L27 8L28 8L28 7L29 7L29 6L28 6L28 7L27 7L27 6ZM11 8L11 9L12 9L12 8ZM35 8L35 9L34 9L34 10L35 10L35 12L36 12L36 10L37 10L37 9L38 9L38 10L39 10L39 9L41 9L41 8L37 8L37 9L36 9L36 8ZM6 9L6 10L7 10L7 9ZM17 9L17 10L18 10L18 9ZM35 9L35 10L36 10L36 9ZM32 10L32 11L33 11L33 10ZM2 11L2 12L3 12L3 11ZM5 11L5 14L8 14L8 13L6 13L6 12L7 12L7 11ZM23 11L23 12L24 12L24 11ZM25 11L25 17L24 17L24 18L25 18L25 17L27 17L27 15L26 15L26 13L27 13L27 14L28 14L28 13L27 13L27 12L26 12L26 11ZM37 11L37 12L38 12L38 11ZM20 12L20 14L21 14L21 15L22 15L22 16L24 16L24 15L23 15L23 13L22 13L22 14L21 14L21 12ZM36 13L36 14L37 14L37 13ZM36 16L36 17L37 17L37 16ZM13 17L13 18L14 18L14 17ZM29 19L29 20L30 20L30 19ZM24 20L24 21L25 21L25 20ZM1 21L1 23L3 23L3 22L2 22L2 21ZM32 21L32 23L33 23L33 21ZM35 21L35 22L34 22L34 23L35 23L35 22L37 22L37 23L36 23L36 24L35 24L35 25L34 25L34 24L32 24L32 25L33 25L33 28L34 28L34 26L38 26L38 25L39 25L39 24L38 24L38 23L39 23L39 22L38 22L38 21ZM10 22L10 24L11 24L11 22ZM12 23L12 24L13 24L13 23ZM25 23L25 25L27 25L27 24L28 24L28 25L29 25L29 26L28 26L28 28L29 28L29 26L30 26L30 25L29 25L29 24L28 24L28 23L27 23L27 24L26 24L26 23ZM36 24L36 25L38 25L38 24ZM20 25L20 26L21 26L21 25ZM6 26L6 27L7 27L7 26ZM11 27L11 30L10 30L10 32L11 32L11 33L12 33L12 35L10 35L10 36L9 36L9 37L10 37L10 36L14 36L14 35L15 35L15 34L16 34L16 35L19 35L19 36L20 36L20 34L21 34L21 33L19 33L19 34L18 34L18 33L17 33L17 32L15 32L15 31L12 31L12 32L11 32L11 30L12 30L12 29L13 29L13 28L12 28L12 27ZM35 27L35 28L36 28L36 27ZM31 28L31 30L32 30L32 28ZM6 29L6 30L7 30L7 29ZM18 29L18 30L19 30L19 29ZM23 30L23 31L24 31L24 30ZM34 31L34 32L36 32L36 31ZM38 32L38 33L39 33L39 32ZM13 33L13 34L15 34L15 33ZM16 33L16 34L17 34L17 33ZM29 33L29 34L30 34L30 33ZM31 33L31 34L32 34L32 33ZM33 33L33 36L36 36L36 33ZM24 34L24 35L25 35L25 36L26 36L26 37L27 37L27 38L28 38L28 35L27 35L27 34ZM34 34L34 35L35 35L35 34ZM22 35L22 36L23 36L23 35ZM30 35L30 36L31 36L31 35ZM16 36L16 37L17 37L17 38L18 38L18 36ZM19 37L19 39L20 39L20 38L21 38L21 39L22 39L22 38L25 38L25 37L22 37L22 38L21 38L21 37ZM30 37L30 38L32 38L32 37ZM15 40L15 41L16 41L16 40ZM24 40L24 41L25 41L25 40ZM0 0L0 7L7 7L7 0ZM1 1L1 6L6 6L6 1ZM2 2L2 5L5 5L5 2ZM34 0L34 7L41 7L41 0ZM35 1L35 6L40 6L40 1ZM36 2L36 5L39 5L39 2ZM0 34L0 41L7 41L7 34ZM1 35L1 40L6 40L6 35ZM2 36L2 39L5 39L5 36Z" fill="#000000"/></g></g></svg>
