<?xml version="1.0" encoding="UTF-8"?>
<svg xmlns="http://www.w3.org/2000/svg" version="1.1" width="300" height="300" viewBox="0 0 300 300"><rect x="0" y="0" width="300" height="300" fill="#ffffff"/><g transform="scale(7.317)"><g transform="translate(0,0)"><path fill-rule="evenodd" d="M8 0L8 1L9 1L9 4L10 4L10 5L11 5L11 6L10 6L10 7L9 7L9 6L8 6L8 8L9 8L9 9L7 9L7 8L6 8L6 9L5 9L5 8L3 8L3 10L5 10L5 11L7 11L7 12L5 12L5 13L4 13L4 14L2 14L2 13L3 13L3 12L1 12L1 11L0 11L0 13L1 13L1 14L0 14L0 18L1 18L1 17L7 17L7 16L8 16L8 17L10 17L10 18L11 18L11 19L10 19L10 20L8 20L8 19L9 19L9 18L5 18L5 19L4 19L4 21L3 21L3 20L0 20L0 21L3 21L3 23L1 23L1 24L0 24L0 26L2 26L2 27L0 27L0 28L2 28L2 29L0 29L0 33L2 33L2 29L3 29L3 30L4 30L4 29L3 29L3 28L5 28L5 30L6 30L6 31L3 31L3 33L7 33L7 32L6 32L6 31L8 31L8 32L9 32L9 31L10 31L10 33L8 33L8 34L10 34L10 33L13 33L13 34L11 34L11 35L10 35L10 37L9 37L9 36L8 36L8 38L10 38L10 39L8 39L8 41L12 41L12 40L13 40L13 41L17 41L17 39L16 39L16 38L15 38L15 37L14 37L14 33L15 33L15 32L16 32L16 33L17 33L17 34L20 34L20 30L23 30L23 31L22 31L22 32L24 32L24 33L21 33L21 35L20 35L20 36L19 36L19 35L18 35L18 36L17 36L17 35L16 35L16 34L15 34L15 36L17 36L17 37L18 37L18 38L19 38L19 39L18 39L18 40L20 40L20 41L21 41L21 40L20 40L20 39L21 39L21 38L22 38L22 39L23 39L23 38L22 38L22 37L21 37L21 35L22 35L22 34L23 34L23 36L24 36L24 35L25 35L25 34L26 34L26 37L25 37L25 38L24 38L24 40L22 40L22 41L26 41L26 40L25 40L25 39L26 39L26 37L27 37L27 39L28 39L28 40L27 40L27 41L28 41L28 40L29 40L29 39L30 39L30 40L31 40L31 41L35 41L35 40L36 40L36 39L37 39L37 41L38 41L38 40L39 40L39 38L40 38L40 40L41 40L41 35L39 35L39 37L38 37L38 36L37 36L37 35L38 35L38 33L37 33L37 29L35 29L35 30L34 30L34 26L35 26L35 27L36 27L36 28L37 28L37 27L38 27L38 28L39 28L39 29L40 29L40 28L41 28L41 25L40 25L40 24L41 24L41 23L40 23L40 24L39 24L39 26L38 26L38 25L35 25L35 24L34 24L34 23L32 23L32 24L31 24L31 25L29 25L29 24L30 24L30 22L31 22L31 21L30 21L30 22L27 22L27 23L26 23L26 21L29 21L29 19L30 19L30 18L31 18L31 19L32 19L32 18L33 18L33 20L34 20L34 22L35 22L35 21L36 21L36 24L37 24L37 23L39 23L39 22L40 22L40 20L41 20L41 17L40 17L40 20L39 20L39 18L37 18L37 17L38 17L38 16L39 16L39 15L38 15L38 14L40 14L40 16L41 16L41 12L40 12L40 13L36 13L36 15L38 15L38 16L37 16L37 17L36 17L36 18L35 18L35 19L36 19L36 20L34 20L34 18L33 18L33 17L29 17L29 19L28 19L28 16L29 16L29 15L30 15L30 16L33 16L33 15L32 15L32 13L33 13L33 14L35 14L35 12L38 12L38 11L39 11L39 10L40 10L40 9L41 9L41 8L40 8L40 9L36 9L36 10L35 10L35 12L34 12L34 11L33 11L33 12L31 12L31 11L30 11L30 10L32 10L32 9L33 9L33 6L32 6L32 9L30 9L30 8L29 8L29 6L30 6L30 7L31 7L31 6L30 6L30 5L33 5L33 2L32 2L32 1L31 1L31 0L30 0L30 1L29 1L29 0L28 0L28 2L26 2L26 1L27 1L27 0L26 0L26 1L25 1L25 0L24 0L24 1L25 1L25 3L28 3L28 5L29 5L29 6L28 6L28 8L27 8L27 5L26 5L26 4L25 4L25 6L24 6L24 3L22 3L22 2L23 2L23 0L21 0L21 1L19 1L19 2L21 2L21 3L20 3L20 4L18 4L18 3L17 3L17 2L18 2L18 1L16 1L16 0L15 0L15 1L16 1L16 3L17 3L17 4L18 4L18 5L17 5L17 6L16 6L16 7L17 7L17 6L18 6L18 7L19 7L19 8L17 8L17 10L15 10L15 9L16 9L16 8L15 8L15 6L14 6L14 7L13 7L13 6L12 6L12 3L13 3L13 1L12 1L12 3L11 3L11 2L10 2L10 1L11 1L11 0L10 0L10 1L9 1L9 0ZM30 1L30 2L29 2L29 4L32 4L32 3L31 3L31 1ZM13 4L13 5L16 5L16 4ZM20 4L20 5L19 5L19 7L20 7L20 8L19 8L19 9L20 9L20 8L21 8L21 13L20 13L20 14L21 14L21 15L19 15L19 14L18 14L18 13L19 13L19 12L20 12L20 10L18 10L18 11L19 11L19 12L17 12L17 15L16 15L16 11L15 11L15 13L14 13L14 14L15 14L15 15L12 15L12 16L11 16L11 15L10 15L10 17L12 17L12 19L13 19L13 20L10 20L10 21L11 21L11 22L9 22L9 21L8 21L8 23L9 23L9 24L10 24L10 25L8 25L8 26L7 26L7 25L6 25L6 26L5 26L5 24L7 24L7 23L5 23L5 24L4 24L4 23L3 23L3 26L4 26L4 27L6 27L6 28L7 28L7 29L6 29L6 30L7 30L7 29L8 29L8 31L9 31L9 29L10 29L10 30L11 30L11 31L12 31L12 32L13 32L13 31L16 31L16 30L17 30L17 28L19 28L19 27L17 27L17 26L20 26L20 28L21 28L21 29L22 29L22 26L23 26L23 27L24 27L24 28L23 28L23 30L24 30L24 31L26 31L26 32L25 32L25 33L26 33L26 32L27 32L27 33L28 33L28 35L31 35L31 34L29 34L29 32L31 32L31 33L32 33L32 32L31 32L31 31L30 31L30 30L29 30L29 29L30 29L30 27L31 27L31 30L32 30L32 29L33 29L33 28L32 28L32 27L33 27L33 25L34 25L34 24L33 24L33 25L31 25L31 26L28 26L28 27L27 27L27 26L26 26L26 27L24 27L24 26L25 26L25 25L28 25L28 24L26 24L26 23L25 23L25 21L26 21L26 20L28 20L28 19L26 19L26 18L27 18L27 16L28 16L28 15L29 15L29 14L30 14L30 13L31 13L31 12L29 12L29 9L28 9L28 12L27 12L27 11L25 11L25 10L26 10L26 8L25 8L25 7L26 7L26 6L25 6L25 7L24 7L24 6L23 6L23 4ZM21 5L21 6L20 6L20 7L21 7L21 6L22 6L22 9L23 9L23 10L22 10L22 12L23 12L23 11L24 11L24 9L25 9L25 8L24 8L24 7L23 7L23 6L22 6L22 5ZM11 6L11 8L10 8L10 9L11 9L11 8L12 8L12 9L13 9L13 10L11 10L11 11L12 11L12 12L10 12L10 13L11 13L11 14L13 14L13 13L12 13L12 12L14 12L14 8L13 8L13 7L12 7L12 6ZM0 8L0 9L2 9L2 8ZM23 8L23 9L24 9L24 8ZM34 8L34 9L35 9L35 8ZM6 9L6 10L7 10L7 11L8 11L8 12L7 12L7 13L6 13L6 14L7 14L7 15L5 15L5 14L4 14L4 15L3 15L3 16L4 16L4 15L5 15L5 16L7 16L7 15L9 15L9 11L10 11L10 10L7 10L7 9ZM37 10L37 11L38 11L38 10ZM21 13L21 14L22 14L22 13ZM23 13L23 14L24 14L24 13ZM26 13L26 14L25 14L25 15L26 15L26 16L24 16L24 15L23 15L23 16L22 16L22 17L21 17L21 16L19 16L19 15L18 15L18 17L17 17L17 19L19 19L19 20L20 20L20 21L19 21L19 22L17 22L17 21L18 21L18 20L17 20L17 21L16 21L16 17L13 17L13 18L15 18L15 19L14 19L14 20L13 20L13 21L12 21L12 22L11 22L11 25L10 25L10 26L12 26L12 24L13 24L13 23L12 23L12 22L13 22L13 21L14 21L14 22L15 22L15 23L16 23L16 24L15 24L15 25L13 25L13 27L14 27L14 26L15 26L15 27L16 27L16 28L17 28L17 27L16 27L16 26L17 26L17 25L16 25L16 24L18 24L18 25L19 25L19 24L21 24L21 23L22 23L22 24L23 24L23 26L24 26L24 25L25 25L25 23L24 23L24 21L25 21L25 20L26 20L26 19L24 19L24 18L23 18L23 19L22 19L22 20L24 20L24 21L23 21L23 22L21 22L21 20L20 20L20 17L21 17L21 18L22 18L22 17L23 17L23 16L24 16L24 17L26 17L26 16L27 16L27 15L28 15L28 13ZM15 15L15 16L16 16L16 15ZM18 17L18 18L19 18L19 17ZM6 19L6 20L7 20L7 19ZM36 20L36 21L37 21L37 22L39 22L39 21L38 21L38 20ZM4 21L4 22L7 22L7 21ZM15 21L15 22L16 22L16 21ZM19 22L19 23L18 23L18 24L19 24L19 23L20 23L20 22ZM1 24L1 25L2 25L2 24ZM20 25L20 26L21 26L21 25ZM6 26L6 27L7 27L7 26ZM8 26L8 29L9 29L9 28L11 28L11 27L9 27L9 26ZM31 26L31 27L32 27L32 26ZM39 26L39 27L40 27L40 26ZM2 27L2 28L3 28L3 27ZM26 27L26 28L24 28L24 29L26 29L26 28L27 28L27 30L26 30L26 31L27 31L27 32L29 32L29 31L28 31L28 28L27 28L27 27ZM12 28L12 29L11 29L11 30L12 30L12 31L13 31L13 30L15 30L15 28L14 28L14 29L13 29L13 28ZM12 29L12 30L13 30L13 29ZM35 30L35 31L36 31L36 30ZM38 30L38 32L40 32L40 34L41 34L41 30L40 30L40 31L39 31L39 30ZM17 31L17 32L18 32L18 31ZM33 31L33 32L34 32L34 31ZM33 33L33 36L36 36L36 33ZM34 34L34 35L35 35L35 34ZM12 36L12 37L11 37L11 39L10 39L10 40L12 40L12 39L13 39L13 40L14 40L14 39L15 39L15 40L16 40L16 39L15 39L15 38L12 38L12 37L13 37L13 36ZM18 36L18 37L19 37L19 38L21 38L21 37L19 37L19 36ZM29 36L29 37L28 37L28 39L29 39L29 37L31 37L31 38L30 38L30 39L32 39L32 40L34 40L34 39L35 39L35 38L38 38L38 37L34 37L34 38L32 38L32 37L31 37L31 36ZM0 0L0 7L7 7L7 0ZM1 1L1 6L6 6L6 1ZM2 2L2 5L5 5L5 2ZM34 0L34 7L41 7L41 0ZM35 1L35 6L40 6L40 1ZM36 2L36 5L39 5L39 2ZM0 34L0 41L7 41L7 34ZM1 35L1 40L6 40L6 35ZM2 36L2 39L5 39L5 36Z" fill="#000000"/></g></g></svg>
