<?xml version="1.0" encoding="UTF-8"?>
<svg xmlns="http://www.w3.org/2000/svg" version="1.1" width="300" height="300" viewBox="0 0 300 300"><rect x="0" y="0" width="300" height="300" fill="#ffffff"/><g transform="scale(7.317)"><g transform="translate(0,0)"><path fill-rule="evenodd" d="M9 0L9 1L8 1L8 3L9 3L9 4L8 4L8 8L6 8L6 9L5 9L5 10L4 10L4 8L3 8L3 9L2 9L2 8L0 8L0 10L1 10L1 9L2 9L2 10L4 10L4 11L3 11L3 12L4 12L4 13L5 13L5 14L6 14L6 15L4 15L4 16L5 16L5 19L4 19L4 20L3 20L3 18L2 18L2 17L3 17L3 14L2 14L2 12L1 12L1 13L0 13L0 14L1 14L1 15L0 15L0 16L2 16L2 17L0 17L0 18L2 18L2 19L0 19L0 21L1 21L1 20L3 20L3 21L4 21L4 22L1 22L1 23L0 23L0 27L1 27L1 28L0 28L0 29L1 29L1 28L2 28L2 29L4 29L4 30L3 30L3 31L2 31L2 33L3 33L3 32L4 32L4 33L5 33L5 32L6 32L6 33L8 33L8 35L10 35L10 34L11 34L11 33L10 33L10 32L11 32L11 31L12 31L12 32L13 32L13 33L17 33L17 34L16 34L16 35L14 35L14 36L15 36L15 37L17 37L17 38L18 38L18 39L17 39L17 40L16 40L16 39L15 39L15 40L16 40L16 41L18 41L18 39L19 39L19 38L20 38L20 39L21 39L21 40L19 40L19 41L22 41L22 39L21 39L21 38L22 38L22 37L21 37L21 36L23 36L23 35L22 35L22 34L23 34L23 33L24 33L24 38L23 38L23 40L24 40L24 38L25 38L25 40L26 40L26 39L27 39L27 40L29 40L29 41L31 41L31 40L32 40L32 41L33 41L33 39L34 39L34 38L35 38L35 39L36 39L36 40L34 40L34 41L36 41L36 40L37 40L37 38L38 38L38 37L37 37L37 36L39 36L39 35L38 35L38 34L39 34L39 32L37 32L37 31L38 31L38 30L39 30L39 31L40 31L40 34L41 34L41 29L40 29L40 27L41 27L41 26L40 26L40 27L39 27L39 26L37 26L37 27L36 27L36 28L35 28L35 29L36 29L36 28L38 28L38 27L39 27L39 29L37 29L37 31L35 31L35 30L33 30L33 29L34 29L34 28L33 28L33 27L35 27L35 26L34 26L34 25L35 25L35 22L36 22L36 21L35 21L35 20L36 20L36 19L37 19L37 21L39 21L39 20L40 20L40 22L39 22L39 23L38 23L38 25L39 25L39 24L40 24L40 22L41 22L41 20L40 20L40 19L41 19L41 18L40 18L40 15L41 15L41 14L39 14L39 13L40 13L40 12L39 12L39 11L40 11L40 10L36 10L36 11L38 11L38 12L37 12L37 13L38 13L38 14L39 14L39 16L37 16L37 18L36 18L36 15L37 15L37 14L34 14L34 13L35 13L35 12L34 12L34 10L35 10L35 9L37 9L37 8L34 8L34 10L33 10L33 5L31 5L31 4L32 4L32 3L30 3L30 2L31 2L31 1L32 1L32 2L33 2L33 1L32 1L32 0L31 0L31 1L30 1L30 2L29 2L29 3L27 3L27 2L28 2L28 0L26 0L26 1L24 1L24 0L23 0L23 5L25 5L25 6L24 6L24 7L23 7L23 6L22 6L22 7L21 7L21 6L20 6L20 5L19 5L19 3L20 3L20 2L22 2L22 1L20 1L20 0L18 0L18 2L17 2L17 1L14 1L14 2L17 2L17 3L14 3L14 4L12 4L12 5L11 5L11 6L10 6L10 7L9 7L9 4L11 4L11 2L12 2L12 1L13 1L13 0ZM9 1L9 3L10 3L10 2L11 2L11 1ZM19 1L19 2L18 2L18 3L17 3L17 7L16 7L16 6L15 6L15 5L14 5L14 6L13 6L13 5L12 5L12 6L11 6L11 7L12 7L12 9L13 9L13 8L17 8L17 9L15 9L15 10L14 10L14 13L13 13L13 14L14 14L14 15L15 15L15 16L16 16L16 14L17 14L17 15L18 15L18 16L21 16L21 14L22 14L22 16L25 16L25 20L24 20L24 18L23 18L23 17L19 17L19 18L18 18L18 20L17 20L17 24L16 24L16 20L15 20L15 21L14 21L14 22L13 22L13 20L14 20L14 19L13 19L13 18L11 18L11 19L10 19L10 18L9 18L9 17L11 17L11 16L12 16L12 14L11 14L11 15L10 15L10 13L6 13L6 14L8 14L8 15L6 15L6 16L8 16L8 17L6 17L6 18L8 18L8 19L5 19L5 22L4 22L4 24L5 24L5 25L4 25L4 26L3 26L3 23L2 23L2 25L1 25L1 26L2 26L2 27L5 27L5 26L7 26L7 27L6 27L6 28L4 28L4 29L5 29L5 31L6 31L6 32L8 32L8 33L9 33L9 34L10 34L10 33L9 33L9 32L10 32L10 31L9 31L9 32L8 32L8 30L9 30L9 29L6 29L6 28L7 28L7 27L8 27L8 28L9 28L9 27L10 27L10 26L11 26L11 25L13 25L13 26L12 26L12 28L11 28L11 30L12 30L12 28L13 28L13 27L16 27L16 25L17 25L17 26L18 26L18 27L19 27L19 28L15 28L15 31L16 31L16 32L17 32L17 33L18 33L18 32L19 32L19 34L20 34L20 35L16 35L16 36L18 36L18 38L19 38L19 36L21 36L21 33L20 33L20 32L19 32L19 31L20 31L20 30L21 30L21 31L22 31L22 33L23 33L23 31L25 31L25 32L26 32L26 30L25 30L25 29L27 29L27 27L29 27L29 25L27 25L27 23L28 23L28 21L32 21L32 20L34 20L34 19L32 19L32 18L33 18L33 17L35 17L35 15L34 15L34 14L33 14L33 10L32 10L32 6L31 6L31 8L29 8L29 7L30 7L30 4L29 4L29 5L28 5L28 4L27 4L27 5L28 5L28 6L27 6L27 9L26 9L26 10L25 10L25 11L26 11L26 14L27 14L27 15L26 15L26 16L25 16L25 15L23 15L23 14L22 14L22 13L21 13L21 14L19 14L19 12L21 12L21 10L23 10L23 13L24 13L24 8L23 8L23 9L21 9L21 7L20 7L20 6L19 6L19 8L17 8L17 7L18 7L18 3L19 3L19 2L20 2L20 1ZM24 2L24 3L26 3L26 2ZM25 4L25 5L26 5L26 4ZM12 6L12 7L13 7L13 6ZM14 6L14 7L15 7L15 6ZM25 6L25 8L26 8L26 6ZM28 6L28 7L29 7L29 6ZM8 8L8 9L6 9L6 10L5 10L5 12L8 12L8 11L9 11L9 12L13 12L13 11L12 11L12 10L11 10L11 8ZM19 8L19 9L20 9L20 10L19 10L19 11L18 11L18 12L16 12L16 11L15 11L15 12L16 12L16 13L18 13L18 12L19 12L19 11L20 11L20 10L21 10L21 9L20 9L20 8ZM28 8L28 10L29 10L29 8ZM38 8L38 9L40 9L40 8ZM8 9L8 10L6 10L6 11L8 11L8 10L9 10L9 11L10 11L10 9ZM17 9L17 10L18 10L18 9ZM30 10L30 12L31 12L31 13L29 13L29 11L27 11L27 12L28 12L28 13L27 13L27 14L28 14L28 13L29 13L29 17L28 17L28 15L27 15L27 17L28 17L28 18L29 18L29 19L27 19L27 18L26 18L26 19L27 19L27 20L25 20L25 21L23 21L23 20L22 20L22 18L20 18L20 22L19 22L19 20L18 20L18 22L19 22L19 23L18 23L18 24L17 24L17 25L19 25L19 26L20 26L20 29L21 29L21 30L22 30L22 29L23 29L23 30L24 30L24 29L23 29L23 28L24 28L24 26L26 26L26 27L25 27L25 28L26 28L26 27L27 27L27 26L26 26L26 23L27 23L27 22L26 22L26 21L27 21L27 20L30 20L30 19L31 19L31 18L29 18L29 17L30 17L30 16L31 16L31 17L33 17L33 16L34 16L34 15L30 15L30 14L32 14L32 12L31 12L31 11L32 11L32 10ZM38 12L38 13L39 13L39 12ZM8 15L8 16L9 16L9 15ZM13 16L13 17L14 17L14 18L15 18L15 19L17 19L17 17L14 17L14 16ZM37 18L37 19L38 19L38 20L39 20L39 19L38 19L38 18ZM8 19L8 20L6 20L6 21L8 21L8 20L9 20L9 22L8 22L8 23L7 23L7 22L5 22L5 23L7 23L7 24L6 24L6 25L8 25L8 24L9 24L9 26L10 26L10 23L11 23L11 22L12 22L12 20L13 20L13 19L12 19L12 20L11 20L11 22L10 22L10 20L9 20L9 19ZM21 21L21 22L20 22L20 23L19 23L19 24L20 24L20 25L21 25L21 26L22 26L22 27L23 27L23 26L24 26L24 23L26 23L26 22L23 22L23 21ZM9 22L9 23L10 23L10 22ZM14 22L14 23L13 23L13 24L15 24L15 25L14 25L14 26L15 26L15 25L16 25L16 24L15 24L15 22ZM21 22L21 25L22 25L22 26L23 26L23 25L22 25L22 23L23 23L23 22ZM32 22L32 23L29 23L29 24L30 24L30 26L31 26L31 27L32 27L32 26L31 26L31 24L32 24L32 25L33 25L33 22ZM21 28L21 29L22 29L22 28ZM28 28L28 29L29 29L29 31L28 31L28 30L27 30L27 33L25 33L25 34L26 34L26 36L25 36L25 37L26 37L26 38L27 38L27 39L28 39L28 38L29 38L29 39L30 39L30 38L31 38L31 39L33 39L33 38L34 38L34 37L33 37L33 38L32 38L32 32L29 32L29 31L32 31L32 29L31 29L31 28L30 28L30 29L29 29L29 28ZM13 29L13 32L14 32L14 29ZM16 29L16 30L17 30L17 29ZM18 29L18 30L19 30L19 29ZM0 30L0 31L1 31L1 30ZM6 30L6 31L7 31L7 30ZM17 31L17 32L18 32L18 31ZM33 31L33 32L35 32L35 31ZM0 32L0 33L1 33L1 32ZM28 32L28 34L29 34L29 32ZM33 33L33 36L36 36L36 33ZM12 34L12 36L13 36L13 34ZM30 34L30 36L31 36L31 34ZM34 34L34 35L35 35L35 34ZM28 35L28 36L27 36L27 38L28 38L28 36L29 36L29 35ZM40 35L40 36L41 36L41 35ZM9 36L9 37L8 37L8 38L10 38L10 39L8 39L8 41L11 41L11 40L12 40L12 37L11 37L11 36ZM20 37L20 38L21 38L21 37ZM29 37L29 38L30 38L30 37ZM39 37L39 38L41 38L41 37ZM13 38L13 41L14 41L14 38ZM10 39L10 40L11 40L11 39ZM39 39L39 41L40 41L40 39ZM0 0L0 7L7 7L7 0ZM1 1L1 6L6 6L6 1ZM2 2L2 5L5 5L5 2ZM34 0L34 7L41 7L41 0ZM35 1L35 6L40 6L40 1ZM36 2L36 5L39 5L39 2ZM0 34L0 41L7 41L7 34ZM1 35L1 40L6 40L6 35ZM2 36L2 39L5 39L5 36Z" fill="#000000"/></g></g></svg>
