<?xml version="1.0" encoding="UTF-8"?>
<svg xmlns="http://www.w3.org/2000/svg" version="1.1" width="300" height="300" viewBox="0 0 300 300"><rect x="0" y="0" width="300" height="300" fill="#ffffff"/><g transform="scale(7.317)"><g transform="translate(0,0)"><path fill-rule="evenodd" d="M8 0L8 4L9 4L9 5L8 5L8 7L9 7L9 6L10 6L10 7L11 7L11 10L10 10L10 8L9 8L9 11L7 11L7 10L8 10L8 9L7 9L7 8L4 8L4 9L7 9L7 10L5 10L5 11L3 11L3 9L2 9L2 8L0 8L0 9L2 9L2 10L0 10L0 11L1 11L1 12L0 12L0 15L2 15L2 14L3 14L3 16L1 16L1 17L0 17L0 19L1 19L1 17L3 17L3 18L2 18L2 19L3 19L3 20L2 20L2 21L3 21L3 20L4 20L4 22L3 22L3 23L0 23L0 27L1 27L1 28L0 28L0 30L1 30L1 28L2 28L2 26L3 26L3 30L2 30L2 31L3 31L3 32L6 32L6 33L7 33L7 32L8 32L8 31L7 31L7 30L6 30L6 29L7 29L7 28L4 28L4 27L5 27L5 26L6 26L6 27L8 27L8 29L12 29L12 30L11 30L11 31L10 31L10 30L9 30L9 32L12 32L12 33L13 33L13 34L10 34L10 33L8 33L8 34L10 34L10 37L14 37L14 38L13 38L13 39L12 39L12 40L11 40L11 38L10 38L10 39L8 39L8 41L12 41L12 40L13 40L13 41L14 41L14 40L16 40L16 41L18 41L18 39L16 39L16 36L17 36L17 37L18 37L18 38L19 38L19 37L18 37L18 35L19 35L19 36L20 36L20 39L21 39L21 40L19 40L19 41L22 41L22 40L23 40L23 39L24 39L24 40L25 40L25 39L28 39L28 40L27 40L27 41L28 41L28 40L29 40L29 41L34 41L34 39L32 39L32 40L31 40L31 39L29 39L29 37L30 37L30 38L32 38L32 37L33 37L33 38L34 38L34 37L38 37L38 38L37 38L37 39L36 39L36 38L35 38L35 39L36 39L36 40L35 40L35 41L36 41L36 40L37 40L37 41L40 41L40 40L41 40L41 39L40 39L40 38L39 38L39 37L38 37L38 36L37 36L37 34L38 34L38 35L39 35L39 36L41 36L41 33L39 33L39 34L38 34L38 33L37 33L37 32L38 32L38 29L36 29L36 31L35 31L35 29L34 29L34 27L33 27L33 26L32 26L32 28L31 28L31 25L30 25L30 23L28 23L28 22L29 22L29 21L30 21L30 22L31 22L31 21L33 21L33 20L34 20L34 19L33 19L33 20L31 20L31 19L30 19L30 18L31 18L31 17L30 17L30 16L32 16L32 17L33 17L33 16L35 16L35 17L34 17L34 18L39 18L39 21L38 21L38 22L37 22L37 21L36 21L36 19L35 19L35 21L34 21L34 22L35 22L35 21L36 21L36 24L37 24L37 23L39 23L39 24L40 24L40 25L34 25L34 23L33 23L33 22L32 22L32 23L33 23L33 25L34 25L34 26L36 26L36 28L37 28L37 27L39 27L39 26L40 26L40 31L39 31L39 32L40 32L40 31L41 31L41 21L40 21L40 20L41 20L41 17L40 17L40 16L41 16L41 13L40 13L40 12L41 12L41 10L40 10L40 9L41 9L41 8L37 8L37 9L36 9L36 8L35 8L35 9L33 9L33 10L32 10L32 11L29 11L29 9L30 9L30 10L31 10L31 9L32 9L32 7L33 7L33 5L32 5L32 4L33 4L33 3L32 3L32 4L31 4L31 2L32 2L32 1L30 1L30 0L25 0L25 2L23 2L23 3L22 3L22 2L21 2L21 3L22 3L22 5L21 5L21 6L20 6L20 5L19 5L19 4L20 4L20 1L19 1L19 0L18 0L18 1L17 1L17 0L16 0L16 1L17 1L17 3L16 3L16 2L15 2L15 1L14 1L14 0L13 0L13 1L9 1L9 0ZM21 0L21 1L24 1L24 0ZM18 1L18 2L19 2L19 1ZM27 1L27 2L25 2L25 4L24 4L24 5L22 5L22 6L21 6L21 7L20 7L20 6L19 6L19 5L18 5L18 3L17 3L17 5L15 5L15 4L14 4L14 5L12 5L12 4L10 4L10 3L9 3L9 4L10 4L10 5L11 5L11 7L12 7L12 8L13 8L13 9L14 9L14 10L12 10L12 13L11 13L11 12L10 12L10 11L9 11L9 12L7 12L7 11L6 11L6 12L5 12L5 13L6 13L6 14L4 14L4 13L3 13L3 11L2 11L2 13L1 13L1 14L2 14L2 13L3 13L3 14L4 14L4 15L5 15L5 16L3 16L3 17L6 17L6 18L9 18L9 19L8 19L8 21L6 21L6 20L7 20L7 19L6 19L6 20L5 20L5 18L4 18L4 20L5 20L5 21L6 21L6 22L7 22L7 23L5 23L5 24L4 24L4 23L3 23L3 24L2 24L2 25L1 25L1 26L2 26L2 25L5 25L5 24L8 24L8 25L6 25L6 26L8 26L8 27L9 27L9 28L11 28L11 26L12 26L12 27L13 27L13 28L12 28L12 29L16 29L16 32L14 32L14 31L15 31L15 30L13 30L13 31L12 31L12 32L14 32L14 33L16 33L16 35L17 35L17 30L18 30L18 29L19 29L19 31L18 31L18 32L19 32L19 31L21 31L21 30L22 30L22 32L23 32L23 33L24 33L24 35L25 35L25 36L23 36L23 37L21 37L21 38L22 38L22 39L23 39L23 38L26 38L26 37L27 37L27 36L29 36L29 35L27 35L27 34L26 34L26 33L29 33L29 34L30 34L30 33L31 33L31 34L32 34L32 32L30 32L30 33L29 33L29 30L30 30L30 29L31 29L31 28L29 28L29 27L30 27L30 26L28 26L28 29L29 29L29 30L28 30L28 31L27 31L27 28L26 28L26 27L27 27L27 26L26 26L26 25L29 25L29 24L28 24L28 23L27 23L27 22L28 22L28 20L27 20L27 17L29 17L29 18L28 18L28 19L29 19L29 18L30 18L30 17L29 17L29 16L28 16L28 15L25 15L25 14L26 14L26 13L28 13L28 12L29 12L29 14L31 14L31 15L32 15L32 16L33 16L33 15L32 15L32 14L35 14L35 15L38 15L38 17L39 17L39 15L40 15L40 14L35 14L35 12L34 12L34 13L32 13L32 12L29 12L29 11L28 11L28 12L26 12L26 10L25 10L25 9L29 9L29 7L30 7L30 6L31 6L31 7L32 7L32 6L31 6L31 4L29 4L29 2L30 2L30 1L29 1L29 2L28 2L28 1ZM13 2L13 3L14 3L14 2ZM27 2L27 3L26 3L26 5L25 5L25 6L24 6L24 8L23 8L23 6L22 6L22 7L21 7L21 8L20 8L20 9L22 9L22 8L23 8L23 10L22 10L22 11L21 11L21 10L20 10L20 11L19 11L19 9L18 9L18 8L19 8L19 6L18 6L18 7L17 7L17 6L16 6L16 7L15 7L15 5L14 5L14 9L15 9L15 10L14 10L14 11L15 11L15 12L16 12L16 14L15 14L15 13L12 13L12 14L11 14L11 13L10 13L10 14L9 14L9 13L8 13L8 14L6 14L6 15L7 15L7 16L6 16L6 17L7 17L7 16L8 16L8 17L10 17L10 16L8 16L8 14L9 14L9 15L11 15L11 16L12 16L12 15L14 15L14 16L13 16L13 17L11 17L11 19L10 19L10 21L8 21L8 24L9 24L9 23L10 23L10 21L11 21L11 19L12 19L12 18L13 18L13 17L14 17L14 18L15 18L15 19L14 19L14 20L16 20L16 21L15 21L15 23L16 23L16 25L14 25L14 24L13 24L13 23L14 23L14 22L13 22L13 23L12 23L12 24L10 24L10 26L11 26L11 25L12 25L12 24L13 24L13 26L14 26L14 27L15 27L15 28L16 28L16 29L17 29L17 28L20 28L20 29L21 29L21 28L22 28L22 29L23 29L23 31L24 31L24 29L23 29L23 28L24 28L24 27L25 27L25 26L24 26L24 25L25 25L25 24L23 24L23 23L24 23L24 20L25 20L25 19L26 19L26 18L25 18L25 19L24 19L24 17L25 17L25 15L24 15L24 14L25 14L25 13L26 13L26 12L25 12L25 11L24 11L24 9L25 9L25 6L26 6L26 8L27 8L27 5L28 5L28 7L29 7L29 4L28 4L28 2ZM12 6L12 7L13 7L13 6ZM15 8L15 9L16 9L16 10L18 10L18 9L17 9L17 8ZM30 8L30 9L31 9L31 8ZM37 9L37 10L36 10L36 13L39 13L39 12L40 12L40 10L38 10L38 9ZM33 10L33 11L34 11L34 10ZM22 11L22 13L24 13L24 12L23 12L23 11ZM37 11L37 12L38 12L38 11ZM6 12L6 13L7 13L7 12ZM18 12L18 13L19 13L19 15L18 15L18 14L17 14L17 15L18 15L18 16L19 16L19 15L20 15L20 16L21 16L21 15L23 15L23 14L21 14L21 13L20 13L20 12ZM14 16L14 17L16 17L16 19L18 19L18 20L20 20L20 21L18 21L18 22L19 22L19 23L20 23L20 22L21 22L21 23L23 23L23 22L21 22L21 21L22 21L22 20L24 20L24 19L22 19L22 18L23 18L23 17L24 17L24 16L23 16L23 17L18 17L18 18L17 18L17 17L16 17L16 16ZM36 16L36 17L37 17L37 16ZM18 18L18 19L19 19L19 18ZM20 19L20 20L22 20L22 19ZM37 19L37 20L38 20L38 19ZM0 20L0 22L1 22L1 20ZM12 20L12 21L13 21L13 20ZM30 20L30 21L31 21L31 20ZM16 21L16 22L17 22L17 21ZM25 21L25 23L26 23L26 24L27 24L27 23L26 23L26 22L27 22L27 21ZM39 22L39 23L40 23L40 22ZM19 24L19 27L20 27L20 26L21 26L21 24ZM8 25L8 26L9 26L9 25ZM16 25L16 26L17 26L17 25ZM22 25L22 26L23 26L23 25ZM16 27L16 28L17 28L17 27ZM25 28L25 30L26 30L26 28ZM4 29L4 30L5 30L5 29ZM32 29L32 30L31 30L31 31L32 31L32 30L33 30L33 32L35 32L35 31L34 31L34 29ZM6 31L6 32L7 32L7 31ZM26 31L26 32L27 32L27 31ZM0 32L0 33L2 33L2 32ZM20 32L20 33L18 33L18 34L19 34L19 35L20 35L20 33L21 33L21 32ZM24 32L24 33L25 33L25 32ZM33 33L33 36L36 36L36 33ZM13 34L13 35L12 35L12 36L14 36L14 35L15 35L15 34ZM21 34L21 35L23 35L23 34ZM34 34L34 35L35 35L35 34ZM8 35L8 37L9 37L9 35ZM26 35L26 36L27 36L27 35ZM30 35L30 37L31 37L31 35ZM14 38L14 39L13 39L13 40L14 40L14 39L15 39L15 38ZM38 39L38 40L39 40L39 39ZM0 0L0 7L7 7L7 0ZM1 1L1 6L6 6L6 1ZM2 2L2 5L5 5L5 2ZM34 0L34 7L41 7L41 0ZM35 1L35 6L40 6L40 1ZM36 2L36 5L39 5L39 2ZM0 34L0 41L7 41L7 34ZM1 35L1 40L6 40L6 35ZM2 36L2 39L5 39L5 36Z" fill="#000000"/></g></g></svg>
