<?xml version="1.0" encoding="UTF-8"?>
<svg xmlns="http://www.w3.org/2000/svg" version="1.1" width="300" height="300" viewBox="0 0 300 300"><rect x="0" y="0" width="300" height="300" fill="#ffffff"/><g transform="scale(6.667)"><g transform="translate(0,0)"><path fill-rule="evenodd" d="M8 0L8 1L9 1L9 2L10 2L10 3L11 3L11 4L9 4L9 6L8 6L8 8L9 8L9 6L10 6L10 8L11 8L11 6L10 6L10 5L12 5L12 7L13 7L13 1L14 1L14 2L15 2L15 0L10 0L10 1L9 1L9 0ZM17 0L17 1L16 1L16 2L18 2L18 3L17 3L17 4L19 4L19 2L20 2L20 3L21 3L21 4L20 4L20 7L19 7L19 5L15 5L15 6L14 6L14 8L13 8L13 9L10 9L10 11L8 11L8 10L6 10L6 9L7 9L7 8L6 8L6 9L5 9L5 8L3 8L3 9L2 9L2 8L0 8L0 9L1 9L1 10L0 10L0 14L1 14L1 16L2 16L2 14L3 14L3 13L4 13L4 12L3 12L3 11L5 11L5 13L7 13L7 14L4 14L4 15L3 15L3 17L0 17L0 18L2 18L2 20L1 20L1 19L0 19L0 20L1 20L1 22L2 22L2 23L3 23L3 25L4 25L4 27L5 27L5 28L4 28L4 30L3 30L3 29L2 29L2 28L3 28L3 26L2 26L2 25L1 25L1 23L0 23L0 26L1 26L1 27L0 27L0 28L1 28L1 30L0 30L0 31L1 31L1 32L2 32L2 33L1 33L1 34L2 34L2 33L3 33L3 34L4 34L4 35L1 35L1 36L0 36L0 37L1 37L1 36L3 36L3 37L5 37L5 33L4 33L4 32L6 32L6 33L7 33L7 34L6 34L6 35L7 35L7 34L8 34L8 33L10 33L10 35L8 35L8 38L9 38L9 36L10 36L10 37L11 37L11 38L12 38L12 39L13 39L13 40L11 40L11 41L13 41L13 43L14 43L14 44L15 44L15 45L19 45L19 43L21 43L21 42L24 42L24 43L23 43L23 45L26 45L26 44L27 44L27 43L28 43L28 45L29 45L29 44L31 44L31 43L30 43L30 42L31 42L31 41L32 41L32 42L33 42L33 43L32 43L32 44L33 44L33 45L37 45L37 43L38 43L38 45L39 45L39 44L45 44L45 43L44 43L44 42L43 42L43 41L45 41L45 39L42 39L42 37L41 37L41 35L40 35L40 36L38 36L38 35L39 35L39 34L41 34L41 32L38 32L38 33L39 33L39 34L37 34L37 36L34 36L34 35L36 35L36 34L35 34L35 32L36 32L36 33L37 33L37 31L36 31L36 30L38 30L38 31L39 31L39 30L40 30L40 31L42 31L42 32L45 32L45 29L43 29L43 30L44 30L44 31L42 31L42 28L43 28L43 26L42 26L42 25L41 25L41 24L43 24L43 25L45 25L45 24L44 24L44 23L45 23L45 22L43 22L43 21L42 21L42 22L43 22L43 23L41 23L41 20L45 20L45 15L44 15L44 14L43 14L43 13L42 13L42 12L43 12L43 11L45 11L45 10L44 10L44 9L45 9L45 8L44 8L44 9L40 9L40 10L39 10L39 8L38 8L38 10L39 10L39 12L38 12L38 11L37 11L37 9L36 9L36 8L37 8L37 6L36 6L36 7L35 7L35 6L34 6L34 5L37 5L37 3L36 3L36 1L37 1L37 0L36 0L36 1L35 1L35 4L34 4L34 5L33 5L33 3L34 3L34 2L33 2L33 3L32 3L32 1L34 1L34 0L32 0L32 1L31 1L31 0L30 0L30 1L31 1L31 4L30 4L30 7L29 7L29 5L27 5L27 4L29 4L29 3L30 3L30 2L29 2L29 1L28 1L28 0L26 0L26 1L24 1L24 0L20 0L20 1L18 1L18 0ZM10 1L10 2L11 2L11 1ZM21 1L21 2L22 2L22 1ZM26 1L26 2L25 2L25 5L26 5L26 4L27 4L27 3L26 3L26 2L27 2L27 1ZM28 2L28 3L29 3L29 2ZM14 3L14 4L15 4L15 3ZM22 3L22 4L23 4L23 3ZM31 4L31 5L32 5L32 6L31 6L31 7L30 7L30 8L29 8L29 9L27 9L27 10L25 10L25 9L24 9L24 10L25 10L25 11L27 11L27 13L28 13L28 12L29 12L29 13L32 13L32 14L30 14L30 15L28 15L28 14L26 14L26 12L25 12L25 13L24 13L24 11L23 11L23 12L22 12L22 11L21 11L21 10L20 10L20 9L18 9L18 10L19 10L19 11L17 11L17 10L16 10L16 8L17 8L17 7L18 7L18 6L17 6L17 7L16 7L16 6L15 6L15 8L14 8L14 9L15 9L15 10L14 10L14 11L15 11L15 13L16 13L16 14L15 14L15 15L14 15L14 12L12 12L12 15L13 15L13 16L12 16L12 17L11 17L11 16L10 16L10 15L11 15L11 12L9 12L9 13L8 13L8 16L7 16L7 15L5 15L5 16L7 16L7 17L6 17L6 18L7 18L7 19L5 19L5 17L4 17L4 18L3 18L3 21L4 21L4 19L5 19L5 20L9 20L9 19L8 19L8 18L9 18L9 17L8 17L8 16L10 16L10 17L11 17L11 18L10 18L10 21L9 21L9 22L12 22L12 24L13 24L13 23L14 23L14 24L15 24L15 27L13 27L13 26L14 26L14 25L12 25L12 26L10 26L10 25L5 25L5 27L6 27L6 28L7 28L7 27L6 27L6 26L8 26L8 29L5 29L5 30L7 30L7 31L6 31L6 32L12 32L12 31L14 31L14 32L13 32L13 34L14 34L14 32L17 32L17 33L16 33L16 34L17 34L17 33L18 33L18 32L17 32L17 30L19 30L19 29L20 29L20 28L21 28L21 31L20 31L20 33L21 33L21 32L23 32L23 33L22 33L22 34L18 34L18 35L16 35L16 36L15 36L15 37L14 37L14 36L11 36L11 35L12 35L12 33L11 33L11 35L10 35L10 36L11 36L11 37L14 37L14 39L15 39L15 37L16 37L16 39L17 39L17 40L15 40L15 41L14 41L14 40L13 40L13 41L14 41L14 42L15 42L15 44L18 44L18 42L17 42L17 43L16 43L16 41L19 41L19 42L20 42L20 40L19 40L19 39L20 39L20 36L21 36L21 35L22 35L22 36L24 36L24 35L25 35L25 39L26 39L26 42L25 42L25 43L24 43L24 44L26 44L26 43L27 43L27 41L29 41L29 42L30 42L30 41L29 41L29 39L31 39L31 40L33 40L33 42L34 42L34 44L36 44L36 42L34 42L34 39L36 39L36 38L35 38L35 37L34 37L34 39L31 39L31 38L32 38L32 36L33 36L33 34L32 34L32 35L31 35L31 34L29 34L29 33L34 33L34 32L35 32L35 31L34 31L34 32L33 32L33 31L32 31L32 30L33 30L33 29L31 29L31 28L32 28L32 27L33 27L33 28L34 28L34 29L35 29L35 27L36 27L36 28L39 28L39 29L40 29L40 28L41 28L41 27L42 27L42 26L41 26L41 25L38 25L38 26L37 26L37 25L36 25L36 24L34 24L34 23L36 23L36 22L32 22L32 21L33 21L33 20L34 20L34 21L35 21L35 20L34 20L34 19L36 19L36 20L37 20L37 18L36 18L36 17L38 17L38 19L39 19L39 18L40 18L40 17L41 17L41 18L42 18L42 19L44 19L44 18L43 18L43 16L41 16L41 15L42 15L42 13L41 13L41 15L40 15L40 16L39 16L39 15L38 15L38 14L37 14L37 15L35 15L35 13L34 13L34 14L33 14L33 13L32 13L32 11L31 11L31 10L29 10L29 9L34 9L34 8L35 8L35 7L34 7L34 6L33 6L33 5L32 5L32 4ZM21 5L21 8L24 8L24 5ZM22 6L22 7L23 7L23 6ZM25 6L25 8L28 8L28 6L27 6L27 7L26 7L26 6ZM32 6L32 7L31 7L31 8L32 8L32 7L33 7L33 8L34 8L34 7L33 7L33 6ZM3 9L3 10L2 10L2 11L1 11L1 13L3 13L3 12L2 12L2 11L3 11L3 10L4 10L4 9ZM22 9L22 10L23 10L23 9ZM5 10L5 11L6 11L6 12L7 12L7 11L6 11L6 10ZM11 10L11 11L12 11L12 10ZM27 10L27 11L28 11L28 10ZM35 10L35 11L36 11L36 10ZM40 10L40 12L39 12L39 14L40 14L40 12L41 12L41 10ZM16 11L16 12L17 12L17 11ZM19 11L19 12L18 12L18 13L17 13L17 14L18 14L18 15L17 15L17 19L16 19L16 16L15 16L15 18L14 18L14 20L15 20L15 22L14 22L14 21L12 21L12 22L14 22L14 23L15 23L15 24L16 24L16 25L17 25L17 24L18 24L18 23L17 23L17 22L18 22L18 21L19 21L19 19L20 19L20 23L19 23L19 24L20 24L20 26L19 26L19 25L18 25L18 29L19 29L19 27L20 27L20 26L21 26L21 25L22 25L22 28L25 28L25 30L26 30L26 29L27 29L27 24L26 24L26 23L25 23L25 22L27 22L27 23L29 23L29 24L28 24L28 25L29 25L29 26L28 26L28 27L29 27L29 26L31 26L31 27L30 27L30 28L31 28L31 27L32 27L32 26L33 26L33 27L34 27L34 24L33 24L33 23L32 23L32 26L31 26L31 23L29 23L29 19L30 19L30 18L31 18L31 17L33 17L33 18L32 18L32 19L31 19L31 21L30 21L30 22L31 22L31 21L32 21L32 19L34 19L34 18L35 18L35 17L33 17L33 16L35 16L35 15L33 15L33 14L32 14L32 15L33 15L33 16L31 16L31 15L30 15L30 16L31 16L31 17L30 17L30 18L29 18L29 17L27 17L27 16L28 16L28 15L26 15L26 14L20 14L20 16L18 16L18 15L19 15L19 14L18 14L18 13L21 13L21 12L20 12L20 11ZM29 11L29 12L31 12L31 11ZM33 11L33 12L34 12L34 11ZM44 12L44 13L45 13L45 12ZM9 14L9 15L10 15L10 14ZM24 15L24 18L25 18L25 19L24 19L24 20L25 20L25 21L26 21L26 19L27 19L27 21L28 21L28 18L27 18L27 17L26 17L26 18L25 18L25 15ZM37 15L37 16L38 16L38 15ZM13 16L13 17L12 17L12 20L13 20L13 17L14 17L14 16ZM21 16L21 17L19 17L19 18L20 18L20 19L21 19L21 20L23 20L23 19L22 19L22 18L23 18L23 16ZM7 17L7 18L8 18L8 17ZM21 17L21 18L22 18L22 17ZM17 19L17 20L18 20L18 19ZM5 21L5 24L8 24L8 21ZM21 21L21 24L24 24L24 21ZM37 21L37 24L40 24L40 21ZM3 22L3 23L4 23L4 22ZM6 22L6 23L7 23L7 22ZM15 22L15 23L16 23L16 22ZM22 22L22 23L23 23L23 22ZM38 22L38 23L39 23L39 22ZM9 23L9 24L10 24L10 23ZM29 24L29 25L30 25L30 24ZM24 25L24 26L23 26L23 27L25 27L25 28L26 28L26 27L25 27L25 25ZM35 25L35 26L36 26L36 27L37 27L37 26L36 26L36 25ZM9 26L9 27L10 27L10 26ZM16 26L16 29L15 29L15 28L13 28L13 29L12 29L12 30L14 30L14 29L15 29L15 30L17 30L17 26ZM11 27L11 28L10 28L10 29L11 29L11 28L12 28L12 27ZM44 27L44 28L45 28L45 27ZM8 29L8 30L9 30L9 31L11 31L11 30L9 30L9 29ZM30 29L30 30L31 30L31 29ZM2 30L2 31L3 31L3 30ZM22 30L22 31L23 31L23 32L25 32L25 31L24 31L24 30ZM27 30L27 31L28 31L28 33L29 33L29 32L30 32L30 31L29 31L29 30ZM31 31L31 32L32 32L32 31ZM26 32L26 34L25 34L25 33L24 33L24 34L22 34L22 35L24 35L24 34L25 34L25 35L26 35L26 34L27 34L27 32ZM28 34L28 35L27 35L27 36L28 36L28 37L26 37L26 39L27 39L27 38L29 38L29 36L28 36L28 35L29 35L29 34ZM43 34L43 35L42 35L42 36L43 36L43 37L44 37L44 38L45 38L45 37L44 37L44 35L45 35L45 34ZM18 35L18 37L17 37L17 36L16 36L16 37L17 37L17 39L18 39L18 37L19 37L19 35ZM30 35L30 38L31 38L31 35ZM6 36L6 37L7 37L7 36ZM21 37L21 40L24 40L24 37ZM37 37L37 40L40 40L40 37ZM22 38L22 39L23 39L23 38ZM38 38L38 39L39 39L39 38ZM9 39L9 40L8 40L8 42L9 42L9 43L8 43L8 45L9 45L9 43L11 43L11 44L12 44L12 45L13 45L13 44L12 44L12 42L10 42L10 39ZM41 39L41 40L42 40L42 41L37 41L37 42L38 42L38 43L40 43L40 42L42 42L42 41L43 41L43 40L42 40L42 39ZM21 44L21 45L22 45L22 44ZM0 0L0 7L7 7L7 0ZM1 1L1 6L6 6L6 1ZM2 2L2 5L5 5L5 2ZM38 0L38 7L45 7L45 0ZM39 1L39 6L44 6L44 1ZM40 2L40 5L43 5L43 2ZM0 38L0 45L7 45L7 38ZM1 39L1 44L6 44L6 39ZM2 40L2 43L5 43L5 40Z" fill="#000000"/></g></g></svg>
