<?xml version="1.0" encoding="UTF-8"?>
<svg xmlns="http://www.w3.org/2000/svg" version="1.1" width="300" height="300" viewBox="0 0 300 300"><rect x="0" y="0" width="300" height="300" fill="#ffffff"/><g transform="scale(7.317)"><g transform="translate(0,0)"><path fill-rule="evenodd" d="M8 0L8 4L10 4L10 7L11 7L11 8L9 8L9 9L8 9L8 10L9 10L9 11L10 11L10 12L9 12L9 14L8 14L8 13L7 13L7 12L8 12L8 11L7 11L7 10L6 10L6 9L7 9L7 8L4 8L4 9L5 9L5 10L3 10L3 11L2 11L2 10L1 10L1 11L0 11L0 12L1 12L1 14L0 14L0 17L1 17L1 16L3 16L3 18L2 18L2 20L0 20L0 21L1 21L1 23L0 23L0 24L1 24L1 26L0 26L0 27L1 27L1 26L2 26L2 28L1 28L1 29L0 29L0 30L2 30L2 32L0 32L0 33L2 33L2 32L3 32L3 33L4 33L4 32L5 32L5 33L7 33L7 32L5 32L5 31L3 31L3 30L5 30L5 28L4 28L4 27L5 27L5 26L4 26L4 27L3 27L3 25L2 25L2 24L1 24L1 23L2 23L2 22L4 22L4 23L3 23L3 24L4 24L4 23L7 23L7 22L4 22L4 20L5 20L5 16L6 16L6 17L9 17L9 18L11 18L11 19L10 19L10 20L9 20L9 19L8 19L8 18L6 18L6 19L7 19L7 20L6 20L6 21L7 21L7 20L9 20L9 21L10 21L10 23L9 23L9 24L8 24L8 25L9 25L9 27L10 27L10 28L9 28L9 29L7 29L7 28L6 28L6 29L7 29L7 30L6 30L6 31L7 31L7 30L9 30L9 33L8 33L8 34L9 34L9 35L8 35L8 37L9 37L9 39L8 39L8 41L13 41L13 39L12 39L12 40L11 40L11 38L10 38L10 37L9 37L9 35L10 35L10 36L11 36L11 35L12 35L12 34L11 34L11 35L10 35L10 34L9 34L9 33L10 33L10 32L12 32L12 31L14 31L14 32L13 32L13 34L14 34L14 32L15 32L15 35L14 35L14 36L12 36L12 37L13 37L13 38L14 38L14 40L15 40L15 41L18 41L18 39L17 39L17 40L15 40L15 39L16 39L16 38L17 38L17 37L18 37L18 38L19 38L19 37L18 37L18 35L19 35L19 36L20 36L20 40L19 40L19 41L22 41L22 40L24 40L24 39L28 39L28 40L27 40L27 41L28 41L28 40L29 40L29 41L36 41L36 40L37 40L37 41L38 41L38 38L40 38L40 39L39 39L39 41L40 41L40 40L41 40L41 36L40 36L40 35L41 35L41 29L40 29L40 28L39 28L39 29L37 29L37 27L39 27L39 25L34 25L34 23L33 23L33 22L32 22L32 20L31 20L31 17L33 17L33 16L35 16L35 17L34 17L34 18L33 18L33 21L34 21L34 20L35 20L35 21L36 21L36 22L38 22L38 23L35 23L35 24L38 24L38 23L39 23L39 24L40 24L40 25L41 25L41 21L40 21L40 19L41 19L41 18L40 18L40 19L39 19L39 22L38 22L38 21L36 21L36 19L34 19L34 18L39 18L39 17L40 17L40 16L41 16L41 13L40 13L40 12L41 12L41 8L37 8L37 9L36 9L36 8L35 8L35 9L33 9L33 10L32 10L32 11L31 11L31 12L33 12L33 13L32 13L32 15L33 15L33 16L31 16L31 13L30 13L30 14L29 14L29 12L30 12L30 11L29 11L29 9L30 9L30 10L31 10L31 9L32 9L32 8L33 8L33 6L32 6L32 4L31 4L31 3L30 3L30 1L29 1L29 0L26 0L26 1L25 1L25 2L23 2L23 5L24 5L24 8L23 8L23 6L22 6L22 5L21 5L21 6L20 6L20 5L19 5L19 4L20 4L20 1L19 1L19 0L18 0L18 1L17 1L17 0L15 0L15 1L14 1L14 0L13 0L13 1L12 1L12 2L11 2L11 0ZM22 0L22 1L21 1L21 3L22 3L22 1L24 1L24 0ZM15 1L15 2L16 2L16 3L17 3L17 5L16 5L16 4L15 4L15 3L14 3L14 2L13 2L13 3L11 3L11 2L9 2L9 3L11 3L11 7L12 7L12 8L11 8L11 9L10 9L10 10L12 10L12 11L11 11L11 12L10 12L10 16L9 16L9 17L10 17L10 16L11 16L11 18L13 18L13 19L12 19L12 20L14 20L14 19L15 19L15 18L13 18L13 17L12 17L12 16L14 16L14 17L16 17L16 19L18 19L18 20L20 20L20 21L18 21L18 22L19 22L19 23L20 23L20 22L21 22L21 23L23 23L23 25L21 25L21 24L19 24L19 27L20 27L20 26L21 26L21 27L22 27L22 29L20 29L20 28L17 28L17 27L16 27L16 28L15 28L15 27L14 27L14 29L13 29L13 28L12 28L12 27L13 27L13 26L14 26L14 25L16 25L16 26L17 26L17 25L16 25L16 24L15 24L15 23L13 23L13 21L11 21L11 24L12 24L12 23L13 23L13 24L14 24L14 25L12 25L12 27L11 27L11 25L10 25L10 24L9 24L9 25L10 25L10 27L11 27L11 28L10 28L10 31L11 31L11 30L12 30L12 29L13 29L13 30L14 30L14 31L15 31L15 30L14 30L14 29L17 29L17 30L18 30L18 29L19 29L19 31L18 31L18 32L19 32L19 31L21 31L21 30L22 30L22 32L25 32L25 33L24 33L24 35L25 35L25 36L26 36L26 37L24 37L24 36L23 36L23 37L21 37L21 38L22 38L22 39L23 39L23 38L27 38L27 36L29 36L29 35L27 35L27 34L26 34L26 33L27 33L27 32L26 32L26 31L27 31L27 30L25 30L25 29L24 29L24 28L26 28L26 29L27 29L27 27L24 27L24 28L23 28L23 27L22 27L22 26L23 26L23 25L24 25L24 26L26 26L26 25L29 25L29 26L28 26L28 28L29 28L29 27L30 27L30 25L31 25L31 28L30 28L30 29L28 29L28 30L31 30L31 31L32 31L32 32L37 32L37 33L38 33L38 34L37 34L37 36L38 36L38 37L34 37L34 38L33 38L33 37L32 37L32 38L31 38L31 36L30 36L30 37L29 37L29 39L33 39L33 40L36 40L36 39L37 39L37 38L38 38L38 37L39 37L39 35L38 35L38 34L39 34L39 33L38 33L38 32L39 32L39 31L40 31L40 29L39 29L39 30L35 30L35 31L34 31L34 29L36 29L36 26L34 26L34 25L33 25L33 24L32 24L32 22L30 22L30 21L31 21L31 20L29 20L29 23L28 23L28 24L26 24L26 23L27 23L27 22L26 22L26 23L25 23L25 25L24 25L24 23L23 23L23 22L25 22L25 20L26 20L26 21L28 21L28 20L27 20L27 19L26 19L26 18L27 18L27 15L25 15L25 14L26 14L26 13L28 13L28 12L29 12L29 11L28 11L28 12L26 12L26 10L25 10L25 9L29 9L29 8L26 8L26 6L25 6L25 9L24 9L24 11L25 11L25 13L24 13L24 12L23 12L23 8L22 8L22 10L21 10L21 9L20 9L20 8L21 8L21 7L22 7L22 6L21 6L21 7L20 7L20 6L19 6L19 5L18 5L18 3L17 3L17 1ZM18 1L18 2L19 2L19 1ZM27 1L27 2L25 2L25 3L26 3L26 4L25 4L25 5L27 5L27 7L28 7L28 6L29 6L29 7L30 7L30 6L31 6L31 7L32 7L32 6L31 6L31 5L30 5L30 4L29 4L29 2L28 2L28 1ZM31 1L31 2L32 2L32 1ZM27 2L27 5L29 5L29 4L28 4L28 2ZM13 4L13 6L12 6L12 7L13 7L13 6L14 6L14 7L15 7L15 6L16 6L16 7L17 7L17 9L18 9L18 10L16 10L16 8L15 8L15 9L14 9L14 8L13 8L13 9L14 9L14 10L13 10L13 11L12 11L12 12L13 12L13 13L12 13L12 14L11 14L11 16L12 16L12 15L13 15L13 13L14 13L14 16L15 16L15 15L16 15L16 17L17 17L17 18L18 18L18 19L19 19L19 18L18 18L18 17L21 17L21 18L22 18L22 17L23 17L23 19L20 19L20 20L22 20L22 21L21 21L21 22L23 22L23 21L24 21L24 20L25 20L25 19L24 19L24 17L25 17L25 18L26 18L26 17L25 17L25 16L23 16L23 15L24 15L24 14L23 14L23 15L21 15L21 16L20 16L20 15L19 15L19 13L18 13L18 12L20 12L20 13L21 13L21 14L22 14L22 11L21 11L21 10L20 10L20 11L19 11L19 9L18 9L18 8L19 8L19 6L18 6L18 7L17 7L17 6L16 6L16 5L14 5L14 4ZM8 5L8 7L9 7L9 5ZM0 8L0 9L2 9L2 8ZM30 8L30 9L31 9L31 8ZM37 9L37 10L36 10L36 12L35 12L35 11L34 11L34 10L33 10L33 12L34 12L34 14L35 14L35 13L39 13L39 12L40 12L40 11L39 11L39 10L38 10L38 9ZM6 11L6 12L7 12L7 11ZM14 11L14 13L15 13L15 14L16 14L16 15L18 15L18 16L19 16L19 15L18 15L18 14L17 14L17 12L15 12L15 11ZM37 11L37 12L38 12L38 11ZM2 12L2 15L3 15L3 12ZM4 12L4 15L6 15L6 16L8 16L8 15L6 15L6 14L7 14L7 13L6 13L6 14L5 14L5 12ZM37 14L37 15L35 15L35 16L36 16L36 17L37 17L37 15L38 15L38 17L39 17L39 15L40 15L40 14L39 14L39 15L38 15L38 14ZM28 16L28 17L29 17L29 16ZM30 16L30 17L31 17L31 16ZM3 18L3 20L2 20L2 21L3 21L3 20L4 20L4 18ZM28 18L28 19L29 19L29 18ZM23 19L23 20L24 20L24 19ZM37 19L37 20L38 20L38 19ZM15 20L15 21L14 21L14 22L15 22L15 21L16 21L16 20ZM16 22L16 23L17 23L17 22ZM39 22L39 23L40 23L40 22ZM29 23L29 25L30 25L30 23ZM6 24L6 25L7 25L7 24ZM31 24L31 25L32 25L32 24ZM6 26L6 27L8 27L8 26ZM32 26L32 28L31 28L31 30L32 30L32 31L33 31L33 30L32 30L32 28L33 28L33 29L34 29L34 28L33 28L33 26ZM40 26L40 27L41 27L41 26ZM2 28L2 30L3 30L3 29L4 29L4 28ZM23 29L23 31L24 31L24 29ZM16 31L16 35L17 35L17 31ZM37 31L37 32L38 32L38 31ZM20 32L20 33L18 33L18 34L19 34L19 35L20 35L20 33L21 33L21 32ZM28 32L28 33L29 33L29 34L30 34L30 33L31 33L31 34L32 34L32 33L31 33L31 32L30 32L30 33L29 33L29 32ZM33 33L33 36L36 36L36 33ZM21 34L21 35L23 35L23 34ZM34 34L34 35L35 35L35 34ZM26 35L26 36L27 36L27 35ZM16 36L16 37L17 37L17 36ZM14 37L14 38L15 38L15 37ZM35 38L35 39L36 39L36 38ZM0 0L0 7L7 7L7 0ZM1 1L1 6L6 6L6 1ZM2 2L2 5L5 5L5 2ZM34 0L34 7L41 7L41 0ZM35 1L35 6L40 6L40 1ZM36 2L36 5L39 5L39 2ZM0 34L0 41L7 41L7 34ZM1 35L1 40L6 40L6 35ZM2 36L2 39L5 39L5 36Z" fill="#000000"/></g></g></svg>
