<?xml version="1.0" encoding="UTF-8"?>
<svg xmlns="http://www.w3.org/2000/svg" version="1.1" width="300" height="300" viewBox="0 0 300 300"><rect x="0" y="0" width="300" height="300" fill="#ffffff"/><g transform="scale(7.317)"><g transform="translate(0,0)"><path fill-rule="evenodd" d="M8 0L8 4L10 4L10 5L12 5L12 3L13 3L13 2L14 2L14 3L15 3L15 4L16 4L16 5L15 5L15 6L14 6L14 8L13 8L13 6L12 6L12 7L11 7L11 6L10 6L10 7L11 7L11 8L9 8L9 9L10 9L10 10L9 10L9 11L11 11L11 9L14 9L14 10L13 10L13 11L12 11L12 12L13 12L13 13L12 13L12 14L10 14L10 13L11 13L11 12L6 12L6 11L8 11L8 9L7 9L7 8L4 8L4 9L2 9L2 8L0 8L0 9L1 9L1 10L2 10L2 11L3 11L3 13L2 13L2 12L1 12L1 11L0 11L0 12L1 12L1 13L0 13L0 15L1 15L1 13L2 13L2 15L4 15L4 14L3 14L3 13L8 13L8 15L7 15L7 14L6 14L6 15L7 15L7 16L4 16L4 17L7 17L7 18L3 18L3 16L1 16L1 18L0 18L0 19L1 19L1 20L0 20L0 21L1 21L1 20L2 20L2 21L3 21L3 19L4 19L4 20L5 20L5 19L8 19L8 20L6 20L6 21L8 21L8 23L7 23L7 22L6 22L6 23L7 23L7 24L4 24L4 23L3 23L3 22L2 22L2 23L1 23L1 25L0 25L0 27L4 27L4 28L2 28L2 29L3 29L3 30L2 30L2 32L0 32L0 33L2 33L2 32L3 32L3 33L4 33L4 31L5 31L5 32L6 32L6 33L8 33L8 34L9 34L9 35L8 35L8 37L9 37L9 38L10 38L10 36L11 36L11 35L13 35L13 34L14 34L14 32L12 32L12 31L14 31L14 30L15 30L15 35L14 35L14 36L12 36L12 37L13 37L13 38L14 38L14 39L16 39L16 38L17 38L17 37L18 37L18 38L19 38L19 37L18 37L18 35L19 35L19 36L20 36L20 38L21 38L21 39L19 39L19 40L20 40L20 41L22 41L22 40L23 40L23 41L24 41L24 37L23 37L23 39L22 39L22 38L21 38L21 37L22 37L22 36L25 36L25 35L24 35L24 33L25 33L25 32L24 32L24 33L23 33L23 32L22 32L22 30L21 30L21 31L19 31L19 29L18 29L18 30L17 30L17 29L14 29L14 27L15 27L15 28L16 28L16 27L17 27L17 28L20 28L20 29L22 29L22 26L20 26L20 27L19 27L19 24L21 24L21 25L23 25L23 28L24 28L24 29L25 29L25 30L27 30L27 31L26 31L26 32L27 32L27 33L26 33L26 34L27 34L27 35L29 35L29 36L27 36L27 38L25 38L25 39L27 39L27 40L29 40L29 41L31 41L31 39L28 39L28 38L29 38L29 37L30 37L30 38L32 38L32 37L33 37L33 38L34 38L34 37L38 37L38 36L37 36L37 34L38 34L38 35L39 35L39 34L40 34L40 35L41 35L41 34L40 34L40 33L41 33L41 29L40 29L40 31L39 31L39 30L38 30L38 29L37 29L37 27L39 27L39 24L40 24L40 28L41 28L41 20L40 20L40 19L41 19L41 17L40 17L40 16L41 16L41 13L38 13L38 14L37 14L37 13L36 13L36 10L37 10L37 9L38 9L38 10L39 10L39 11L41 11L41 8L37 8L37 9L36 9L36 8L35 8L35 9L33 9L33 10L32 10L32 11L29 11L29 9L30 9L30 10L31 10L31 9L30 9L30 8L31 8L31 6L32 6L32 7L33 7L33 6L32 6L32 5L31 5L31 2L32 2L32 1L31 1L31 2L29 2L29 0L25 0L25 1L26 1L26 2L27 2L27 4L28 4L28 5L29 5L29 4L30 4L30 5L31 5L31 6L30 6L30 7L29 7L29 6L28 6L28 8L27 8L27 5L25 5L25 6L24 6L24 7L23 7L23 6L22 6L22 5L21 5L21 6L20 6L20 5L19 5L19 4L20 4L20 1L19 1L19 0L18 0L18 1L17 1L17 0L13 0L13 2L12 2L12 0L11 0L11 4L10 4L10 3L9 3L9 1L10 1L10 0ZM22 0L22 2L21 2L21 3L22 3L22 2L23 2L23 4L26 4L26 3L25 3L25 2L23 2L23 1L24 1L24 0ZM15 1L15 2L16 2L16 3L17 3L17 5L16 5L16 6L15 6L15 8L14 8L14 9L15 9L15 8L16 8L16 10L18 10L18 9L19 9L19 11L20 11L20 10L21 10L21 9L20 9L20 8L21 8L21 7L22 7L22 6L21 6L21 7L20 7L20 6L19 6L19 5L18 5L18 3L17 3L17 1ZM18 1L18 2L19 2L19 1ZM27 1L27 2L28 2L28 4L29 4L29 2L28 2L28 1ZM32 3L32 4L33 4L33 3ZM8 5L8 7L9 7L9 5ZM16 6L16 7L17 7L17 9L18 9L18 8L19 8L19 6L18 6L18 7L17 7L17 6ZM25 6L25 7L24 7L24 8L22 8L22 10L23 10L23 9L24 9L24 11L25 11L25 12L23 12L23 11L22 11L22 12L21 12L21 13L20 13L20 12L18 12L18 13L19 13L19 15L18 15L18 14L17 14L17 12L15 12L15 11L14 11L14 13L15 13L15 14L14 14L14 15L12 15L12 16L11 16L11 15L9 15L9 16L8 16L8 17L9 17L9 18L8 18L8 19L9 19L9 18L10 18L10 17L12 17L12 18L13 18L13 19L12 19L12 20L14 20L14 19L15 19L15 17L16 17L16 19L18 19L18 20L20 20L20 21L18 21L18 22L19 22L19 23L20 23L20 22L21 22L21 23L23 23L23 22L24 22L24 23L25 23L25 25L24 25L24 26L25 26L25 27L24 27L24 28L26 28L26 29L27 29L27 30L28 30L28 31L29 31L29 30L30 30L30 29L31 29L31 31L32 31L32 30L33 30L33 32L38 32L38 34L39 34L39 31L38 31L38 30L35 30L35 31L34 31L34 29L35 29L35 28L36 28L36 26L35 26L35 28L34 28L34 25L38 25L38 24L39 24L39 23L40 23L40 22L38 22L38 24L37 24L37 23L36 23L36 24L35 24L35 22L33 22L33 21L31 21L31 20L33 20L33 18L34 18L34 21L36 21L36 20L37 20L37 21L40 21L40 20L39 20L39 19L40 19L40 18L34 18L34 17L35 17L35 16L36 16L36 17L39 17L39 15L40 15L40 14L39 14L39 15L36 15L36 14L35 14L35 12L34 12L34 14L35 14L35 16L33 16L33 17L31 17L31 16L32 16L32 15L33 15L33 13L32 13L32 12L30 12L30 13L29 13L29 14L30 14L30 13L31 13L31 16L30 16L30 17L31 17L31 19L30 19L30 18L28 18L28 19L30 19L30 21L29 21L29 23L30 23L30 25L31 25L31 28L29 28L29 27L30 27L30 26L28 26L28 29L27 29L27 28L26 28L26 27L27 27L27 26L26 26L26 25L27 25L27 24L28 24L28 25L29 25L29 24L28 24L28 23L27 23L27 21L28 21L28 20L26 20L26 19L27 19L27 15L25 15L25 14L27 14L27 13L28 13L28 12L29 12L29 11L28 11L28 12L26 12L26 11L27 11L27 10L26 10L26 11L25 11L25 9L27 9L27 8L26 8L26 6ZM24 8L24 9L25 9L25 8ZM28 8L28 9L29 9L29 8ZM5 9L5 10L4 10L4 11L5 11L5 10L7 10L7 9ZM33 10L33 11L34 11L34 10ZM37 11L37 12L38 12L38 11ZM22 12L22 13L21 13L21 14L23 14L23 15L21 15L21 16L20 16L20 15L19 15L19 16L18 16L18 15L16 15L16 14L15 14L15 15L14 15L14 16L12 16L12 17L13 17L13 18L14 18L14 16L15 16L15 15L16 15L16 17L17 17L17 18L18 18L18 19L19 19L19 18L18 18L18 17L23 17L23 19L24 19L24 20L23 20L23 21L22 21L22 18L21 18L21 19L20 19L20 20L21 20L21 22L23 22L23 21L25 21L25 23L26 23L26 24L27 24L27 23L26 23L26 20L25 20L25 19L24 19L24 17L25 17L25 18L26 18L26 17L25 17L25 15L24 15L24 13L23 13L23 12ZM23 15L23 16L24 16L24 15ZM28 16L28 17L29 17L29 16ZM1 18L1 19L3 19L3 18ZM35 19L35 20L36 20L36 19ZM37 19L37 20L38 20L38 19ZM10 20L10 21L9 21L9 22L10 22L10 21L11 21L11 23L8 23L8 25L9 25L9 24L12 24L12 27L9 27L9 26L7 26L7 25L6 25L6 26L5 26L5 27L6 27L6 28L8 28L8 29L9 29L9 28L10 28L10 30L12 30L12 29L13 29L13 28L12 28L12 27L13 27L13 26L15 26L15 25L16 25L16 26L17 26L17 25L16 25L16 24L15 24L15 23L13 23L13 21L11 21L11 20ZM15 20L15 21L14 21L14 22L15 22L15 21L16 21L16 20ZM30 21L30 22L31 22L31 21ZM16 22L16 23L17 23L17 22ZM2 23L2 25L1 25L1 26L2 26L2 25L3 25L3 23ZM12 23L12 24L13 24L13 25L14 25L14 24L13 24L13 23ZM32 23L32 24L33 24L33 25L34 25L34 23ZM10 25L10 26L11 26L11 25ZM6 26L6 27L7 27L7 26ZM32 26L32 28L31 28L31 29L33 29L33 26ZM11 28L11 29L12 29L12 28ZM0 29L0 30L1 30L1 29ZM4 29L4 30L5 30L5 31L6 31L6 32L7 32L7 31L6 31L6 30L7 30L7 29L6 29L6 30L5 30L5 29ZM28 29L28 30L29 30L29 29ZM23 30L23 31L24 31L24 30ZM9 31L9 34L10 34L10 35L9 35L9 36L10 36L10 35L11 35L11 34L13 34L13 33L12 33L12 32L10 32L10 31ZM16 31L16 35L17 35L17 31ZM18 31L18 32L19 32L19 31ZM20 32L20 33L18 33L18 34L19 34L19 35L20 35L20 33L21 33L21 32ZM28 32L28 33L29 33L29 35L30 35L30 37L31 37L31 35L30 35L30 33L31 33L31 34L32 34L32 32L30 32L30 33L29 33L29 32ZM10 33L10 34L11 34L11 33ZM33 33L33 36L36 36L36 33ZM21 34L21 35L23 35L23 34ZM34 34L34 35L35 35L35 34ZM16 36L16 37L17 37L17 36ZM40 36L40 37L39 37L39 38L37 38L37 39L36 39L36 38L35 38L35 39L36 39L36 40L32 40L32 41L36 41L36 40L37 40L37 41L40 41L40 40L41 40L41 36ZM14 37L14 38L15 38L15 37ZM39 38L39 39L38 39L38 40L39 40L39 39L40 39L40 38ZM8 39L8 41L9 41L9 39ZM10 39L10 41L12 41L12 40L13 40L13 39L12 39L12 40L11 40L11 39ZM17 39L17 40L14 40L14 41L18 41L18 39ZM0 0L0 7L7 7L7 0ZM1 1L1 6L6 6L6 1ZM2 2L2 5L5 5L5 2ZM34 0L34 7L41 7L41 0ZM35 1L35 6L40 6L40 1ZM36 2L36 5L39 5L39 2ZM0 34L0 41L7 41L7 34ZM1 35L1 40L6 40L6 35ZM2 36L2 39L5 39L5 36Z" fill="#000000"/></g></g></svg>
