<?xml version="1.0" encoding="UTF-8"?>
<svg xmlns="http://www.w3.org/2000/svg" version="1.1" width="300" height="300" viewBox="0 0 300 300"><rect x="0" y="0" width="300" height="300" fill="#ffffff"/><g transform="scale(7.317)"><g transform="translate(0,0)"><path fill-rule="evenodd" d="M9 0L9 1L8 1L8 3L10 3L10 4L11 4L11 6L10 6L10 7L9 7L9 4L8 4L8 8L6 8L6 9L5 9L5 10L6 10L6 11L7 11L7 10L8 10L8 8L12 8L12 9L9 9L9 10L11 10L11 12L12 12L12 13L11 13L11 14L9 14L9 13L8 13L8 12L4 12L4 10L3 10L3 9L4 9L4 8L3 8L3 9L2 9L2 8L0 8L0 10L1 10L1 9L2 9L2 10L3 10L3 12L4 12L4 13L2 13L2 12L0 12L0 13L1 13L1 14L0 14L0 16L1 16L1 15L2 15L2 17L1 17L1 18L3 18L3 15L2 15L2 14L4 14L4 15L5 15L5 18L4 18L4 19L3 19L3 20L4 20L4 21L3 21L3 23L2 23L2 21L0 21L0 23L1 23L1 24L0 24L0 25L1 25L1 27L2 27L2 26L3 26L3 25L5 25L5 26L4 26L4 27L3 27L3 28L1 28L1 30L0 30L0 31L1 31L1 30L4 30L4 28L6 28L6 29L5 29L5 30L6 30L6 31L4 31L4 33L5 33L5 32L6 32L6 33L7 33L7 32L8 32L8 35L9 35L9 33L10 33L10 34L11 34L11 31L12 31L12 32L13 32L13 33L14 33L14 34L15 34L15 33L14 33L14 32L13 32L13 31L14 31L14 29L15 29L15 28L19 28L19 27L18 27L18 26L17 26L17 25L19 25L19 26L20 26L20 29L21 29L21 30L20 30L20 31L19 31L19 32L18 32L18 31L17 31L17 32L16 32L16 31L15 31L15 32L16 32L16 33L17 33L17 34L16 34L16 35L14 35L14 36L15 36L15 37L17 37L17 38L18 38L18 39L15 39L15 38L14 38L14 39L13 39L13 40L14 40L14 41L15 41L15 40L16 40L16 41L18 41L18 39L19 39L19 38L20 38L20 39L21 39L21 40L20 40L20 41L22 41L22 39L21 39L21 38L23 38L23 40L26 40L26 39L27 39L27 38L26 38L26 37L21 37L21 36L23 36L23 33L22 33L22 31L21 31L21 30L22 30L22 27L23 27L23 28L24 28L24 31L23 31L23 32L24 32L24 36L27 36L27 37L28 37L28 38L30 38L30 39L29 39L29 41L31 41L31 40L32 40L32 41L36 41L36 40L38 40L38 38L39 38L39 41L40 41L40 39L41 39L41 38L39 38L39 37L38 37L38 38L37 38L37 36L39 36L39 35L40 35L40 37L41 37L41 35L40 35L40 34L39 34L39 33L40 33L40 32L41 32L41 28L40 28L40 27L41 27L41 26L40 26L40 27L39 27L39 26L37 26L37 27L36 27L36 29L35 29L35 30L34 30L34 28L35 28L35 27L34 27L34 25L35 25L35 24L36 24L36 23L35 23L35 22L34 22L34 21L35 21L35 20L36 20L36 21L38 21L38 22L37 22L37 25L38 25L38 24L40 24L40 22L41 22L41 18L40 18L40 15L41 15L41 14L38 14L38 12L40 12L40 13L41 13L41 11L39 11L39 10L36 10L36 11L38 11L38 12L37 12L37 14L34 14L34 15L33 15L33 13L36 13L36 12L33 12L33 13L32 13L32 12L31 12L31 14L32 14L32 15L30 15L30 12L29 12L29 11L32 11L32 10L33 10L33 8L32 8L32 7L33 7L33 3L31 3L31 2L30 2L30 1L29 1L29 3L27 3L27 2L28 2L28 0L26 0L26 1L24 1L24 0L23 0L23 1L22 1L22 0L21 0L21 1L20 1L20 0L18 0L18 2L17 2L17 1L15 1L15 0L11 0L11 1L10 1L10 0ZM31 0L31 1L32 1L32 2L33 2L33 1L32 1L32 0ZM9 1L9 2L10 2L10 3L11 3L11 4L12 4L12 5L13 5L13 9L12 9L12 10L13 10L13 9L14 9L14 10L15 10L15 11L14 11L14 12L13 12L13 11L12 11L12 12L13 12L13 14L14 14L14 12L15 12L15 15L18 15L18 16L21 16L21 14L22 14L22 16L23 16L23 17L22 17L22 19L23 19L23 20L21 20L21 22L20 22L20 18L21 18L21 17L19 17L19 18L18 18L18 20L17 20L17 22L16 22L16 20L15 20L15 19L17 19L17 17L16 17L16 16L15 16L15 17L14 17L14 16L12 16L12 14L11 14L11 16L12 16L12 18L11 18L11 19L12 19L12 18L14 18L14 20L11 20L11 21L10 21L10 20L9 20L9 18L10 18L10 16L9 16L9 17L8 17L8 15L6 15L6 16L7 16L7 17L6 17L6 18L5 18L5 19L6 19L6 20L5 20L5 21L4 21L4 22L7 22L7 23L6 23L6 24L5 24L5 23L3 23L3 24L1 24L1 25L3 25L3 24L5 24L5 25L6 25L6 26L7 26L7 27L6 27L6 28L7 28L7 29L6 29L6 30L7 30L7 31L6 31L6 32L7 32L7 31L8 31L8 32L9 32L9 30L7 30L7 29L8 29L8 28L7 28L7 27L8 27L8 26L9 26L9 29L10 29L10 27L11 27L11 25L12 25L12 24L13 24L13 26L12 26L12 28L11 28L11 30L10 30L10 31L11 31L11 30L12 30L12 28L13 28L13 27L16 27L16 25L17 25L17 24L18 24L18 23L19 23L19 24L20 24L20 25L21 25L21 22L22 22L22 21L23 21L23 23L22 23L22 25L23 25L23 26L24 26L24 28L25 28L25 29L27 29L27 27L32 27L32 26L31 26L31 25L33 25L33 24L31 24L31 23L29 23L29 24L30 24L30 26L29 26L29 25L27 25L27 24L28 24L28 22L29 22L29 20L27 20L27 19L30 19L30 21L31 21L31 22L32 22L32 23L33 23L33 21L32 21L32 20L33 20L33 19L32 19L32 18L33 18L33 17L35 17L35 15L34 15L34 16L33 16L33 15L32 15L32 16L30 16L30 18L28 18L28 17L29 17L29 12L27 12L27 11L29 11L29 10L32 10L32 8L29 8L29 10L28 10L28 9L26 9L26 10L25 10L25 11L26 11L26 14L27 14L27 15L26 15L26 16L25 16L25 15L24 15L24 16L23 16L23 14L22 14L22 13L24 13L24 9L21 9L21 7L22 7L22 6L23 6L23 8L24 8L24 5L23 5L23 4L22 4L22 2L20 2L20 1L19 1L19 2L18 2L18 3L17 3L17 2L14 2L14 3L16 3L16 4L15 4L15 5L17 5L17 7L18 7L18 3L19 3L19 5L20 5L20 6L19 6L19 8L17 8L17 9L16 9L16 6L15 6L15 7L14 7L14 4L12 4L12 3L11 3L11 2L10 2L10 1ZM26 1L26 2L24 2L24 3L26 3L26 2L27 2L27 1ZM19 2L19 3L20 3L20 2ZM29 3L29 5L28 5L28 6L27 6L27 7L28 7L28 6L29 6L29 7L30 7L30 3ZM25 4L25 5L27 5L27 4ZM31 4L31 5L32 5L32 4ZM11 6L11 7L12 7L12 6ZM20 6L20 7L21 7L21 6ZM25 6L25 8L26 8L26 6ZM31 6L31 7L32 7L32 6ZM14 8L14 9L15 9L15 8ZM19 8L19 9L20 9L20 10L19 10L19 11L18 11L18 12L16 12L16 11L15 11L15 12L16 12L16 13L18 13L18 12L19 12L19 14L21 14L21 12L23 12L23 10L21 10L21 9L20 9L20 8ZM34 8L34 11L35 11L35 9L37 9L37 8ZM38 8L38 9L40 9L40 10L41 10L41 9L40 9L40 8ZM6 9L6 10L7 10L7 9ZM17 9L17 10L18 10L18 9ZM20 10L20 11L19 11L19 12L21 12L21 10ZM4 13L4 14L5 14L5 13ZM6 13L6 14L8 14L8 13ZM27 13L27 14L28 14L28 13ZM37 14L37 15L36 15L36 18L37 18L37 19L36 19L36 20L37 20L37 19L38 19L38 20L40 20L40 19L38 19L38 18L37 18L37 16L39 16L39 15L38 15L38 14ZM27 15L27 16L28 16L28 15ZM24 16L24 17L23 17L23 18L24 18L24 20L25 20L25 21L24 21L24 22L26 22L26 23L25 23L25 24L23 24L23 25L24 25L24 26L25 26L25 28L26 28L26 27L27 27L27 26L26 26L26 23L27 23L27 22L26 22L26 20L25 20L25 19L26 19L26 17L25 17L25 16ZM32 16L32 17L33 17L33 16ZM6 18L6 19L8 19L8 18ZM30 18L30 19L31 19L31 18ZM0 19L0 20L2 20L2 19ZM34 19L34 20L35 20L35 19ZM6 20L6 21L7 21L7 22L9 22L9 21L7 21L7 20ZM14 20L14 21L13 21L13 22L14 22L14 23L13 23L13 24L14 24L14 23L15 23L15 22L14 22L14 21L15 21L15 20ZM18 20L18 22L19 22L19 23L20 23L20 22L19 22L19 20ZM11 21L11 22L10 22L10 23L9 23L9 24L6 24L6 25L7 25L7 26L8 26L8 25L9 25L9 26L10 26L10 25L9 25L9 24L11 24L11 22L12 22L12 21ZM39 21L39 22L38 22L38 23L39 23L39 22L40 22L40 21ZM14 25L14 26L15 26L15 25ZM21 26L21 27L22 27L22 26ZM33 27L33 28L34 28L34 27ZM38 27L38 28L37 28L37 29L36 29L36 31L33 31L33 29L31 29L31 28L28 28L28 29L29 29L29 30L27 30L27 31L31 31L31 32L29 32L29 34L28 34L28 32L27 32L27 33L25 33L25 34L27 34L27 36L28 36L28 37L30 37L30 38L31 38L31 39L32 39L32 40L33 40L33 38L34 38L34 40L36 40L36 39L35 39L35 38L34 38L34 37L33 37L33 38L32 38L32 33L31 33L31 32L32 32L32 31L33 31L33 32L37 32L37 33L38 33L38 32L40 32L40 31L38 31L38 29L40 29L40 28L39 28L39 27ZM16 29L16 30L17 30L17 29ZM18 29L18 30L19 30L19 29ZM25 30L25 31L24 31L24 32L26 32L26 30ZM2 31L2 33L3 33L3 31ZM37 31L37 32L38 32L38 31ZM0 32L0 33L1 33L1 32ZM17 32L17 33L18 33L18 32ZM19 32L19 34L20 34L20 35L19 35L19 36L18 36L18 34L17 34L17 35L16 35L16 36L18 36L18 37L19 37L19 36L21 36L21 34L22 34L22 33L20 33L20 32ZM33 33L33 36L36 36L36 33ZM29 34L29 35L28 35L28 36L29 36L29 35L30 35L30 36L31 36L31 34ZM34 34L34 35L35 35L35 34ZM38 34L38 35L39 35L39 34ZM9 36L9 37L8 37L8 38L9 38L9 37L10 37L10 36ZM11 36L11 40L12 40L12 36ZM20 37L20 38L21 38L21 37ZM24 38L24 39L25 39L25 38ZM8 39L8 41L10 41L10 39ZM27 40L27 41L28 41L28 40ZM0 0L0 7L7 7L7 0ZM1 1L1 6L6 6L6 1ZM2 2L2 5L5 5L5 2ZM34 0L34 7L41 7L41 0ZM35 1L35 6L40 6L40 1ZM36 2L36 5L39 5L39 2ZM0 34L0 41L7 41L7 34ZM1 35L1 40L6 40L6 35ZM2 36L2 39L5 39L5 36Z" fill="#000000"/></g></g></svg>
