<?xml version="1.0" encoding="UTF-8"?>
<svg xmlns="http://www.w3.org/2000/svg" version="1.1" width="300" height="300" viewBox="0 0 300 300"><rect x="0" y="0" width="300" height="300" fill="#ffffff"/><g transform="scale(7.317)"><g transform="translate(0,0)"><path fill-rule="evenodd" d="M9 0L9 1L8 1L8 3L9 3L9 4L8 4L8 8L6 8L6 9L5 9L5 10L4 10L4 8L3 8L3 9L2 9L2 8L0 8L0 9L1 9L1 11L0 11L0 16L1 16L1 17L2 17L2 16L1 16L1 15L2 15L2 14L3 14L3 12L4 12L4 14L5 14L5 15L3 15L3 16L4 16L4 17L3 17L3 18L1 18L1 19L0 19L0 20L2 20L2 22L1 22L1 21L0 21L0 23L1 23L1 24L0 24L0 25L1 25L1 26L2 26L2 27L1 27L1 28L0 28L0 29L1 29L1 30L0 30L0 31L1 31L1 30L2 30L2 31L3 31L3 33L5 33L5 32L4 32L4 31L5 31L5 30L6 30L6 31L7 31L7 30L8 30L8 29L7 29L7 28L9 28L9 30L11 30L11 31L10 31L10 35L9 35L9 32L6 32L6 33L8 33L8 35L9 35L9 37L8 37L8 38L9 38L9 39L8 39L8 41L10 41L10 38L11 38L11 40L12 40L12 37L10 37L10 36L13 36L13 31L14 31L14 34L16 34L16 35L14 35L14 36L15 36L15 38L13 38L13 40L16 40L16 39L15 39L15 38L17 38L17 40L18 40L18 37L16 37L16 36L18 36L18 34L17 34L17 32L18 32L18 33L19 33L19 32L18 32L18 31L19 31L19 30L18 30L18 31L17 31L17 29L16 29L16 28L18 28L18 29L19 29L19 26L20 26L20 24L19 24L19 23L21 23L21 27L20 27L20 29L24 29L24 30L25 30L25 31L26 31L26 32L24 32L24 31L23 31L23 33L25 33L25 34L24 34L24 36L23 36L23 35L21 35L21 36L20 36L20 34L21 34L21 33L22 33L22 30L21 30L21 31L20 31L20 32L21 32L21 33L20 33L20 34L19 34L19 36L20 36L20 37L19 37L19 38L20 38L20 40L19 40L19 41L25 41L25 40L29 40L29 41L30 41L30 39L25 39L25 40L24 40L24 38L23 38L23 37L24 37L24 36L27 36L27 34L26 34L26 33L28 33L28 34L30 34L30 35L31 35L31 34L30 34L30 33L32 33L32 37L30 37L30 38L31 38L31 40L32 40L32 41L34 41L34 40L33 40L33 39L34 39L34 38L36 38L36 40L35 40L35 41L36 41L36 40L37 40L37 41L38 41L38 39L39 39L39 41L40 41L40 39L41 39L41 38L38 38L38 37L37 37L37 36L39 36L39 37L40 37L40 36L41 36L41 35L40 35L40 34L39 34L39 33L41 33L41 32L38 32L38 31L36 31L36 32L34 32L34 31L35 31L35 30L36 30L36 29L34 29L34 31L31 31L31 29L33 29L33 28L36 28L36 27L37 27L37 29L38 29L38 30L39 30L39 31L41 31L41 29L38 29L38 27L39 27L39 28L40 28L40 27L41 27L41 26L40 26L40 25L38 25L38 24L40 24L40 22L41 22L41 20L40 20L40 22L39 22L39 20L37 20L37 21L38 21L38 22L35 22L35 23L34 23L34 22L33 22L33 21L36 21L36 19L37 19L37 18L38 18L38 19L41 19L41 18L40 18L40 15L41 15L41 14L39 14L39 13L40 13L40 10L41 10L41 9L40 9L40 8L38 8L38 9L39 9L39 10L36 10L36 9L37 9L37 8L34 8L34 9L33 9L33 6L32 6L32 5L33 5L33 4L32 4L32 3L33 3L33 1L32 1L32 0L26 0L26 1L25 1L25 0L21 0L21 2L23 2L23 3L24 3L24 4L23 4L23 5L22 5L22 4L21 4L21 5L19 5L19 4L20 4L20 2L19 2L19 1L20 1L20 0L19 0L19 1L18 1L18 0L15 0L15 1L14 1L14 0L13 0L13 2L12 2L12 4L11 4L11 5L10 5L10 3L11 3L11 1L12 1L12 0L11 0L11 1L10 1L10 0ZM9 1L9 2L10 2L10 1ZM17 1L17 2L14 2L14 3L17 3L17 4L15 4L15 5L17 5L17 7L18 7L18 6L19 6L19 8L20 8L20 6L19 6L19 5L17 5L17 4L18 4L18 3L19 3L19 2L18 2L18 1ZM26 1L26 2L24 2L24 3L25 3L25 4L24 4L24 5L23 5L23 7L22 7L22 5L21 5L21 7L22 7L22 8L24 8L24 6L25 6L25 8L27 8L27 9L26 9L26 14L24 14L24 13L23 13L23 11L25 11L25 10L24 10L24 9L23 9L23 11L22 11L22 13L21 13L21 14L22 14L22 15L23 15L23 17L24 17L24 15L26 15L26 16L25 16L25 17L27 17L27 19L25 19L25 18L22 18L22 17L21 17L21 18L20 18L20 16L19 16L19 15L20 15L20 12L21 12L21 11L20 11L20 12L19 12L19 10L21 10L21 9L18 9L18 8L17 8L17 10L16 10L16 8L15 8L15 11L14 11L14 12L13 12L13 11L12 11L12 10L13 10L13 9L14 9L14 6L13 6L13 5L14 5L14 4L12 4L12 5L11 5L11 9L9 9L9 8L8 8L8 9L6 9L6 10L5 10L5 13L6 13L6 14L7 14L7 15L5 15L5 18L3 18L3 20L4 20L4 21L3 21L3 22L2 22L2 26L3 26L3 27L6 27L6 28L7 28L7 27L8 27L8 25L9 25L9 26L12 26L12 27L15 27L15 28L16 28L16 27L18 27L18 26L17 26L17 25L16 25L16 24L18 24L18 22L17 22L17 21L19 21L19 22L21 22L21 23L22 23L22 25L23 25L23 26L24 26L24 24L25 24L25 23L26 23L26 25L25 25L25 26L26 26L26 30L27 30L27 31L29 31L29 30L30 30L30 29L31 29L31 28L30 28L30 29L29 29L29 30L27 30L27 29L28 29L28 28L27 28L27 27L29 27L29 26L31 26L31 27L32 27L32 28L33 28L33 27L36 27L36 26L37 26L37 27L38 27L38 25L37 25L37 24L38 24L38 23L39 23L39 22L38 22L38 23L37 23L37 24L36 24L36 23L35 23L35 24L36 24L36 25L33 25L33 26L31 26L31 24L30 24L30 23L31 23L31 22L32 22L32 21L33 21L33 20L35 20L35 19L36 19L36 18L37 18L37 15L38 15L38 17L39 17L39 15L38 15L38 14L37 14L37 12L38 12L38 13L39 13L39 12L38 12L38 11L36 11L36 10L34 10L34 11L35 11L35 12L36 12L36 13L35 13L35 14L34 14L34 15L35 15L35 16L34 16L34 17L35 17L35 16L36 16L36 18L33 18L33 14L32 14L32 13L33 13L33 12L31 12L31 11L29 11L29 10L28 10L28 8L29 8L29 9L30 9L30 10L32 10L32 11L33 11L33 10L32 10L32 8L29 8L29 7L30 7L30 3L29 3L29 5L28 5L28 6L27 6L27 5L26 5L26 2L27 2L27 3L28 3L28 2L30 2L30 1L28 1L28 2L27 2L27 1ZM31 1L31 3L32 3L32 1ZM17 2L17 3L18 3L18 2ZM31 4L31 5L32 5L32 4ZM9 5L9 7L10 7L10 5ZM12 6L12 8L13 8L13 6ZM15 6L15 7L16 7L16 6ZM26 6L26 7L27 7L27 6ZM28 6L28 7L29 7L29 6ZM31 6L31 7L32 7L32 6ZM3 10L3 11L2 11L2 12L1 12L1 13L2 13L2 12L3 12L3 11L4 11L4 10ZM6 10L6 11L7 11L7 12L6 12L6 13L7 13L7 12L8 12L8 10ZM9 10L9 12L11 12L11 11L10 11L10 10ZM16 11L16 12L14 12L14 15L13 15L13 12L12 12L12 13L11 13L11 14L12 14L12 16L11 16L11 18L10 18L10 19L11 19L11 22L10 22L10 23L9 23L9 21L7 21L7 20L9 20L9 19L7 19L7 18L5 18L5 20L6 20L6 21L4 21L4 22L6 22L6 23L7 23L7 24L4 24L4 23L3 23L3 25L4 25L4 26L5 26L5 25L7 25L7 24L8 24L8 23L9 23L9 24L10 24L10 23L11 23L11 22L12 22L12 19L11 19L11 18L12 18L12 17L13 17L13 16L15 16L15 17L14 17L14 18L13 18L13 20L14 20L14 21L15 21L15 22L16 22L16 23L14 23L14 22L13 22L13 24L16 24L16 23L17 23L17 22L16 22L16 21L15 21L15 20L16 20L16 19L15 19L15 20L14 20L14 18L15 18L15 17L16 17L16 18L17 18L17 17L18 17L18 19L17 19L17 20L19 20L19 21L21 21L21 22L22 22L22 23L23 23L23 21L24 21L24 22L25 22L25 21L27 21L27 22L28 22L28 23L27 23L27 25L30 25L30 24L28 24L28 23L29 23L29 22L30 22L30 20L31 20L31 21L32 21L32 20L33 20L33 19L30 19L30 18L29 18L29 17L30 17L30 15L31 15L31 14L30 14L30 12L29 12L29 11L28 11L28 12L27 12L27 13L28 13L28 12L29 12L29 14L28 14L28 15L29 15L29 17L28 17L28 18L29 18L29 20L28 20L28 19L27 19L27 20L25 20L25 21L24 21L24 20L23 20L23 21L22 21L22 18L21 18L21 19L20 19L20 20L19 20L19 16L18 16L18 12L17 12L17 11ZM9 13L9 14L10 14L10 13ZM16 13L16 14L17 14L17 13ZM22 13L22 14L23 14L23 15L24 15L24 14L23 14L23 13ZM26 14L26 15L27 15L27 14ZM29 14L29 15L30 15L30 14ZM8 15L8 16L6 16L6 17L8 17L8 18L9 18L9 17L10 17L10 15ZM15 15L15 16L16 16L16 17L17 17L17 16L16 16L16 15ZM8 16L8 17L9 17L9 16ZM6 19L6 20L7 20L7 19ZM27 20L27 21L28 21L28 20ZM6 21L6 22L7 22L7 23L8 23L8 22L7 22L7 21ZM32 23L32 24L34 24L34 23ZM14 25L14 26L15 26L15 25ZM6 26L6 27L7 27L7 26ZM9 27L9 28L11 28L11 30L12 30L12 28L11 28L11 27ZM22 27L22 28L24 28L24 27ZM3 28L3 29L2 29L2 30L3 30L3 31L4 31L4 30L3 30L3 29L5 29L5 28ZM6 29L6 30L7 30L7 29ZM14 29L14 30L15 30L15 29ZM11 31L11 35L12 35L12 31ZM15 31L15 32L17 32L17 31ZM0 32L0 33L1 33L1 32ZM28 32L28 33L30 33L30 32ZM37 32L37 35L39 35L39 34L38 34L38 32ZM33 33L33 36L36 36L36 33ZM25 34L25 35L26 35L26 34ZM34 34L34 35L35 35L35 34ZM22 36L22 37L21 37L21 38L22 38L22 37L23 37L23 36ZM28 36L28 37L27 37L27 38L28 38L28 37L29 37L29 36ZM32 37L32 39L33 39L33 38L34 38L34 37ZM0 0L0 7L7 7L7 0ZM1 1L1 6L6 6L6 1ZM2 2L2 5L5 5L5 2ZM34 0L34 7L41 7L41 0ZM35 1L35 6L40 6L40 1ZM36 2L36 5L39 5L39 2ZM0 34L0 41L7 41L7 34ZM1 35L1 40L6 40L6 35ZM2 36L2 39L5 39L5 36Z" fill="#000000"/></g></g></svg>
