<?xml version="1.0" encoding="UTF-8"?>
<svg xmlns="http://www.w3.org/2000/svg" version="1.1" width="300" height="300" viewBox="0 0 300 300"><rect x="0" y="0" width="300" height="300" fill="#ffffff"/><g transform="scale(7.317)"><g transform="translate(0,0)"><path fill-rule="evenodd" d="M10 0L10 1L11 1L11 2L10 2L10 3L8 3L8 4L9 4L9 5L8 5L8 7L9 7L9 6L10 6L10 9L9 9L9 8L6 8L6 9L8 9L8 10L11 10L11 12L9 12L9 11L7 11L7 10L6 10L6 11L5 11L5 12L4 12L4 13L3 13L3 11L4 11L4 10L5 10L5 8L0 8L0 10L1 10L1 9L3 9L3 11L0 11L0 13L1 13L1 16L2 16L2 15L3 15L3 16L4 16L4 17L2 17L2 18L1 18L1 19L0 19L0 20L2 20L2 19L3 19L3 20L4 20L4 21L3 21L3 25L4 25L4 26L2 26L2 24L1 24L1 22L2 22L2 21L0 21L0 26L2 26L2 28L1 28L1 27L0 27L0 33L1 33L1 30L2 30L2 32L3 32L3 30L5 30L5 29L3 29L3 27L4 27L4 26L5 26L5 27L7 27L7 26L6 26L6 25L7 25L7 24L5 24L5 23L8 23L8 25L9 25L9 24L11 24L11 25L13 25L13 24L12 24L12 23L14 23L14 25L17 25L17 26L20 26L20 27L19 27L19 29L18 29L18 30L21 30L21 31L18 31L18 32L17 32L17 30L15 30L15 31L14 31L14 34L15 34L15 35L14 35L14 36L16 36L16 35L17 35L17 34L18 34L18 33L19 33L19 34L20 34L20 35L18 35L18 36L17 36L17 37L18 37L18 38L15 38L15 40L14 40L14 41L18 41L18 40L19 40L19 38L20 38L20 39L21 39L21 40L22 40L22 39L23 39L23 41L24 41L24 39L28 39L28 40L25 40L25 41L28 41L28 40L29 40L29 41L32 41L32 40L33 40L33 41L36 41L36 39L37 39L37 41L39 41L39 40L40 40L40 39L41 39L41 38L40 38L40 36L41 36L41 35L40 35L40 34L41 34L41 33L40 33L40 32L41 32L41 31L39 31L39 33L38 33L38 30L37 30L37 29L39 29L39 30L41 30L41 29L40 29L40 28L41 28L41 27L39 27L39 26L37 26L37 25L41 25L41 24L40 24L40 23L39 23L39 22L38 22L38 21L40 21L40 22L41 22L41 21L40 21L40 20L41 20L41 19L39 19L39 20L38 20L38 19L37 19L37 17L39 17L39 16L40 16L40 15L39 15L39 16L38 16L38 15L36 15L36 14L37 14L37 13L39 13L39 12L41 12L41 11L39 11L39 12L38 12L38 11L37 11L37 10L38 10L38 8L37 8L37 9L36 9L36 8L35 8L35 9L34 9L34 8L32 8L32 7L33 7L33 4L31 4L31 3L29 3L29 0L28 0L28 1L26 1L26 4L25 4L25 3L24 3L24 4L23 4L23 2L21 2L21 0L18 0L18 1L17 1L17 2L16 2L16 1L15 1L15 2L14 2L14 3L13 3L13 5L12 5L12 4L11 4L11 2L12 2L12 1L11 1L11 0ZM22 0L22 1L24 1L24 0ZM31 0L31 1L32 1L32 2L33 2L33 0ZM8 1L8 2L9 2L9 1ZM18 1L18 2L17 2L17 3L16 3L16 4L15 4L15 5L16 5L16 6L15 6L15 7L16 7L16 9L13 9L13 8L14 8L14 6L13 6L13 7L12 7L12 5L11 5L11 4L10 4L10 6L11 6L11 7L12 7L12 9L13 9L13 10L12 10L12 12L11 12L11 15L9 15L9 14L10 14L10 13L9 13L9 12L7 12L7 11L6 11L6 12L7 12L7 13L5 13L5 14L4 14L4 15L5 15L5 18L7 18L7 17L6 17L6 16L11 16L11 17L10 17L10 20L11 20L11 22L13 22L13 21L12 21L12 20L14 20L14 19L15 19L15 18L17 18L17 17L14 17L14 18L13 18L13 16L15 16L15 15L14 15L14 14L15 14L15 13L13 13L13 12L15 12L15 11L14 11L14 10L16 10L16 12L18 12L18 13L19 13L19 11L20 11L20 10L18 10L18 9L19 9L19 8L20 8L20 9L22 9L22 10L21 10L21 11L22 11L22 10L23 10L23 12L20 12L20 13L21 13L21 14L18 14L18 15L17 15L17 14L16 14L16 16L18 16L18 15L20 15L20 16L19 16L19 17L18 17L18 19L16 19L16 20L18 20L18 19L19 19L19 21L18 21L18 22L17 22L17 21L15 21L15 22L14 22L14 23L15 23L15 24L19 24L19 23L20 23L20 22L19 22L19 21L20 21L20 19L21 19L21 18L22 18L22 19L24 19L24 21L25 21L25 22L23 22L23 23L22 23L22 21L21 21L21 23L22 23L22 24L21 24L21 26L22 26L22 27L23 27L23 29L25 29L25 32L26 32L26 31L27 31L27 32L28 32L28 33L24 33L24 32L23 32L23 33L24 33L24 34L23 34L23 37L24 37L24 38L23 38L23 39L24 39L24 38L25 38L25 37L24 37L24 36L27 36L27 37L26 37L26 38L28 38L28 37L29 37L29 38L30 38L30 37L31 37L31 39L29 39L29 40L31 40L31 39L34 39L34 40L35 40L35 39L36 39L36 38L37 38L37 39L38 39L38 40L39 40L39 39L38 39L38 36L40 36L40 35L38 35L38 33L37 33L37 37L33 37L33 38L32 38L32 36L30 36L30 35L29 35L29 34L30 34L30 33L32 33L32 30L31 30L31 29L36 29L36 28L39 28L39 27L37 27L37 26L36 26L36 28L35 28L35 26L33 26L33 28L32 28L32 26L31 26L31 27L30 27L30 25L32 25L32 24L33 24L33 25L37 25L37 24L39 24L39 23L36 23L36 22L35 22L35 23L36 23L36 24L33 24L33 23L34 23L34 22L31 22L31 21L32 21L32 20L33 20L33 21L35 21L35 20L36 20L36 21L37 21L37 20L36 20L36 19L35 19L35 18L34 18L34 19L33 19L33 18L31 18L31 19L30 19L30 17L33 17L33 15L32 15L32 14L31 14L31 13L29 13L29 14L28 14L28 13L26 13L26 12L27 12L27 11L24 11L24 10L28 10L28 11L29 11L29 12L31 12L31 11L32 11L32 10L30 10L30 9L32 9L32 8L31 8L31 7L32 7L32 5L31 5L31 4L27 4L27 5L25 5L25 4L24 4L24 5L23 5L23 4L22 4L22 5L21 5L21 7L20 7L20 5L18 5L18 4L19 4L19 2L20 2L20 4L21 4L21 2L20 2L20 1ZM17 3L17 4L16 4L16 5L17 5L17 4L18 4L18 3ZM24 5L24 7L25 7L25 5ZM27 5L27 6L26 6L26 8L23 8L23 10L24 10L24 9L27 9L27 6L28 6L28 7L29 7L29 6L28 6L28 5ZM16 6L16 7L17 7L17 6ZM18 6L18 7L19 7L19 6ZM22 6L22 7L21 7L21 8L22 8L22 7L23 7L23 6ZM30 6L30 7L31 7L31 6ZM17 8L17 9L18 9L18 8ZM29 8L29 9L28 9L28 10L29 10L29 9L30 9L30 8ZM39 8L39 9L40 9L40 10L41 10L41 9L40 9L40 8ZM33 9L33 12L32 12L32 13L35 13L35 14L34 14L34 17L35 17L35 14L36 14L36 13L37 13L37 12L36 12L36 10L34 10L34 9ZM24 12L24 13L22 13L22 15L21 15L21 16L22 16L22 17L23 17L23 18L24 18L24 19L25 19L25 18L27 18L27 19L26 19L26 20L25 20L25 21L26 21L26 22L25 22L25 23L24 23L24 25L23 25L23 24L22 24L22 25L23 25L23 26L24 26L24 25L28 25L28 26L26 26L26 27L27 27L27 28L26 28L26 29L27 29L27 31L28 31L28 32L29 32L29 33L28 33L28 34L26 34L26 35L28 35L28 36L29 36L29 37L30 37L30 36L29 36L29 35L28 35L28 34L29 34L29 33L30 33L30 32L29 32L29 31L28 31L28 30L29 30L29 29L31 29L31 28L29 28L29 25L30 25L30 24L32 24L32 23L31 23L31 22L29 22L29 21L28 21L28 19L29 19L29 17L30 17L30 16L29 16L29 17L28 17L28 18L27 18L27 16L28 16L28 14L26 14L26 13L25 13L25 12ZM35 12L35 13L36 13L36 12ZM2 13L2 14L3 14L3 13ZM7 13L7 14L5 14L5 15L7 15L7 14L8 14L8 13ZM12 13L12 14L13 14L13 13ZM24 13L24 14L23 14L23 15L22 15L22 16L24 16L24 14L25 14L25 13ZM40 13L40 14L41 14L41 13ZM12 15L12 16L13 16L13 15ZM25 15L25 16L27 16L27 15ZM36 16L36 17L37 17L37 16ZM8 17L8 19L6 19L6 20L7 20L7 21L5 21L5 22L7 22L7 21L8 21L8 23L10 23L10 22L9 22L9 17ZM11 17L11 18L12 18L12 17ZM19 17L19 18L21 18L21 17ZM24 17L24 18L25 18L25 17ZM40 17L40 18L41 18L41 17ZM11 19L11 20L12 20L12 19ZM34 19L34 20L35 20L35 19ZM26 20L26 21L27 21L27 20ZM15 22L15 23L16 23L16 22ZM26 22L26 23L25 23L25 24L26 24L26 23L27 23L27 22ZM28 23L28 25L29 25L29 24L30 24L30 23ZM4 24L4 25L5 25L5 24ZM10 26L10 27L8 27L8 28L6 28L6 29L8 29L8 30L10 30L10 29L11 29L11 28L10 28L10 27L11 27L11 26ZM14 26L14 27L15 27L15 28L13 28L13 29L12 29L12 30L14 30L14 29L17 29L17 27L16 27L16 26ZM24 27L24 28L25 28L25 27ZM8 28L8 29L9 29L9 28ZM20 28L20 29L21 29L21 28ZM27 28L27 29L29 29L29 28ZM6 30L6 31L7 31L7 30ZM23 30L23 31L24 31L24 30ZM33 30L33 32L34 32L34 31L35 31L35 32L36 32L36 31L37 31L37 30L36 30L36 31L35 31L35 30ZM4 31L4 33L7 33L7 32L5 32L5 31ZM9 31L9 32L10 32L10 31ZM12 31L12 33L11 33L11 34L12 34L12 35L11 35L11 36L10 36L10 34L9 34L9 33L8 33L8 35L9 35L9 36L8 36L8 41L13 41L13 40L12 40L12 39L13 39L13 38L10 38L10 37L11 37L11 36L12 36L12 37L13 37L13 34L12 34L12 33L13 33L13 31ZM16 32L16 33L15 33L15 34L17 34L17 32ZM19 32L19 33L20 33L20 34L21 34L21 33L22 33L22 32L21 32L21 33L20 33L20 32ZM33 33L33 36L36 36L36 33ZM39 33L39 34L40 34L40 33ZM24 34L24 35L25 35L25 34ZM34 34L34 35L35 35L35 34ZM18 36L18 37L19 37L19 36ZM20 36L20 38L21 38L21 37L22 37L22 36ZM9 38L9 39L10 39L10 38ZM34 38L34 39L35 39L35 38ZM16 39L16 40L18 40L18 39ZM0 0L0 7L7 7L7 0ZM1 1L1 6L6 6L6 1ZM2 2L2 5L5 5L5 2ZM34 0L34 7L41 7L41 0ZM35 1L35 6L40 6L40 1ZM36 2L36 5L39 5L39 2ZM0 34L0 41L7 41L7 34ZM1 35L1 40L6 40L6 35ZM2 36L2 39L5 39L5 36Z" fill="#000000"/></g></g></svg>
