<?xml version="1.0" encoding="UTF-8"?>
<svg xmlns="http://www.w3.org/2000/svg" version="1.1" width="300" height="300" viewBox="0 0 300 300"><rect x="0" y="0" width="300" height="300" fill="#ffffff"/><g transform="scale(7.317)"><g transform="translate(0,0)"><path fill-rule="evenodd" d="M11 0L11 1L10 1L10 2L9 2L9 1L8 1L8 2L9 2L9 3L8 3L8 4L9 4L9 5L8 5L8 7L9 7L9 5L10 5L10 4L11 4L11 6L10 6L10 8L6 8L6 9L5 9L5 8L0 8L0 10L1 10L1 9L5 9L5 10L4 10L4 11L3 11L3 13L2 13L2 11L0 11L0 12L1 12L1 13L0 13L0 14L1 14L1 15L0 15L0 16L3 16L3 15L2 15L2 14L3 14L3 13L5 13L5 14L4 14L4 15L5 15L5 16L4 16L4 18L6 18L6 19L7 19L7 20L6 20L6 21L5 21L5 20L4 20L4 19L2 19L2 18L3 18L3 17L0 17L0 18L1 18L1 19L0 19L0 20L1 20L1 21L0 21L0 24L1 24L1 25L0 25L0 26L1 26L1 27L0 27L0 33L1 33L1 28L2 28L2 29L3 29L3 30L2 30L2 32L4 32L4 33L5 33L5 32L6 32L6 33L7 33L7 32L6 32L6 31L9 31L9 32L8 32L8 35L11 35L11 36L14 36L14 37L15 37L15 36L16 36L16 38L13 38L13 37L12 37L12 38L13 38L13 39L12 39L12 40L13 40L13 41L14 41L14 40L13 40L13 39L15 39L15 41L16 41L16 39L17 39L17 37L18 37L18 38L20 38L20 39L18 39L18 40L22 40L22 41L28 41L28 40L29 40L29 41L30 41L30 40L31 40L31 41L32 41L32 37L37 37L37 38L34 38L34 39L35 39L35 40L34 40L34 41L36 41L36 39L37 39L37 40L38 40L38 39L39 39L39 40L40 40L40 39L39 39L39 38L38 38L38 37L40 37L40 38L41 38L41 37L40 37L40 35L39 35L39 33L38 33L38 30L37 30L37 29L32 29L32 33L31 33L31 32L27 32L27 31L28 31L28 30L29 30L29 31L31 31L31 30L29 30L29 29L31 29L31 28L29 28L29 25L30 25L30 27L31 27L31 26L33 26L33 28L34 28L34 27L36 27L36 28L37 28L37 25L38 25L38 27L39 27L39 28L38 28L38 29L39 29L39 30L41 30L41 29L40 29L40 28L41 28L41 27L39 27L39 26L40 26L40 25L41 25L41 24L40 24L40 23L39 23L39 22L37 22L37 21L39 21L39 20L37 20L37 17L36 17L36 16L38 16L38 17L39 17L39 16L40 16L40 15L39 15L39 16L38 16L38 14L39 14L39 13L40 13L40 14L41 14L41 12L38 12L38 11L37 11L37 10L38 10L38 8L37 8L37 9L36 9L36 8L35 8L35 9L34 9L34 8L33 8L33 4L32 4L32 8L31 8L31 9L30 9L30 8L29 8L29 9L28 9L28 8L24 8L24 7L25 7L25 6L26 6L26 7L27 7L27 6L28 6L28 7L29 7L29 4L30 4L30 5L31 5L31 4L30 4L30 3L29 3L29 4L28 4L28 2L29 2L29 1L27 1L27 2L26 2L26 1L25 1L25 0L23 0L23 1L25 1L25 2L26 2L26 4L25 4L25 3L23 3L23 2L21 2L21 3L23 3L23 4L25 4L25 5L24 5L24 7L23 7L23 5L22 5L22 7L21 7L21 6L20 6L20 8L16 8L16 7L17 7L17 5L18 5L18 7L19 7L19 5L21 5L21 4L19 4L19 3L20 3L20 2L19 2L19 1L22 1L22 0L19 0L19 1L18 1L18 2L19 2L19 3L17 3L17 1L15 1L15 0ZM30 0L30 1L32 1L32 3L33 3L33 0ZM12 1L12 2L11 2L11 4L12 4L12 6L11 6L11 7L12 7L12 8L13 8L13 10L11 10L11 11L8 11L8 12L7 12L7 11L6 11L6 10L7 10L7 9L6 9L6 10L5 10L5 11L6 11L6 12L5 12L5 13L6 13L6 14L9 14L9 15L8 15L8 16L7 16L7 15L6 15L6 16L5 16L5 17L6 17L6 18L7 18L7 19L8 19L8 18L9 18L9 15L10 15L10 14L13 14L13 15L12 15L12 18L11 18L11 16L10 16L10 19L11 19L11 20L10 20L10 21L8 21L8 20L7 20L7 21L6 21L6 22L5 22L5 21L4 21L4 20L3 20L3 21L2 21L2 22L1 22L1 23L2 23L2 24L3 24L3 25L4 25L4 26L2 26L2 28L4 28L4 26L5 26L5 28L7 28L7 29L6 29L6 30L9 30L9 31L10 31L10 32L9 32L9 34L11 34L11 35L12 35L12 34L13 34L13 33L14 33L14 29L15 29L15 30L16 30L16 31L17 31L17 32L16 32L16 33L17 33L17 35L16 35L16 36L18 36L18 37L21 37L21 39L23 39L23 40L24 40L24 39L25 39L25 40L26 40L26 39L27 39L27 40L28 40L28 39L27 39L27 38L29 38L29 37L27 37L27 36L31 36L31 37L30 37L30 39L29 39L29 40L30 40L30 39L31 39L31 37L32 37L32 36L31 36L31 35L29 35L29 34L30 34L30 33L29 33L29 34L28 34L28 33L26 33L26 34L25 34L25 35L24 35L24 34L23 34L23 33L24 33L24 32L26 32L26 31L27 31L27 30L28 30L28 29L27 29L27 26L28 26L28 25L29 25L29 24L30 24L30 25L31 25L31 24L32 24L32 25L33 25L33 26L34 26L34 25L35 25L35 24L36 24L36 25L37 25L37 24L36 24L36 23L37 23L37 22L30 22L30 21L31 21L31 19L32 19L32 18L31 18L31 19L29 19L29 20L28 20L28 21L29 21L29 23L28 23L28 24L27 24L27 25L24 25L24 24L23 24L23 23L25 23L25 24L26 24L26 23L25 23L25 21L26 21L26 22L27 22L27 21L26 21L26 20L27 20L27 18L28 18L28 17L29 17L29 18L30 18L30 17L32 17L32 16L33 16L33 17L35 17L35 16L33 16L33 15L34 15L34 14L36 14L36 13L37 13L37 14L38 14L38 13L37 13L37 12L36 12L36 9L35 9L35 10L34 10L34 11L32 11L32 10L30 10L30 9L29 9L29 10L28 10L28 9L24 9L24 8L21 8L21 9L20 9L20 10L18 10L18 9L14 9L14 6L15 6L15 7L16 7L16 6L15 6L15 4L14 4L14 3L16 3L16 5L17 5L17 3L16 3L16 2L14 2L14 3L13 3L13 1ZM12 3L12 4L13 4L13 3ZM13 5L13 6L12 6L12 7L13 7L13 6L14 6L14 5ZM30 6L30 7L31 7L31 6ZM10 8L10 9L11 9L11 8ZM39 8L39 9L40 9L40 8ZM21 9L21 10L22 10L22 11L20 11L20 12L22 12L22 13L25 13L25 14L24 14L24 15L25 15L25 14L26 14L26 15L27 15L27 16L24 16L24 17L23 17L23 14L22 14L22 15L21 15L21 13L20 13L20 16L19 16L19 15L18 15L18 16L17 16L17 15L16 15L16 14L17 14L17 13L19 13L19 12L17 12L17 13L16 13L16 14L15 14L15 13L13 13L13 11L12 11L12 13L13 13L13 14L15 14L15 16L13 16L13 18L12 18L12 19L13 19L13 20L14 20L14 21L12 21L12 20L11 20L11 21L10 21L10 22L11 22L11 21L12 21L12 22L13 22L13 23L12 23L12 25L14 25L14 26L15 26L15 27L14 27L14 28L17 28L17 27L16 27L16 26L17 26L17 25L19 25L19 26L18 26L18 28L19 28L19 30L18 30L18 32L17 32L17 33L18 33L18 36L19 36L19 34L20 34L20 36L22 36L22 37L24 37L24 36L23 36L23 35L22 35L22 34L21 34L21 33L19 33L19 30L20 30L20 32L22 32L22 33L23 33L23 30L24 30L24 27L26 27L26 26L24 26L24 25L23 25L23 24L22 24L22 23L23 23L23 22L24 22L24 21L23 21L23 20L25 20L25 19L23 19L23 18L24 18L24 17L27 17L27 16L29 16L29 17L30 17L30 16L32 16L32 15L31 15L31 14L33 14L33 13L31 13L31 12L29 12L29 11L28 11L28 10L26 10L26 11L28 11L28 12L29 12L29 13L28 13L28 14L27 14L27 12L24 12L24 11L23 11L23 10L24 10L24 9ZM15 10L15 11L14 11L14 12L15 12L15 11L16 11L16 10ZM22 11L22 12L23 12L23 11ZM34 11L34 12L35 12L35 13L36 13L36 12L35 12L35 11ZM6 12L6 13L7 13L7 12ZM8 12L8 13L9 13L9 12ZM29 13L29 14L28 14L28 15L29 15L29 16L30 16L30 15L29 15L29 14L31 14L31 13ZM6 16L6 17L7 17L7 16ZM16 16L16 17L14 17L14 18L16 18L16 19L14 19L14 20L16 20L16 19L17 19L17 20L18 20L18 19L17 19L17 18L19 18L19 20L20 20L20 18L21 18L21 19L22 19L22 16L20 16L20 18L19 18L19 17L17 17L17 16ZM16 17L16 18L17 18L17 17ZM40 17L40 18L39 18L39 19L40 19L40 18L41 18L41 17ZM33 18L33 19L34 19L34 20L32 20L32 21L37 21L37 20L36 20L36 18ZM1 19L1 20L2 20L2 19ZM21 20L21 21L20 21L20 22L19 22L19 21L17 21L17 23L16 23L16 24L15 24L15 23L13 23L13 24L14 24L14 25L15 25L15 26L16 26L16 25L17 25L17 24L19 24L19 23L21 23L21 21L22 21L22 20ZM29 20L29 21L30 21L30 20ZM3 21L3 22L2 22L2 23L4 23L4 21ZM14 21L14 22L16 22L16 21ZM40 21L40 22L41 22L41 21ZM6 22L6 23L7 23L7 24L6 24L6 25L5 25L5 24L4 24L4 25L5 25L5 26L6 26L6 27L7 27L7 28L8 28L8 27L10 27L10 28L11 28L11 29L13 29L13 26L12 26L12 27L11 27L11 23L9 23L9 22ZM18 22L18 23L19 23L19 22ZM32 23L32 24L33 24L33 23ZM34 23L34 24L35 24L35 23ZM38 23L38 25L39 25L39 23ZM7 24L7 25L6 25L6 26L8 26L8 25L9 25L9 24ZM21 24L21 25L20 25L20 26L19 26L19 27L22 27L22 28L20 28L20 29L21 29L21 31L22 31L22 30L23 30L23 29L22 29L22 28L23 28L23 27L24 27L24 26L23 26L23 25L22 25L22 24ZM21 25L21 26L22 26L22 25ZM25 28L25 29L26 29L26 30L25 30L25 31L26 31L26 30L27 30L27 29L26 29L26 28ZM9 29L9 30L10 30L10 29ZM16 29L16 30L17 30L17 29ZM4 30L4 32L5 32L5 30ZM11 30L11 32L10 32L10 33L11 33L11 34L12 34L12 31L13 31L13 30ZM34 30L34 31L35 31L35 30ZM36 30L36 32L37 32L37 30ZM40 32L40 34L41 34L41 32ZM33 33L33 36L36 36L36 33ZM27 34L27 35L28 35L28 34ZM34 34L34 35L35 35L35 34ZM14 35L14 36L15 36L15 35ZM37 35L37 37L38 37L38 36L39 36L39 35ZM8 36L8 41L11 41L11 40L10 40L10 38L9 38L9 36ZM25 36L25 37L26 37L26 38L27 38L27 37L26 37L26 36ZM0 0L0 7L7 7L7 0ZM1 1L1 6L6 6L6 1ZM2 2L2 5L5 5L5 2ZM34 0L34 7L41 7L41 0ZM35 1L35 6L40 6L40 1ZM36 2L36 5L39 5L39 2ZM0 34L0 41L7 41L7 34ZM1 35L1 40L6 40L6 35ZM2 36L2 39L5 39L5 36Z" fill="#000000"/></g></g></svg>
