<?xml version="1.0" encoding="UTF-8"?>
<svg xmlns="http://www.w3.org/2000/svg" version="1.1" width="300" height="300" viewBox="0 0 300 300"><rect x="0" y="0" width="300" height="300" fill="#ffffff"/><g transform="scale(7.317)"><g transform="translate(0,0)"><path fill-rule="evenodd" d="M9 0L9 3L8 3L8 5L9 5L9 6L8 6L8 7L9 7L9 8L10 8L10 9L9 9L9 10L6 10L6 9L8 9L8 8L5 8L5 10L6 10L6 11L9 11L9 12L10 12L10 13L12 13L12 14L13 14L13 13L14 13L14 11L17 11L17 10L21 10L21 8L20 8L20 7L21 7L21 6L22 6L22 8L24 8L24 9L23 9L23 10L22 10L22 11L23 11L23 12L24 12L24 13L25 13L25 14L26 14L26 16L24 16L24 17L23 17L23 16L22 16L22 17L21 17L21 18L23 18L23 19L22 19L22 21L23 21L23 20L25 20L25 23L24 23L24 25L23 25L23 26L24 26L24 27L22 27L22 29L20 29L20 27L18 27L18 25L19 25L19 26L20 26L20 25L19 25L19 24L21 24L21 23L23 23L23 22L21 22L21 19L20 19L20 16L19 16L19 15L18 15L18 16L17 16L17 14L14 14L14 15L16 15L16 16L14 16L14 17L16 17L16 18L13 18L13 19L14 19L14 20L15 20L15 23L14 23L14 22L11 22L11 20L10 20L10 19L12 19L12 18L11 18L11 15L10 15L10 14L9 14L9 15L8 15L8 16L10 16L10 19L9 19L9 18L8 18L8 17L7 17L7 16L6 16L6 15L7 15L7 14L6 14L6 13L7 13L7 12L5 12L5 16L4 16L4 12L3 12L3 10L4 10L4 9L2 9L2 8L0 8L0 11L1 11L1 12L0 12L0 15L2 15L2 14L3 14L3 17L2 17L2 16L1 16L1 18L0 18L0 19L1 19L1 18L3 18L3 17L4 17L4 18L5 18L5 16L6 16L6 17L7 17L7 18L6 18L6 19L2 19L2 21L3 21L3 23L2 23L2 22L1 22L1 20L0 20L0 22L1 22L1 23L0 23L0 24L1 24L1 25L0 25L0 28L1 28L1 29L0 29L0 33L1 33L1 31L2 31L2 32L3 32L3 33L5 33L5 32L4 32L4 31L3 31L3 29L2 29L2 28L4 28L4 30L5 30L5 29L9 29L9 28L8 28L8 27L10 27L10 28L11 28L11 29L10 29L10 31L9 31L9 30L8 30L8 31L7 31L7 30L6 30L6 31L7 31L7 32L6 32L6 33L8 33L8 36L9 36L9 37L10 37L10 40L9 40L9 39L8 39L8 41L12 41L12 39L13 39L13 38L11 38L11 37L14 37L14 40L13 40L13 41L17 41L17 40L15 40L15 39L16 39L16 38L17 38L17 35L18 35L18 34L20 34L20 36L19 36L19 38L20 38L20 39L18 39L18 40L20 40L20 39L21 39L21 38L22 38L22 37L21 37L21 35L22 35L22 36L23 36L23 35L22 35L22 34L24 34L24 35L25 35L25 33L26 33L26 34L27 34L27 35L26 35L26 36L27 36L27 37L28 37L28 38L27 38L27 40L22 40L22 41L27 41L27 40L28 40L28 38L29 38L29 39L30 39L30 40L29 40L29 41L30 41L30 40L31 40L31 41L32 41L32 40L34 40L34 41L36 41L36 39L37 39L37 41L39 41L39 39L38 39L38 38L34 38L34 37L38 37L38 36L37 36L37 35L39 35L39 34L38 34L38 33L39 33L39 32L37 32L37 31L39 31L39 30L38 30L38 29L40 29L40 31L41 31L41 29L40 29L40 26L41 26L41 25L40 25L40 24L38 24L38 23L39 23L39 22L40 22L40 21L41 21L41 17L40 17L40 21L39 21L39 20L37 20L37 19L39 19L39 18L37 18L37 17L36 17L36 16L37 16L37 15L38 15L38 17L39 17L39 14L41 14L41 11L40 11L40 12L39 12L39 14L38 14L38 13L36 13L36 12L38 12L38 11L37 11L37 10L40 10L40 9L38 9L38 8L36 8L36 12L35 12L35 10L32 10L32 9L33 9L33 1L32 1L32 4L31 4L31 5L32 5L32 9L30 9L30 8L29 8L29 9L30 9L30 10L29 10L29 11L28 11L28 7L29 7L29 6L28 6L28 7L27 7L27 5L29 5L29 4L30 4L30 3L31 3L31 2L30 2L30 1L31 1L31 0L28 0L28 2L27 2L27 3L28 3L28 2L30 2L30 3L29 3L29 4L26 4L26 3L25 3L25 6L24 6L24 7L23 7L23 5L24 5L24 3L23 3L23 2L21 2L21 3L20 3L20 2L19 2L19 1L18 1L18 0L17 0L17 1L18 1L18 2L19 2L19 3L20 3L20 4L18 4L18 3L15 3L15 2L14 2L14 9L13 9L13 13L12 13L12 11L11 11L11 10L12 10L12 9L11 9L11 8L10 8L10 7L11 7L11 6L10 6L10 5L11 5L11 4L12 4L12 3L13 3L13 2L10 2L10 0ZM13 0L13 1L14 1L14 0ZM15 0L15 1L16 1L16 0ZM21 0L21 1L23 1L23 0ZM24 0L24 1L25 1L25 2L26 2L26 1L27 1L27 0L26 0L26 1L25 1L25 0ZM9 3L9 4L11 4L11 3ZM21 4L21 5L19 5L19 7L18 7L18 5L16 5L16 6L15 6L15 7L16 7L16 6L17 6L17 8L15 8L15 9L14 9L14 10L15 10L15 9L16 9L16 10L17 10L17 8L19 8L19 9L20 9L20 8L19 8L19 7L20 7L20 6L21 6L21 5L23 5L23 4ZM9 6L9 7L10 7L10 6ZM12 6L12 8L13 8L13 6ZM25 6L25 8L27 8L27 7L26 7L26 6ZM30 6L30 7L31 7L31 6ZM10 9L10 10L11 10L11 9ZM24 9L24 10L23 10L23 11L24 11L24 12L26 12L26 13L27 13L27 14L28 14L28 15L29 15L29 16L28 16L28 17L29 17L29 18L28 18L28 19L26 19L26 18L27 18L27 17L24 17L24 19L25 19L25 20L28 20L28 19L29 19L29 21L28 21L28 22L29 22L29 26L30 26L30 27L27 27L27 25L28 25L28 24L26 24L26 23L25 23L25 25L24 25L24 26L25 26L25 27L24 27L24 31L23 31L23 29L22 29L22 30L20 30L20 31L19 31L19 33L20 33L20 34L21 34L21 33L22 33L22 31L23 31L23 33L24 33L24 32L26 32L26 29L25 29L25 28L28 28L28 31L27 31L27 33L28 33L28 36L29 36L29 37L31 37L31 35L30 35L30 33L28 33L28 32L31 32L31 33L32 33L32 32L34 32L34 31L32 31L32 32L31 32L31 31L30 31L30 30L31 30L31 29L33 29L33 30L35 30L35 31L36 31L36 30L35 30L35 29L36 29L36 27L35 27L35 26L30 26L30 25L32 25L32 22L33 22L33 23L35 23L35 25L37 25L37 29L38 29L38 24L37 24L37 23L38 23L38 22L39 22L39 21L38 21L38 22L37 22L37 23L36 23L36 22L33 22L33 21L36 21L36 19L35 19L35 18L34 18L34 17L35 17L35 16L36 16L36 15L34 15L34 13L33 13L33 14L32 14L32 13L31 13L31 12L34 12L34 11L32 11L32 10L31 10L31 12L30 12L30 11L29 11L29 12L30 12L30 13L29 13L29 14L28 14L28 12L27 12L27 10L26 10L26 9ZM1 10L1 11L2 11L2 10ZM10 11L10 12L11 12L11 11ZM20 11L20 12L19 12L19 13L18 13L18 14L19 14L19 13L20 13L20 15L21 15L21 14L22 14L22 15L23 15L23 14L22 14L22 13L20 13L20 12L21 12L21 11ZM1 12L1 13L3 13L3 12ZM16 12L16 13L17 13L17 12ZM30 13L30 14L29 14L29 15L30 15L30 16L29 16L29 17L30 17L30 18L29 18L29 19L30 19L30 18L31 18L31 21L30 21L30 22L32 22L32 21L33 21L33 19L32 19L32 18L33 18L33 15L32 15L32 16L31 16L31 13ZM12 15L12 16L13 16L13 15ZM40 15L40 16L41 16L41 15ZM16 16L16 17L17 17L17 16ZM30 16L30 17L31 17L31 16ZM18 17L18 18L17 18L17 19L15 19L15 20L16 20L16 22L17 22L17 23L16 23L16 25L18 25L18 24L19 24L19 23L21 23L21 22L19 22L19 23L18 23L18 21L19 21L19 20L20 20L20 19L19 19L19 17ZM6 19L6 20L4 20L4 22L5 22L5 23L6 23L6 24L5 24L5 28L7 28L7 27L6 27L6 26L8 26L8 25L6 25L6 24L7 24L7 23L8 23L8 24L9 24L9 26L10 26L10 27L11 27L11 28L12 28L12 29L11 29L11 30L12 30L12 31L11 31L11 33L9 33L9 35L10 35L10 37L11 37L11 35L12 35L12 36L14 36L14 35L15 35L15 34L14 34L14 30L15 30L15 29L17 29L17 30L16 30L16 31L15 31L15 32L16 32L16 33L17 33L17 32L18 32L18 31L17 31L17 30L18 30L18 29L19 29L19 28L18 28L18 27L16 27L16 28L15 28L15 29L14 29L14 28L12 28L12 27L13 27L13 24L14 24L14 25L15 25L15 24L14 24L14 23L12 23L12 24L11 24L11 23L10 23L10 24L9 24L9 22L10 22L10 20L7 20L7 19ZM34 19L34 20L35 20L35 19ZM6 20L6 21L5 21L5 22L6 22L6 23L7 23L7 22L6 22L6 21L7 21L7 20ZM12 20L12 21L13 21L13 20ZM17 20L17 21L18 21L18 20ZM26 21L26 22L27 22L27 21ZM1 23L1 24L2 24L2 26L3 26L3 27L4 27L4 25L3 25L3 24L2 24L2 23ZM10 24L10 26L11 26L11 24ZM33 24L33 25L34 25L34 24ZM39 25L39 26L40 26L40 25ZM30 27L30 28L29 28L29 29L31 29L31 27ZM32 27L32 28L33 28L33 27ZM34 27L34 28L35 28L35 27ZM17 28L17 29L18 29L18 28ZM1 29L1 30L2 30L2 29ZM12 29L12 30L13 30L13 29ZM8 31L8 32L9 32L9 31ZM12 31L12 32L13 32L13 31ZM16 31L16 32L17 32L17 31ZM20 31L20 32L21 32L21 31ZM40 32L40 34L41 34L41 32ZM11 33L11 34L12 34L12 35L13 35L13 34L12 34L12 33ZM33 33L33 36L36 36L36 33ZM16 34L16 35L17 35L17 34ZM34 34L34 35L35 35L35 34ZM24 36L24 37L25 37L25 36ZM39 36L39 38L41 38L41 36ZM32 37L32 39L31 39L31 38L30 38L30 39L31 39L31 40L32 40L32 39L34 39L34 40L35 40L35 39L34 39L34 38L33 38L33 37ZM24 38L24 39L25 39L25 38ZM40 39L40 40L41 40L41 39ZM0 0L0 7L7 7L7 0ZM1 1L1 6L6 6L6 1ZM2 2L2 5L5 5L5 2ZM34 0L34 7L41 7L41 0ZM35 1L35 6L40 6L40 1ZM36 2L36 5L39 5L39 2ZM0 34L0 41L7 41L7 34ZM1 35L1 40L6 40L6 35ZM2 36L2 39L5 39L5 36Z" fill="#000000"/></g></g></svg>
