<?xml version="1.0" encoding="UTF-8"?>
<svg xmlns="http://www.w3.org/2000/svg" version="1.1" width="300" height="300" viewBox="0 0 300 300"><rect x="0" y="0" width="300" height="300" fill="#ffffff"/><g transform="scale(7.317)"><g transform="translate(0,0)"><path fill-rule="evenodd" d="M8 0L8 1L9 1L9 2L8 2L8 5L10 5L10 7L9 7L9 6L8 6L8 7L9 7L9 8L8 8L8 9L7 9L7 8L6 8L6 9L4 9L4 8L0 8L0 9L1 9L1 10L0 10L0 13L1 13L1 10L2 10L2 12L3 12L3 14L4 14L4 16L3 16L3 15L2 15L2 14L1 14L1 15L0 15L0 18L1 18L1 16L2 16L2 18L3 18L3 20L2 20L2 21L3 21L3 22L1 22L1 20L0 20L0 22L1 22L1 24L2 24L2 23L3 23L3 24L4 24L4 23L5 23L5 22L4 22L4 21L7 21L7 22L6 22L6 23L8 23L8 24L6 24L6 25L8 25L8 26L6 26L6 27L5 27L5 26L4 26L4 29L2 29L2 28L3 28L3 25L2 25L2 26L0 26L0 29L1 29L1 30L0 30L0 31L1 31L1 30L2 30L2 32L1 32L1 33L2 33L2 32L3 32L3 33L4 33L4 32L6 32L6 33L7 33L7 32L6 32L6 31L8 31L8 32L9 32L9 33L8 33L8 34L11 34L11 35L10 35L10 36L9 36L9 37L8 37L8 41L11 41L11 40L12 40L12 41L13 41L13 40L12 40L12 38L14 38L14 40L15 40L15 41L17 41L17 38L18 38L18 41L19 41L19 40L20 40L20 41L24 41L24 40L23 40L23 38L22 38L22 37L24 37L24 39L26 39L26 40L25 40L25 41L26 41L26 40L27 40L27 39L26 39L26 38L25 38L25 37L28 37L28 40L29 40L29 39L30 39L30 41L31 41L31 38L33 38L33 39L32 39L32 41L35 41L35 40L36 40L36 41L37 41L37 40L36 40L36 38L37 38L37 39L38 39L38 38L39 38L39 41L40 41L40 39L41 39L41 37L39 37L39 36L41 36L41 35L40 35L40 34L41 34L41 33L39 33L39 31L38 31L38 30L37 30L37 31L36 31L36 32L35 32L35 31L34 31L34 30L33 30L33 29L34 29L34 28L35 28L35 30L36 30L36 29L37 29L37 27L39 27L39 29L41 29L41 28L40 28L40 27L41 27L41 26L37 26L37 27L36 27L36 26L35 26L35 25L36 25L36 24L35 24L35 25L33 25L33 27L34 27L34 28L33 28L33 29L31 29L31 28L29 28L29 27L27 27L27 26L30 26L30 27L32 27L32 25L31 25L31 26L30 26L30 24L31 24L31 22L29 22L29 20L30 20L30 21L31 21L31 20L32 20L32 19L33 19L33 21L32 21L32 24L34 24L34 22L33 22L33 21L35 21L35 22L37 22L37 23L40 23L40 24L39 24L39 25L41 25L41 23L40 23L40 22L41 22L41 20L40 20L40 19L38 19L38 21L36 21L36 19L37 19L37 18L38 18L38 17L37 17L37 16L38 16L38 15L39 15L39 18L41 18L41 17L40 17L40 15L41 15L41 11L40 11L40 9L41 9L41 8L40 8L40 9L39 9L39 8L36 8L36 10L35 10L35 9L34 9L34 8L33 8L33 5L31 5L31 4L29 4L29 1L30 1L30 3L33 3L33 2L31 2L31 1L33 1L33 0L29 0L29 1L28 1L28 3L27 3L27 1L25 1L25 0L23 0L23 2L24 2L24 3L23 3L23 4L24 4L24 7L23 7L23 6L22 6L22 4L21 4L21 3L20 3L20 4L19 4L19 6L18 6L18 7L17 7L17 4L18 4L18 3L19 3L19 1L20 1L20 2L21 2L21 1L22 1L22 0L19 0L19 1L17 1L17 0L16 0L16 2L15 2L15 1L14 1L14 2L11 2L11 1L13 1L13 0L11 0L11 1L10 1L10 0ZM16 2L16 3L11 3L11 5L13 5L13 7L12 7L12 6L11 6L11 7L12 7L12 9L13 9L13 8L14 8L14 6L15 6L15 7L16 7L16 6L15 6L15 5L16 5L16 4L17 4L17 3L18 3L18 2ZM9 3L9 4L10 4L10 3ZM25 3L25 4L26 4L26 3ZM13 4L13 5L14 5L14 4ZM20 4L20 5L21 5L21 4ZM25 5L25 8L23 8L23 9L24 9L24 10L25 10L25 11L26 11L26 12L24 12L24 13L22 13L22 11L21 11L21 13L20 13L20 12L18 12L18 11L16 11L16 10L15 10L15 9L14 9L14 11L13 11L13 10L12 10L12 11L10 11L10 9L11 9L11 8L9 8L9 9L8 9L8 10L9 10L9 11L6 11L6 10L7 10L7 9L6 9L6 10L3 10L3 12L5 12L5 13L4 13L4 14L7 14L7 15L6 15L6 16L7 16L7 15L8 15L8 16L9 16L9 17L8 17L8 18L7 18L7 17L5 17L5 19L4 19L4 20L5 20L5 19L6 19L6 20L8 20L8 18L9 18L9 17L10 17L10 18L11 18L11 19L12 19L12 20L11 20L11 21L8 21L8 22L9 22L9 24L8 24L8 25L10 25L10 24L11 24L11 23L14 23L14 24L15 24L15 25L14 25L14 26L13 26L13 27L14 27L14 28L13 28L13 29L12 29L12 26L11 26L11 27L9 27L9 28L8 28L8 29L6 29L6 28L7 28L7 27L6 27L6 28L5 28L5 29L4 29L4 30L3 30L3 32L4 32L4 31L6 31L6 30L8 30L8 31L10 31L10 33L11 33L11 34L13 34L13 35L12 35L12 36L11 36L11 37L10 37L10 38L11 38L11 37L12 37L12 36L13 36L13 37L14 37L14 38L16 38L16 37L18 37L18 38L19 38L19 37L20 37L20 38L21 38L21 37L22 37L22 36L24 36L24 35L26 35L26 34L27 34L27 35L29 35L29 38L30 38L30 37L32 37L32 35L31 35L31 34L30 34L30 35L29 35L29 34L28 34L28 33L29 33L29 30L31 30L31 31L32 31L32 32L30 32L30 33L32 33L32 32L34 32L34 31L32 31L32 30L31 30L31 29L29 29L29 30L28 30L28 32L27 32L27 30L26 30L26 31L25 31L25 30L24 30L24 28L25 28L25 29L28 29L28 28L27 28L27 27L26 27L26 26L24 26L24 23L25 23L25 21L26 21L26 23L27 23L27 25L29 25L29 24L30 24L30 23L29 23L29 24L28 24L28 19L27 19L27 15L28 15L28 14L27 14L27 15L25 15L25 13L26 13L26 12L27 12L27 13L29 13L29 12L30 12L30 15L29 15L29 16L28 16L28 18L29 18L29 19L30 19L30 20L31 20L31 19L32 19L32 17L33 17L33 18L35 18L35 19L34 19L34 20L35 20L35 19L36 19L36 18L37 18L37 17L36 17L36 15L37 15L37 12L39 12L39 11L38 11L38 10L39 10L39 9L38 9L38 10L36 10L36 11L35 11L35 12L33 12L33 11L34 11L34 10L31 10L31 11L30 11L30 9L29 9L29 10L28 10L28 9L26 9L26 5ZM27 5L27 8L28 8L28 6L29 6L29 7L30 7L30 5ZM19 6L19 8L18 8L18 9L17 9L17 10L18 10L18 9L19 9L19 8L20 8L20 6ZM21 6L21 8L22 8L22 6ZM31 6L31 9L32 9L32 6ZM20 9L20 10L19 10L19 11L20 11L20 10L21 10L21 9ZM25 9L25 10L26 10L26 11L27 11L27 12L28 12L28 11L27 11L27 10L26 10L26 9ZM5 11L5 12L6 12L6 13L7 13L7 12L6 12L6 11ZM9 11L9 12L10 12L10 13L8 13L8 15L9 15L9 14L10 14L10 16L11 16L11 18L14 18L14 17L13 17L13 14L12 14L12 13L11 13L11 12L10 12L10 11ZM12 11L12 12L13 12L13 11ZM31 11L31 12L32 12L32 13L33 13L33 12L32 12L32 11ZM14 12L14 16L16 16L16 15L15 15L15 13L17 13L17 14L18 14L18 16L19 16L19 17L18 17L18 18L15 18L15 19L17 19L17 20L15 20L15 21L14 21L14 20L13 20L13 22L15 22L15 24L16 24L16 25L15 25L15 26L14 26L14 27L15 27L15 29L16 29L16 30L14 30L14 29L13 29L13 30L14 30L14 31L17 31L17 33L18 33L18 34L21 34L21 33L22 33L22 32L23 32L23 28L24 28L24 27L23 27L23 26L21 26L21 22L22 22L22 25L23 25L23 23L24 23L24 21L25 21L25 20L24 20L24 21L22 21L22 20L23 20L23 18L25 18L25 19L26 19L26 21L27 21L27 19L26 19L26 18L25 18L25 17L26 17L26 16L25 16L25 17L24 17L24 16L23 16L23 15L22 15L22 13L21 13L21 14L18 14L18 12ZM35 12L35 13L34 13L34 14L33 14L33 17L34 17L34 16L35 16L35 15L36 15L36 12ZM38 13L38 14L39 14L39 13ZM11 14L11 16L12 16L12 14ZM31 14L31 15L30 15L30 17L32 17L32 14ZM34 14L34 15L35 15L35 14ZM19 15L19 16L20 16L20 15ZM19 17L19 19L18 19L18 20L19 20L19 21L20 21L20 22L18 22L18 21L17 21L17 22L16 22L16 24L18 24L18 23L19 23L19 24L20 24L20 22L21 22L21 21L20 21L20 20L22 20L22 18L23 18L23 17L22 17L22 18L21 18L21 17ZM35 17L35 18L36 18L36 17ZM6 18L6 19L7 19L7 18ZM20 18L20 19L21 19L21 18ZM9 19L9 20L10 20L10 19ZM39 20L39 21L38 21L38 22L40 22L40 20ZM3 22L3 23L4 23L4 22ZM17 22L17 23L18 23L18 22ZM12 24L12 25L13 25L13 24ZM37 24L37 25L38 25L38 24ZM15 26L15 27L16 27L16 28L17 28L17 31L18 31L18 33L19 33L19 32L20 32L20 33L21 33L21 32L22 32L22 30L21 30L21 31L20 31L20 29L18 29L18 28L19 28L19 27L18 27L18 26L17 26L17 27L16 27L16 26ZM20 26L20 27L21 27L21 26ZM1 27L1 28L2 28L2 27ZM22 27L22 28L23 28L23 27ZM35 27L35 28L36 28L36 27ZM9 28L9 29L8 29L8 30L10 30L10 31L11 31L11 32L12 32L12 31L11 31L11 29L10 29L10 28ZM5 29L5 30L6 30L6 29ZM18 30L18 31L19 31L19 30ZM24 31L24 32L25 32L25 31ZM37 31L37 33L38 33L38 31ZM13 32L13 33L15 33L15 32ZM26 32L26 33L23 33L23 35L24 35L24 34L26 34L26 33L27 33L27 32ZM33 33L33 36L36 36L36 33ZM14 34L14 35L13 35L13 36L15 36L15 34ZM34 34L34 35L35 35L35 34ZM38 34L38 36L37 36L37 38L38 38L38 36L39 36L39 34ZM16 35L16 36L17 36L17 35ZM18 35L18 37L19 37L19 36L21 36L21 35ZM34 37L34 39L33 39L33 40L34 40L34 39L35 39L35 37ZM9 39L9 40L11 40L11 39ZM15 39L15 40L16 40L16 39ZM0 0L0 7L7 7L7 0ZM1 1L1 6L6 6L6 1ZM2 2L2 5L5 5L5 2ZM34 0L34 7L41 7L41 0ZM35 1L35 6L40 6L40 1ZM36 2L36 5L39 5L39 2ZM0 34L0 41L7 41L7 34ZM1 35L1 40L6 40L6 35ZM2 36L2 39L5 39L5 36Z" fill="#000000"/></g></g></svg>
